<svg xmlns="http://www.w3.org/2000/svg" id="Layer_1" data-name="Layer 1" viewBox="0 0 252.54 155.73"><defs><clipPath id="clip-path"><path d="M224.59 21.2H92.07q-.37-.45-.78-.9l-.18-.18-.26-.27-.61-.61-3.45-3.44c-8.33-8.68-21-9.71-29.87-9.71h-38l-12.5 89 4.72 4.64 7.91 8h20a41.84 41.84 0 0 0 12.14 25.32l.55.55 3.3 3.29c8.58 8.53 20.51 13 34.5 13a50.61 50.61 0 0 0 22-5.07h113.05a22 22 0 0 0 22.11-22V43.31a22.14 22.14 0 0 0-22.11-22.11z" class="cls-1"/></clipPath><style>.cls-1{fill:#ee3124}.cls-2{fill:#bfc2c8}.cls-63{fill:#f26b48}.cls-78{fill:#f37754}.cls-104{fill:#f58a68}.cls-116{fill:#f69372}.cls-135{fill:#f7a182}.cls-149{fill:#f8ac8f}.cls-252{fill:#fff}</style></defs><path d="M57.05 146.32c8.87 6.15 20 9.41 32.39 9.41a56.41 56.41 0 0 0 23.13-5.07h111.92c15.76-.22 28-12.49 28-27.94V43.16a28.08 28.08 0 0 0-28-28H94.55l-.21-.23-3.45-3.44.08.09C81 1.2 66.72 0 56.82 0H13.63L0 97.06s6.83 6.72 6.83 6.73l9.6 9.76H34c2.06 9.16 10.62 21.06 12.95 23.61a89.15 89.15 0 0 0 10.1 9.16z" class="cls-2"/><path d="M224.59 21.2H92.07q-.37-.45-.78-.9l-.18-.18-.26-.27-.61-.61-3.45-3.44c-8.33-8.68-21-9.71-29.87-9.71h-38l-12.5 89 4.72 4.64 7.91 8h20a41.84 41.84 0 0 0 12.14 25.32l.55.55 3.3 3.29c8.58 8.53 20.51 13 34.5 13a50.61 50.61 0 0 0 22-5.07h113.05a22 22 0 0 0 22.11-22V43.31a22.14 22.14 0 0 0-22.11-22.11z" class="cls-1"/><g clip-path="url(#clip-path)"><path d="M238.94 83a78.6 78.6 0 1 1-78.6-78.59A78.59 78.59 0 0 1 238.94 83z" class="cls-1"/><path fill="#ee3324" d="M238.59 82.88a78.32 78.32 0 1 1-78.32-78.31 78.32 78.32 0 0 1 78.32 78.31z"/><path fill="#ee3424" d="M238.24 82.81a78 78 0 1 1-78.05-78 78 78 0 0 1 78.05 78z"/><path fill="#ee3525" d="M237.9 82.73A77.77 77.77 0 1 1 160.12 5a77.77 77.77 0 0 1 77.78 77.73z"/><path fill="#ee3625" d="M237.55 82.65a77.5 77.5 0 1 1-77.5-77.49 77.49 77.49 0 0 1 77.5 77.49z"/><path fill="#ee3825" d="M237.2 82.57A77.22 77.22 0 1 1 160 5.36a77.22 77.22 0 0 1 77.2 77.21z"/><path fill="#ef3926" d="M236.85 82.49A76.95 76.95 0 1 1 159.9 5.56a76.94 76.94 0 0 1 76.95 76.93z"/><path fill="#ef3a26" d="M236.5 82.42a76.67 76.67 0 1 1-76.67-76.66 76.66 76.66 0 0 1 76.67 76.66z"/><path fill="#ef3b27" d="M236.16 82.34A76.4 76.4 0 1 1 159.76 6a76.39 76.39 0 0 1 76.4 76.34z"/><path fill="#ef3c27" d="M235.81 82.26a76.12 76.12 0 1 1-76.13-76.1 76.11 76.11 0 0 1 76.13 76.1z"/><path fill="#ef3d28" d="M235.46 82.18a75.85 75.85 0 1 1-75.85-75.82 75.83 75.83 0 0 1 75.85 75.82z"/><path fill="#ef3e28" d="M235.11 82.1a75.57 75.57 0 1 1-75.57-75.54 75.55 75.55 0 0 1 75.57 75.54z"/><path fill="#ef3f28" d="M234.76 82a75.29 75.29 0 1 1-75.3-75.28A75.28 75.28 0 0 1 234.76 82z"/><path fill="#ef4029" d="M234.41 82a75 75 0 1 1-75-75 75 75 0 0 1 75 75z"/><path fill="#ef412a" d="M234.07 81.87a74.75 74.75 0 1 1-74.75-74.72 74.74 74.74 0 0 1 74.75 74.72z"/><path fill="#ef422a" d="M233.72 81.79a74.47 74.47 0 1 1-74.48-74.44 74.46 74.46 0 0 1 74.48 74.44z"/><path fill="#ef432b" d="M233.37 81.71a74.2 74.2 0 1 1-74.2-74.16 74.18 74.18 0 0 1 74.2 74.16z"/><path fill="#ef442b" d="M233 81.64a73.92 73.92 0 1 1-73.9-73.89A73.9 73.9 0 0 1 233 81.64z"/><path fill="#ef452c" d="M232.67 81.56A73.64 73.64 0 1 1 159 8a73.62 73.62 0 0 1 73.67 73.56z"/><path fill="#ef462c" d="M232.33 81.48A73.37 73.37 0 1 1 159 8.15a73.36 73.36 0 0 1 73.33 73.33z"/><path fill="#ef472d" d="M232 81.4a73.1 73.1 0 1 1-73.1-73.05A73.07 73.07 0 0 1 232 81.4z"/><path fill="#ef482d" d="M231.63 81.33a72.82 72.82 0 1 1-72.82-72.78 72.8 72.8 0 0 1 72.82 72.78z"/><path fill="#f0492e" d="M231.28 81.25a72.54 72.54 0 1 1-72.55-72.51 72.52 72.52 0 0 1 72.55 72.51z"/><path fill="#f04a2f" d="M230.93 81.17a72.27 72.27 0 1 1-72.27-72.23 72.25 72.25 0 0 1 72.27 72.23z"/><path fill="#f04b2f" d="M230.58 81.09a72 72 0 1 1-72-71.95 72 72 0 0 1 72 71.95z"/><path fill="#f04c30" d="M230.24 81a71.72 71.72 0 1 1-71.73-71.66A71.71 71.71 0 0 1 230.24 81z"/><path fill="#f04d30" d="M229.89 80.94a71.44 71.44 0 1 1-71.45-71.4 71.42 71.42 0 0 1 71.45 71.4z"/><path fill="#f04e31" d="M229.54 80.86a71.17 71.17 0 1 1-71.17-71.12 71.15 71.15 0 0 1 71.17 71.12z"/><path fill="#f04f31" d="M229.19 80.78A70.89 70.89 0 1 1 158.3 9.94a70.86 70.86 0 0 1 70.89 70.84z"/><path fill="#f05032" d="M228.84 80.7a70.62 70.62 0 1 1-70.62-70.56 70.59 70.59 0 0 1 70.62 70.56z"/><path fill="#f05133" d="M228.49 80.62a70.34 70.34 0 1 1-70.34-70.28 70.31 70.31 0 0 1 70.34 70.28z"/><path fill="#f05233" d="M228.15 80.55a70.07 70.07 0 1 1-70.07-70 70 70 0 0 1 70.07 70z"/><path fill="#f05334" d="M227.8 80.47A69.79 69.79 0 1 1 158 10.73a69.76 69.76 0 0 1 69.8 69.74z"/><path fill="#f05435" d="M227.45 80.39a69.52 69.52 0 1 1-69.52-69.46 69.49 69.49 0 0 1 69.52 69.46z"/><path fill="#f05535" d="M227.1 80.31a69.24 69.24 0 1 1-69.24-69.18 69.2 69.2 0 0 1 69.24 69.18z"/><path fill="#f05636" d="M226.75 80.24a69 69 0 1 1-69-68.91 68.93 68.93 0 0 1 69 68.91z"/><path fill="#f15736" d="M226.41 80.16a68.69 68.69 0 1 1-68.7-68.63 68.66 68.66 0 0 1 68.7 68.63z"/><path fill="#f15837" d="M226.06 80.08a68.42 68.42 0 1 1-68.42-68.35 68.39 68.39 0 0 1 68.42 68.35z"/><path fill="#f15838" d="M225.71 80a68.14 68.14 0 1 1-68.14-68.07A68.11 68.11 0 0 1 225.71 80z"/><path fill="#f15938" d="M225.36 79.92a67.86 67.86 0 1 1-67.87-67.79 67.83 67.83 0 0 1 67.87 67.79z"/><path fill="#f15a39" d="M225 79.85a67.59 67.59 0 1 1-67.59-67.52A67.55 67.55 0 0 1 225 79.85z"/><path fill="#f15b3a" d="M224.66 79.77a67.31 67.31 0 1 1-67.31-67.25 67.27 67.27 0 0 1 67.31 67.25z"/><path fill="#f15c3a" d="M224.32 79.69a67 67 0 1 1-67-67 67 67 0 0 1 67 67z"/><path fill="#f15d3b" d="M224 79.61a66.77 66.77 0 1 1-66.8-66.69A66.73 66.73 0 0 1 224 79.61z"/><path fill="#f15e3c" d="M223.62 79.53a66.49 66.49 0 1 1-66.49-66.41 66.45 66.45 0 0 1 66.49 66.41z"/><path fill="#f15e3d" d="M223.27 79.46a66.21 66.21 0 1 1-66.22-66.14 66.17 66.17 0 0 1 66.22 66.14z"/><path fill="#f15f3d" d="M222.92 79.38A65.94 65.94 0 1 1 157 13.52a65.89 65.89 0 0 1 65.92 65.86z"/><path fill="#f1603e" d="M222.57 79.3a65.66 65.66 0 1 1-65.66-65.58 65.61 65.61 0 0 1 65.66 65.58z"/><path fill="#f1613f" d="M222.23 79.22a65.39 65.39 0 1 1-65.39-65.3 65.35 65.35 0 0 1 65.39 65.3z"/><path fill="#f1623f" d="M221.88 79.14a65.11 65.11 0 1 1-65.12-65 65.07 65.07 0 0 1 65.12 65z"/><path fill="#f16240" d="M221.53 79.07a64.84 64.84 0 1 1-64.84-64.75 64.8 64.8 0 0 1 64.84 64.75z"/><path fill="#f16341" d="M221.18 79a64.56 64.56 0 1 1-64.56-64.48A64.52 64.52 0 0 1 221.18 79z"/><path fill="#f26442" d="M220.83 78.91a64.29 64.29 0 1 1-64.29-64.2 64.24 64.24 0 0 1 64.29 64.2z"/><path fill="#f26542" d="M220.49 78.83a64 64 0 1 1-64-63.92 64 64 0 0 1 64 63.92z"/><path fill="#f26643" d="M220.14 78.76a63.74 63.74 0 1 1-63.74-63.65 63.69 63.69 0 0 1 63.74 63.65z"/><path fill="#f26744" d="M219.79 78.68a63.46 63.46 0 1 1-63.47-63.37 63.42 63.42 0 0 1 63.47 63.37z"/><path fill="#f26745" d="M219.44 78.6a63.19 63.19 0 1 1-63.19-63.09 63.14 63.14 0 0 1 63.19 63.09z"/><path fill="#f26845" d="M219.09 78.52a62.91 62.91 0 1 1-62.91-62.81 62.86 62.86 0 0 1 62.91 62.81z"/><path fill="#f26946" d="M218.74 78.44a62.63 62.63 0 1 1-62.63-62.53 62.58 62.58 0 0 1 62.63 62.53z"/><path fill="#f26a47" d="M218.4 78.37A62.36 62.36 0 1 1 156 16.11a62.32 62.32 0 0 1 62.4 62.26z"/><path d="M218.05 78.29A62.09 62.09 0 1 1 156 16.3a62 62 0 0 1 62.05 61.99z" class="cls-63"/><path d="M217.7 78.21a61.81 61.81 0 1 1-61.81-61.71 61.77 61.77 0 0 1 61.81 61.71z" class="cls-63"/><path fill="#f26c49" d="M217.35 78.13a61.53 61.53 0 1 1-61.54-61.43 61.48 61.48 0 0 1 61.54 61.43z"/><path fill="#f26d4a" d="M217 78.05a61.26 61.26 0 1 1-61.26-61.15A61.21 61.21 0 0 1 217 78.05z"/><path fill="#f26e4b" d="M216.65 78a61 61 0 1 1-61-60.88 60.92 60.92 0 0 1 61 60.88z"/><path fill="#f26f4b" d="M216.31 77.9a60.71 60.71 0 1 1-60.72-60.6 60.66 60.66 0 0 1 60.72 60.6z"/><path fill="#f36f4c" d="M216 77.82a60.44 60.44 0 1 1-60.48-60.32A60.38 60.38 0 0 1 216 77.82z"/><path fill="#f3704d" d="M215.61 77.74a60.16 60.16 0 1 1-60.16-60 60.11 60.11 0 0 1 60.16 60z"/><path fill="#f3714e" d="M215.26 77.67a59.88 59.88 0 1 1-59.88-59.77 59.82 59.82 0 0 1 59.88 59.77z"/><path fill="#f3724e" d="M214.91 77.59A59.61 59.61 0 1 1 155.3 18.1a59.55 59.55 0 0 1 59.61 59.49z"/><path fill="#f3724f" d="M214.57 77.51a59.34 59.34 0 1 1-59.34-59.22 59.27 59.27 0 0 1 59.34 59.22z"/><path fill="#f37350" d="M214.22 77.43a59.06 59.06 0 1 1-59.06-58.94 59 59 0 0 1 59.06 58.94z"/><path fill="#f37451" d="M213.87 77.35a58.78 58.78 0 1 1-58.79-58.66 58.72 58.72 0 0 1 58.79 58.66z"/><path fill="#f37551" d="M213.52 77.28A58.51 58.51 0 1 1 155 18.89a58.45 58.45 0 0 1 58.52 58.39z"/><path fill="#f37552" d="M213.17 77.2a58.23 58.23 0 1 1-58.23-58.11 58.17 58.17 0 0 1 58.23 58.11z"/><path fill="#f37653" d="M212.82 77.12a58 58 0 1 1-58-57.83 57.89 57.89 0 0 1 58 57.83z"/><path d="M212.48 77a57.68 57.68 0 1 1-57.69-57.55A57.63 57.63 0 0 1 212.48 77z" class="cls-78"/><path d="M212.13 77a57.41 57.41 0 1 1-57.41-57.27A57.35 57.35 0 0 1 212.13 77z" class="cls-78"/><path fill="#f37855" d="M211.78 76.89a57.13 57.13 0 1 1-57.13-57 57.07 57.07 0 0 1 57.13 57z"/><path fill="#f37956" d="M211.43 76.81a56.86 56.86 0 1 1-56.86-56.73 56.79 56.79 0 0 1 56.86 56.73z"/><path fill="#f37a57" d="M211.08 76.73a56.58 56.58 0 1 1-56.58-56.45 56.51 56.51 0 0 1 56.58 56.45z"/><path fill="#f47a57" d="M210.73 76.65a56.3 56.3 0 1 1-56.3-56.17 56.23 56.23 0 0 1 56.3 56.17z"/><path fill="#f47b58" d="M210.39 76.57a56 56 0 1 1-56-55.89 56 56 0 0 1 56 55.89z"/><path fill="#f47c59" d="M210 76.5a55.76 55.76 0 1 1-55.76-55.62A55.68 55.68 0 0 1 210 76.5z"/><path fill="#f47c5a" d="M209.69 76.42a55.48 55.48 0 1 1-55.48-55.34 55.41 55.41 0 0 1 55.48 55.34z"/><path fill="#f47d5a" d="M209.34 76.34a55.2 55.2 0 1 1-55.21-55.06 55.14 55.14 0 0 1 55.21 55.06z"/><path fill="#f47e5b" d="M209 76.26a54.93 54.93 0 1 1-54.93-54.78A54.86 54.86 0 0 1 209 76.26z"/><path fill="#f47e5c" d="M208.65 76.19A54.66 54.66 0 1 1 154 21.68a54.58 54.58 0 0 1 54.65 54.51z"/><path fill="#f47f5d" d="M208.3 76.11a54.38 54.38 0 1 1-54.38-54.23 54.31 54.31 0 0 1 54.38 54.23z"/><path fill="#f4805d" d="M208 76a54.11 54.11 0 1 1-54.11-54A54 54 0 0 1 208 76z"/><path fill="#f4815e" d="M207.6 76a53.83 53.83 0 1 1-53.83-53.68A53.75 53.75 0 0 1 207.6 76z"/><path fill="#f4815f" d="M207.25 75.87a53.55 53.55 0 1 1-53.55-53.4 53.48 53.48 0 0 1 53.55 53.4z"/><path fill="#f48260" d="M206.9 75.8a53.28 53.28 0 1 1-53.28-53.13A53.2 53.2 0 0 1 206.9 75.8z"/><path fill="#f48360" d="M206.56 75.72a53 53 0 1 1-53-52.85 52.93 52.93 0 0 1 53 52.85z"/><path fill="#f48361" d="M206.21 75.64a52.73 52.73 0 1 1-52.73-52.57 52.65 52.65 0 0 1 52.73 52.57z"/><path fill="#f48462" d="M205.86 75.56a52.45 52.45 0 1 1-52.46-52.29 52.38 52.38 0 0 1 52.46 52.29z"/><path fill="#f58562" d="M205.51 75.48a52.18 52.18 0 1 1-52.18-52 52.09 52.09 0 0 1 52.18 52z"/><path fill="#f58563" d="M205.16 75.41a51.9 51.9 0 1 1-51.9-51.74 51.82 51.82 0 0 1 51.9 51.74z"/><path fill="#f58664" d="M204.82 75.33a51.63 51.63 0 1 1-51.63-51.47 51.55 51.55 0 0 1 51.63 51.47z"/><path fill="#f58765" d="M204.47 75.25a51.35 51.35 0 1 1-51.36-51.19 51.28 51.28 0 0 1 51.36 51.19z"/><path fill="#f58865" d="M204.12 75.17A51.08 51.08 0 1 1 153 24.26a51 51 0 0 1 51.12 50.91z"/><path fill="#f58866" d="M203.77 75.1A50.8 50.8 0 1 1 153 24.46a50.72 50.72 0 0 1 50.77 50.64z"/><path fill="#f58967" d="M203.42 75a50.53 50.53 0 1 1-50.53-50.36A50.44 50.44 0 0 1 203.42 75z"/><path d="M203.07 74.94a50.25 50.25 0 1 1-50.25-50.08 50.17 50.17 0 0 1 50.25 50.08z" class="cls-104"/><path d="M202.73 74.86a50 50 0 1 1-50-49.8 49.89 49.89 0 0 1 50 49.8z" class="cls-104"/><path fill="#f58b69" d="M202.38 74.78a49.7 49.7 0 1 1-49.71-49.52 49.62 49.62 0 0 1 49.71 49.52z"/><path fill="#f58c6a" d="M202 74.71a49.43 49.43 0 1 1-49.4-49.25A49.34 49.34 0 0 1 202 74.71z"/><path fill="#f58c6b" d="M201.68 74.63a49.15 49.15 0 1 1-49.15-49 49.06 49.06 0 0 1 49.15 49z"/><path fill="#f58d6b" d="M201.33 74.55a48.87 48.87 0 1 1-48.87-48.7 48.78 48.78 0 0 1 48.87 48.7z"/><path fill="#f58e6c" d="M201 74.47a48.6 48.6 0 1 1-48.6-48.42A48.51 48.51 0 0 1 201 74.47z"/><path fill="#f58f6d" d="M200.64 74.39a48.33 48.33 0 1 1-48.33-48.14 48.24 48.24 0 0 1 48.33 48.14z"/><path fill="#f68f6e" d="M200.29 74.32a48.05 48.05 0 1 1-48-47.87 48 48 0 0 1 48 47.87z"/><path fill="#f6906f" d="M199.94 74.24a47.78 47.78 0 1 1-47.78-47.59 47.69 47.69 0 0 1 47.78 47.59z"/><path fill="#f6916f" d="M199.59 74.16a47.5 47.5 0 1 1-47.5-47.31 47.41 47.41 0 0 1 47.5 47.31z"/><path fill="#f69170" d="M199.24 74.08a47.22 47.22 0 1 1-47.22-47 47.13 47.13 0 0 1 47.22 47z"/><path fill="#f69271" d="M198.9 74a47 47 0 1 1-47-46.75 46.86 46.86 0 0 1 47 46.75z"/><path d="M198.55 73.93a46.68 46.68 0 1 1-46.68-46.48 46.58 46.58 0 0 1 46.68 46.48z" class="cls-116"/><path d="M198.2 73.85a46.4 46.4 0 1 1-46.4-46.2 46.3 46.3 0 0 1 46.4 46.2z" class="cls-116"/><path fill="#f69473" d="M197.85 73.77a46.12 46.12 0 1 1-46.12-45.93 46 46 0 0 1 46.12 45.93z"/><path fill="#f69574" d="M197.5 73.69A45.85 45.85 0 1 1 151.65 28a45.75 45.75 0 0 1 45.85 45.69z"/><path fill="#f69575" d="M197.15 73.62a45.57 45.57 0 1 1-45.57-45.38 45.47 45.47 0 0 1 45.57 45.38z"/><path fill="#f69675" d="M196.81 73.54a45.3 45.3 0 1 1-45.3-45.1 45.2 45.2 0 0 1 45.3 45.1z"/><path fill="#f69776" d="M196.46 73.46a45 45 0 1 1-45-44.82 44.93 44.93 0 0 1 45 44.82z"/><path fill="#f69777" d="M196.11 73.38a44.75 44.75 0 1 1-44.75-44.54 44.66 44.66 0 0 1 44.75 44.54z"/><path fill="#f69878" d="M195.76 73.3A44.47 44.47 0 1 1 151.29 29a44.37 44.37 0 0 1 44.47 44.3z"/><path fill="#f69979" d="M195.41 73.23a44.2 44.2 0 1 1-44.2-44 44.1 44.1 0 0 1 44.2 44z"/><path fill="#f69a79" d="M195.06 73.15a43.92 43.92 0 1 1-43.92-43.71 43.81 43.81 0 0 1 43.92 43.71z"/><path fill="#f79a7a" d="M194.72 73.07a43.65 43.65 0 1 1-43.65-43.44 43.55 43.55 0 0 1 43.65 43.44z"/><path fill="#f79b7b" d="M194.37 73A43.37 43.37 0 1 1 151 29.83 43.26 43.26 0 0 1 194.37 73z"/><path fill="#f79c7c" d="M194 72.91A43.1 43.1 0 1 1 150.92 30 43 43 0 0 1 194 72.91z"/><path fill="#f79c7d" d="M193.67 72.84a42.82 42.82 0 1 1-42.82-42.61 42.71 42.71 0 0 1 42.82 42.61z"/><path fill="#f79d7d" d="M193.32 72.76a42.54 42.54 0 1 1-42.54-42.33 42.44 42.44 0 0 1 42.54 42.33z"/><path fill="#f79e7e" d="M193 72.68a42.27 42.27 0 1 1-42.3-42.05A42.16 42.16 0 0 1 193 72.68z"/><path fill="#f79f7f" d="M192.63 72.6a42 42 0 1 1-42-41.77 41.89 41.89 0 0 1 42 41.77z"/><path fill="#f79f80" d="M192.28 72.53A41.72 41.72 0 1 1 150.56 31a41.61 41.61 0 0 1 41.72 41.53z"/><path fill="#f7a081" d="M191.93 72.45a41.45 41.45 0 1 1-41.45-41.22 41.34 41.34 0 0 1 41.45 41.22z"/><path d="M191.58 72.37a41.17 41.17 0 1 1-41.17-40.94 41.05 41.05 0 0 1 41.17 40.94z" class="cls-135"/><path d="M191.23 72.29a40.89 40.89 0 1 1-40.89-40.67 40.78 40.78 0 0 1 40.89 40.67z" class="cls-135"/><path fill="#f7a283" d="M190.89 72.21a40.62 40.62 0 1 1-40.62-40.39 40.51 40.51 0 0 1 40.62 40.39z"/><path fill="#f7a384" d="M190.54 72.14A40.35 40.35 0 1 1 150.19 32a40.23 40.23 0 0 1 40.35 40.14z"/><path fill="#f8a485" d="M190.19 72.06a40.07 40.07 0 1 1-40.07-39.84 39.95 39.95 0 0 1 40.07 39.84z"/><path fill="#f8a486" d="M189.84 72a39.79 39.79 0 1 1-39.79-39.56A39.68 39.68 0 0 1 189.84 72z"/><path fill="#f8a587" d="M189.49 71.9A39.52 39.52 0 1 1 150 32.62a39.4 39.4 0 0 1 39.49 39.28z"/><path fill="#f8a688" d="M189.14 71.82a39.24 39.24 0 1 1-39.24-39 39.12 39.12 0 0 1 39.24 39z"/><path fill="#f8a788" d="M188.8 71.75a39 39 0 1 1-39-38.73 38.85 38.85 0 0 1 39 38.73z"/><path fill="#f8a789" d="M188.45 71.67a38.69 38.69 0 1 1-38.7-38.45 38.57 38.57 0 0 1 38.7 38.45z"/><path fill="#f8a88a" d="M188.1 71.59a38.42 38.42 0 1 1-38.42-38.18 38.3 38.3 0 0 1 38.42 38.18z"/><path fill="#f8a98b" d="M187.75 71.51a38.14 38.14 0 1 1-38.14-37.9 38 38 0 0 1 38.14 37.9z"/><path fill="#f8a98c" d="M187.4 71.43a37.87 37.87 0 1 1-37.86-37.62 37.75 37.75 0 0 1 37.86 37.62z"/><path fill="#f8aa8d" d="M187.06 71.36A37.59 37.59 0 1 1 149.46 34a37.48 37.48 0 0 1 37.6 37.36z"/><path fill="#f8ab8e" d="M186.71 71.28a37.32 37.32 0 1 1-37.32-37.07 37.2 37.2 0 0 1 37.32 37.07z"/><path d="M186.36 71.2a37 37 0 1 1-37-36.79 36.92 36.92 0 0 1 37 36.79z" class="cls-149"/><path d="M186 71.12a36.77 36.77 0 1 1-36.77-36.51A36.64 36.64 0 0 1 186 71.12z" class="cls-149"/><path fill="#f8ad90" d="M185.66 71.05a36.49 36.49 0 1 1-36.49-36.24 36.36 36.36 0 0 1 36.49 36.24z"/><path fill="#f8ae91" d="M185.31 71a36.21 36.21 0 1 1-36.21-36 36.08 36.08 0 0 1 36.21 36z"/><path fill="#f8af92" d="M185 70.89a35.94 35.94 0 1 1-36-35.68 35.82 35.82 0 0 1 36 35.68z"/><path fill="#f9af93" d="M184.62 70.81A35.67 35.67 0 1 1 149 35.4a35.54 35.54 0 0 1 35.62 35.41z"/><path fill="#f9b094" d="M184.27 70.73a35.39 35.39 0 1 1-35.39-35.13 35.26 35.26 0 0 1 35.39 35.13z"/><path fill="#f9b195" d="M183.92 70.66a35.12 35.12 0 1 1-35.11-34.86 35 35 0 0 1 35.11 34.86z"/><path fill="#f9b296" d="M183.57 70.58A34.84 34.84 0 1 1 148.73 36a34.72 34.72 0 0 1 34.84 34.58z"/><path fill="#f9b297" d="M183.22 70.5a34.56 34.56 0 1 1-34.56-34.3 34.43 34.43 0 0 1 34.56 34.3z"/><path fill="#f9b398" d="M182.88 70.42a34.29 34.29 0 1 1-34.29-34 34.17 34.17 0 0 1 34.29 34z"/><path fill="#f9b499" d="M182.53 70.34a34 34 0 1 1-34-33.74 33.88 33.88 0 0 1 34 33.74z"/><path fill="#f9b599" d="M182.18 70.27a33.74 33.74 0 1 1-33.74-33.47 33.61 33.61 0 0 1 33.74 33.47z"/><path fill="#f9b59a" d="M181.83 70.19A33.46 33.46 0 1 1 148.37 37a33.33 33.33 0 0 1 33.46 33.19z"/><path fill="#f9b69b" d="M181.48 70.11a33.19 33.19 0 1 1-33.19-32.92 33.06 33.06 0 0 1 33.19 32.92z"/><path fill="#f9b79c" d="M181.14 70a32.92 32.92 0 1 1-32.92-32.64A32.78 32.78 0 0 1 181.14 70z"/><path fill="#f9b89d" d="M180.79 70a32.64 32.64 0 1 1-32.64-32.37A32.51 32.51 0 0 1 180.79 70z"/><path fill="#f9b89e" d="M180.44 69.88a32.36 32.36 0 1 1-32.36-32.09 32.22 32.22 0 0 1 32.36 32.09z"/><path fill="#fab99f" d="M180.09 69.8A32.09 32.09 0 1 1 148 38a32 32 0 0 1 32.09 31.8z"/><path fill="#fabaa0" d="M179.74 69.72a31.81 31.81 0 1 1-31.81-31.53 31.67 31.67 0 0 1 31.81 31.53z"/><path fill="#fabba1" d="M179.39 69.64a31.54 31.54 0 1 1-31.53-31.25 31.4 31.4 0 0 1 31.53 31.25z"/><path fill="#fabba2" d="M179.05 69.57a31.26 31.26 0 1 1-31.27-31 31.12 31.12 0 0 1 31.27 31z"/><path fill="#fabca3" d="M178.7 69.49a31 31 0 1 1-31-30.7 30.85 30.85 0 0 1 31 30.7z"/><path fill="#fabda4" d="M178.35 69.41A30.71 30.71 0 1 1 147.64 39a30.57 30.57 0 0 1 30.71 30.41z"/><path fill="#fabea5" d="M178 69.33a30.44 30.44 0 1 1-30.43-30.15A30.3 30.3 0 0 1 178 69.33z"/><path fill="#fabea6" d="M177.65 69.25a30.16 30.16 0 1 1-30.16-29.87 30 30 0 0 1 30.16 29.87z"/><path fill="#fabfa7" d="M177.31 69.18a29.89 29.89 0 1 1-29.89-29.6 29.75 29.75 0 0 1 29.89 29.6z"/><path fill="#fac0a8" d="M177 69.1a29.61 29.61 0 1 1-29.61-29.32A29.47 29.47 0 0 1 177 69.1z"/><path fill="#fac1a9" d="M176.61 69a29.34 29.34 0 1 1-29.34-29 29.19 29.19 0 0 1 29.34 29z"/><path fill="#fac1aa" d="M176.26 68.94a29.06 29.06 0 1 1-29.06-28.76 28.92 28.92 0 0 1 29.06 28.76z"/><path fill="#fac2ab" d="M175.91 68.87a28.78 28.78 0 1 1-28.78-28.49 28.63 28.63 0 0 1 28.78 28.49z"/><path fill="#fac3ac" d="M175.56 68.79a28.51 28.51 0 1 1-28.51-28.21 28.36 28.36 0 0 1 28.51 28.21z"/><path fill="#fac4ad" d="M175.22 68.71A28.24 28.24 0 1 1 147 40.78a28.09 28.09 0 0 1 28.22 27.93z"/><path fill="#fac4ae" d="M174.87 68.63a28 28 0 1 1-28-27.65 27.82 27.82 0 0 1 28 27.65z"/><path fill="#fbc5af" d="M174.52 68.55a27.69 27.69 0 1 1-27.68-27.38 27.54 27.54 0 0 1 27.68 27.38z"/><path fill="#fbc6b0" d="M174.17 68.48a27.41 27.41 0 1 1-27.41-27.11 27.26 27.26 0 0 1 27.41 27.11z"/><path fill="#fbc7b1" d="M173.82 68.4a27.13 27.13 0 1 1-27.13-26.83 27 27 0 0 1 27.13 26.83z"/><path fill="#fbc8b1" d="M173.47 68.32a26.86 26.86 0 1 1-26.85-26.55 26.7 26.7 0 0 1 26.85 26.55z"/><path fill="#fbc8b2" d="M173.13 68.24A26.59 26.59 0 1 1 146.54 42a26.43 26.43 0 0 1 26.59 26.24z"/><path fill="#fbc9b3" d="M172.78 68.16a26.31 26.31 0 1 1-26.31-26 26.16 26.16 0 0 1 26.31 26z"/><path fill="#fbcab4" d="M172.43 68.09a26 26 0 1 1-26-25.72 25.87 25.87 0 0 1 26 25.72z"/><path fill="#fbcbb5" d="M172.08 68a25.76 25.76 0 1 1-25.76-25.44A25.6 25.6 0 0 1 172.08 68z"/><path fill="#fbcbb6" d="M171.73 67.93a25.48 25.48 0 1 1-25.48-25.16 25.33 25.33 0 0 1 25.48 25.16z"/><path fill="#fbccb7" d="M171.39 67.85A25.21 25.21 0 1 1 146.18 43a25.05 25.05 0 0 1 25.21 24.85z"/><path fill="#fbcdb8" d="M171 67.77a24.93 24.93 0 1 1-24.93-24.61A24.79 24.79 0 0 1 171 67.77z"/><path fill="#fbceb9" d="M170.69 67.7A24.66 24.66 0 1 1 146 43.36a24.5 24.5 0 0 1 24.69 24.34z"/><path fill="#fbceba" d="M170.34 67.62A24.38 24.38 0 1 1 146 43.56a24.23 24.23 0 0 1 24.34 24.06z"/><path fill="#fbcfbb" d="M170 67.54a24.11 24.11 0 1 1-24.1-23.78A23.94 23.94 0 0 1 170 67.54z"/><path fill="#fbd0bc" d="M169.64 67.46A23.83 23.83 0 1 1 145.81 44a23.67 23.67 0 0 1 23.83 23.46z"/><path fill="#fbd1bd" d="M169.3 67.39a23.56 23.56 0 1 1-23.56-23.23 23.4 23.4 0 0 1 23.56 23.23z"/><path fill="#fcd1be" d="M169 67.31a23.28 23.28 0 1 1-23.28-23 23.12 23.12 0 0 1 23.28 23z"/><path fill="#fcd2bf" d="M168.6 67.23a23 23 0 1 1-23-22.67 22.84 22.84 0 0 1 23 22.67z"/><path fill="#fcd3c0" d="M168.25 67.15a22.73 22.73 0 1 1-22.73-22.39 22.57 22.57 0 0 1 22.73 22.39z"/><path fill="#fcd4c1" d="M167.9 67.07A22.45 22.45 0 1 1 145.45 45a22.28 22.28 0 0 1 22.45 22.07z"/><path fill="#fcd4c2" d="M167.55 67a22.18 22.18 0 1 1-22.17-21.85A22 22 0 0 1 167.55 67z"/><path fill="#fcd5c3" d="M167.21 66.92a21.91 21.91 0 1 1-21.91-21.57 21.74 21.74 0 0 1 21.91 21.57z"/><path fill="#fcd6c4" d="M166.86 66.84a21.63 21.63 0 1 1-21.63-21.29 21.47 21.47 0 0 1 21.63 21.29z"/><path fill="#fcd7c5" d="M166.51 66.76a21.36 21.36 0 1 1-21.35-21 21.19 21.19 0 0 1 21.35 21z"/><path fill="#fcd7c7" d="M166.16 66.68A21.08 21.08 0 1 1 145.08 46a20.92 20.92 0 0 1 21.08 20.68z"/><path fill="#fcd8c8" d="M165.81 66.61A20.8 20.8 0 1 1 145 46.15a20.64 20.64 0 0 1 20.81 20.46z"/><path fill="#fcd9c9" d="M165.47 66.53a20.53 20.53 0 1 1-20.53-20.18 20.37 20.37 0 0 1 20.53 20.18z"/><path fill="#fcdaca" d="M165.12 66.45a20.26 20.26 0 1 1-20.26-19.9 20.09 20.09 0 0 1 20.26 19.9z"/><path fill="#fcdacb" d="M164.77 66.37a20 20 0 1 1-20-19.63 19.81 19.81 0 0 1 20 19.63z"/><path fill="#fcdbcc" d="M164.42 66.3a19.7 19.7 0 1 1-19.7-19.36 19.53 19.53 0 0 1 19.7 19.36z"/><path fill="#fcdccd" d="M164.07 66.22a19.43 19.43 0 1 1-19.42-19.08 19.25 19.25 0 0 1 19.42 19.08z"/><path fill="#fcddce" d="M163.72 66.14a19.15 19.15 0 1 1-19.15-18.8 19 19 0 0 1 19.15 18.8z"/><path fill="#fcdecf" d="M163.38 66.06a18.88 18.88 0 1 1-18.88-18.52 18.71 18.71 0 0 1 18.88 18.52z"/><path fill="#fcded0" d="M163 66a18.6 18.6 0 1 1-18.6-18.24A18.43 18.43 0 0 1 163 66z"/><path fill="#fcdfd1" d="M162.68 65.91a18.33 18.33 0 1 1-18.33-18 18.16 18.16 0 0 1 18.33 18z"/><path fill="#fce0d2" d="M162.33 65.83a18.05 18.05 0 1 1-18.05-17.69 17.88 17.88 0 0 1 18.05 17.69z"/><path fill="#fde1d3" d="M162 65.75a17.78 17.78 0 1 1-17.77-17.41A17.6 17.6 0 0 1 162 65.75z"/><path fill="#fde1d4" d="M161.63 65.67a17.5 17.5 0 1 1-17.5-17.13 17.32 17.32 0 0 1 17.5 17.13z"/><path fill="#fde2d5" d="M161.29 65.59a17.23 17.23 0 1 1-17.23-16.86 17.05 17.05 0 0 1 17.23 16.86z"/><path fill="#fde3d6" d="M160.94 65.52A17 17 0 1 1 144 48.93a16.77 16.77 0 0 1 16.94 16.59z"/><path fill="#fde4d7" d="M160.59 65.44a16.68 16.68 0 1 1-16.67-16.31 16.49 16.49 0 0 1 16.67 16.31z"/><path fill="#fde4d8" d="M160.24 65.36a16.4 16.4 0 1 1-16.4-16 16.22 16.22 0 0 1 16.4 16z"/><path fill="#fde5d9" d="M159.89 65.28a16.12 16.12 0 1 1-16.12-15.75 15.95 15.95 0 0 1 16.12 15.75z"/><path fill="#fde6db" d="M159.55 65.2a15.85 15.85 0 1 1-15.85-15.47 15.67 15.67 0 0 1 15.85 15.47z"/><path fill="#fde7dc" d="M159.2 65.13a15.58 15.58 0 1 1-15.58-15.2 15.4 15.4 0 0 1 15.58 15.2z"/><path fill="#fde7dd" d="M158.85 65.05a15.3 15.3 0 1 1-15.3-14.92 15.11 15.11 0 0 1 15.3 14.92z"/><path fill="#fde8de" d="M158.5 65a15 15 0 1 1-15-14.64 14.85 14.85 0 0 1 15 14.64z"/><path fill="#fde9df" d="M158.15 64.89a14.75 14.75 0 1 1-14.75-14.36 14.57 14.57 0 0 1 14.75 14.36z"/><path fill="#fdeae0" d="M157.8 64.82a14.47 14.47 0 1 1-14.47-14.1 14.29 14.29 0 0 1 14.47 14.1z"/><path fill="#fdebe1" d="M157.46 64.74a14.21 14.21 0 1 1-14.2-13.82 14 14 0 0 1 14.2 13.82z"/><path fill="#fdebe3" d="M157.11 64.66a13.93 13.93 0 1 1-13.92-13.54 13.74 13.74 0 0 1 13.92 13.54z"/><path fill="#fdece4" d="M156.76 64.58a13.65 13.65 0 1 1-13.65-13.26 13.46 13.46 0 0 1 13.65 13.26z"/><path fill="#fdede5" d="M156.41 64.5a13.38 13.38 0 1 1-13.37-13 13.19 13.19 0 0 1 13.37 13z"/><path fill="#fdeee6" d="M156.06 64.43A13.1 13.1 0 1 1 143 51.72a12.9 12.9 0 0 1 13.06 12.71z"/><path fill="#fdeee7" d="M155.71 64.35a12.83 12.83 0 1 1-12.82-12.43 12.63 12.63 0 0 1 12.82 12.43z"/><path fill="#fdefe8" d="M155.37 64.27a12.56 12.56 0 1 1-12.55-12.15 12.36 12.36 0 0 1 12.55 12.15z"/><path fill="#fdf0e9" d="M155 64.19a12.28 12.28 0 1 1-12.27-11.87A12.08 12.08 0 0 1 155 64.19z"/><path fill="#fdf1ea" d="M154.67 64.11a12 12 0 1 1-12-11.6 11.8 11.8 0 0 1 12 11.6z"/><path fill="#fef2ec" d="M154.32 64a11.73 11.73 0 1 1-11.72-11.29A11.53 11.53 0 0 1 154.32 64z"/><path fill="#fef2ed" d="M154 64a11.45 11.45 0 1 1-11.44-11.05A11.25 11.25 0 0 1 154 64z"/><path fill="#fef3ee" d="M153.63 63.88a11.18 11.18 0 1 1-11.17-10.77 11 11 0 0 1 11.17 10.77z"/><path fill="#fef4ef" d="M153.28 63.8a10.9 10.9 0 1 1-10.9-10.49 10.71 10.71 0 0 1 10.9 10.49z"/><path fill="#fef5f0" d="M152.93 63.73a10.63 10.63 0 1 1-10.62-10.22 10.43 10.43 0 0 1 10.62 10.22z"/><ellipse cx="142.24" cy="63.65" fill="#fef6f2" rx="10.34" ry="9.94"/><ellipse cx="142.16" cy="63.57" fill="#fef7f3" rx="10.07" ry="9.66"/><ellipse cx="142.09" cy="63.49" fill="#fef8f4" rx="9.79" ry="9.39"/><ellipse cx="142.02" cy="63.41" fill="#fef8f6" rx="9.52" ry="9.11"/><ellipse cx="141.94" cy="63.34" fill="#fefaf7" rx="9.24" ry="8.83"/><ellipse cx="141.87" cy="63.26" fill="#fefbf9" rx="8.97" ry="8.55"/></g><path d="M213.93 34.88a38.76 38.76 0 0 0-34.47 11.41V44.2l-8-8h-21.1l-43.27 56.65-5.46 17 8.46 8.67H138l-1.11 7.48 8.13 8.24h21.4l2.57-17a33.25 33.25 0 0 0 14.17-8.28l-11.81 15.17 10.07 10.07h21.76L228 101.78s9.33-11.59 11.7-18.22v-.1a36.91 36.91 0 0 0 2.33-7c4.72-20.56-8.18-38.08-28.1-41.58z" class="cls-1"/><path d="M30.46 13.48h-5.14l-11.1 78.93 2.12 2.08 5.77 5.88h24v1.14c0 10.57 3.57 19.65 10.33 26.28l3.91 3.9c7.16 7.11 17.27 10.86 29.27 10.86a42 42 0 0 0 31.9-14.43L125 124l-24.67-21.9-3.77 4.67a13.89 13.89 0 0 1-11.1 5.43 11.05 11.05 0 0 1-5.3-1.29 15.62 15.62 0 0 1-1.81-7.56 23.31 23.31 0 0 1 .23-3.17c1.45-10.29 9-17.77 17.9-17.77a10.79 10.79 0 0 1 5.76 1.4c.71.72 6.86 6.71 6.86 6.71L130.47 74l-3-4.68a24.71 24.71 0 0 0-3.12-3.9c0-.07-4.1-4.14-4.1-4.14l.08.11c-5.68-5.92-14.59-9.33-24.44-9.33a54.3 54.3 0 0 0-9.81.85 23.41 23.41 0 0 0 4.19-10.55 27 27 0 0 0 .3-4 18.56 18.56 0 0 0-4.74-13l-.09-.09-.16-.27.13.14-.85-.84.16.15L81.57 21l.17.18c-6.36-6.92-17.22-7.72-24.83-7.72z" class="cls-1"/><path d="M48.34 36.73h6.87c3 0 6.18-.25 9.05.75-.7-4.88-6.59-5.07-10.36-5.07h-9.85l-2.16 15.52h4.91s1.12-8.2 1.54-11.18m20.11 58.5c-1 7.36.2 16 7.41 20-8.16-11.81-1.46-30.2 10.73-36.38a21.92 21.92 0 0 1 9.11-2.37 19.86 19.86 0 0 1 5.59.55c1.46.37 3.54 1 4.64 2.08a40.34 40.34 0 0 0 3.19 3.15c1-.75 13.31-9.92 13.31-9.92s-1.83-2.43-2.56-3.15q-1.89-1.91-3.78-3.78c.3.35 2.13 2.93 2.13 2.93L105 78c-5-7.11-15.48-6.93-22.6-3.39-12.51 6.26-13.95 20.64-13.95 20.64zm-8.27-33.11a23.8 23.8 0 0 0-8.54-1.41c-3.61 0-11.58.07-11.58.07l-2.38 16.52 4.82.06 1.8-12s5.38-.3 7.26-.3c3.94 0 8.48-.36 12.22 1.07a6.68 6.68 0 0 0-3.6-4.01zM20.55 90.35l4.08 4.13h28.06s.78-3.91 1.06-4.62H36.16c-5.18 0-12.51 0-15.61.4m91.77 30a34.82 34.82 0 0 1-11.48 8.54 37.55 37.55 0 0 1-13.16 3.29c-9.57.77-20.11-2.07-27.18-8.58 2.89 3 5.8 6 9.4 8.18 6.23 3.72 13.71 5.14 20.89 4.89a36.88 36.88 0 0 0 19.67-6.43 33 33 0 0 0 4.24-3.48c.56-.55 2.18-2.37 2.18-2.37s-2.79-2.86-4.06-4.13c-.1.13-.45.09-.45.09zM84.44 41.53c.59-4.17.14-8.67-2.71-12-1.34-1.54-2.9-2.92-4.34-4.36C81 30 81 37.36 78.44 42.7a16.85 16.85 0 0 1-5.08 6.3 21.57 21.57 0 0 1-3.75 2.33c-.8.4-4 1.39-4.34 2.06a21.33 21.33 0 0 1 7.62 2.8 21.32 21.32 0 0 0 5.49-3.48 17.94 17.94 0 0 0 6.06-11.15m131.9 18.06a12.94 12.94 0 0 0-6.68-1.71C201.57 58 194 64.77 192.78 73a13.43 13.43 0 0 0 1.58 8.8c-5.73-1.36-7.63-7.54-6.8-13.22 1.19-8.21 9-15.64 17.12-15.72 4.85-.08 9.7 1.37 11.66 6.76zm11-11.89 3 3.05c5.19 4.74 7.61 12.12 6.24 21.53-1.24 8.56-5.3 15.3-10.79 22.51l-25.55 33.31h-16.51l-4.28-4.27.42-.19h16.06l25.23-33.24c5.17-7.27 9.46-13.85 10.72-22.4 1.17-8-.36-14.76-4-19.45-.31-.35-.28-.52-.57-.85zm-28.4 51.15a19.82 19.82 0 0 1-14.05-5.66l-.12-.12-.1-.11-3.86-3.85s8.35 5.35 14.51 5.29a28.75 28.75 0 0 0 8.29-1.31l-4.43 5.75z" class="cls-2"/><path d="M183.7 99.23s-8.53 12.4-20.06 12.57l-2.39 16.36h-13.7l-4.24-4.26.65-.57h12.39L159 107s9.65.33 19.29-11.36l1.18-.63zm-15.45-56.39.63-.63 4.28 4.27-7.09 48.84h-5.44l7.62-52.48zm-41.44 52.53-.21-.27 25.25-33.6h1.03l-1.62 11.8-16.53 22.07h-7.92zm-14.17 17.09-4.3-4.29.47-.33h37.36l-.75 4.64-32.78-.02z" style="fill-rule:evenodd;fill:#bfc2c8"/><path d="M147.69 94.88 152.35 62h-.24L127.3 94.91zm-4.38 29 2.4-15.71h-37.37L113 94.41l40.49-52.21h15.39l-7.67 52.72h18.22c-9.58 12.47-18.59 12.6-20.05 12.56L157 123.87z" class="cls-252"/><path d="M217.92 68.41c1.19-8.21-4.44-14.85-12.54-14.77S189.7 60.49 188.5 68.7s4.44 14.85 12.5 14.77 15.72-6.85 16.92-15.06zm-21.87 55.44h-16.61l23.79-30.48a26.15 26.15 0 0 1-7.91 1.24c-14.25.14-22.55-11.67-20.48-25.89 2.48-17 16.27-28.1 32.8-28.27 16.87-.16 27.2 10.25 24.68 27.58-1.25 8.56-5.3 15.3-10.8 22.51zm-110.59-5.74c-11.33 0-18.69-9.62-16.84-22.86S80.56 72.4 92.38 72.4c5.81 0 10 2.12 12.62 5.81l13.4-9.82C113.47 60.68 103.83 58 95.91 58a42.72 42.72 0 0 0-17.28 3.28c-3.16-4.1-7-7.23-12.75-8v-.2c7.63-2.3 13.31-7.72 14.42-15.63 2.16-15.44-11-18-23.43-18H30.46l-10 71h29.09c1.27 0 2.57-.06 3.86-.17a45.94 45.94 0 0 0-1 5.07c-3.21 22.76 10.89 37.3 33 37.3 9.72 0 20.3-3.92 27.39-12.34l-11.66-9.72a19.85 19.85 0 0 1-15.68 7.52zM44.23 32.62h10.63c4.91 0 10.31 1.5 9.48 7.42-.81 5.71-6.1 7.71-10.91 7.71H42.11zM38 77.12 40.24 61h11.83c5.11 0 12.48 1.11 11.54 7.82-.88 6.18-6.69 8.3-11.61 8.3z" class="cls-252"/></svg>