<svg xmlns="http://www.w3.org/2000/svg" viewBox="0 0 167.996 70.388">
  <defs>
    <style>
      .cls-1, .cls-7 {
        fill: #90bc37;
      }

      .cls-2, .cls-8 {
        fill: #fff;
      }

      .cls-3 {
        fill: #4357a4;
      }

      .cls-4 {
        fill: #dc1860;
      }

      .cls-5 {
        fill: #a4cd39;
      }

      .cls-6 {
        fill: #009eb3;
      }

      .cls-7, .cls-8 {
        font-size: 5px;
        font-family: Helvetica;
      }

      .cls-8 {
        stroke: #fff;
        stroke-miterlimit: 10;
        stroke-width: 0.802px;
      }
    </style>
  </defs>
  <g id="Fantasy5_logo_4c" transform="translate(225 3881.688)">
    <g id="Group_73" data-name="Group 73" transform="translate(-96.878 -3866.635)">
      <path id="Path_367" data-name="Path 367" class="cls-1" d="M165.367,72.778a42.042,42.042,0,0,1-8.578-1.009c-2.523-.673-4.121-3.784-4.289-6.307,0-1.177,0-2.355.084-3.112a1.386,1.386,0,0,1,1.43-1.261,1.431,1.431,0,0,1,.589.084c.673.168,1.514.336,2.439.5a26.393,26.393,0,0,0,4.037.5c.42,0,.841.084,1.261.084a22.789,22.789,0,0,0,3.952-.336,12.124,12.124,0,0,0,3.616-1.177,11.975,11.975,0,0,0,3.2-2.186,9.654,9.654,0,0,0,2.1-2.859,4.864,4.864,0,0,0,.42-3.28,4.127,4.127,0,0,0-1.093-2.271,6.577,6.577,0,0,0-2.186-1.43,10.169,10.169,0,0,0-2.859-.673c-.336,0-.673-.084-1.093-.084a16.33,16.33,0,0,0-2.018.168,11.748,11.748,0,0,0-2.018.5c-.757.252-1.43.5-2.1.757s-1.177.5-1.682.673c-.757.336-.841.336-.925.336h-.168a3.233,3.233,0,0,1-1.43-.5,13.255,13.255,0,0,1-2.018-1.261c-.673-.5-1.261-.925-1.85-1.43a2.945,2.945,0,0,1-1.093-1.346V45.7c.084-3.532.589-21.192,1.682-22.874,1.177-1.766,21.612-4.625,25.649-4.625.673,0,1.093.084,1.261.336a22.586,22.586,0,0,1,.925,5.382v.925a22.833,22.833,0,0,0,.084,2.355c0,.168,0,.336-.168.42-.5.589-2.859.841-8.578,1.43-3.2.336-7.569.673-8.241,1.177l-.168,1.009c-.084.5-.084,1.093-.168,1.682,0,.589-.084,1.177-.084,1.766a5.569,5.569,0,0,0,.084,1.261.773.773,0,0,0,.841.757h.42l3.7-.589a4.468,4.468,0,0,1,1.177-.084h.841a11.352,11.352,0,0,1,3.112.5,18.009,18.009,0,0,1,3.7,1.346,14.468,14.468,0,0,1,3.7,2.523,17.122,17.122,0,0,1,3.112,4.037,17.936,17.936,0,0,1,1.934,5.887,15.622,15.622,0,0,1,.084,3.532,17.724,17.724,0,0,1-.925,4.373,25.377,25.377,0,0,1-2.186,4.625,18.1,18.1,0,0,1-3.784,4.373,23.958,23.958,0,0,1-5.634,3.616,24.542,24.542,0,0,1-10.091,1.934Z" transform="translate(-152.297 -17.948)"/>
      <path id="Path_368" data-name="Path 368" class="cls-2" d="M180.633,18.825c.5,0,.757,0,.841.084a30.1,30.1,0,0,1,.925,5.13c0,.673,0,2.1.084,3.28s-16.9,1.6-16.9,2.775a2.862,2.862,0,0,0-.168,1.177c-.084.5-.084,1.093-.168,1.766,0,.589-.084,1.261-.084,1.766a5.983,5.983,0,0,0,.084,1.346,1.18,1.18,0,0,0,1.346,1.093,1.067,1.067,0,0,0,.5-.084l3.7-.589c.252,0,.589-.084,1.093-.084h.841a15.208,15.208,0,0,1,3.027.42,18.643,18.643,0,0,1,3.616,1.261,16.09,16.09,0,0,1,3.616,2.439,15.856,15.856,0,0,1,3.027,3.868,17.588,17.588,0,0,1,1.85,5.718,14.293,14.293,0,0,1,.084,3.364,15.8,15.8,0,0,1-.925,4.2,21.933,21.933,0,0,1-2.1,4.541,19.333,19.333,0,0,1-3.7,4.289,23.534,23.534,0,0,1-5.466,3.532,24.052,24.052,0,0,1-10.091,2.018,37.24,37.24,0,0,1-8.494-1.009c-2.271-.673-3.784-3.532-3.868-5.887,0-1.177,0-2.271.084-3.027a.951.951,0,0,1,1.009-.925,1.067,1.067,0,0,1,.5.084c.757.168,1.6.336,2.439.5a26.393,26.393,0,0,0,4.037.5c.42,0,.841.084,1.261.084a23.714,23.714,0,0,0,4.037-.336,12.611,12.611,0,0,0,3.7-1.177,15.435,15.435,0,0,0,3.364-2.186,12.968,12.968,0,0,0,2.271-3.027,6.572,6.572,0,0,0,.5-3.616,5.03,5.03,0,0,0-1.177-2.523,6.306,6.306,0,0,0-2.355-1.514,11.383,11.383,0,0,0-3.027-.673c-.336,0-.757-.084-1.093-.084a17.7,17.7,0,0,0-2.1.168,7.236,7.236,0,0,0-2.1.589c-.757.252-1.43.5-2.1.757a16.377,16.377,0,0,0-1.682.757,3.1,3.1,0,0,1-.757.336h-.084a4.235,4.235,0,0,1-1.261-.42,17.071,17.071,0,0,1-1.934-1.177c-.673-.5-1.261-.925-1.85-1.43s-.925-.841-1.009-1.177c0,0,.5-21.024,1.6-22.622.673-1.346,20.687-4.289,25.06-4.289m0-.925h0a112.189,112.189,0,0,0-14.044,1.682c-11.1,1.766-11.689,2.775-11.941,3.112-1.177,1.682-1.682,18.08-1.766,23.126v.168l.084.168a4.542,4.542,0,0,0,1.261,1.514,15.469,15.469,0,0,0,1.85,1.43,13.256,13.256,0,0,0,2.018,1.261,4.079,4.079,0,0,0,1.682.5h.252c.168,0,.336-.084,1.009-.42.42-.168,1.009-.42,1.6-.673.673-.252,1.346-.5,2.1-.757a9.418,9.418,0,0,1,1.934-.5,13.8,13.8,0,0,1,1.934-.168h1.009a9.568,9.568,0,0,1,2.775.589,5.669,5.669,0,0,1,2.018,1.346,3.807,3.807,0,0,1,1.009,2.1,5.248,5.248,0,0,1-.42,3.027,10.648,10.648,0,0,1-2.018,2.775,13.482,13.482,0,0,1-3.112,2.1,11.667,11.667,0,0,1-3.448,1.093,22.553,22.553,0,0,1-3.868.336,5.171,5.171,0,0,1-1.177-.084,23.955,23.955,0,0,1-3.952-.5c-.841-.168-1.682-.336-2.439-.5a2.328,2.328,0,0,0-.757-.084,1.779,1.779,0,0,0-1.85,1.682,18.862,18.862,0,0,0-.084,3.2c.168,2.775,1.85,5.971,4.541,6.728a37.184,37.184,0,0,0,8.746,1.093,23.805,23.805,0,0,0,10.428-2.1,23.09,23.09,0,0,0,5.718-3.7,19.137,19.137,0,0,0,3.868-4.457,23.619,23.619,0,0,0,2.186-4.709,17.563,17.563,0,0,0,.925-4.457,16.571,16.571,0,0,0-.084-3.616,19.715,19.715,0,0,0-1.934-6.055,15.992,15.992,0,0,0-6.98-6.728,17.017,17.017,0,0,0-3.784-1.346,27.429,27.429,0,0,0-3.2-.5h-.841a5.569,5.569,0,0,0-1.261.084l-3.7.589h-.336c-.336,0-.42-.084-.42-.336a11.6,11.6,0,0,1-.084-1.177,12.418,12.418,0,0,1,.084-1.766,10.353,10.353,0,0,1,.168-1.682,5.363,5.363,0,0,1,.168-.757,69.739,69.739,0,0,1,7.9-1.009c6.559-.589,8.241-.841,8.83-1.6a1.356,1.356,0,0,0,.252-.757,21.263,21.263,0,0,1-.084-2.271v-.925c0-.5-.42-4.541-1.009-5.55a2.58,2.58,0,0,0-1.766-.5Z" transform="translate(-152.259 -17.9)"/>
    </g>
    <g id="Group_74" data-name="Group 74" transform="translate(-225 -3875.044)">
      <path id="Path_369" data-name="Path 369" class="cls-3" d="M3.107,50.784a.908.908,0,0,1-.589-.252c-1.009-1.093-.925-6.055-.5-14.128.084-1.346.168-2.355.168-2.859,0-1.514-.336-4.709-.925-9.587a1.221,1.221,0,0,0-.084-.5.636.636,0,0,0-.084-.336C0,17.482.416,13.53,2.434,11.427,4.284,9.409,7.816,8.4,12.946,8.4a46.457,46.457,0,0,1,10.26,1.093,1.535,1.535,0,0,1,.42,1.766c-.336,1.934-2.271,4.962-4.878,5.718-.084,0-.168.084-.336.084h-.336a6.87,6.87,0,0,1-1.177-.084c-1.009-.084-2.355-.168-3.784-.168-3.28,0-4.541.589-5.046,1.093a1.08,1.08,0,0,0-.336.841v.925a8.078,8.078,0,0,0,.252,2.691c.252.673.5.757.5.757l4.373-.336a1.16,1.16,0,0,1,1.093.673,9.789,9.789,0,0,1,.5,1.261,7.573,7.573,0,0,1,.252,1.346,4.528,4.528,0,0,1,.084.925c.084,1.009-.168,2.691-1.6,2.859a29.577,29.577,0,0,1-3.784.252v.168c0,.168.336,15.221.336,15.558v.168a6.315,6.315,0,0,1-6.475,4.625C3.359,50.784,3.275,50.784,3.107,50.784Z" transform="translate(0 -7.98)"/>
      <path id="Path_370" data-name="Path 370" class="cls-2" d="M12.851,8.825A59,59,0,0,1,22.943,9.834c1.093.841-1.009,5.718-4.289,6.728-.084,0-.252.084-.336.084h-.168c-.673,0-2.775-.252-4.962-.252-2.859,0-5.887.42-5.8,2.439.084,1.346,0,3.027.336,3.7s.589,1.093.841,1.093h0l4.373-.336h0c.252,0,.42.168.589.5a3.84,3.84,0,0,1,.42,1.177l.252,1.261a4.528,4.528,0,0,1,.084.925s.168,2.186-1.261,2.355c-1.346.168-4.2.252-4.2.252a2.974,2.974,0,0,0,.084.5c0,.084.336,15.558.336,15.726A5.953,5.953,0,0,1,3.18,50.284H2.844c-1.6-.084-.336-14.212-.336-16.9S1.5,23.458,1.5,23.289c0-.42-2.018-8.325,1.093-11.689,2.1-2.186,6.307-2.775,10.26-2.775m0-.925c-5.3,0-9,1.009-10.932,3.112C-.183,13.2-.6,17.319.489,23.121c0,.168.084.252.084.336h0a2.353,2.353,0,0,0,.084.5,89.326,89.326,0,0,1,1.009,9.419c0,.5-.084,1.6-.168,2.859-.5,8.662-.5,13.287.589,14.464a1.289,1.289,0,0,0,.925.42h.336a6.784,6.784,0,0,0,6.9-4.962v-.336c0-.336-.336-12.951-.336-15.305.925-.084,2.439-.168,3.364-.252,1.766-.252,2.1-2.186,2.018-3.28,0-.252-.084-.5-.084-1.009-.084-.42-.168-.925-.252-1.43a11.588,11.588,0,0,0-.5-1.346,1.521,1.521,0,0,0-1.43-.925h-.084l-4.121.252a1.369,1.369,0,0,1-.252-.5,10.4,10.4,0,0,1-.168-2.523V18.58a.711.711,0,0,1,.168-.5c.336-.336,1.43-.925,4.709-.925,1.43,0,2.775.084,3.7.168a8.316,8.316,0,0,0,1.261.084h.42c.084,0,.168-.084.252-.084,2.859-.841,4.878-4.037,5.214-6.139.252-1.261-.168-1.934-.589-2.186h0A58.134,58.134,0,0,0,12.851,7.9Z" transform="translate(0.095 -7.9)"/>
    </g>
    <g id="Group_75" data-name="Group 75" transform="translate(-212.895 -3856.123)">
      <path id="Path_371" data-name="Path 371" class="cls-3" d="M33.637,53.033a5.244,5.244,0,0,1-2.439-.5,11.8,11.8,0,0,1-1.514-1.009,4.459,4.459,0,0,1-.841-1.009c0-.084-.084-.084-.084-.168-.589.42-1.177.757-1.682,1.093a12.38,12.38,0,0,1-1.85.841,5.781,5.781,0,0,1-2.018.42H21.78a7.7,7.7,0,0,1-2.1-.42,7.339,7.339,0,0,1-2.271-1.43,8.177,8.177,0,0,1-1.85-2.523,8.678,8.678,0,0,1-.757-3.784,15.461,15.461,0,0,1,.925-5.214,12.852,12.852,0,0,1,2.523-4.289,12.929,12.929,0,0,1,3.532-2.943A8.409,8.409,0,0,1,25.9,31a7.543,7.543,0,0,1,1.514.168c.42.168.841.252,1.261.42.336.168.673.252,1.009.42.168.084.336.084.42.168a4.823,4.823,0,0,1,.336-.589l.168-.168h4.878a2.328,2.328,0,0,1,1.093.252,1.558,1.558,0,0,1,.673.589l.084.168L35.319,44.2v1.514c0,.168,0,.336.084.336a1.584,1.584,0,0,0,.673.168,4.528,4.528,0,0,0,.673-.084,2.8,2.8,0,0,0,.5-.252c.084,0,.252-.084.336-.084a.758.758,0,0,1,.42.084,2.194,2.194,0,0,1,.841.589l.168.168V47.9l-.084.336-.084.084a.368.368,0,0,0-.084.252,8.7,8.7,0,0,1-.252,1.009,10.2,10.2,0,0,1-.42,1.177,3.672,3.672,0,0,1-.841,1.261,4.669,4.669,0,0,1-1.43.925C35.319,52.949,34.562,53.033,33.637,53.033ZM26.826,37.728a2.359,2.359,0,0,0-1.6.589,9.166,9.166,0,0,0-1.514,1.6A11.3,11.3,0,0,0,22.7,41.932a4.981,4.981,0,0,0-.336,1.766,3.45,3.45,0,0,0,.084.925,2.987,2.987,0,0,0,.336.757,2.854,2.854,0,0,0,.5.5,1.679,1.679,0,0,0,.757.168,2.714,2.714,0,0,0,1.766-.673,5.756,5.756,0,0,0,1.43-1.766,10.769,10.769,0,0,0,.925-2.018,8.531,8.531,0,0,0,.336-1.514A2.669,2.669,0,0,0,28,38.4,1.357,1.357,0,0,0,26.826,37.728Z" transform="translate(-14.38 -30.495)"/>
      <path id="Path_372" data-name="Path 372" class="cls-2" d="M25.989,31.241a7.406,7.406,0,0,1,1.43.168c.42.168.841.252,1.177.42a9.865,9.865,0,0,1,.925.42,1.131,1.131,0,0,0,.673.168c.084,0,.168-.084.252-.168a4.824,4.824,0,0,1,.336-.589h4.625a2.488,2.488,0,0,1,.841.168c.252.168.42.252.5.42L34.735,43.855v1.514c0,.42.084.589.336.757a2.488,2.488,0,0,0,.841.168,2.11,2.11,0,0,0,.841-.168,1.2,1.2,0,0,1,.5-.168h.168a.309.309,0,0,1,.252.084,2.757,2.757,0,0,1,.673.5v1.093c-.168.084-.252.252-.252.589-.084.252-.084.589-.168.925a5.439,5.439,0,0,1-.336,1.093,3.2,3.2,0,0,1-.757,1.093,4.713,4.713,0,0,1-1.261.841,5,5,0,0,1-2.1.336,5.038,5.038,0,0,1-2.186-.42,4.205,4.205,0,0,1-1.346-.925,6.134,6.134,0,0,1-.757-.925c-.168-.252-.336-.42-.5-.42A12.987,12.987,0,0,1,26.83,51a8.614,8.614,0,0,1-1.766.841,5.3,5.3,0,0,1-1.85.42h-1.43a6.718,6.718,0,0,1-1.934-.42A7.7,7.7,0,0,1,17.664,50.5,7.938,7.938,0,0,1,15.9,48.06a7.8,7.8,0,0,1-.757-3.532,14.508,14.508,0,0,1,.925-5.046,14.888,14.888,0,0,1,2.439-4.2,12.523,12.523,0,0,1,3.448-2.859,7.439,7.439,0,0,1,4.037-1.177M23.971,46.378a3.23,3.23,0,0,0,2.1-.757,8.092,8.092,0,0,0,1.514-1.85,7.651,7.651,0,0,0,.925-2.1,5.293,5.293,0,0,0,.336-1.682,3.189,3.189,0,0,0-.589-2.018,1.91,1.91,0,0,0-1.514-.757,3.125,3.125,0,0,0-1.85.673,10.175,10.175,0,0,0-1.6,1.682,9.99,9.99,0,0,0-1.093,2.1,6.193,6.193,0,0,0-.42,1.934,4.221,4.221,0,0,0,.168,1.009,4.507,4.507,0,0,0,.42.925,2.559,2.559,0,0,0,.673.673,2.6,2.6,0,0,0,.925.168M25.989,30.4a9.22,9.22,0,0,0-4.373,1.177,13.944,13.944,0,0,0-3.7,3.027,15.55,15.55,0,0,0-2.607,4.457A14.568,14.568,0,0,0,14.3,44.444a8.308,8.308,0,0,0,.841,3.952,8.2,8.2,0,0,0,1.934,2.691A8.374,8.374,0,0,0,19.514,52.6a6.2,6.2,0,0,0,2.271.5h1.43a7.157,7.157,0,0,0,2.186-.42,13.681,13.681,0,0,0,1.934-.925c.42-.252.841-.5,1.346-.841a6.135,6.135,0,0,0,.757.841,5.914,5.914,0,0,0,1.6,1.093,6,6,0,0,0,2.607.5,5.29,5.29,0,0,0,2.439-.42,4.341,4.341,0,0,0,1.6-1.009,3.522,3.522,0,0,0,.925-1.346,7.4,7.4,0,0,0,.42-1.261l.252-1.009v-.084l.168-.084.084-.252v-.084l.084-.168v-1.6l-.252-.252a4.026,4.026,0,0,0-.925-.673,1.431,1.431,0,0,0-.589-.084,1.067,1.067,0,0,0-.5.084,4.1,4.1,0,0,1-.589.252,1.221,1.221,0,0,1-.5.084h-.336v-1.43L37.931,32.5l.084-.336-.42-.42a2.29,2.29,0,0,0-.841-.673,3.072,3.072,0,0,0-1.261-.252h-5.13l-.252.42c-.084.084-.168.168-.168.252h0c-.336-.168-.589-.252-1.009-.42a7.4,7.4,0,0,0-1.261-.42,3.91,3.91,0,0,0-1.682-.252ZM23.971,45.453c-.252,0-.42,0-.5-.084-.168-.084-.252-.252-.42-.336a1.256,1.256,0,0,1-.252-.589,2.328,2.328,0,0,1-.084-.757,4.512,4.512,0,0,1,.336-1.6,10.66,10.66,0,0,1,1.009-1.934A7.859,7.859,0,0,1,25.4,38.641a2.062,2.062,0,0,1,1.346-.5,1.168,1.168,0,0,1,.841.42,2.4,2.4,0,0,1,.42,1.43,3.987,3.987,0,0,1-.252,1.346,9.637,9.637,0,0,1-.841,1.934,6.181,6.181,0,0,1-1.346,1.6,2.359,2.359,0,0,1-1.6.589Z" transform="translate(-14.3 -30.4)"/>
    </g>
    <g id="Group_76" data-name="Group 76" transform="translate(-192.123 -3851.75)">
      <path id="Path_373" data-name="Path 373" class="cls-3" d="M57.549,58.353a3.818,3.818,0,0,1-1.514-.336,5.257,5.257,0,0,1-1.682-1.093,8.7,8.7,0,0,1-1.346-1.934,7.308,7.308,0,0,1-.589-2.943l.673-5.466V44.73a1.2,1.2,0,0,0-.168-.5c-.084-.084-.168-.168-.5-.168a2.344,2.344,0,0,0-1.766.841,10.453,10.453,0,0,0-1.6,2.355,15.82,15.82,0,0,0-1.261,3.2c-.336,1.177-.673,2.271-.925,3.28a21.828,21.828,0,0,0-.589,2.607c-.252,1.093-.336,1.261-.42,1.346l-.168.252H39.3l.336-2.691,2.271-18.5h6.307v2.607l.252-.252c.42-.42.925-.841,1.514-1.346A21.156,21.156,0,0,1,52,36.489a6.584,6.584,0,0,1,2.607-.589,5.489,5.489,0,0,1,2.439.5,6.734,6.734,0,0,1,1.766,1.261,5.141,5.141,0,0,1,1.093,1.85A6.271,6.271,0,0,1,60.24,41.7c-.5,4.289-.841,8.914-.5,9.587a.769.769,0,0,0,.589.252c.252-.084,1.346-.42,2.018-.673h.252a1.2,1.2,0,0,1,.5.168.826.826,0,0,1,.336.673v.168c0,3.952-1.85,6.139-5.466,6.391h-.42Z" transform="translate(-39.048 -35.648)"/>
      <path id="Path_374" data-name="Path 374" class="cls-2" d="M54.726,36.441a6.421,6.421,0,0,1,2.271.42,3.787,3.787,0,0,1,1.6,1.177,4.121,4.121,0,0,1,.925,1.682,5.653,5.653,0,0,1,.336,2.018s-1.093,9-.42,9.839a1.147,1.147,0,0,0,1.009.42c.084,0,2.1-.673,2.1-.673h.084a.353.353,0,0,1,.336.336c0,1.177.252,5.718-5.046,6.055H57.5a3.137,3.137,0,0,1-1.346-.336,3.971,3.971,0,0,1-1.514-1.009,4.64,4.64,0,0,1-1.177-1.766,6.68,6.68,0,0,1-.5-2.691l.673-5.466V44.514a1.356,1.356,0,0,0-.252-.757,1.035,1.035,0,0,0-.841-.42,2.628,2.628,0,0,0-2.018,1.009,11.254,11.254,0,0,0-1.682,2.439,18.065,18.065,0,0,0-1.261,3.2c-.336,1.177-.673,2.271-.925,3.28s-.5,1.934-.673,2.607a5.273,5.273,0,0,1-.336,1.261H40.009l.252-2.186,2.186-18.08h5.466v3.2a6.51,6.51,0,0,0,1.009-.841,12.011,12.011,0,0,1,1.514-1.261,10.748,10.748,0,0,1,1.934-1.177,9.318,9.318,0,0,1,2.355-.336m0-.841a6.093,6.093,0,0,0-2.775.589,8.724,8.724,0,0,0-2.1,1.261c-.336.252-.673.589-1.009.841v-2.1H41.691l-.168.757-2.186,18.08-.252,2.186L39,58.222h7.148l.252-.42a5.852,5.852,0,0,0,.42-1.514c.168-.757.336-1.6.589-2.607s.589-2.1.925-3.28A17.187,17.187,0,0,1,49.6,47.289a7.643,7.643,0,0,1,1.514-2.271,1.776,1.776,0,0,1,1.43-.673h.168a.26.26,0,0,1,.084.168v1.85l-.757,5.55v.168a7.092,7.092,0,0,0,.589,3.112,7.713,7.713,0,0,0,1.43,2.1,7.176,7.176,0,0,0,1.766,1.177,4.575,4.575,0,0,0,1.682.336h.5c4.878-.336,5.887-3.952,5.887-6.812V51.83a1.1,1.1,0,0,0-.5-1.009,1.356,1.356,0,0,0-.757-.252h-.42c-.757.252-1.6.5-1.934.589-.084,0-.084,0-.168-.084-.252-.925.084-5.382.589-9.25v0a7.255,7.255,0,0,0-.336-2.355,6.069,6.069,0,0,0-1.177-2.018A5.333,5.333,0,0,0,57.249,36.1a5.616,5.616,0,0,0-2.523-.5Z" transform="translate(-39 -35.6)"/>
    </g>
    <g id="Group_77" data-name="Group 77" transform="translate(-158.98 -3856.543)">
      <path id="Path_375" data-name="Path 375" class="cls-3" d="M86.8,54.131a7.7,7.7,0,0,1-1.346-.084,7.65,7.65,0,0,1-4.793-3.2,9.746,9.746,0,0,1-1.514-3.532,16.01,16.01,0,0,1-.084-5.3,17.287,17.287,0,0,1,1.6-4.709,11.024,11.024,0,0,1,2.943-3.532,7.889,7.889,0,0,1,3.868-1.85,4.8,4.8,0,0,1,1.093-.084h.42c.42.084.925.084,1.261.168a8.728,8.728,0,0,1,1.009.252,3.642,3.642,0,0,1,.42.084h0a4.1,4.1,0,0,0,.252-.589l.084-.252h.252a6.6,6.6,0,0,1,1.177-.168c.336-.084.757-.168,1.093-.252s.673-.168,1.093-.252l1.177-.252c.168,0,.336-.084.5-.084a1.431,1.431,0,0,1,.589.084c.673.168.925.673.841,1.766l-.42,9c0,4.289.925,7.4,2.355,8.157l.589.252.5.084-.084.5a3.527,3.527,0,0,1-1.009,1.346h-.168c-.42.168-.841.252-1.346.42a8.386,8.386,0,0,1-1.346.168,5.679,5.679,0,0,1-1.177-.168,5.134,5.134,0,0,1-1.682-.757c-.42-.336-.757-.589-1.009-.841l-.084-.084c-.5.5-1.009,1.009-1.43,1.346a8.519,8.519,0,0,1-1.682,1.177,4.641,4.641,0,0,1-1.934.757l-1.346.252a.906.906,0,0,1-.673.168ZM89.83,38.4h-.252a2.488,2.488,0,0,0-1.43.925,9.961,9.961,0,0,0-1.177,1.85,6.487,6.487,0,0,0-.589,2.186,6.088,6.088,0,0,0,0,1.766c.084.252.168.589.252.841a1.308,1.308,0,0,0,.5.673,2.556,2.556,0,0,0,.589.42.63.63,0,0,0,.42.084h.336a2.52,2.52,0,0,0,1.6-1.009,5.872,5.872,0,0,0,1.093-2.018,10.27,10.27,0,0,0,.5-2.186,4.076,4.076,0,0,0,0-1.514,3.247,3.247,0,0,0-.841-1.6A1.747,1.747,0,0,0,89.83,38.4Z" transform="translate(-78.487 -29.995)"/>
      <path id="Path_376" data-name="Path 376" class="cls-2" d="M97.323,30.825a1.067,1.067,0,0,1,.5.084c.252.084.589.252.5,1.346l-.42,9c0,1.682.168,7.232,2.607,8.578.168.084.42.168.589.252h.084a2.808,2.808,0,0,1-.925,1.093,4.554,4.554,0,0,1-1.261.336,6.491,6.491,0,0,1-1.261.168,4.221,4.221,0,0,1-1.009-.168,6.31,6.31,0,0,1-1.514-.673,2.967,2.967,0,0,1-.925-.757.735.735,0,0,0-.5-.336h-.084a12.827,12.827,0,0,1-1.6,1.514c-.5.42-1.009.757-1.6,1.177a7.983,7.983,0,0,1-1.766.757l-1.346.336a2.328,2.328,0,0,1-.757.084,7.262,7.262,0,0,1-1.261-.084,6.864,6.864,0,0,1-2.355-.925,9.742,9.742,0,0,1-2.186-2.018,8.839,8.839,0,0,1-1.43-3.364,15.049,15.049,0,0,1-.084-5.13,15.282,15.282,0,0,1,1.6-4.541A12.515,12.515,0,0,1,83.7,34.1a7.961,7.961,0,0,1,3.7-1.766,4.094,4.094,0,0,1,1.009-.084h.42c.42.084.841.084,1.261.168a8.728,8.728,0,0,1,1.009.252,1.067,1.067,0,0,0,.5.084h.168c.084,0,.168-.084.168-.252a1.118,1.118,0,0,1,.252-.589,6.6,6.6,0,0,1,1.177-.168c.336-.084.757-.168,1.093-.252l1.009-.252c.336-.084.757-.168,1.177-.252a1.445,1.445,0,0,1,.673-.168M87.989,47.476a.758.758,0,0,0,.42-.084,3.145,3.145,0,0,0,1.934-1.177,7.457,7.457,0,0,0,1.177-2.1,11.013,11.013,0,0,0,.5-2.271,5.443,5.443,0,0,0,0-1.682,3.322,3.322,0,0,0-1.009-1.85,2.02,2.02,0,0,0-1.261-.5h-.42A2.7,2.7,0,0,0,87.652,38.9a6.07,6.07,0,0,0-1.177,2.018,11.62,11.62,0,0,0-.673,2.271,4.944,4.944,0,0,0,0,1.934,3.012,3.012,0,0,0,.336.925,1.831,1.831,0,0,0,.589.757,1.986,1.986,0,0,0,.757.5.618.618,0,0,0,.5.168M97.323,29.9h0a1.431,1.431,0,0,0-.589.084c-.42.084-.841.168-1.177.252s-.757.168-1.093.252l-1.009.252a4.963,4.963,0,0,1-1.177.168l-.5.084-.168.42c-.084.084-.084.168-.168.252h0l-1.009-.252a6.536,6.536,0,0,0-1.346-.168h-.5a5.552,5.552,0,0,0-1.177.084,7.69,7.69,0,0,0-4.037,2.018,14.127,14.127,0,0,0-4.709,8.578,13.326,13.326,0,0,0,.084,5.466,7.874,7.874,0,0,0,1.6,3.7,7.721,7.721,0,0,0,2.439,2.271,7.057,7.057,0,0,0,2.691,1.009,9.711,9.711,0,0,0,1.346.168,3.45,3.45,0,0,0,.925-.084l1.346-.252a8.43,8.43,0,0,0,2.1-.841A14.585,14.585,0,0,0,92.866,52.1a13.4,13.4,0,0,0,1.093-1.093,4.392,4.392,0,0,0,.925.673,5.607,5.607,0,0,0,1.766.757,6.491,6.491,0,0,0,1.261.168,9.364,9.364,0,0,0,1.43-.168,7.1,7.1,0,0,0,1.43-.42l.084-.084.084-.084a3.719,3.719,0,0,0,1.177-1.514l.336-.925-.925-.252h-.084l-.5-.168c-1.261-.757-2.1-3.784-2.1-7.737l.42-9c0-.925-.084-1.934-1.177-2.271-.252,0-.5-.084-.757-.084ZM87.989,46.551h-.252a1.838,1.838,0,0,1-.42-.252c-.168-.168-.252-.336-.42-.5l-.252-.757a5.021,5.021,0,0,1,0-1.6,9.153,9.153,0,0,1,.589-2.018,6.252,6.252,0,0,1,1.093-1.766A2.043,2.043,0,0,1,89.5,38.9h.168a.848.848,0,0,1,.673.252,2.285,2.285,0,0,1,.673,1.346,7.112,7.112,0,0,1,0,1.43,10.835,10.835,0,0,1-.5,2.1,7.913,7.913,0,0,1-1.009,1.85,1.964,1.964,0,0,1-1.346.841c0-.168-.084-.168-.168-.168Z" transform="translate(-78.411 -29.9)"/>
    </g>
    <g id="Group_78" data-name="Group 78" transform="translate(-121.26 -3856.964)">
      <path id="Path_377" data-name="Path 377" class="cls-3" d="M135.147,63.554a3.328,3.328,0,0,1-2.859-2.439c-1.093-2.943,1.009-6.728,1.766-7.989.084-.084.084-.168.168-.252.336-.589.589-1.177.925-1.682a1.759,1.759,0,0,1,.336-.5c.252-.336.589-.925.841-1.346a5.105,5.105,0,0,0-.841.589c-1.514,1.009-3.868,2.439-5.8,2.523H129.6a6.029,6.029,0,0,1-5.382-3.28,9.927,9.927,0,0,1-.42-3.616c.084-.5.084-1.261.168-2.1.084-.925.168-1.85.336-2.943.084-1.009.252-2.1.336-3.2s.252-2.1.336-3.027l.084-.589q.126-1.009.252-1.766c.336-1.43,3.2-1.514,4.037-1.514a3.955,3.955,0,0,1,2.271.5.642.642,0,0,1,.168.42c0,.673-1.009,10.68-1.093,11.773a2.231,2.231,0,0,0,.168.925c.084.084.168.168.5.168,0,0,.252,0,1.177-.757a11.006,11.006,0,0,0,2.018-2.523,28.3,28.3,0,0,0,2.018-4.2,28.2,28.2,0,0,0,1.177-5.8c0-.252.084-.925,3.448-.925,3.28,0,3.28.673,3.28.925-.168,1.177-4.121,27.667-5.971,30.274-1.093,1.514-2.186,2.355-3.364,2.355Z" transform="translate(-123.345 -29.495)"/>
      <path id="Path_378" data-name="Path 378" class="cls-2" d="M141.123,30.325c1.43,0,2.859.168,2.859.5,0,0-4.121,27.415-5.887,30.022-1.093,1.6-2.186,2.186-3.027,2.186a2.838,2.838,0,0,1-2.439-2.1c-1.177-3.112,1.514-7.316,1.85-7.9s.589-1.177.925-1.682a8.188,8.188,0,0,0,1.43-2.691c0-.084,0-.168-.084-.168-.757,0-4.541,3.28-7.232,3.364h-.084a5.62,5.62,0,0,1-4.962-3.027,10.708,10.708,0,0,1-.42-3.364c.084-.5.084-1.261.168-2.1.084-.925.168-1.85.336-2.943.084-1.009.252-2.1.336-3.2s.252-2.1.336-3.027a13.136,13.136,0,0,1,.336-2.271c.168-.841,2.1-1.177,3.616-1.177,1.093,0,2.018.168,2.018.42,0,.673-1.093,11.773-1.093,11.773a2.363,2.363,0,0,0,.252,1.261.975.975,0,0,0,.841.336,3.376,3.376,0,0,0,1.43-.925,10.082,10.082,0,0,0,2.1-2.607,20.4,20.4,0,0,0,2.018-4.289,32.614,32.614,0,0,0,1.261-5.887c.084-.336,1.6-.5,3.112-.5m0-.925c-3.448,0-3.868.673-3.868,1.346a33.874,33.874,0,0,1-1.177,5.634,23.715,23.715,0,0,1-1.934,4.121,12.937,12.937,0,0,1-1.934,2.439,8.227,8.227,0,0,1-.925.673H131.2a1.455,1.455,0,0,1-.084-.589c.168-1.934,1.093-11.185,1.093-11.773a1.027,1.027,0,0,0-.336-.757c-.168-.168-.589-.589-2.607-.589-1.261,0-4.121.168-4.457,1.85q-.126.757-.252,1.766l-.084.589c-.084.925-.252,1.934-.336,3.027s-.252,2.186-.336,3.2-.252,2.018-.336,2.943-.168,1.6-.168,2.1a10.98,10.98,0,0,0,.42,3.784,6.4,6.4,0,0,0,5.8,3.532h.084c1.766,0,3.7-1.093,5.214-2.1-.084.084-.084.168-.168.252-.336.5-.589,1.093-.925,1.682,0,.084-.084.168-.168.252-.757,1.261-2.943,5.214-1.766,8.409.673,1.682,1.85,2.691,3.28,2.691,1.346,0,2.607-.841,3.784-2.607,1.85-2.607,5.55-27.5,5.971-30.358v-.168c0-.925-1.009-1.346-3.7-1.346Z" transform="translate(-123.265 -29.4)"/>
    </g>
    <g id="Group_79" data-name="Group 79" transform="translate(-138.47 -3864.953)">
      <path id="Path_379" data-name="Path 379" class="cls-3" d="M112.081,46.4c-3.2,0-5.971-.925-7.569-2.523A5.012,5.012,0,0,1,103,39.926a14.153,14.153,0,0,1,.168-1.682V38.16l.252-.757,1.261.589c.084,0,.168.084.673.252.42.168.841.336,1.346.5l1.514.5a10.969,10.969,0,0,1,1.093.252h.084a9.723,9.723,0,0,0,1.43.084h1.43a3.771,3.771,0,0,0,.925-.084,7.006,7.006,0,0,0,1.261-.336,3.472,3.472,0,0,0,.925-.589.763.763,0,0,0,.252-.589c0-.168,0-.168-.084-.252a2.428,2.428,0,0,0-.841-.5,15.874,15.874,0,0,0-1.514-.5c-.589-.168-1.261-.336-1.934-.5a18.925,18.925,0,0,1-2.018-.673,7.219,7.219,0,0,1-1.934-1.093,5.756,5.756,0,0,1-1.43-1.766,5.872,5.872,0,0,1-.5-2.523V28.909a4.665,4.665,0,0,1,.589-2.355,6.525,6.525,0,0,1,1.346-2.018,11.911,11.911,0,0,1,1.85-1.682,10.722,10.722,0,0,1,2.1-1.261c.757-.336,1.514-.589,2.186-.841a8.294,8.294,0,0,1,2.018-.252l2.1.084a5.855,5.855,0,0,1,2.1.42,6.252,6.252,0,0,1,1.766,1.093,5.891,5.891,0,0,1,1.261,1.6,4.149,4.149,0,0,1,.5,1.934v1.6a2.462,2.462,0,0,1-.5,1.766,1.732,1.732,0,0,1-1.43.673h-3.616a2.343,2.343,0,0,1-.841-.084,1.25,1.25,0,0,1-1.093-1.093,1.516,1.516,0,0,1,.084-.841h0v-.42h0a3.576,3.576,0,0,0-.925.168,5.138,5.138,0,0,0-1.177.589,4.408,4.408,0,0,0-.925.841,4.369,4.369,0,0,0-.252.42.492.492,0,0,0,.084.336,2.807,2.807,0,0,0,1.009.42,10.049,10.049,0,0,0,1.85.42,16.018,16.018,0,0,1,2.439.757,7.97,7.97,0,0,1,3.532,2.523,5.9,5.9,0,0,1,1.346,4.2,8.325,8.325,0,0,1-.841,3.448,8.149,8.149,0,0,1-2.271,2.859,10.382,10.382,0,0,1-3.448,1.85,22.232,22.232,0,0,1-4.121.336Z" transform="translate(-102.83 -19.995)"/>
      <path id="Path_380" data-name="Path 380" class="cls-2" d="M115.33,20.825h.168l1.934.084a5.781,5.781,0,0,1,2.018.42,5.172,5.172,0,0,1,1.6,1.009,4.335,4.335,0,0,1,1.093,1.43,4.519,4.519,0,0,1,.42,1.766v1.6a2.165,2.165,0,0,1-.42,1.514,1.324,1.324,0,0,1-1.093.5h-2.523c-.5,0-.673-.084-1.009-.084a1.66,1.66,0,0,1-.757-.084.9.9,0,0,1-.757-.673,2.09,2.09,0,0,1,.084-.673,1.833,1.833,0,0,0,.084-.5c0-.084,0-.168-.168-.336-.084-.084-.084-.084-.252-.084h-.084a2.9,2.9,0,0,0-1.093.252,6.007,6.007,0,0,0-1.261.673,3.585,3.585,0,0,0-1.009.925,1,1,0,0,0-.336.673c0,.5.168.673.252.673a3.3,3.3,0,0,0,1.093.5,10.049,10.049,0,0,0,1.85.42c.757.168,1.514.42,2.355.673a9.256,9.256,0,0,1,3.364,2.355,5.943,5.943,0,0,1,1.261,3.868,7.9,7.9,0,0,1-.841,3.28,9.325,9.325,0,0,1-2.1,2.691,10.228,10.228,0,0,1-3.28,1.766,23.076,23.076,0,0,1-3.784.336h-.084c-3.952,0-8.746-1.6-8.662-6.055a10.3,10.3,0,0,1,.168-1.6l.084-.252.841.42a6.058,6.058,0,0,0,.673.252c.42.168.841.336,1.346.5l1.514.5a7.463,7.463,0,0,0,1.177.252h.084a9.723,9.723,0,0,0,1.43.084h1.346a4.826,4.826,0,0,0,1.009-.084,3.6,3.6,0,0,0,1.346-.42,4.768,4.768,0,0,0,1.093-.673,1.08,1.08,0,0,0,.336-.841c0-.336-.084-.5-.252-.589a2.5,2.5,0,0,0-.925-.589c-.42-.168-1.009-.336-1.6-.5s-1.261-.336-1.934-.5a13.073,13.073,0,0,1-1.934-.673,5.967,5.967,0,0,1-1.85-1.093A4.427,4.427,0,0,1,106,32.262a4.235,4.235,0,0,1-.42-2.355V28.646a4.906,4.906,0,0,1,.5-2.186,9.549,9.549,0,0,1,1.261-1.934,10.819,10.819,0,0,1,1.766-1.6,13.256,13.256,0,0,1,2.018-1.261,10.543,10.543,0,0,1,2.1-.757c.841,0,1.514-.084,2.1-.084m0-.841a9.538,9.538,0,0,0-2.1.252,12.416,12.416,0,0,0-2.271.841,11.764,11.764,0,0,0-2.186,1.346,12.671,12.671,0,0,0-1.934,1.766,11.6,11.6,0,0,0-1.43,2.1,5.536,5.536,0,0,0-.589,2.523v1.261a5.644,5.644,0,0,0,.589,2.775,5.074,5.074,0,0,0,1.6,1.934,6.069,6.069,0,0,0,2.018,1.177,15.377,15.377,0,0,0,2.1.673c.673.168,1.261.336,1.934.5.5.168,1.009.252,1.43.42a1.179,1.179,0,0,1,.589.336c0,.168-.084.168-.084.252a1.986,1.986,0,0,1-.757.5,4.821,4.821,0,0,1-1.177.336,3.155,3.155,0,0,1-.841.084h-1.346a8.716,8.716,0,0,1-1.346-.084h-.084a6.21,6.21,0,0,1-1.009-.168,7.157,7.157,0,0,1-1.43-.5,9.788,9.788,0,0,1-1.261-.5c-.42-.168-.589-.252-.589-.252h0l-.841-.42-.925-.42-.336.925-.084.252v.168a14.154,14.154,0,0,0-.168,1.682,5.765,5.765,0,0,0,1.682,4.289c2.355,2.439,6.307,2.691,7.9,2.691h.084a17.28,17.28,0,0,0,4.037-.42,10.684,10.684,0,0,0,3.616-1.934,8.685,8.685,0,0,0,2.355-2.943,9.207,9.207,0,0,0,.925-3.616,6.606,6.606,0,0,0-1.43-4.457,9.219,9.219,0,0,0-3.7-2.607,14.382,14.382,0,0,0-2.523-.757c-.673-.168-1.261-.252-1.766-.42a1.843,1.843,0,0,1-.673-.252h0l.168-.168a7.581,7.581,0,0,1,.841-.757,4.531,4.531,0,0,1,1.093-.589c.084,0,.168-.084.252-.084a1.433,1.433,0,0,0,0,.841,1.79,1.79,0,0,0,1.43,1.43c.168,0,.5.084.841.084h3.532a2.548,2.548,0,0,0,1.85-.841,3.675,3.675,0,0,0,.589-2.1v-1.6a4.95,4.95,0,0,0-1.85-3.868,5.345,5.345,0,0,0-1.85-1.177,5.55,5.55,0,0,0-2.271-.5L116,19.9c-.589.084-.673.084-.673.084Z" transform="translate(-102.8 -19.9)"/>
    </g>
    <g id="Group_80" data-name="Group 80" transform="translate(-161.849 -3877.567)">
      <path id="Path_381" data-name="Path 381" class="cls-4" d="M75.584,14.819c.168-3.448,5.55-9.419,10.68-9.419,1.766,0,4.2.757,5.718,4.289l.336.757-.757.252a6.992,6.992,0,0,1-2.271.5,2.442,2.442,0,0,1-1.177-.252c-.336,1.009-1.6,1.85-3.532,2.1l-.673.084-.084-.168c-.589.757-1.682.925-3.112,1.261a14.942,14.942,0,0,0-3.027.841L75.5,16Z" transform="translate(-75.08 -4.98)"/>
      <path id="Path_382" data-name="Path 382" class="cls-2" d="M86.185,5.825c1.6,0,3.868.673,5.3,4.037l.168.336-.336.084a6.173,6.173,0,0,1-2.186.5,2.028,2.028,0,0,1-1.6-.673l-.084-.084a.849.849,0,0,1,.084.757c-.168.841-1.43,1.6-3.2,1.934h-.252L84,12.469c-.252-.841-.168-.589-.252-.841a2.15,2.15,0,0,1-.168.925c-.336.841-1.514,1.093-3.027,1.346a17.332,17.332,0,0,0-3.112.841l-1.514.673v-.5c.252-3.364,5.466-9.082,10.26-9.082m0-.925A11.424,11.424,0,0,0,78.7,8.432c-2.186,2.018-3.532,4.457-3.616,6.307v.5L75,16.757l1.346-.589,1.514-.673a21.7,21.7,0,0,1,2.943-.757,7.1,7.1,0,0,0,3.112-1.093l.42-.084h.252c1.85-.252,3.2-1.009,3.7-2.018a3.023,3.023,0,0,0,.925.168,6.006,6.006,0,0,0,2.439-.589l.336-.084.925-.336-.42-.841-.168-.336C90.558,5.489,87.782,4.9,86.185,4.9Z" transform="translate(-75 -4.9)"/>
    </g>
    <g id="Group_81" data-name="Group 81" transform="translate(-180.854 -3875.38)">
      <path id="Path_383" data-name="Path 383" class="cls-5" d="M67.044,15.737a6.8,6.8,0,0,0-1.346-.084H63.428a3.065,3.065,0,0,1-1.766-.42H60.4c-1.514-.084-2.691-.673-3.112-1.682a.26.26,0,0,0-.084-.168,3.682,3.682,0,0,1-2.1.589H54.85a6.6,6.6,0,0,1-1.177-.168L53,13.718l.168-.757C53.757,9.766,55.691,8,58.55,8H58.8c4.289.168,9.335,4.121,10.175,6.98l.336,1.261Z" transform="translate(-52.495 -7.58)"/>
      <path id="Path_384" data-name="Path 384" class="cls-2" d="M58.455,8.425h.252c4.037.168,9,3.952,9.755,6.644l.168.5-1.514-.336c-.42-.084-.925-.084-1.43-.168H63.416a2.193,2.193,0,0,1-1.85-.673,1.048,1.048,0,0,1-.252-1.009,8.14,8.14,0,0,0-.168,1.009v.252h-.673A3.007,3.007,0,0,1,57.782,13.3a1.135,1.135,0,0,1,0-.925,1.161,1.161,0,0,1-.336.252,3.036,3.036,0,0,1-2.271.841h-.252c-.336,0-.673-.084-1.093-.084l-.336-.084.084-.336c.5-2.943,2.271-4.541,4.878-4.541m0-.925c-3.027,0-5.214,1.934-5.8,5.3l-.084.336-.168.925.925.168.336.084c.42.084.841.084,1.177.168h.252a3.534,3.534,0,0,0,1.85-.42,4.134,4.134,0,0,0,3.28,1.6h1.093a4.391,4.391,0,0,0,1.85.42h2.355c.5,0,.925.084,1.346.084l1.514.336,1.43.336-.42-1.43-.168-.5c-1.009-3.616-6.812-7.148-10.6-7.316,0-.084-.084-.084-.168-.084Z" transform="translate(-52.4 -7.5)"/>
    </g>
    <g id="Group_82" data-name="Group 82" transform="translate(-181.766 -3868.064)">
      <path id="Path_385" data-name="Path 385" class="cls-3" d="M52.061,26.471c-.5-2.775-.084-5.046,1.346-6.728C55,17.809,57.78,16.8,61.059,16.8c2.943,0,5.971.925,7.569,2.355l1.093,1.009-2.607.925a19.46,19.46,0,0,0-2.943,1.766c-1.261.841-2.271,1.514-3.28,1.514a2.272,2.272,0,0,1-1.43-.589c0,.336-.084.673-.084,1.093v.841l-.841.084c-.252,0-.5.084-.673.084a2.168,2.168,0,0,1-1.682-.589,3.389,3.389,0,0,1-3.28,2.018h-.757Z" transform="translate(-51.401 -16.295)"/>
      <path id="Path_386" data-name="Path 386" class="cls-2" d="M60.973,17.125c2.859,0,5.718.841,7.232,2.186l.589.5-1.934.757a26.034,26.034,0,0,0-3.027,1.766,6.045,6.045,0,0,1-3.027,1.43,1.628,1.628,0,0,1-1.514-1.261,3.678,3.678,0,0,0-.336,2.186v.42l-.42.084c-.252,0-.42.084-.673.084A1.575,1.575,0,0,1,56.1,24.021a3.083,3.083,0,0,1-3.2,2.607h-.42l-.084-.42q-.757-3.91,1.261-6.307c1.514-1.766,4.121-2.775,7.316-2.775m0-.925a10.555,10.555,0,0,0-7.989,3.112,8.058,8.058,0,0,0-1.43,7.064l.084.42.168.757h1.177a3.693,3.693,0,0,0,3.364-1.766,2.88,2.88,0,0,0,1.514.336,2.328,2.328,0,0,0,.757-.084l.42-.084.757-.084V24.525a2.534,2.534,0,0,0,1.009.252c1.093,0,2.186-.673,3.532-1.6A15.971,15.971,0,0,1,67.2,21.5l1.934-.757,1.346-.5-1.093-1.009-.589-.5C67.112,17.125,64,16.2,60.973,16.2Z" transform="translate(-51.315 -16.2)"/>
    </g>
    <g id="Group_83" data-name="Group 83" transform="translate(-162.522 -3868.064)">
      <path id="Path_387" data-name="Path 387" class="cls-3" d="M91.667,27.364a3.308,3.308,0,0,1-3.2-2.1,2.468,2.468,0,0,1-1.6.589,3.155,3.155,0,0,1-.841-.084l-.841-.168V23.664a1.627,1.627,0,0,1-1.346.589c-1.009,0-2.018-.673-3.28-1.6a19.621,19.621,0,0,0-2.943-1.85L75.1,19.712,76.277,18.7c1.6-1.346,4.373-2.1,7.232-2.1,3.364,0,6.223,1.093,7.821,3.112q2.144,2.649,1.261,6.812l-.168.757Z" transform="translate(-74.343 -16.264)"/>
      <path id="Path_388" data-name="Path 388" class="cls-2" d="M83.366,17.125c3.28,0,5.971,1.093,7.484,2.943,1.346,1.682,1.682,3.784,1.177,6.475l-.084.42h-.42c-2.271-.084-2.775-1.6-3.112-2.691a1.58,1.58,0,0,1-1.766,1.177,2.328,2.328,0,0,1-.757-.084l-.42-.084v-.42a3.678,3.678,0,0,0-.336-2.186,1.715,1.715,0,0,1-1.514,1.261c-.841,0-1.766-.673-3.027-1.514a20.649,20.649,0,0,0-3.027-1.85l-1.934-.841.589-.5a11.821,11.821,0,0,1,7.148-2.1m0-.925c-2.943,0-5.887.841-7.484,2.271l-.589.5L74.2,19.9l1.346.589,1.85.757a18.455,18.455,0,0,1,2.859,1.766c1.346.925,2.439,1.682,3.532,1.682a1.972,1.972,0,0,0,.925-.168v1.346l.757.168.336.084a3.155,3.155,0,0,0,.841.084,2.577,2.577,0,0,0,1.43-.336,3.736,3.736,0,0,0,3.364,1.85h1.177l.168-.757.084-.42c.589-2.943.168-5.3-1.346-7.232C89.842,17.377,86.9,16.2,83.366,16.2Z" transform="translate(-74.2 -16.2)"/>
    </g>
    <g id="Group_84" data-name="Group 84" transform="translate(-170.763 -3881.688)">
      <path id="Path_389" data-name="Path 389" class="cls-6" d="M71.139,12.441c-.5-.757-1.093-1.514-1.6-2.186-1.009-1.261-1.85-2.271-1.43-3.364H67.018l-.252-.757a2.548,2.548,0,0,1,0-1.766A3.235,3.235,0,0,1,65.084,1.93L65,.836,66.009.668A9.266,9.266,0,0,1,67.523.5a6.511,6.511,0,0,1,5.971,3.784c1.514,2.943,1.43,7.148,0,9.166L72.484,14.8Z" transform="translate(-64.495 -0.08)"/>
      <path id="Path_390" data-name="Path 390" class="cls-2" d="M67.427.925a6.049,6.049,0,0,1,5.55,3.532c1.43,2.775,1.43,6.812,0,8.662l-.589.841-.925-1.766a26.528,26.528,0,0,0-1.6-2.271c-1.009-1.261-1.682-2.1-1.346-2.943a1.759,1.759,0,0,1,.336-.5,3.465,3.465,0,0,0-1.009-.084h-.589l-.084-.5A1.97,1.97,0,0,1,67.259,4.2a.082.082,0,0,1,.084-.084,2.944,2.944,0,0,1-1.85-2.355l-.084-.589L66,1.093a4.166,4.166,0,0,1,1.43-.168m0-.925a11.491,11.491,0,0,0-1.6.168l-.589.084L64.4.42l.168.841.084.589a3.447,3.447,0,0,0,1.6,2.607,3.3,3.3,0,0,0,.084,1.682l.168.42.084.757h.841c0,1.093.757,2.018,1.682,3.2a19.08,19.08,0,0,1,1.514,2.1l.925,1.766.673,1.261.841-1.177.589-.841c1.6-2.186,1.682-6.475.084-9.587A6.77,6.77,0,0,0,67.427,0Z" transform="translate(-64.4)"/>
    </g>
    <text id="TM" class="cls-7" transform="translate(-65.807 -3862.892)"><tspan x="0" y="0">TM</tspan></text>
    <text id="TM-2" data-name="TM" class="cls-8" transform="translate(-65.807 -3862.892)"><tspan x="0" y="0">TM</tspan></text>
    <text id="TM-3" data-name="TM" class="cls-7" transform="translate(-65.807 -3862.892)"><tspan x="0" y="0">TM</tspan></text>
    <g id="Group_85" data-name="Group 85" transform="translate(-168.661 -3865.793)">
      <path id="Path_391" data-name="Path 391" class="cls-3" d="M67.836,54.315c2.018-6.644,1.682-12.278,1.43-17.66-.336-5.3-.589-10.26,1.514-15.137a5.511,5.511,0,0,1,1.934-1.934.506.506,0,0,1,.336-.084c.757,0,1.093,1.009,1.093,1.177v.168l-.084.168c-1.009,3.027-.084,9.419.925,16.146.5,3.28,1.009,6.644,1.261,9.671-.168,5.466-4.2,7.148-7.989,8.073l-.757.168Z" transform="translate(-66.995 -18.995)"/>
      <path id="Path_392" data-name="Path 392" class="cls-2" d="M73.039,19.825c.42,0,.673.841.673.841-1.6,4.709,1.261,16.567,2.186,26.069-.168,5.214-4.121,6.728-7.653,7.569,4.121-13.287-1.261-23.126,2.943-32.8a4.767,4.767,0,0,1,1.682-1.682h.168m0-.925a1.642,1.642,0,0,0-.589.084,4.642,4.642,0,0,0-2.1,2.1h0c-2.186,5.046-1.85,10.007-1.6,15.389.336,5.382.673,11.016-1.346,17.492l-.5,1.514,1.514-.336c3.784-.925,8.157-2.691,8.325-8.409v-.168c-.252-3.112-.757-6.475-1.261-9.755-.925-6.391-1.934-13.035-.925-15.978l.084-.252-.084-.084c-.168-.757-.673-1.6-1.514-1.6Z" transform="translate(-66.9 -18.9)"/>
    </g>
    <path id="Path_393" data-name="Path 393" class="cls-2" d="M69.8,16.709l1.934.673L71.482,15.7l1.346,1.261L74,15.784l.5,1.766,4.373-1.261L75.1,18.9l-.841.5s-1.43-.757-2.1-.084c-.084,0-1.85-1.093-1.85-1.093Z" transform="translate(-236.022 -3884.185)"/>
  </g>
</svg>
