<svg xmlns="http://www.w3.org/2000/svg" viewBox="0 0 127.547 47.48">
  <defs>
    <style>
      .cls-1 {
        fill: #004785;
      }

      .cls-2 {
        fill: #fff;
      }

      .cls-3 {
        fill: #fdb924;
      }
    </style>
  </defs>
  <g id="ThePick_logo_4c" transform="translate(211 3272)">
    <g id="Group_148" data-name="Group 148" transform="translate(-88.378 -3228.106)">
      <path id="Path_633" data-name="Path 633" class="cls-1" d="M202.49,72.6h-.79v-.3h1.945v.3h-.79v2.371h-.365Z" transform="translate(-201.7 -72.239)"/>
      <path id="Path_634" data-name="Path 634" class="cls-1" d="M207.649,73.72c0-.365-.061-.79-.061-1.155h0a9.375,9.375,0,0,1-.3,1.034l-.486,1.277h-.243L206.13,73.6a9.375,9.375,0,0,1-.3-1.034h0a7.752,7.752,0,0,1-.061,1.155l-.061,1.155h-.3l.182-2.675h.426l.426,1.277a5.065,5.065,0,0,1,.243.912h0c.061-.243.182-.547.3-.912l.486-1.277h.426l.182,2.675h-.3Z" transform="translate(-203.151 -72.2)"/>
    </g>
    <path id="Path_635" data-name="Path 635" class="cls-1" d="M0,9.6v6.991H5.411v26.75H0v6.991H21.339V43.4H15.016V35.681h6.931c6.323,0,14.712-1.4,14.712-13.314,0-11.369-8.39-12.706-14.712-12.706H0Zm18.664,6.991c2.8,0,5.411,0,6.931,1.52.973.973,1.4,2.493,1.4,4.62,0,4.924-3.161,5.9-8.207,5.9h-3.83V16.591Z" transform="translate(-211 -3275.764)"/>
    <g id="Group_149" data-name="Group 149" transform="translate(-172.517 -3254.917)">
      <path id="Path_636" data-name="Path 636" class="cls-1" d="M63.3,28.1v6.687h3.952V50.959H63.3v6.687H80.444V50.959H76.492v-22.8H63.3Z" transform="translate(-63.3 -28.1)"/>
    </g>
    <g id="Group_150" data-name="Group 150" transform="translate(-124.246 -3267.015)">
      <path id="Path_637" data-name="Path 637" class="cls-1" d="M142.7,8.2v6.687h3.952V43.1H142.7v6.687h16.536V43.1h-3.344V40.239c.365-.3,3.465-2.736,4.316-3.344.547.851,3.161,4.864,4.012,6.262h-2.8v6.687h16.6V43.157h-3.587c-.365-.486-6.991-10.639-7.6-11.551.79-.608,5.9-4.377,6.2-4.62H176.5V20.3H159.236v6.687h2.736c-1.581,1.216-4.742,3.708-6.019,4.681V8.2H142.7Z" transform="translate(-142.7 -8.2)"/>
    </g>
    <g id="Group_152" data-name="Group 152" transform="translate(-154.583 -3255.768)">
      <g id="Group_151" data-name="Group 151" transform="translate(0 0)">
        <path id="Path_638" data-name="Path 638" class="cls-1" d="M92.8,42.932c0,6.931,4.012,15.016,15.381,15.016,7.539,0,12.584-4.316,13.192-11.247l.061-.669h-8.511l-.061.547a4.413,4.413,0,0,1-4.62,4.377q-5.836,0-5.836-8.754c0-4.012.973-8.815,5.654-8.815,3.465,0,4.985,1.641,5.168,5.715v.608h7.539V27.551h-7.3V29.8a9.487,9.487,0,0,0-7.174-3.1C97.785,26.7,92.8,32.6,92.8,42.932Z" transform="translate(-92.8 -26.7)"/>
      </g>
    </g>
    <g id="Group_158" data-name="Group 158" transform="translate(-172.213 -3272)">
      <g id="Group_155" data-name="Group 155" transform="translate(0)">
        <g id="Group_153" data-name="Group 153">
          <path id="Path_639" data-name="Path 639" class="cls-2" d="M78.512,7.356A7.356,7.356,0,1,1,71.156,0,7.343,7.343,0,0,1,78.512,7.356Z" transform="translate(-63.8)"/>
        </g>
        <g id="Group_154" data-name="Group 154">
          <path id="Path_640" data-name="Path 640" class="cls-3" d="M78.512,7.356A7.356,7.356,0,1,1,71.156,0,7.343,7.343,0,0,1,78.512,7.356Z" transform="translate(-63.8)"/>
        </g>
      </g>
      <g id="Group_157" data-name="Group 157" transform="translate(1.093 1.045)">
        <g id="Group_156" data-name="Group 156">
          <path id="Path_641" data-name="Path 641" d="M76.056,16.119c-2.128,1.034-8.876.182-10.4-6.019-.547,4.62,2.614,7.782,6.079,7.782A5.943,5.943,0,0,0,76.056,16.119Z" transform="translate(-65.598 -5.005)"/>
          <path id="Path_642" data-name="Path 642" d="M81.7,5.112c-1.094-3.648-4.924-3.465-5.411-3.344A9.157,9.157,0,0,1,81.7,5.112Z" transform="translate(-69.786 -1.719)"/>
        </g>
        <path id="Path_643" data-name="Path 643" class="cls-2" d="M74.486,5.4c1.885.243,3.1,2.979,3.1,2.979S75.094,6.251,73.21,6.373C72.541,6.434,74.486,5.4,74.486,5.4Z" transform="translate(-68.527 -3.162)"/>
      </g>
    </g>
    <g id="Group_161" data-name="Group 161" transform="translate(-156.954 -3271.635)">
      <g id="Group_159" data-name="Group 159" transform="translate(0 0.061)">
        <path id="Path_644" data-name="Path 644" class="cls-1" d="M88.9.7V5.138h2.432V2.767h1.277V11.4h-1.7v2.067h6.323V11.4h-1.7V2.767H96.8V5.138h2.432V.7Z" transform="translate(-88.9 -0.7)"/>
      </g>
      <g id="Group_160" data-name="Group 160" transform="translate(10.943 0)">
        <path id="Path_645" data-name="Path 645" class="cls-1" d="M106.9.6V2.606h1.155v8.815H106.9v2.006h5.046V11.421h-1.094v-3.1a1.908,1.908,0,0,1,1.763-1.885c.547,0,1.155.3,1.155,1.581v3.465h-1.094v2.006h5.046V11.482h-1.155V7.652c0-2.128-1.094-3.283-3.222-3.283a2.981,2.981,0,0,0-2.493,1.155V.661H106.9Z" transform="translate(-106.9 -0.6)"/>
      </g>
    </g>
    <path id="Path_646" data-name="Path 646" class="cls-1" d="M124.7,11.36c0,2.979,1.763,4.8,4.742,4.8,2.31,0,3.83-1.094,4.195-3.04V13h-2.614v.061a1.325,1.325,0,0,1-1.52,1.094,1.851,1.851,0,0,1-1.945-1.945h6.14v-.973a6.6,6.6,0,0,0-.122-1.034,4.068,4.068,0,0,0-4.256-3.4A4.356,4.356,0,0,0,124.7,11.36Zm2.857-1.034A1.619,1.619,0,0,1,129.2,8.745a1.515,1.515,0,0,1,1.641,1.581Z" transform="translate(-259.889 -3274.666)"/>
  </g>
</svg>
