<svg xmlns="http://www.w3.org/2000/svg" viewBox="0 0 142.753 70.355">
  <defs>
    <style>
      .cls-1 {
        fill: #004785;
      }

      .cls-2 {
        fill: #fff;
      }

      .cls-3 {
        fill: #fdb924;
      }
    </style>
  </defs>
  <g id="Pick3_logo_4c" transform="translate(218 3591)">
    <g id="Group_101" data-name="Group 101" transform="translate(-80.458 -3523.602)">
      <path id="Path_481" data-name="Path 481" class="cls-1" d="M196.145,96.082H195.3V95.8h2.113v.282H196.5v2.535h-.352Z" transform="translate(-195.3 -95.73)"/>
      <path id="Path_482" data-name="Path 482" class="cls-1" d="M201.035,97.39c0-.423-.07-.916-.07-1.268h0a6.2,6.2,0,0,1-.352,1.056l-.493,1.409h-.282l-.493-1.338a10.027,10.027,0,0,1-.352-1.127h0a8.087,8.087,0,0,1-.07,1.268l-.07,1.2H198.5l.211-2.887h.493l.493,1.409a5.187,5.187,0,0,1,.282.986h0a7.227,7.227,0,0,1,.282-.986l.493-1.409h.493l.211,2.887h-.352Z" transform="translate(-196.246 -95.7)"/>
    </g>
    <path id="Path_483" data-name="Path 483" class="cls-1" d="M0,18.6v5.916H4.578V47.123c-.845-.07-4.578-.07-4.578-.07v5.916H18.029V47.052H12.677V40.5h5.845c5.352,0,12.395-1.2,12.395-11.2,0-9.578-7.113-10.7-12.395-10.7H0Zm15.775,5.845c2.324,0,4.578,0,5.845,1.268a5.42,5.42,0,0,1,1.2,3.873c0,4.155-2.676,5-6.9,5h-3.24V24.445Z" transform="translate(-218 -3596.501)"/>
    <g id="Group_102" data-name="Group 102" transform="translate(-185.534 -3568.534)">
      <path id="Path_484" data-name="Path 484" class="cls-1" d="M46.1,31.97V37.6h3.31V51.2H46.1v5.634H60.537V51.2h-3.31V31.9H46.1Z" transform="translate(-46.1 -31.9)"/>
    </g>
    <g id="Group_103" data-name="Group 103" transform="translate(-144.827 -3578.676)">
      <path id="Path_485" data-name="Path 485" class="cls-1" d="M103.9,17.5v5.634h3.31v23.8H103.9v5.634h13.944V46.938h-2.817V44.544c.352-.282,2.958-2.324,3.592-2.817.493.7,2.676,4.155,3.38,5.282H119.6v5.634H133.62V47.008h-3.028c-.282-.423-5.916-9.015-6.409-9.719.7-.493,5-3.662,5.212-3.873h2.887V27.782H117.7v5.634h2.324c-1.338,1.056-4.014,3.1-5.071,3.944V17.57H103.9Z" transform="translate(-103.9 -17.5)"/>
    </g>
    <g id="Group_105" data-name="Group 105" transform="translate(-170.392 -3569.168)">
      <g id="Group_104" data-name="Group 104" transform="translate(0 0)">
        <path id="Path_486" data-name="Path 486" class="cls-1" d="M67.6,44.663c0,5.845,3.38,12.677,12.958,12.677,6.338,0,10.634-3.662,11.127-9.508l.07-.563H84.573l-.07.493a3.685,3.685,0,0,1-3.873,3.662c-3.24,0-4.93-2.465-4.93-7.395,0-3.38.845-7.395,4.789-7.395,2.958,0,4.226,1.409,4.366,4.859v.493h6.409V31.7H85.136v1.9A8.063,8.063,0,0,0,79.079,31C71.826,31,67.6,36,67.6,44.663Z" transform="translate(-67.6 -31)"/>
      </g>
    </g>
    <g id="Group_106" data-name="Group 106" transform="translate(-185.252 -3582.832)">
      <path id="Path_487" data-name="Path 487" class="cls-2" d="M58.895,17.8a6.2,6.2,0,1,1-6.2-6.2A6.162,6.162,0,0,1,58.895,17.8Z" transform="translate(-46.5 -11.598)"/>
    </g>
    <g id="Group_107" data-name="Group 107" transform="translate(-185.252 -3582.832)">
      <path id="Path_488" data-name="Path 488" class="cls-3" d="M58.895,17.8a6.2,6.2,0,1,1-6.2-6.2A6.162,6.162,0,0,1,58.895,17.8Z" transform="translate(-46.5 -11.598)"/>
    </g>
    <g id="Group_108" data-name="Group 108" transform="translate(-184.395 -3582.017)">
      <path id="Path_489" data-name="Path 489" d="M56.578,23.971c-1.831.845-7.536.141-8.8-5.071-.493,3.873,2.183,6.55,5.141,6.55A5.006,5.006,0,0,0,56.578,23.971Z" transform="translate(-47.716 -14.572)"/>
      <path id="Path_490" data-name="Path 490" d="M60.173,15.6c-.916-3.1-4.155-2.887-4.578-2.817C55.384,12.857,58.413,13.209,60.173,15.6Z" transform="translate(-50.043 -12.755)"/>
    </g>
    <path id="Path_491" data-name="Path 491" class="cls-2" d="M54.406,15.4c1.549.211,2.606,2.465,2.606,2.465S54.9,16.1,53.35,16.175C52.787,16.316,54.406,15.4,54.406,15.4Z" transform="translate(-233.743 -3595.554)"/>
    <path id="Path_492" data-name="Path 492" class="cls-3" d="M78.2,5a5,5,0,1,1-5-5A5.02,5.02,0,0,1,78.2,5Z" transform="translate(-238.17 -3591)"/>
    <g id="Group_109" data-name="Group 109" transform="translate(-169.093 -3590.114)">
      <path id="Path_493" data-name="Path 493" d="M76.456,10.114c-1.409.7-5.916.141-6.972-4.014-.352,3.1,1.761,5.212,4.085,5.212A4.265,4.265,0,0,0,76.456,10.114Z" transform="translate(-69.445 -2.69)"/>
      <path id="Path_494" data-name="Path 494" d="M79.189,3.541A3.289,3.289,0,0,0,75.6,1.288,6.067,6.067,0,0,1,79.189,3.541Z" transform="translate(-71.263 -1.258)"/>
    </g>
    <path id="Path_495" data-name="Path 495" class="cls-2" d="M75.509,4.1c1.268.211,2.042,1.972,2.042,1.972s-1.62-1.409-2.887-1.338C74.241,4.8,75.509,4.1,75.509,4.1Z" transform="translate(-240.056 -3592.212)"/>
    <path id="Path_496" data-name="Path 496" class="cls-2" d="M90.5,7.851A3.451,3.451,0,1,1,93.951,11.3,3.456,3.456,0,0,1,90.5,7.851Z" transform="translate(-244.765 -3592.301)"/>
    <path id="Path_497" data-name="Path 497" class="cls-3" d="M97.729,7.614A4.014,4.014,0,1,1,93.714,3.6,4.012,4.012,0,0,1,97.729,7.614Z" transform="translate(-244.528 -3592.065)"/>
    <g id="Group_110" data-name="Group 110" transform="translate(-154.295 -3587.763)">
      <path id="Path_498" data-name="Path 498" d="M96.121,11.74A4.572,4.572,0,0,1,90.487,8.5a3.559,3.559,0,0,0,3.31,4.226A3.041,3.041,0,0,0,96.121,11.74Z" transform="translate(-90.456 -5.751)"/>
      <path id="Path_499" data-name="Path 499" d="M98.357,6.43A2.8,2.8,0,0,0,95.4,4.6,4.714,4.714,0,0,1,98.357,6.43Z" transform="translate(-91.917 -4.597)"/>
    </g>
    <path id="Path_500" data-name="Path 500" class="cls-2" d="M95.492,6.9c.986.141,1.69,1.62,1.69,1.62a4.4,4.4,0,0,0-2.324-1.056C94.436,7.463,95.492,6.9,95.492,6.9Z" transform="translate(-246.024 -3593.041)"/>
    <path id="Path_501" data-name="Path 501" class="cls-1" d="M177.648,54.241a10.424,10.424,0,0,0,5.282-9.367,12.389,12.389,0,0,0-7.676-11.761A18.165,18.165,0,0,0,166.38,31c-10.282,0-15.916,5.352-15.916,15v1.62l1.268.634h11.9v-1.9c0-1.549.423-2.887,3.38-2.887a3.568,3.568,0,0,1,.916.141,2.6,2.6,0,0,1,.775,1.9c0,1.056,0,4.3-5.916,4.3h-1.9v9.085l1.268.634h1.9a10.264,10.264,0,0,1,3.592.493,3.652,3.652,0,0,1,1.549,3.24c0,2.183-1.338,3.662-3.31,3.662a3.5,3.5,0,0,1-1.268-.141,4.169,4.169,0,0,1-.775-2.887V62.2l-1.268-.634H149.97l-.07,1.9v.775c0,6.268,2.817,10.775,7.888,13.029a19.171,19.171,0,0,0,9.648,2.254c9.86,0,16.409-5.775,16.409-14.367C183.916,60.015,181.521,56.072,177.648,54.241Z" transform="translate(-262.332 -3600.168)"/>
    <path id="Path_502" data-name="Path 502" class="cls-3" d="M167.06,33.3c8.169,0,13.663,4.648,13.663,11.55,0,4.578-2.817,8.169-7.606,9.367v.423c5.282.563,8.522,4.648,8.522,10.423,0,7.606-5.916,12.747-14.789,12.747-9.3,0-14.649-4.719-14.649-12.958,0,0,.07-.845.07-.986h9.367v.07c0,3.592,1.62,5.282,5,5.282,2.887,0,4.93-2.183,4.93-5.282,0-3.873-2.887-6.057-8.1-6.057h-.282V52.033h.282c6.268,0,7.536-3.24,7.536-5.916,0-2.606-1.831-4.3-4.648-4.3-3.24,0-5,1.549-5,4.578v.282h-8.662C152.834,37.948,157.764,33.3,167.06,33.3Z" transform="translate(-263.012 -3600.848)"/>
  </g>
</svg>
