<svg width="117" height="117" xmlns="http://www.w3.org/2000/svg" xmlns:xlink="http://www.w3.org/1999/xlink"><defs><path d="M.727 50.865c-4.148 31.71 18.272 60.88 49.98 65.03 2.515.33 5.07.497 7.59.497 28.98 0 53.67-21.7 57.44-50.474 2.01-15.36-2.082-30.584-11.52-42.866C94.776 10.77 81.116 2.898 65.756.89a58.58 58.58 0 0 0-7.593-.498c-28.978 0-53.67 21.7-57.437 50.473z" id="a"/></defs><g fill="none" fill-rule="evenodd"><path d="M104.106 23.052C94.666 10.77 81.006 2.898 65.648.888a58.644 58.644 0 0 0-7.595-.496c-28.976 0-53.67 21.7-57.435 50.473-4.15 31.708 18.272 60.88 49.98 65.03 2.514.33 5.068.497 7.588.497 28.98 0 53.674-21.7 57.44-50.474 2.01-15.36-2.08-30.583-11.52-42.866" fill="#8BB331"/><mask id="b" fill="#fff"><use xlink:href="#a"/></mask><path fill="#6F8A30" mask="url(#b)" d="M89.943 55.56l-9.082-3.08-9.24 9.24 1.352-1.128-2.198-8.098-6.286 6.286-2.008-6.32-3.308 3.084-1.794-.523-6.857-1.234-5.682 5.683-1.213-3.156-4.244-3.827L28.63 63.24l-1.426-.305 6.68-6.57-4.49-3.03-4.326 1.164-1.545-.438L1.666 75.92l-.1.69 4.09 8.386 2.35 4.82.523-.522 3.335 4.99-.314.316 2.166 2.454 1.47 2.2.25-.25 1.043 1.18-.134.134.7.508 3.14 3.558.737-.74 6.763 4.917-.394.395 2.032.797 1.058.768.254-.253 7.586 5.14 51.46-51.46-2.314-5.812"/><g fill="#FEFEFE"><path d="M30.657 61.316c-.895.41-1.594.587-2.337.587-1.777 0-2.838-1.152-2.838-3.082 0-1.825.997-3.1 2.424-3.1.635 0 1.064.172 1.836.737l1.886 1.39 2.294-1.48-.053-.134c-.99-2.51-3.088-3.95-5.757-3.95-3.816 0-6.482 2.72-6.482 6.613 0 3.884 2.604 6.596 6.333 6.596 2.313 0 4.85-1.244 6.166-3.03l.072-.096-1.375-2.033-2.17.983zM41.3 56.503c.208.698.55 1.637 1.043 2.94l.293.823h-2.562l.264-.824c.438-1.254.766-2.234.96-2.94m1.53-4.03h-3.454L34.66 65.065l-.087.238h3.34c.278 0 .458-.068.562-.403l.562-1.668h4.743l.636 1.677c.127.33.3.394.577.394h3.462L43.388 52.87c-.12-.342-.27-.4-.56-.4m13.144 4.6l-1.168-.283c-1.124-.273-1.504-.457-1.504-.735 0-.35.46-.464 1.897-.464.568 0 1.412.05 2.505.15l1.677.165.614-2.584-.128-.062c-1.28-.602-3.068-.976-4.67-.976-3.485 0-5.484 1.402-5.484 3.847 0 2.606 2.118 3.476 4.407 4.028l1.243.302c1.314.313 1.635.487 1.635.882 0 .56-.606.844-1.8.844-.807 0-2.005-.153-3.375-.43l-1.467-.293-.89 2.502.128.073c1.612.91 3.728 1.454 5.66 1.454 3.313 0 5.37-1.692 5.37-4.41 0-2.438-1.566-3.264-4.652-4.013m14.858.053h-4.642v-4.65h-3.7v12.834h3.7V60.35h4.642v4.954h3.7V52.47h-3.7m15.556 4.33c-.728 0-1.506.142-2.183.393.03-.297.04-.704.04-1.215v-.408h5.707v-3.1H80.9v6.37c0 .283.045.4.333.565l1.337.754c.317.177.516.204.818.063.667-.306 1.538-.512 2.167-.512.582 0 1.558.15 1.558 1.145 0 .82-.677 1.332-1.765 1.332-.612 0-1.313-.14-2.338-.462l-1.758-.573-1.188 2.187.098.092c1.333 1.232 3.507 2.06 5.41 2.06 3.147 0 5.26-1.856 5.26-4.62 0-2.472-1.747-4.07-4.448-4.07m8.11-4.111h.835l.542 1.413.524-1.414h.84v2.33h-.577V53.27l-.657 1.747h-.258l-.674-1.748v1.747h-.576v-2.33zm-2.54 0h2.07v.475h-.718v1.854h-.635v-1.855h-.716v-.476z"/></g></g></svg>