<svg width="117" height="117" xmlns="http://www.w3.org/2000/svg" xmlns:xlink="http://www.w3.org/1999/xlink"><defs><path d="M46.303 1.7C31.16 4.96 18.193 13.92 9.788 26.93 1.385 39.94-1.448 55.45 1.81 70.59c2.805 13.04 10.08 24.795 20.487 33.102 10.26 8.19 23.098 12.7 36.15 12.7 4.095 0 8.218-.44 12.253-1.31 31.26-6.723 51.218-37.63 44.493-68.888-2.807-13.04-10.08-24.795-20.487-33.102-10.258-8.19-23.098-12.7-36.15-12.7-4.096 0-8.217.44-12.253 1.31z" id="a"/></defs><g fill="none" fill-rule="evenodd"><path d="M115.192 46.194c-2.805-13.04-10.08-24.795-20.487-33.102-10.258-8.19-23.097-12.7-36.15-12.7-4.094 0-8.217.44-12.253 1.31C31.16 4.958 18.192 13.918 9.788 26.93 1.385 39.94-1.45 55.447 1.81 70.59c2.805 13.038 10.08 24.794 20.487 33.1 10.26 8.19 23.098 12.7 36.15 12.7 4.095 0 8.217-.44 12.253-1.308 31.26-6.726 51.218-37.63 44.492-68.89" fill="#563281"/><mask id="b" fill="#fff"><use xlink:href="#a"/></mask><path fill="#411B61" mask="url(#b)" d="M86.58 62.367l-1.5-8.663-6.517-.06-9.108 9.108-5.126-4.36-2.126-.584-2.344-5.883-3.632 3.63-3.694-1.126-5.295-.76-5.74 5.74-1.73-7.522-5.426 5.428.66-1.92-8.247-3.51L-.626 79.27l6.345 7.227-.136.134 6.435 9.494.413-.415 1.942 1.87-.457.46 3.77 2.737 1.348 1.297.185-.186 6.052 4.394-2.346 2.348 13.746 6.092 51.158-51.16"/><g fill="#FEFEFE"><path d="M33.86 57.764c-.128.21-.21.254-.49.254h-2.914v-2.965h1.82c.903 0 1.29.082 1.534.326.184.182.307.602.307 1.042 0 .44-.09 1.058-.258 1.342M32.314 51.9h-5.56v12.83h3.7v-3.67h2.274c1.87 0 3.05-.38 3.946-1.276.773-.792 1.18-1.96 1.18-3.38 0-1.37-.378-2.447-1.124-3.194-.908-.907-2.27-1.31-4.417-1.31m7.44 12.83h3.7V51.9h-3.7m14.801 8.844c-.895.41-1.594.587-2.337.587-1.777 0-2.838-1.15-2.838-3.08 0-1.827.996-3.103 2.423-3.103.634 0 1.063.173 1.836.738l1.885 1.39 2.292-1.48-.052-.134c-.99-2.51-3.086-3.95-5.755-3.95-3.816 0-6.482 2.72-6.482 6.614 0 3.884 2.603 6.596 6.332 6.596 2.312 0 4.848-1.244 6.166-3.028l.074-.098-1.377-2.033-2.17.984zm17.114-6.834l-2.188-2.23-5.914 5.345v-5.127h-3.718V64.73h3.718v-4.467a5.981 5.981 0 0 0 1.47-.69l2.86 4.717c.254.42.487.44.843.44h3.63l-4.607-7.39 3.905-3.43zm15.818 4.094c.736-.736 1.14-1.65 1.14-2.6 0-2.278-1.834-3.694-4.787-3.694-1.79 0-3.674.672-5.173 1.845l-.112.086 1.065 2.276 1.875-.53c.904-.253 1.584-.37 2.137-.37 1.026 0 1.445.3 1.445 1.03 0 .286-.075.593-.15.725-.045.084-.074.118-.316.118h-2.717v2.396c0 .494.443.494.61.494h1.694c.517 0 .795.06.93.195.097.097.157.304.157.553 0 .27 0 1.087-1.633 1.087-.81 0-1.517-.144-2.596-.535l-1.795-.652-1.232 2.125.094.097c1.426 1.445 3.522 2.273 5.755 2.273 3.088 0 5.165-1.712 5.165-4.26 0-1.164-.524-2.056-1.556-2.656m5.711-5.823h.835l.543 1.414.524-1.414h.838v2.33h-.576v-1.747l-.656 1.747h-.258l-.674-1.747v1.747h-.577v-2.33zm-2.54 0h2.07v.476h-.718v1.854h-.636V52.66h-.717v-.476z"/></g></g></svg>