<?xml version="1.0" encoding="UTF-8"?><svg id="a" xmlns="http://www.w3.org/2000/svg" xmlns:xlink="http://www.w3.org/1999/xlink" viewBox="0 0 626.86 309.47"><defs><style>.c{fill:url(#b);}.d{font-family:Helvetica-Bold, Helvetica;font-size:9px;}.d,.e{fill:#f15a29;}.f,.g{fill:#fff;}.h{fill:#1e88c6;}.g{stroke:#ed1c24;stroke-miterlimit:10;stroke-width:4px;}</style><linearGradient id="b" x1="489.47" y1="258.05" x2="489.47" y2="20.76" gradientTransform="matrix(1, 0, 0, 1, 0, 0)" gradientUnits="userSpaceOnUse"><stop offset="0" stop-color="#ffcd00"/><stop offset=".03" stop-color="#fec401"/><stop offset=".21" stop-color="#f8910c"/><stop offset=".38" stop-color="#f46714"/><stop offset=".55" stop-color="#f1461b"/><stop offset=".72" stop-color="#ee2f20"/><stop offset=".87" stop-color="#ed2023"/><stop offset="1" stop-color="#ed1c24"/></linearGradient></defs><path class="f" d="M561.72,52.94c-2.54-4.82-5.47-9.32-8.75-13.41-25.01-31.26-71.39-32.85-80.43-32.85-3.6,0-6.86,.19-9.42,.56-6.42,.92-11.45,6.01-12.28,12.44-.8,6.09,2.35,11.97,7.74,14.73-22.54,5.57-42.95,17.16-59.75,34.07-5.57,5.61-10.5,11.68-14.88,18.05-.83-.15-1.64-.35-2.5-.35-.41,0-.82,.02-1.22,.05l-53.71,4.55c-3.13,.29-6.07,1.59-8.38,3.69-2.31-1.48-5.01-2.28-7.79-2.28-.41,0-.81,.02-1.22,.05l-40.6,3.44c-4.89,.42-9.13,3.27-11.41,7.39-8.67-4.43-18.67-6.75-29.55-6.75-2.18,0-4.38,.09-6.63,.28-12.82,1.08-24.8,4.89-35.3,11.08-2.72-2.76-6.43-4.31-10.29-4.31-.41,0-.81,.02-1.22,.05l-40.44,3.42c-6.06,.52-11.09,4.75-12.7,10.51-8.38-4.29-18.24-6.39-29.88-6.39-3.02,0-6.3,.14-9.74,.44l-36.41,3.08c-6.51,.55-11.85,5.4-13.01,11.84L6.46,281.06c-.58,4.33,1.16,9.48,4.18,12.66,2.74,2.89,7.19,3.72,11.14,3.72,.39,0,7.42-.55,7.42-.55,5.3-.43,9.73-3.74,11.88-8.38,.55,.06,37.25-2.42,37.66-2.43l-.11,.82c-.57,4.33,.85,8.67,3.85,11.83,2.74,2.88,6.53,4.5,10.47,4.5,.38,0,284.82-22.5,284.82-22.5,6.74-.54,12.21-5.66,13.16-12.36,0,0,1.4-10.5,1.42-10.91,3.1-1.78,5.8-4.16,7.8-7.11,23.14,22.65,54.75,36.67,89.56,36.68,.01,0,.36,0,.37,0,70.7-.21,128.04-57.89,127.83-128.58-.12-42.43-21.05-81.57-56.2-105.51Zm-187.13,161.9c-.13,.04-.27,.08-.4,.12-.12-.14-.2-.3-.33-.43,.05-.3,.1-.61,.13-.91,.19,.41,.39,.82,.59,1.22Z"/><path class="f" d="M561.47,52.57c-2.54-4.82-5.47-9.32-8.75-13.41-25.01-31.26-71.39-32.85-80.43-32.85-3.6,0-6.86,.19-9.42,.56-6.42,.92-11.45,6.01-12.28,12.44-.8,6.09,2.35,11.97,7.74,14.73-22.54,5.57-42.95,17.16-59.75,34.07-5.57,5.61-10.5,11.68-14.88,18.05-.83-.15-1.64-.35-2.5-.35-.41,0-.82,.02-1.22,.05l-53.71,4.55c-3.13,.29-6.07,1.59-8.38,3.69-2.31-1.48-5.01-2.28-7.79-2.28-.41,0-.81,.02-1.22,.05l-40.6,3.44c-4.89,.42-9.13,3.27-11.41,7.39-8.67-4.43-18.67-6.75-29.55-6.75-2.18,0-4.38,.09-6.63,.28-12.82,1.08-24.8,4.89-35.3,11.08-2.72-2.76-6.43-4.31-10.29-4.31-.41,0-.81,.02-1.22,.05l-40.44,3.42c-6.06,.52-11.09,4.75-12.7,10.51-8.38-4.29-18.24-6.39-29.88-6.39-3.02,0-6.3,.14-9.74,.44l-36.41,3.08c-6.51,.55-11.85,5.4-13.01,11.84L6.21,280.69c-.58,4.33,1.16,9.48,4.18,12.66,2.74,2.89,7.19,3.72,11.14,3.72,.39,0,7.42-.55,7.42-.55,5.3-.43,9.73-3.74,11.88-8.38,.55,.06,37.25-2.42,37.66-2.43l-.11,.82c-.57,4.33,.85,8.67,3.85,11.83,2.74,2.88,6.53,4.5,10.47,4.5,.38,0,284.82-22.5,284.82-22.5,6.74-.54,12.21-5.66,13.16-12.36,0,0,1.4-10.5,1.42-10.91,3.1-1.78,5.8-4.16,7.8-7.11,23.14,22.65,54.75,36.67,89.56,36.68,.01,0,.36,0,.37,0,70.7-.21,128.04-57.89,127.83-128.58-.12-42.43-21.05-81.57-56.2-105.51Zm-187.13,161.9c-.13,.04-.27,.08-.4,.12-.12-.14-.2-.3-.33-.43,.05-.3,.1-.61,.13-.91,.19,.41,.39,.82,.59,1.22Z"/><g><path class="g" d="M489.46,44.7h-.34c-30.34,.09-58.85,12.03-80.3,33.6-21.45,21.57-33.21,50.16-33.12,80.5,.19,62.54,51.21,113.41,113.75,113.42h.34c62.73-.19,113.61-51.37,113.42-114.09-.19-62.55-51.21-113.43-113.76-113.43Z"/><g><path class="f" d="M377.75,101.96l-49.46,4.19-24.8,28.45,4.89-26.77-37.7,3.18-4,22.08-.96-1.52c-8.93-14.07-24.57-21.16-43.7-19.55-18.43,1.56-34.69,10.04-45.77,23.88-2.3,2.88-4.38,6-6.17,9.24l-2.06,3.77,5.37-29.9-37.54,3.18-5.49,30.53-.85-2.77c-1.78-5.8-4.99-10.69-9.54-14.54-7.24-6.11-16.49-8.95-29.11-8.95-2.6,0-5.43,.13-8.4,.38l-35.34,2.99-19.54,108.61,37.68-3.18,5.04-28.05,11.59-.98c15.21-1.29,27.9-6.36,36.69-14.68,1.55-1.46,2.98-3.03,4.27-4.68l1.75-2.23-8.28,46.17,37.54-3.17,8.41-46.76,.66,4.02c3.93,23.82,22.42,38.62,48.25,38.62,1.86,0,3.78-.08,5.69-.24,13.83-1.17,25.63-6.29,35.07-15.21l1.55-1.46-2.34,13.04,37.69-3.19,4.35-24.7,8.77-9.53,15.09,31.85,40.23-3.41-27.71-55.61,48.19-53.08ZM78.97,174.97l-3.02,.25,2.62-14.88,5.72-.48c3.63-.31,6.17,.17,7.73,1.48,.83,.71,1.31,1.65,1.4,2.8,.73,8.6-9.86,10.43-14.45,10.82Zm177.37,16.11l-21.51-16.04-3.26,3.86c-5.35,6.34-9.83,9.01-16,9.54-.52,.04-1.04,.07-1.54,.07-7.71,0-12.74-4.94-13.43-13.21-1.2-14.19,8.4-27.07,20.96-28.13,6.86-.58,11.5,1.86,15.23,8.07l2.87,4.77,25.17-16.29-8.48,47.37Z"/><path class="h" d="M275.24,116.02l26.61-2.25-7.14,39.08,36.2-41.54,33.71-2.85-41.49,45.7,25.82,51.82-28.65,2.43-16.91-35.67-15.22,16.54-3.9,22.18-26.61,2.26,17.57-97.68Z"/><path class="h" d="M51.66,134.83l31.24-2.64c15.56-1.31,26.05,.96,33.6,7.33,5.48,4.62,8.49,10.96,9.16,18.88,2.01,23.74-15.98,40.1-44.23,42.49l-15.69,1.33-5.05,28.05-26.61,2.25,17.57-97.68Zm27.76,45.48c13.1-1.12,20.11-7.61,19.35-16.62-.22-2.59-1.38-4.84-3.3-6.46-2.81-2.37-6.72-3.14-11.63-2.72l-9.82,.83-4.55,25.81,9.96-.83Z"/><path class="h" d="M140.4,127.19l26.47-2.25-17.57,97.69-26.47,2.24,17.57-97.68Z"/><path class="h" d="M167.72,179.99c-2.4-28.24,18.05-59.52,54.75-62.62,19.51-1.65,33.82,6.62,40.79,20.87l-21.88,14.22c-4.48-7.46-10.86-11.45-20.28-10.65-15.83,1.35-27.26,17.29-25.85,33.93,1.02,12.15,9.71,18.97,20.76,18.04,8.33-.71,14.03-4.76,19.65-11.42l19.21,14.32c-8.39,11.29-20.32,19.71-38.46,21.25-26.47,2.24-46.54-12.41-48.69-37.93Z"/><path class="h" d="M92.02,161.34c-1.55-1.31-4.09-1.79-7.73-1.48l-5.72,.48-2.62,14.88,3.02-.25c4.59-.39,15.18-2.23,14.45-10.82-.09-1.15-.57-2.1-1.4-2.8Zm-13.17,12.23l-1.2,.1,2.12-12.03,4.64-.39c3.2-.28,5.45,.11,6.7,1.16,.56,.47,.85,1.06,.92,1.85,.62,7.33-9,8.95-13.17,9.3Z"/><path class="h" d="M236.78,155.22c-3.73-6.21-8.37-8.65-15.23-8.07-12.56,1.07-22.16,13.95-20.96,28.13,.7,8.27,5.72,13.21,13.43,13.21,.5,0,1.02-.02,1.54-.07,6.17-.53,10.66-3.2,16-9.54l3.26-3.86,21.51,16.04,8.48-47.37-25.17,16.29-2.87-4.77Zm18.58,33.36l-20.76-15.47-4.11,4.87c-5.08,6.02-9.3,8.55-15.05,9.04-.48,.04-.95,.06-1.42,.06-6.91,0-11.4-4.46-12.03-11.92-1.13-13.43,7.88-25.61,19.68-26.61,6.25-.53,10.48,1.68,13.91,7.39l3.61,6.01,23.68-15.32-7.51,41.95Z"/><path class="h" d="M381.19,100.26l-53.31,4.51-.29,.02-21.81,25.03,4.31-23.55-40.6,3.44-3.56,19.65c-9.36-13.55-25.04-20.34-44.04-18.73-18.82,1.59-35.42,10.26-46.75,24.4-1.54,1.93-2.98,3.95-4.3,6.05l4.25-23.61-40.44,3.42-4.69,26.11c-1.96-4.96-5.01-9.2-9.09-12.65-7.5-6.33-17.04-9.28-30.01-9.28-2.64,0-5.51,.13-8.53,.38l-36.41,3.08-20.06,111.47,40.58-3.43,5.04-28.05,10.52-.9c15.53-1.31,28.51-6.52,37.54-15.06,.94-.89,1.84-1.82,2.7-2.78l-7.63,42.58,40.44-3.42,7.23-40.17c5.26,22.4,23.68,36.14,48.91,36.14,1.91,0,3.86-.09,5.81-.25,13.41-1.14,24.97-5.91,34.38-14.19l-1.92,10.71,40.6-3.44,4.45-25.36,7.09-7.69,14.61,30.85,43.27-3.66-28.21-56.61,49.95-55.02Zm-64.15,113.8l-15.09-31.85-8.77,9.53-4.35,24.7-37.69,3.19,2.34-13.04-1.55,1.46c-9.44,8.92-21.25,14.04-35.07,15.21-1.91,.16-3.82,.24-5.69,.24-25.83,0-44.32-14.79-48.25-38.62l-.66-4.02-8.41,46.76-37.54,3.17,8.28-46.17-1.75,2.23c-1.29,1.65-2.72,3.22-4.27,4.68-8.79,8.32-21.48,13.4-36.69,14.68l-11.59,.98-5.04,28.05-37.68,3.18,19.54-108.61,35.34-2.99c2.97-.25,5.8-.38,8.4-.38,12.62,0,21.87,2.84,29.11,8.95,4.55,3.84,7.76,8.74,9.54,14.54l.85,2.77,5.49-30.53,37.54-3.18-5.37,29.9,2.06-3.77c1.78-3.25,3.86-6.36,6.17-9.24,11.09-13.83,27.34-22.32,45.77-23.88,19.13-1.6,34.77,5.48,43.7,19.55l.96,1.52,4-22.08,37.7-3.18-4.89,26.77,24.8-28.45,49.46-4.19-48.19,53.08,27.71,55.61-40.23,3.41Z"/></g><g><path class="e" d="M24.62,259.64l6.46-1.29-.27,1.93c.93-1.37,2.29-2.09,4.16-2.24,3.15-.25,5.69,1.59,6.02,5.73,.47,5.88-2.8,10.7-8.59,11.16-1.58,.12-2.73-.17-3.52-.69l-1.09,7.88-6.27,.5,3.09-22.98Zm5.53,5.32l-.67,4.97c.3,.52,.74,.75,1.7,.67,1.99-.16,3.62-2.06,3.31-5.96-.1-1.25-.77-1.94-1.8-1.86-1.09,.09-1.97,.9-2.54,2.18Z"/><path class="e" d="M45.74,249.87l6.46-1.29-3.46,24.79-6.27,.5,3.26-24Z"/><path class="e" d="M52.7,268.62c-.07-.87-.02-1.88,.16-2.92l1.21-8.41,6.5-1.3-1.44,9.11c-.08,.59-.16,1.28-.13,1.63,.07,.9,.49,1.22,1.35,1.16,1.03-.08,1.88-.73,2.59-1.99l1.43-9.69,6.35-1.02-1.73,11.65c-.13,.76-.26,1.54-.19,2.41,.04,.48,.27,1.76,.84,2.46l-6.52,.52c-.26-.5-.44-1.1-.54-1.93-.77,1.26-2.23,2.41-4.71,2.61-3.02,.24-4.94-1.52-5.16-4.28Z"/><path class="e" d="M72.7,270.33l-.62-4.12c1.14,.52,3.57,.98,5.95,.79,1.96-.16,2.72-.34,2.67-.96-.03-.39-.28-.62-1.59-.91l-1.28-.25c-2.83-.61-5.04-1.51-5.24-4.02-.29-3.57,2.56-6.03,8.09-6.46,2.64-.21,5.22,.59,6.03,1.43l.05,3.91c-1.19-.68-3.88-1.21-6-1.04-1.51,.12-1.99,.55-1.95,1.03,.04,.51,.79,.65,2.24,.95l1.28,.28c2.96,.67,4.55,1.93,4.72,4.06,.3,3.76-3.26,5.82-8.59,6.25-2.63,.21-4.55-.28-5.77-.93Z"/></g><path class="c" d="M587.4,140.54c-1.01-4.19-2.22-8.51-3.8-13.1-4.11-11.96-13.7-23.54-14.91-24.65-.3,1.77-6.49,19.89-9.09,25.17-4.83,9.82-13.85,17.69-20.05,18.42-6.2,.73-8.39-2.87-9.3-5.29-2.18-5.84,14-12.43,22.15-29.98,3.5-7.54,4.7-15.94,4.11-24.41h.11c-.83-13.69-6.47-27.63-15.18-38.52-21.26-26.57-65.1-28.64-76.52-27.01,7.69,3.27,13.52,11.58,12.59,24.64-.93,13.05-2.56,15.39-21.68,28.44-5.13,3.5-9.41,7.06-13.11,10.63v.5c-19.98,19.26-20.81,38.8-20,51.25,.27,4.19,2.65,16.03,2.95,17.1,.3,1.06-2.06,4.87-6.68-4.36-13.39-26.78,5.64-59.41,5.95-60.52-5.82,2.14-11.04,5.96-15.62,10.58-12.26,16.61-19.5,37.14-19.44,59.33,.16,54.74,44.83,99.28,99.58,99.29h.3c54.91-.16,99.45-44.97,99.28-99.88-.02-6.02-.6-11.9-1.65-17.63Z"/><g><path class="e" d="M98.39,244.88l30.21-2.39-1.2,9.65-18.15,1.44-1.23,9.23,14.86-1.18-1.04,7.75-14.8,1.17-2.22,16.91-12.12,.96,5.69-43.54Z"/><path class="e" d="M133.41,242.11l12.12-.96-5.69,43.54-12.12,.96,5.69-43.54Z"/><path class="e" d="M153.97,240.48l19.25-1.52c8.77-.69,14.66,3.99,15.21,10.99,.57,7.25-4.07,12.15-9.98,14.82,2.48,.42,3.52,3.4,3.76,6.51l.34,4.26c.29,3.59,1.33,4.43,2.83,5.54l-13.28,1.05c-1.35-1.55-1.85-3.22-1.91-5.61l-.09-4.28c-.08-3.37-.9-5.2-3.52-4.99l-4.14,.33-2.02,15.48-12.12,.96,5.69-43.54Zm10.86,8.7l-1.45,11.15,5.97-.47c5-.4,7.11-3.93,6.84-7.28-.21-2.62-2.23-4.12-6.06-3.81l-5.3,.42Z"/><path class="e" d="M196.67,237.1l30.21-2.39-1.2,9.65-18.15,1.44-1.13,8.24,14.92-1.18-1.04,7.74-14.86,1.18-1.06,8.24,18.21-1.44-1.38,9.67-30.21,2.39,5.69-43.54Z"/><path class="e" d="M233.13,234.22l18.76-1.48c9.5-.75,14.17,3.17,14.64,9.14,.41,5.17-2.73,9.59-7.44,11.37,3.04,.5,6.39,2.5,6.78,7.37,.6,7.61-5.35,14.52-17.23,15.46l-21.2,1.68,5.69-43.54Zm8.76,24.68l-1.07,8.24,7.55-.6c4.14-.33,5.72-2.84,5.53-5.22-.17-2.19-1.54-3.25-4.53-3.01l-7.49,.59Zm2.11-15.98l-1.13,8.24,6.4-.51c3.53-.28,5.56-2.59,5.33-5.45-.17-2.13-1.71-2.99-4.33-2.78l-6.28,.49Z"/><path class="e" d="M286.71,229.98l12.12-.96,8.87,42.38-11.45,.91-1.67-8.02-15.05,1.19-3.93,8.46-10.72,.85,21.83-44.82Zm-3.35,27.3l9.62-.76-2.86-13.69-6.76,14.45Z"/><path class="e" d="M316.59,227.61l12.12-.96-4.43,33.88,19.19-1.52-1.38,9.67-31.19,2.47,5.69-43.54Z"/><path class="e" d="M350.89,224.9l12.12-.96-4.43,33.87,19.19-1.52-1.38,9.67-31.19,2.47,5.69-43.54Z"/></g><path class="f" d="M449.9,97.23l-4.63,25.18,49.41-4.19-35.8,34.02,2.64,17.79,8.02-.67c15.84-1.34,25.99,3.25,26.84,13.31,.81,9.5-9.08,19.16-23.06,20.35-13.62,1.15-21.9-3.58-29.59-12.32l-19.92,17.45c9.82,14,25.96,22.78,50.39,20.72,31.12-2.64,53.08-24.96,50.86-51.24-1.61-19.02-13.78-27.56-30.52-30.09l39.41-35.63,4.14-22.12-88.17,7.45Z"/></g><path class="e" d="M377.49,232.55c-1.12,1.09-2.47,1.63-4.05,1.63s-3-.56-4.11-1.67c-1.11-1.11-1.67-2.48-1.67-4.11s.6-3.09,1.8-4.21c1.13-1.05,2.45-1.57,3.98-1.57s2.96,.56,4.09,1.69c1.13,1.13,1.69,2.49,1.69,4.09s-.58,3.02-1.73,4.15Zm-7.44-7.5c-.92,.94-1.38,2.06-1.38,3.35s.47,2.48,1.4,3.41c.93,.94,2.05,1.4,3.37,1.4s2.43-.47,3.36-1.41c.93-.95,1.4-2.08,1.4-3.4s-.46-2.4-1.39-3.35c-.94-.96-2.06-1.44-3.37-1.44s-2.46,.48-3.4,1.44Zm.86,6.56v-6.41c.4,0,.99,0,1.78,0,.79,0,1.23,0,1.32,.01,.51,.04,.93,.15,1.26,.33,.57,.31,.85,.82,.85,1.53,0,.54-.15,.93-.45,1.17-.3,.24-.67,.38-1.11,.43,.4,.08,.71,.21,.91,.37,.38,.3,.56,.78,.56,1.44v.57c0,.06,0,.13,.01,.19,0,.06,.02,.13,.05,.19l.06,.18h-1.6c-.05-.2-.09-.5-.11-.89-.02-.39-.05-.65-.11-.78-.08-.22-.24-.38-.47-.47-.13-.05-.32-.09-.57-.1l-.37-.02h-.35v2.27h-1.68Zm3.06-5.14c-.23-.09-.55-.13-.97-.13h-.41v1.86h.65c.39,0,.7-.08,.92-.24,.22-.16,.33-.41,.33-.76s-.17-.59-.52-.73Z"/><rect class="f" x="366.13" y="218" width="16.71" height="19.56"/><text class="d" transform="translate(367.62 229.5)"><tspan x="0" y="0">TM</tspan></text></svg>