<?xml version="1.0" encoding="utf-8"?>
<!-- Generator: Adobe Illustrator 26.1.0, SVG Export Plug-In . SVG Version: 6.00 Build 0)  -->
<svg version="1.1" id="Layer_1" xmlns="http://www.w3.org/2000/svg" xmlns:xlink="http://www.w3.org/1999/xlink" x="0px" y="0px"
	 viewBox="0 0 792 354" style="enable-background:new 0 0 792 354;" xml:space="preserve">
<style type="text/css">
	.st0{fill:#FFFFFF;}
	.st1{fill:none;}
	.st2{fill:#C1D82F;}
	.st3{fill:#F47B20;}
	.st4{fill:#54B948;}
</style>
<g id="Layer_2_00000106869484652416527300000010535108501261224627_">
	<path class="st0" d="M791.8,47.8L788.7,27c-1.2-7.8-7.8-13.6-15.7-13.7v0h-0.2H753c-2.2-3.7-5.7-6.7-9.9-8.5
		c-2.6-1.1-5.3-1.6-8.2-1.6c-6.3,0-12.2,2.8-16.3,7.7l-9.9,11.9c-2.3,2.8-5.8,4.4-8.1,4.4c-5,0.1-10.4,0.2-16.3,0.2
		c-11.8,0-23.4-0.3-34.6-0.6l-0.7,0c-11.4-0.3-23.2-0.6-35.1-0.6c-9.8,0-18.7,0.2-27.2,0.6c-14.9,0.4-28.7,7.4-38,19.3
		c-5.8,7.4-9.3,16-10.7,26.2c-2.4,18.3-4.4,36.8-6.2,54.8c-2.7-1.3-5.7-1.9-8.8-1.9h-73.8c-6,0-11.6,2.6-15.5,6.8
		c-4-4.3-9.6-6.8-15.5-6.8h-73.8c-10.5,0-19.5,7.8-20.9,18.2l-1.8,12.6c-7,1.4-12.8,6.3-15.4,12.9c-15.7-10.6-35.3-16.5-57.1-16.5
		c-29.2,0-56.8,9.6-77.6,27c-19,15.9-30.8,36.5-34.8,60.3l-7.6,0l13.4-96.1c0.9-6.1-0.9-12.2-5-16.8c-4-4.6-9.8-7.2-15.9-7.2H46.5
		c-10.5,0-19.4,7.8-20.9,18.2L0.2,318.8c-0.8,6,1,12.2,5,16.8c4,4.6,9.8,7.3,15.9,7.3h135.4c8,0,15.1-4.6,18.7-11.3
		c15.3,9.4,34.1,14.6,54.8,14.6c27.9,0,55.7-9.6,76.3-26.4c1.6-1.3,3.2-2.7,4.7-4.1c2.1,3.9,4.4,7.1,6.6,9.7
		c12,13.8,30.4,20.9,54.8,20.9c18,0,37.4-3.7,52-9.9l3.6-1.5c1-0.4,2-0.9,2.9-1.5c11.6,8.6,27.1,12.9,46.3,12.9
		c18,0,37.4-3.7,52-9.9l3.6-1.5c3.7-1.5,6.7-4.1,9-7.2c16.2,12,37.2,18.7,61.2,18.7l0,0c27.9,0,55.7-9.6,76.3-26.4
		c23.9-19.5,37-47.6,37-79c0-25.9-10.2-48.2-27.4-63.9c1.6,0,3.2,0,5,0h0.4c15.5-0.2,30.3-7.3,39.5-19c5.8-7.5,9.3-16.1,10.7-26.2
		c2.9-21.8,5.1-43.7,7.3-65.1h24l0,0C785.7,66.3,793.3,57.5,791.8,47.8z"/>
</g>
<g id="Layer_1_00000083088061600494495280000005437827527513697158_">
	<g>
		<path class="st1" d="M242.6,231.7c-8.3,0-15.6,9.9-15.6,21.3c0,6.4,2.4,13.8,9.1,13.8c8.3,0,15.6-9.9,15.6-21.3
			C251.8,239.2,249.4,231.7,242.6,231.7z"/>
		<path class="st1" d="M615.7,231.7c-8.3,0-15.6,9.9-15.6,21.3c0,6.4,2.4,13.8,9.1,13.8c8.3,0,15.6-9.9,15.6-21.3
			C624.8,239.2,622.4,231.7,615.7,231.7z"/>
		<path class="st2" d="M622.3,175c-24,0-46.4,7.7-63.1,21.8c-18.4,15.4-28.2,36.7-28.2,61.4c0,2.9,0.1,5.6,0.4,8
			c0.1,0.7-0.4,1.4-1.1,1.5l-9.2,2c-2.3,0.4-4.7,0.9-8.3,0.9c-3,0-5.3-0.8-6.5-2.1c-1-1.2-1.4-3.1-1-5.8l4.1-29
			c0.1-0.7,0.7-1.2,1.4-1.2h15.5l7.8-54.2h-15.1c-0.4,0-0.8-0.2-1.1-0.5s-0.4-0.7-0.3-1.1l4-28.8h-70.9l-4,29.2
			c-0.1,0.7-0.7,1.2-1.4,1.2h-31c-0.4,0-0.8-0.2-1.1-0.5s-0.4-0.7-0.3-1.1l4-28.8h-70.9l-4,29.2c-0.1,0.7-0.7,1.2-1.4,1.2h-13
			l-6.2,43.1c-0.1,0.7-0.6,1.2-1.3,1.2c-0.7,0-1.3-0.4-1.5-1c-8.2-28.7-34.6-46.5-69-46.5c-24,0-46.4,7.7-63.1,21.8
			c-18.4,15.4-28.2,36.7-28.2,61.4v0.4c0,0.7,0,1.5,0,2.2c0,0.4-0.1,0.8-0.4,1c-0.3,0.3-0.6,0.4-1,0.4l-51.5,0.1l0,0
			c-0.4,0-0.8-0.2-1.1-0.5c-0.3-0.3-0.4-0.7-0.3-1.1l16.6-118.6H47.8l-25,178.2h132.5l5-35.3c0.1-0.6,0.6-1.1,1.2-1.2
			c0.6-0.1,1.2,0.3,1.5,0.9c10.2,24.4,35.2,38.9,67,38.9c44,0,90.8-29.1,90.8-82.9c0-2.5,0-4.3-0.2-6.6c0-0.4,0.1-0.8,0.4-1.1
			c0.3-0.3,0.6-0.5,1.1-0.5l10.1,0l0,0c0.4,0,0.8,0.2,1.1,0.5s0.4,0.7,0.3,1.1l-6,42.4c-2.1,14.6,0.3,26,7.2,34
			c7.6,8.8,20,13.1,37.8,13.1c14.9,0,31.5-3.1,43.2-8.1l2.9-1.2L425,268l-8.8,1.6c-2.3,0.4-4.7,0.9-8.3,0.9c-3,0-5.3-0.8-6.5-2.1
			c-1-1.2-1.4-3.1-1-5.8l4.1-29c0.1-0.7,0.7-1.2,1.4-1.2h31c0.4,0,0.8,0.2,1.1,0.5s0.4,0.7,0.3,1.1l-6,42.4c-2.1,14.6,0.3,26,7.2,34
			c7.6,8.8,20,13.1,37.8,13.1c14.9,0,31.5-3.1,43.2-8.1l2.8-1.2L529,274l0,0l0,0c0.2-1.7,0.6-1.9,1.8-2.1c1.2-0.2,1.5,0.2,1.8,1.7
			c0,0.1,0,0.2,0.1,0.2c6.8,30.8,33.5,49.8,70.4,49.8c44,0,90.8-29.1,90.8-82.9C693.9,202,664.5,175,622.3,175z M236.2,266.8
			c-6.7,0-9.1-7.5-9.1-13.8c0-11.3,7.3-21.3,15.6-21.3c6.7,0,9.1,7.5,9.1,13.8C251.8,256.9,244.5,266.8,236.2,266.8z M609.2,266.8
			c-6.7,0-9.1-7.5-9.1-13.8c0-11.3,7.3-21.3,15.6-21.3c6.7,0,9.1,7.5,9.1,13.8C624.8,256.9,617.5,266.8,609.2,266.8z"/>
	</g>
	<path class="st3" d="M735.5,23c-0.6-0.2-1.2-0.1-1.7,0.4L724,35.3c-5.7,6.9-14.4,11.4-22.7,11.6c-5.2,0.1-10.7,0.2-16.8,0.2
		c-12,0-23.8-0.3-35.1-0.6l-0.7,0c-11.3-0.3-23-0.6-34.6-0.6c-9.5,0-18.2,0.2-26.5,0.6c-9.2,0.2-17.4,4.3-23.2,11.7
		c-3.7,4.7-5.8,10-6.7,16.7c-3,22.5-5.3,45.5-7.5,67.7l-0.1,0.6c-0.3,3.5-1,9-1.5,14.3l-0.5,4.7c-0.5,4.4-0.9,8.6-1.2,11.5
		l-1.3,13.2c-0.1,0.6,0.3,1.2,0.8,1.4c0.2,0.1,0.4,0.1,0.6,0.1c0.4,0,0.7-0.1,1-0.4l9.3-9.4c0.2-0.2,24.2-23.3,89-22.1
		c5.7,0.1,10,0.1,19.3,0.2l4.5,0c5.9,0,13.6,0.1,24.1,0.2c9.7-0.1,18.7-4.4,24.2-11.5c3.7-4.7,5.8-10,6.7-16.7
		c3-22.8,5.3-45.8,7.6-68.2c0.7-6.9,1.4-13.9,2.1-20.8l1.6-15.4C736.4,23.8,736.1,23.2,735.5,23z"/>
	<path class="st3" d="M684.5,54.7c-12.1,0-24-0.3-35.5-0.6c-11.4-0.3-23.1-0.6-35-0.6c-9.5,0-18.1,0.2-26.3,0.6
		c-6.9,0.1-13.1,3.2-17.5,8.8c-2.8,3.6-4.4,7.6-5.1,13c-3,22.6-5.3,45.7-7.5,68c-0.4,4.1-1.1,10.5-1.8,16.8
		c-0.4,3.7-0.8,7.2-1.1,10.2c8.2-6.4,34.8-22.9,91.7-21.9c5.7,0.1,10,0.1,19.3,0.2c6.4,0,15.1,0.1,28.4,0.2
		c7.4-0.1,14.2-3.3,18.4-8.6c2.8-3.6,4.4-7.6,5.1-13c3-22.8,5.3-45.8,7.5-68c0.5-5.5,1.1-11,1.7-16.5c-7,6.8-16.2,10.9-25.3,11.1
		C696.1,54.6,690.5,54.7,684.5,54.7z"/>
	<g>
		<path class="st1" d="M717.6,127.9c3-22.8,5.3-45.8,7.5-68c0.5-5.5,1.1-11,1.7-16.5c-7,6.8-16.2,10.9-25.3,11.1
			c-5.4,0.1-11,0.2-17,0.2c-12.1,0-24-0.3-35.5-0.6c-11.4-0.3-23.1-0.6-35-0.6c-9.5,0-18.1,0.2-26.3,0.6c-6.9,0.1-13.1,3.2-17.5,8.8
			c-2.8,3.6-4.4,7.6-5.1,13c-3,22.6-5.3,45.7-7.5,68c-0.4,4.1-1.1,10.5-1.8,16.8c-0.4,3.7-0.8,7.2-1.1,10.2
			c8.2-6.4,34.8-22.9,91.7-21.9c5.7,0.1,10,0.1,19.3,0.2c6.4,0,15.1,0.1,28.4,0.2c7.4-0.1,14.2-3.3,18.4-8.6
			C715.3,137.3,716.9,133.3,717.6,127.9z"/>
		<path class="st0" d="M727.6,38.3c-6.5,7.9-16.6,13-26.2,13.3c-5.4,0.1-10.9,0.2-17,0.2c-12.1,0-23.9-0.3-35.4-0.6
			c-11.4-0.3-23.2-0.6-35.1-0.6c-9.5,0-18.2,0.2-26.4,0.6c-7.8,0.1-14.8,3.6-19.7,9.9c-3.2,4-4.9,8.5-5.7,14.4
			c-3,22.6-5.3,45.8-7.6,68.2c-0.4,4-1.1,10.4-1.8,16.6c-0.6,5.3-1.2,10.5-1.5,13.9l-0.4,4.1l2.9-3c0.2-0.2,24.7-24.7,92.5-23.5
			c5.7,0.1,10,0.1,19.4,0.2c6.4,0,15.1,0.1,28.4,0.2c8.3-0.1,16-3.7,20.6-9.7c3.2-4.1,4.9-8.5,5.7-14.4c3-22.8,5.3-45.8,7.5-68.1
			c0.7-6.9,1.4-13.9,2.1-20.8l0.5-4.7L727.6,38.3z M694.1,149.5c-13.3-0.1-22-0.2-28.4-0.2c-9.3-0.1-13.6-0.1-19.3-0.2
			c-56.9-1-83.5,15.5-91.7,21.9c0.3-3,0.7-6.6,1.1-10.2c0.7-6.2,1.4-12.6,1.8-16.8c2.2-22.3,4.5-45.4,7.5-68c0.7-5.4,2.3-9.4,5.1-13
			c4.4-5.6,10.6-8.7,17.5-8.8c8.2-0.4,16.8-0.6,26.3-0.6c11.8,0,23.6,0.3,35,0.6c11.5,0.3,23.4,0.6,35.5,0.6c6.1,0,11.6-0.1,17-0.2
			c9.2-0.2,18.4-4.3,25.3-11.1c-0.6,5.5-1.1,11-1.7,16.5c-2.2,22.2-4.5,45.2-7.5,68c-0.7,5.4-2.3,9.4-5.1,13
			C708.3,146.2,701.5,149.4,694.1,149.5z"/>
	</g>
	<g>
		<path class="st1" d="M615.7,234.6c-6.8,0-12.7,8.6-12.7,18.4c0,1.1,0.2,11,6.3,11c6.8,0,12.7-8.6,12.7-18.4
			C621.9,244.4,621.8,234.6,615.7,234.6z"/>
		<path class="st4" d="M615.7,231.7c-8.3,0-15.6,9.9-15.6,21.3c0,6.4,2.4,13.8,9.1,13.8c8.3,0,15.6-9.9,15.6-21.3
			C624.8,239.2,622.4,231.7,615.7,231.7z M609.2,263.9c-6.1,0-6.3-9.9-6.3-11c0-9.8,5.9-18.4,12.7-18.4c6.1,0,6.3,9.9,6.3,11
			C621.9,255.3,616,263.9,609.2,263.9z"/>
	</g>
	<g>
		<path class="st1" d="M242.6,234.6c-6.8,0-12.7,8.6-12.7,18.4c0,1.1,0.2,11,6.3,11c6.8,0,12.7-8.6,12.7-18.4
			C248.9,244.4,248.7,234.6,242.6,234.6z"/>
		<path class="st4" d="M242.6,231.7c-8.3,0-15.6,9.9-15.6,21.3c0,6.4,2.4,13.8,9.1,13.8c8.3,0,15.6-9.9,15.6-21.3
			C251.8,239.2,249.4,231.7,242.6,231.7z M236.2,263.9c-6.1,0-6.3-9.9-6.3-11c0-9.8,5.9-18.4,12.7-18.4c6.1,0,6.3,9.9,6.3,11
			C248.9,255.3,242.9,263.9,236.2,263.9z"/>
	</g>
	<path class="st1" d="M615.7,227.8c-10.5,0-19.4,11.5-19.4,25.1c0,8.8,4,17.7,13,17.7c10.5,0,19.4-11.5,19.4-25.1
		C628.7,236.7,624.6,227.8,615.7,227.8z"/>
	<path class="st1" d="M242.6,227.8c-10.5,0-19.4,11.5-19.4,25.1c0,8.8,4,17.7,13,17.7c10.5,0,19.4-11.5,19.4-25.1
		C255.6,236.7,251.6,227.8,242.6,227.8z"/>
	<polygon class="st4" points="95.2,269.4 112.1,149.1 53.9,149.1 30.9,313.2 149.1,313.2 155.4,269.4 	"/>
	<path class="st0" d="M115.8,145.9H51.2l-24,170.5h124.7l7.1-50.2H98.9L115.8,145.9z M30.9,313.2l23.1-164.1h58.2L95.2,269.4h60.1
		l-6.2,43.8L30.9,313.2L30.9,313.2z"/>
	<path class="st4" d="M249.3,182.1c-41.9,0-84.3,26.1-84.3,76.1c0,34.9,26.1,58.3,65,58.3c40.6,0,83.8-26.6,83.8-75.9
		C313.8,205.6,287.9,182.1,249.3,182.1z M236.2,273.9c-9.7,0-16.2-8.4-16.2-20.9c0-15.4,10.4-28.3,22.6-28.3
		c9.7,0,16.2,8.4,16.2,20.9C258.8,260.9,248.4,273.9,236.2,273.9z"/>
	<path class="st0" d="M297.2,195c-12.1-10.4-29.1-16.2-47.9-16.2c-23.1,0-44.6,7.4-60.7,20.9c-17.5,14.7-26.8,34.9-26.8,58.5
		c0,36.8,27.4,61.5,68.2,61.5c22.8,0,44.2-7.4,60.2-20.9c17.5-14.7,26.7-34.8,26.7-58.1C317,221.9,310.1,206.2,297.2,195z
		 M230,316.5c-38.9,0-65-23.4-65-58.3c0-50,42.4-76.1,84.3-76.1c38.6,0,64.5,23.5,64.5,58.5C313.8,289.9,270.6,316.5,230,316.5z"/>
	<path class="st0" d="M242.6,224.6c-12.3,0-22.6,13-22.6,28.3c0,12.5,6.5,20.9,16.2,20.9c12.3,0,22.6-13,22.6-28.3
		C258.8,233,252.3,224.6,242.6,224.6z M236.2,270.7c-9,0-13-8.9-13-17.7c0-13.6,8.9-25.1,19.4-25.1c9,0,13,8.9,13,17.7
		C255.6,259.2,246.7,270.7,236.2,270.7z"/>
	<path class="st4" d="M407.9,277.6c-5.1,0-9.3-1.6-11.8-4.5c-2.4-2.8-3.3-6.6-2.6-11.4l5.1-36.3h18.9l5.7-40.1h-18.8l4.2-30.4h-56.7
		l-4.2,30.4h-14.3l-5.7,40.1h14.3l-7.4,52c-1.8,12.5,0.1,22,5.6,28.4c6.1,7,17,10.6,32.4,10.6c16.2,0,30.9-3.6,39.6-7.2l4.5-32.5
		C414.3,277.1,411.7,277.6,407.9,277.6z"/>
	<path class="st0" d="M417,273.4c-2.4,0.5-5,1-9.1,1c-4.1,0-7.5-1.2-9.4-3.4c-1.8-2.1-2.4-5-1.9-8.9l4.8-33.5h18.9l6.6-46.5H408
		l4.2-30.4h-63.1l-4.2,30.4h-14.3l-6.6,46.5h14.3l-6.9,48.4c-2,13.4,0.2,23.8,6.3,30.9c6.7,7.8,18.5,11.7,34.8,11.7
		c17.2,0,32.8-4,41.7-7.8l0.8-0.4l5.4-38.7l-2.2,0.4C417.8,273.2,417.4,273.3,417,273.4z M372.5,316.5c-15.4,0-26.3-3.6-32.4-10.6
		c-5.5-6.4-7.4-15.9-5.6-28.4l7.4-52h-14.3l5.7-40.1h14.3l4.2-30.4h56.7l-4.2,30.4h18.8l-5.7,40.1h-18.9l-5.1,36.3
		c-0.7,4.8,0.2,8.6,2.6,11.4c2.5,2.9,6.7,4.5,11.8,4.5c3.8,0,6.5-0.4,8.8-0.9l-4.5,32.5C403.4,312.8,388.7,316.5,372.5,316.5z"/>
	<path class="st4" d="M512.7,277.6c-5.1,0-9.3-1.6-11.8-4.5c-2.4-2.8-3.3-6.6-2.6-11.4l5.1-36.3h16.7l5.7-40.1h-16.7l4.2-30.4h-56.7
		l-4.2,30.4h-17.6l-5.7,40.1h17.6l-7.4,52c-1.8,12.5,0.1,22,5.6,28.4c6.1,7,17,10.6,32.4,10.6c16.2,0,30.9-3.6,39.6-7.2l4.5-32.5
		C519.1,277.1,516.5,277.6,512.7,277.6z"/>
	<path class="st0" d="M506.1,228.6h16.7l6.6-46.5h-16.7l4.2-30.4h-63.1l-4.2,30.4H432l-6.6,46.5H443l-6.9,48.4
		c-2,13.4,0.2,23.8,6.3,30.9c6.7,7.8,18.5,11.7,34.8,11.7c17.2,0,32.8-4,41.7-7.8l0.8-0.4l5.4-38.7l-2.2,0.4
		c-0.4,0.1-0.8,0.2-1.3,0.2c-2.4,0.5-5,1-9.1,1c-4.1,0-7.5-1.2-9.4-3.4c-1.8-2.1-2.4-5-1.9-8.8L506.1,228.6z M477.3,316.5
		c-15.4,0-26.3-3.6-32.4-10.6c-5.5-6.4-7.4-15.9-5.6-28.4l7.4-52h-17.6l5.7-40.1h17.6l4.2-30.4h56.7l-4.2,30.4h16.7l-5.7,40.1h-16.7
		l-5.1,36.3c-0.7,4.8,0.2,8.6,2.6,11.4c2.5,2.9,6.7,4.5,11.8,4.5c3.8,0,6.5-0.4,8.8-0.9l-4.5,32.5
		C508.2,312.8,493.5,316.5,477.3,316.5z"/>
	<path class="st4" d="M622.3,182.1c-41.9,0-84.3,26.1-84.3,76.1c0,34.9,26.1,58.3,65,58.3c40.6,0,83.8-26.6,83.8-75.9
		C686.8,205.6,660.9,182.1,622.3,182.1z M609.2,273.9c-9.7,0-16.2-8.4-16.2-20.9c0-15.4,10.4-28.3,22.6-28.3
		c9.7,0,16.2,8.4,16.2,20.9C631.8,260.9,621.5,273.9,609.2,273.9z"/>
	<path class="st0" d="M670.2,195c-12.1-10.4-29.1-16.2-47.9-16.2c-23,0-44.6,7.4-60.7,20.9c-17.5,14.7-26.8,34.9-26.8,58.5
		c0,36.8,27.4,61.5,68.2,61.5c22.8,0,44.2-7.4,60.2-20.9c17.5-14.7,26.7-34.8,26.7-58.1C690,221.9,683.2,206.2,670.2,195z
		 M603,316.5c-38.9,0-65-23.4-65-58.3c0-50,42.4-76.1,84.3-76.1c38.6,0,64.5,23.5,64.5,58.5C686.8,289.9,643.7,316.5,603,316.5z"/>
	<path class="st0" d="M615.7,224.6c-12.3,0-22.6,13-22.6,28.3c0,12.5,6.5,20.9,16.2,20.9c12.3,0,22.6-13,22.6-28.3
		C631.8,233,625.3,224.6,615.7,224.6z M609.2,270.7c-9,0-13-8.9-13-17.7c0-13.6,8.9-25.1,19.4-25.1c9,0,13,8.9,13,17.7
		C628.7,259.2,619.8,270.7,609.2,270.7z"/>
	<g>
		<path class="st0" d="M579.7,84.1c0,0,0.1-0.8-0.3-1c-0.7-0.4-1.1-1-1-2c0.1-1.1,0.6-1.7,1.4-2.1c0.5-0.3,0.5-1,0.5-1l1.4-12.9
			c0.1-0.9,1-1.8,2-1.8h16.9l-0.5,4.8h-12.9l-1.1,10.6h10.8l-0.5,4.8h-10.8l-0.6,5.3c0,0.4,0.3,0.8,0.7,0.8h12.5l-0.5,4.8H584
			c-2.9,0-5.1-2.4-4.8-5.4L579.7,84.1z"/>
		<path class="st0" d="M618.5,78.9l7.8,15.4h-7l-4.7-9.8l-6.8,9.8h-7l11.1-15.4l-7.8-15.7h6.8l4.9,10.2l7-10.2h6.8L618.5,78.9z"/>
		<path class="st0" d="M638.6,68.8c0-0.4-0.3-0.8-0.7-0.8h-7l0.5-4.8h21.5l-0.5,4.8h-7c-0.4,0-0.9,0.4-0.9,0.8l-2.7,25.5h-5.8
			L638.6,68.8z"/>
		<path class="st0" d="M655.5,84.1L655.5,84.1c0-0.2,0-0.8-0.3-1c-0.7-0.4-1.1-1-1-2c0.1-1.1,0.6-1.7,1.4-2.1c0.5-0.3,0.5-1,0.5-1
			l1.4-12.9c0.1-0.9,1-1.8,2-1.8h7.5c8.5-0.3,11.7,3.8,11,10c-0.4,3.9-2.2,7.1-5.7,8.9c0.7,4.2,1.8,6.7,2.2,7.4
			c0.2,0.2,0.3,0.4,0.7,0.4c0.3,0,0.9-0.2,1.3-0.2c1.6,0,2,1.3,1.9,2.3c-0.2,2.3-3.3,2.7-4.9,2.7c-4.8,0-5.9-5.6-6.9-11.3h-5.2
			l-1.2,10.9h-5.8L655.5,84.1z M665.3,78.6c4.6,0,6.5-2.2,6.9-5.4c0.3-3.2-1.2-5.2-5.8-5.2H663l-1.1,10.6L665.3,78.6L665.3,78.6z"/>
		<path class="st0" d="M683.8,84.1L683.8,84.1c0-0.2,0-0.8-0.3-1c-0.7-0.4-1.1-1-1-2c0.1-1.1,0.6-1.7,1.4-2.1c0.5-0.3,0.5-1,0.5-1
			l0.4-3.9c0.7-6.7,5.4-11.3,12-11.3c6.7,0,10.5,4.6,9.7,11.3l-1.6,15c-0.1,0.6,0,0.9,0.4,0.9c0.4,0,1-0.4,1.5-0.4
			c1.7,0,2.1,1.3,2,2.4c-0.3,2.5-3.5,2.8-5.1,2.8c-3.1,0-5.1-1.8-4.7-5.6l0.6-5.7h-10.1l-1.2,10.9h-5.8L683.8,84.1z M700.8,74
			c0.4-3.8-1.3-6.4-4.4-6.4s-5.3,2.6-5.7,6.4l-0.5,4.6h10.1L700.8,74z"/>
		<path class="st0" d="M577.8,128.9c0.8,2,2.9,5,7.5,5c3.7,0,6.2-1.5,6.5-4.4c0.8-7.8-17.5-3.8-16-17.9c0.6-5.5,5.5-10.1,12.7-10.1
			c6.4,0,11.3,3.3,10.8,8.8c-0.2,2.3-1.9,4.8-4.7,4.8c-1.8,0-3.1-1.1-2.9-2.9c0.2-1.5,0.8-1.8,0.9-2.6c0.2-1.5-2-2.4-4.8-2.4
			c-3.3,0-5.2,2-5.5,4.6c-0.8,7.2,17.5,4.7,16.2,17.1c-0.8,7.6-6.9,11.2-13.7,11.2c-5.5,0-10.4-2.3-12-6.4L577.8,128.9z"/>
		<path class="st0" d="M612.2,139.5h-7l3.3-31.2c0.1-0.8-0.1-1.1-0.5-1.1c-0.7,0-1.2,0.4-1.9,0.4c-1.8,0-2.5-1.5-2.4-2.8
			c0.3-2.8,3.7-3.4,6.1-3.4c3.9,0,6.3,2.1,5.8,6.7l-1.3,12.4h12l2-18.6h7.1l-4,37.6h-7.1l1.4-13.2h-12L612.2,139.5z"/>
		<path class="st0" d="M659.5,101.4c11.4,0,17.9,7.9,16.7,19.3s-9.3,19.3-20.8,19.3s-17.9-7.9-16.7-19.3
			C639.9,109.3,648,101.4,659.5,101.4z M656,134.1c7.1,0,12.2-5.5,13.1-13.4c0.8-7.9-3.1-13.4-10.2-13.4s-12.2,5.5-13.1,13.4
			C644.9,128.6,648.9,134.1,656,134.1z"/>
		<path class="st0" d="M690,108.7c0.1-0.5-0.4-1-0.9-1h-8.5l0.6-5.8h26l-0.6,5.8h-8.5c-0.5,0-1,0.5-1.1,1l-3.3,30.8h-7L690,108.7z"
			/>
	</g>
	<path class="st1" d="M622.3,175c-24,0-46.4,7.7-63.1,21.8c-18.4,15.4-28.2,36.7-28.2,61.4c0,2.9,0.1,5.6,0.4,8
		c0.1,0.7-0.4,1.4-1.1,1.5l-9.2,2c-2.3,0.4-4.7,0.9-8.3,0.9c-3,0-5.3-0.8-6.5-2.1c-1-1.2-1.4-3.1-1-5.8l4.1-29
		c0.1-0.7,0.7-1.2,1.4-1.2h15.5l7.8-54.2h-15.1c-0.4,0-0.8-0.2-1.1-0.5s-0.4-0.7-0.3-1.1l4-28.8h-70.9l-4,29.2
		c-0.1,0.7-0.7,1.2-1.4,1.2h-31c-0.4,0-0.8-0.2-1.1-0.5s-0.4-0.7-0.3-1.1l4-28.8h-70.9l-4,29.2c-0.1,0.7-0.7,1.2-1.4,1.2h-13
		l-6.2,43.1c-0.1,0.7-0.6,1.2-1.3,1.2c-0.7,0-1.3-0.4-1.5-1c-8.2-28.7-34.6-46.5-69-46.5c-24,0-46.4,7.7-63.1,21.8
		c-18.4,15.4-28.2,36.7-28.2,61.4v0.4c0,0.7,0,1.5,0,2.2c0,0.4-0.1,0.8-0.4,1c-0.3,0.3-0.6,0.4-1,0.4l-51.5,0.1l0,0
		c-0.4,0-0.8-0.2-1.1-0.5c-0.3-0.3-0.4-0.7-0.3-1.1l16.6-118.6H47.8l-25,178.2h132.5l5-35.3c0.1-0.6,0.6-1.1,1.2-1.2
		c0.6-0.1,1.2,0.3,1.5,0.9c10.2,24.4,35.2,38.9,67,38.9c44,0,90.8-29.1,90.8-82.9c0-2.5,0-4.3-0.2-6.6c0-0.4,0.1-0.8,0.4-1.1
		c0.3-0.3,0.6-0.5,1.1-0.5l10.1,0l0,0c0.4,0,0.8,0.2,1.1,0.5s0.4,0.7,0.3,1.1l-6,42.4c-2.1,14.6,0.3,26,7.2,34
		c7.6,8.8,20,13.1,37.8,13.1c14.9,0,31.5-3.1,43.2-8.1l2.9-1.2L425,268l-8.8,1.6c-2.3,0.4-4.7,0.9-8.3,0.9c-3,0-5.3-0.8-6.5-2.1
		c-1-1.2-1.4-3.1-1-5.8l4.1-29c0.1-0.7,0.7-1.2,1.4-1.2h31c0.4,0,0.8,0.2,1.1,0.5s0.4,0.7,0.3,1.1l-6,42.4c-2.1,14.6,0.3,26,7.2,34
		c7.6,8.8,20,13.1,37.8,13.1c14.9,0,31.5-3.1,43.2-8.1l2.8-1.2L529,274l-0.2-1.1l0.2-2.3l0.8-0.7l2.5-0.4l1,3.9c0,0-0.2,1.5-0.6,0.5
		c6.8,30.8,33.5,49.8,70.4,49.8c44,0,90.8-29.1,90.8-82.9C693.9,202,664.5,175,622.3,175z"/>
	<path class="st4" d="M622.3,172.1c-24.6,0-47.7,8-65,22.4c-19.1,16-29.2,38-29.2,63.6c0,1.8,0,4.4,0.3,7l-6.6,1.4l-1.3,0.3
		c-2.2,0.4-4.4,0.9-7.8,0.9c-2.3,0-3.8-0.6-4.3-1.1c-0.3-0.4-0.6-1.5-0.3-3.5l3.9-27.7h15.5c0.7,0,1.3-0.5,1.4-1.2L537,177
		c0.1-0.4-0.1-0.8-0.3-1.1c-0.3-0.3-0.7-0.5-1.1-0.5h-15.1l4-28.8c0.1-0.4-0.1-0.8-0.3-1.1s-0.7-0.5-1.1-0.5h-73.8
		c-0.7,0-1.3,0.5-1.4,1.2l-4,29.2h-28.1l4-28.8c0.1-0.4-0.1-0.8-0.3-1.1s-0.7-0.5-1.1-0.5h-73.8c-0.7,0-1.3,0.5-1.4,1.2l-4,29.2h-13
		c-0.7,0-1.3,0.5-1.4,1.2l-5.5,38.4c-10.3-26.6-36.4-42.8-69.8-42.8c-24.6,0-47.7,8-65,22.4c-19.1,16-29.2,38-29.2,63.6v0.4
		c0,0.3,0,0.5,0,0.8l-48.4,0.1l16.6-118.6c0.1-0.4-0.1-0.8-0.3-1.1c-0.3-0.3-0.7-0.5-1.1-0.5H46.5c-0.7,0-1.3,0.5-1.4,1.2
		L19.7,321.5c-0.1,0.4,0.1,0.8,0.3,1.1c0.3,0.3,0.7,0.5,1.1,0.5h135.4c0.7,0,1.3-0.5,1.4-1.2l4.5-31.8
		c11.7,22.8,36.6,36.2,67.6,36.2c45.4,0,93.7-30.1,93.7-85.9c0-1.9,0-3.5-0.1-5.2l6.9,0l-5.8,40.7c-2.2,15.4,0.4,27.6,7.9,36.3
		c8.2,9.5,21.2,14.1,39.9,14.1c15.2,0,32.2-3.2,44.3-8.3l3.6-1.5c0.5-0.2,0.8-0.6,0.9-1.1l6.8-48.9c0.1-0.5-0.1-0.9-0.4-1.2
		s-0.8-0.5-1.2-0.4l-9.4,1.7l-1.4,0.2c-2.2,0.4-4.4,0.9-7.8,0.9c-2.3,0-3.8-0.6-4.3-1.1c-0.3-0.4-0.6-1.5-0.3-3.5l3.9-27.7h28.1
		l-5.8,40.7c-2.2,15.4,0.4,27.6,7.9,36.3c8.2,9.5,21.2,14.1,39.9,14.1c15.2,0,32.2-3.2,44.3-8.3l3.6-1.5c0.5-0.2,0.8-0.6,0.9-1.1
		l5-36.1c8.7,29.2,35.6,47.1,71.9,47.1c45.4,0,93.7-30.1,93.7-85.8C696.7,200.3,666.1,172.1,622.3,172.1z M603,323.5
		c-36.9,0-63.7-19-70.4-49.8c0-0.1,0-0.1-0.1-0.2c-0.3-1.5-0.6-1.9-1.8-1.7c-1.2,0.2-1.6,0.4-1.8,2.1l0,0l-5.6,40.2l-2.8,1.2
		c-11.8,5-28.3,8.1-43.2,8.1c-17.8,0-30.2-4.3-37.8-13.1c-6.9-8-9.4-19.4-7.2-34l6-42.4c0.1-0.4-0.1-0.8-0.3-1.1
		c-0.3-0.3-0.7-0.5-1.1-0.5h-31c-0.7,0-1.3,0.5-1.4,1.2l-4.1,29c-0.4,2.6,0,4.6,1,5.8c1.2,1.3,3.5,2.1,6.5,2.1c3.7,0,6-0.5,8.3-0.9
		l8.8-1.6l-6.4,46.2l-2.9,1.2c-11.8,5-28.3,8.1-43.2,8.1c-17.8,0-30.2-4.3-37.8-13.1c-6.9-8-9.4-19.4-7.2-34l6-42.4
		c0.1-0.4-0.1-0.8-0.3-1.1c-0.3-0.3-0.7-0.5-1.1-0.5l0,0l-10.1,0c-0.4,0-0.8,0.2-1.1,0.5s-0.4,0.7-0.4,1.1c0.2,2.3,0.2,4,0.2,6.6
		c0,53.9-46.8,82.9-90.8,82.9c-31.7,0-56.8-14.5-67-38.9c-0.2-0.6-0.9-1-1.5-0.9c-0.6,0.1-1.1,0.6-1.2,1.2l-5,35.3H22.8l25-178.2
		h72.4l-16.6,118.6c-0.1,0.4,0.1,0.8,0.3,1.1c0.3,0.3,0.7,0.5,1.1,0.5l0,0l51.5-0.1c0.4,0,0.8-0.2,1-0.4c0.3-0.3,0.4-0.6,0.4-1
		c0-0.7,0-1.5,0-2.2v-0.4c0-24.8,9.8-46,28.2-61.4c16.8-14,39.2-21.7,63.1-21.7c34.4,0,60.8,17.8,69,46.5c0.2,0.6,0.8,1.1,1.5,1
		c0.7,0,1.2-0.6,1.3-1.2l6.2-43.1h13c0.7,0,1.3-0.5,1.4-1.2l4-29.2h70.9l-4,28.8c-0.1,0.4,0.1,0.8,0.3,1.1s0.7,0.5,1.1,0.5h31
		c0.7,0,1.3-0.5,1.4-1.2l4-29.2h70.9l-4,28.8c-0.1,0.4,0.1,0.8,0.3,1.1s0.7,0.5,1.1,0.5H534l-7.8,54.2h-15.5c-0.7,0-1.3,0.5-1.4,1.2
		l-4.1,29c-0.4,2.6,0,4.6,1,5.8c1.2,1.3,3.5,2.1,6.5,2.1c3.7,0,6-0.5,8.3-0.9l9.2-2c0.7-0.1,1.2-0.8,1.1-1.5c-0.2-2.3-0.4-5.1-0.4-8
		c0-24.8,9.8-46,28.2-61.4c16.8-14,39.2-21.8,63.1-21.8c42.1,0,71.5,27,71.5,65.6C693.9,294.5,647.1,323.5,603,323.5z"/>
	<g>
		<path class="st3" d="M753.3,36.3h-3.7v10.2h-3.8V36.3h-3.7V33h11.2L753.3,36.3L753.3,36.3z"/>
		<path class="st3" d="M768,46.6l-1.1-7.9l-3.6,7.9h-1.1l-3.6-7.9l-1,7.9h-3.8l2.1-13.6h3.8l3.2,7.4L766,33h3.8l2,13.6L768,46.6
			L768,46.6z"/>
	</g>
</g>
</svg>
