<svg id="Cash5" xmlns="http://www.w3.org/2000/svg" viewBox="0 0 225.4 88.69">
  <defs>
    <style>
      .cls-1 {
        fill: #4d2f47;
      }

      .cls-2 {
        fill: #ffd200;
      }

      .cls-3 {
        fill: #95368e;
      }

      .cls-4 {
        fill: #fff;
      }
    </style>
  </defs>
  <title>Cash5</title>
  <path class="cls-1" d="M78.17,11.77a2.3,2.3,0,0,0,.38-2.39,2.84,2.84,0,0,0-2.64-1.2h-5l-.06.08-1.44,2-.21.3h.73l-4.28,6.16h-.73l-.06.08-1.39,2-.21.3H68l.06-.08,1.4-2,.21-.3H69L70.22,15H71l-.33,4,0,.21h3.12l.06-.08,1.42-2,.21-.3H74l.12-2.26A8.09,8.09,0,0,0,78.17,11.77Zm-5,.86H71.51l1.59-2.32h1.5a.87.87,0,0,1,.82.41.77.77,0,0,1-.12.81A3.1,3.1,0,0,1,73.13,12.63Z"/>
  <path class="cls-1" d="M61.51,16.76l1.71-8.35.05-.23H59l0,.08-1.42,2-.21.3h.6l-7.31,6.16h-.76l-.06.08-1.4,2-.2.3h3.35l.06-.05L54,17h4l-.5,1.9-.06.24H60.7l0-.08,1.4-2,.21-.3h-.85ZM58.79,15H55.84l3.8-3.35Z"/>
  <path class="cls-1" d="M93.06,13.79c1-1.47,1.27-2.87.71-3.95s-2-1.75-3.93-1.75a14.53,14.53,0,0,0-10.71,5.48c-1,1.46-1.28,2.86-.72,3.94s2,1.76,3.93,1.76A14.62,14.62,0,0,0,93.06,13.79Zm-3.25-.22a8.14,8.14,0,0,1-5.88,3,2.05,2.05,0,0,1-2-.82,1.92,1.92,0,0,1,.4-2,7.86,7.86,0,0,1,5.83-3,2.11,2.11,0,0,1,2,.85A1.9,1.9,0,0,1,89.81,13.57Z"/>
  <path class="cls-1" d="M46.6,15.45l-.06-.23-.22.11a9.3,9.3,0,0,1-4.18,1.24,2.1,2.1,0,0,1-2-.84,1.91,1.91,0,0,1,.38-1.94,8,8,0,0,1,5.87-3A2.45,2.45,0,0,1,48.76,12l.1.16.16-.1,2.89-1.66.15-.09L52,10.15c-.6-1.36-1.93-2.06-4-2.06a14.56,14.56,0,0,0-10.7,5.48c-1,1.46-1.27,2.86-.7,3.94s2,1.76,3.92,1.76A14.13,14.13,0,0,0,47,17.46l.13-.07,0-.14Z"/>
  <polygon class="cls-1" points="124.16 16.76 128.44 10.6 129.06 10.6 129.17 10.6 129.22 10.52 130.64 8.48 130.85 8.18 130.48 8.18 126.12 8.18 126.02 8.18 125.96 8.26 124.54 10.3 124.33 10.6 124.7 10.6 125.06 10.6 122.58 14.16 121.56 8.34 121.53 8.18 121.37 8.18 118.44 8.18 118.34 8.18 118.28 8.26 116.85 10.3 116.63 10.6 117 10.6 117.36 10.6 113.08 16.76 112.46 16.76 112.35 16.76 112.3 16.84 110.9 18.88 110.69 19.18 111.06 19.18 115.44 19.18 115.54 19.18 115.6 19.1 117 17.06 117.2 16.76 116.84 16.76 116.48 16.76 118.94 13.24 119.92 19.02 119.95 19.18 120.11 19.18 123.1 19.18 123.2 19.18 123.26 19.1 124.68 17.06 124.89 16.76 124.52 16.76 124.16 16.76"/>
  <path class="cls-1" d="M141.19,8.18H136.9l-.05.08-1.42,2-.21.3h.6l-7.31,6.16h-.76l-.06.08-1.4,2-.2.3h3.35l.05-.05L131.87,17h4l-.5,1.9-.06.24h3.28l.06-.08,1.4-2,.21-.3h-.85l1.71-8.35ZM136.71,15h-3l3.8-3.36Z"/>
  <polygon class="cls-1" points="100.02 16.11 99.92 16.11 99.86 16.2 99.47 16.76 97.3 16.76 101.58 10.6 102.2 10.6 102.31 10.6 102.36 10.52 103.8 8.48 104.01 8.18 103.64 8.18 99.3 8.18 99.19 8.18 99.14 8.26 97.7 10.3 97.49 10.6 97.86 10.6 98.22 10.6 93.94 16.76 93.31 16.76 93.21 16.76 93.15 16.84 91.75 18.88 91.55 19.18 91.91 19.18 100.72 19.18 100.82 19.18 100.88 19.1 102.73 16.41 102.94 16.11 102.57 16.11 100.02 16.11"/>
  <polygon class="cls-1" points="108.75 16.76 113.03 10.6 113.65 10.6 113.75 10.6 113.81 10.52 115.24 8.48 115.46 8.18 115.08 8.18 110.74 8.18 110.64 8.18 110.58 8.26 109.15 10.3 108.93 10.6 109.3 10.6 109.66 10.6 105.38 16.76 104.76 16.76 104.65 16.76 104.6 16.84 103.2 18.88 102.99 19.18 103.36 19.18 107.7 19.18 107.8 19.18 107.86 19.1 109.26 17.06 109.47 16.76 109.1 16.76 108.75 16.76"/>
  <path class="cls-1" d="M181,0a44.35,44.35,0,1,0,44.4,44.35A44.43,44.43,0,0,0,181,0Z"/>
  <path class="cls-1" d="M101.32,23.94a34.8,34.8,0,0,0-17.67,4.31l.89-4.31H60.33L54,29.73c-2.59-3.05-7.13-6-15-6A35.16,35.16,0,0,0,34,24.1C22.56,25.62,10,32.7,4,41.44c-4.28,6.13-5.15,12.69-2.37,18C3.28,62.65,7.7,68,18.49,68c.26,0,.54,0,.8,0,.73,0,1.42,0,2.05,0,1.21,0,2.1,0,2.48,0H146.87V23.94Z"/>
  <path class="cls-2" d="M221.45,44.35A40.46,40.46,0,1,1,181,4,40.43,40.43,0,0,1,221.45,44.35Z"/>
  <path class="cls-2" d="M99.61,28.27c-16.69,0-22.79,11.05-22.79,11.05l2.21-11H60.87l-8.76,8-.33-.74C50.25,32.1,46.61,28,38,28c-11.25,0-24.92,7-31.13,16-4.71,6.74-3.3,11.71-2.1,14.11,3.71,7.4,17.85,6.37,17.85,6.37H146.87V28.27Z"/>
  <path class="cls-3" d="M216.53,44.35A35.54,35.54,0,1,1,181,8.86,35.51,35.51,0,0,1,216.53,44.35Z"/>
  <path class="cls-4" d="M180.61,11.93h-.48c-12,0-22.87,7.73-27.82,19.55h3.89C160.76,21.15,170,14,180.63,12.89l.17,0,0-.94Z"/>
  <path class="cls-1" d="M35.31,55.59,34,50.46l-.24.13a24.93,24.93,0,0,1-11.13,3.29c-2.72,0-4.65-.84-5.45-2.37s-.39-3.36,1-5.4c3.09-4.42,10.12-8,15.66-8,3,0,5,1,6.4,3.29l.11.17L48.28,37l-.08-.17C46.68,33.36,43.26,31.6,38,31.6c-9.92,0-22.43,6.4-27.88,14.26-2.62,3.74-3.27,7.31-1.84,10,1.5,2.89,5.08,4.47,10.06,4.47a36.85,36.85,0,0,0,16.79-4.7Zm0,0L34,50.46l-.24.13a24.93,24.93,0,0,1-11.13,3.29c-2.72,0-4.65-.84-5.45-2.37s-.39-3.36,1-5.4c3.09-4.42,10.12-8,15.66-8,3,0,5,1,6.4,3.29l.11.17L48.28,37l-.08-.17C46.68,33.36,43.26,31.6,38,31.6c-9.92,0-22.43,6.4-27.88,14.26-2.62,3.74-3.27,7.31-1.84,10,1.5,2.89,5.08,4.47,10.06,4.47a36.85,36.85,0,0,0,16.79-4.7Zm0,0L34,50.46l-.24.13a24.93,24.93,0,0,1-11.13,3.29c-2.72,0-4.65-.84-5.45-2.37s-.39-3.36,1-5.4c3.09-4.42,10.12-8,15.66-8,3,0,5,1,6.4,3.29l.11.17L48.28,37l-.08-.17C46.68,33.36,43.26,31.6,38,31.6c-9.92,0-22.43,6.4-27.88,14.26-2.62,3.74-3.27,7.31-1.84,10,1.5,2.89,5.08,4.47,10.06,4.47a36.85,36.85,0,0,0,16.79-4.7Zm62.34-3.86c1.35-1.91,1.85-3.64,1.49-5.15-.47-1.95-2.26-3.1-3.56-3.8-.37-.2-.76-.4-1.15-.59-1.15-.57-2.24-1.11-2.43-1.82a1.2,1.2,0,0,1,.26-1,5.71,5.71,0,0,1,4.54-1.83,5.06,5.06,0,0,1,3.61,1.26l.12.12,7.39-4.89-.22-.19A10.89,10.89,0,0,0,101,31.6c-6.26-.22-13.35,2.94-16.85,7.55-1.32,1.74-1.86,3.35-1.6,4.79A5.06,5.06,0,0,0,85,47.26c.56.36,1.17.67,1.76,1,1.26.65,2.45,1.27,2.65,2a1.43,1.43,0,0,1-.32,1.15,5.56,5.56,0,0,1-4.5,2,7.21,7.21,0,0,1-5.21-2.27L79.29,51l-7.88,5.6.17.18a11.47,11.47,0,0,0,8.86,3.69C86.83,60.45,94.23,56.7,97.65,51.73Zm33.95-19.9-4,5.78h1.9l-3.84,5.49H116l3.8-5.49h1.9l4.07-5.78H113.85l-4.08,5.78h1.91L100,54.37H98.12l-4,5.78h11.94l4-5.78h-1.89L112,48.88h9.62l-3.79,5.49h-1.91l-4,5.78h13.37l4-5.78H126l11.65-16.76h1.9l4-5.78Zm-57.82.25.06-.25H62.4l-6.33,5.78h4.81L41,54.37H39.06l-6.28,5.78H43.21l6.37-5.62H60.65l-1.47,5.62h8.1l4-5.78h-2ZM62,49H55.92l7.89-7Z"/>
  <path class="cls-1" d="M215.87,20.12s-4.87,1-6.71,1.17a125.15,125.15,0,0,1-14.63,1H193a189.68,189.68,0,0,1-19.79-1l-2-.22-1.95-.2-1.05,1.65-1.09,1.72-13.73,21.6-4.11,6.43a14.9,14.9,0,0,0-4.3,3.64,10.63,10.63,0,0,0-1.31,11.33c3,6,11.56,9.38,24.06,9.38h.49c18.57-.14,34.17-7.07,40.74-18.08l.62-1.08c3.52-7.18,1.48-12.36-.05-14.81A13.62,13.62,0,0,0,207.32,40c14.13-5.75,13.26-13.25,13.26-13.25C219.77,24.11,219.09,21.36,215.87,20.12Z"/>
  <path class="cls-2" d="M218.05,24a5.63,5.63,0,0,0,.2-.71s-6.82.93-8.72,1.15a131.88,131.88,0,0,1-15,1H193a193.25,193.25,0,0,1-20.12-1l-2-.21L169.74,26,156,47.56l-4.53,7.09a13,13,0,0,0-4,3.19,7.46,7.46,0,0,0-1,8c2.42,4.85,10.16,7.63,21.23,7.63h.48c17.46-.13,32-6.47,38-16.53l.37-.64.07-.11.05-.11c2.7-5.52,1.55-9.43.1-11.75-1.55-2.48-4.17-4.35-7.77-5.57C213.42,35.75,217.24,26.6,218.05,24Z"/>
  <path class="cls-1" d="M185.45,36.61c15.66-.12,26.25-9.24,25.79-9.18a147.42,147.42,0,0,1-16.82,1.23,198.68,198.68,0,0,1-22.06-1l-13.73,21.6,9.39-.07c3.12-1.81,4.95-2.7,8.76-2.73,6.6,0,13.4,5.18,7.47,11.78-5.5,6.65-21.3,6.44-26.4,2.93s9.67-6.26,9.89-6.31h0s-11.25-.93-17.25,4.26h0a5.81,5.81,0,0,0-.59.64c-4,5.25,3.1,10.5,18.07,10.39,16.63-.12,30-6.21,35.24-14.93l.37-.62c4.35-8.88-2.5-14.4-17.42-14.29a47.13,47.13,0,0,0-14.39,2.29L176,36A74.63,74.63,0,0,0,185.45,36.61Z"/>
  <path class="cls-1" d="M180.14,54c.18-.43,1.86-4.32,1.86-4.32l-4.56,1.14-3.54-3.1s-.29,4.23-.32,4.7l-4,2.39,4.36,1.76c.11.47,1,4.59,1,4.59l3-3.62,4.68.44Z"/>
</svg>
