<svg enable-background="new 0 0 138.6 43" height="43" viewBox="0 0 138.6 43" width="138.6" xmlns="http://www.w3.org/2000/svg"><g fill="#fff"><path d="m28.1 7.1c-.7 0-1.1.6-1.4 1.9-1.3 5.7-2.5 9.7-3.5 12-2-5.4-3-9.5-3-12.3v-.1c-.5-1-1.1-1.5-1.6-1.5-2.2.2-3.5.5-3.9.9l-2.7 7.5c-3.6 9-5.4 14.3-5.4 16.1v.6l1 1.8.1-.1h.1.2l.2-.3.3.1.5-.1h.2l1.1.9h.3c.2 0 .3-.4.5-1.2v-.1-.2c.2-1.8.6-3.4 1.1-4.8l4.6-12.3h.1l.9 3.5 3 9.1c-.5 1.6-.8 2.6-.8 3.1v1l.9 1.3 1.1-.1.6.4h.6l.1-.1.5.4h.3l.3-.4c1.1-4.6 2.1-8.2 3.2-10.7l4.4-14.4v-.4c-.7-1.2-1.5-1.8-2.5-1.8h-.8c-.4 0-.6.1-.6.3z"/><path d="m33.9 8.8-2.9 8.6c-1.2 2.9-1.8 6.2-1.8 10v.7l.2 1.7c.9 2.7 2.8 4 5.7 4 1.5 0 2.9-.5 4.1-1.4 6.3-8 9.4-15.1 9.4-21.3 0-1.9-.4-3.2-1.1-4.1h-.1c-.4 1.2-.7 2-1 2.1v-.5h-.2v1.1h-.1v-.5h-.1c-.2 0-.4.8-.6 2.4h-.1v-.6h-.2l-.1.1c0 .3-.1.4-.3.4l-.7 2c-.5 2-2.2 5.4-5 10-1.2 2.3-2.7 4.2-4.7 5.8v-.4c0-3.6.8-7.5 2.5-11.8 1.6-4 2.4-6.3 2.4-7.1l-.1-.6c-.7-1.6-1.7-2.4-2.9-2.4h-.6c-.5-.1-1.1.5-1.7 1.8z"/><path d="m52.9 7c-.7 0-1.5 2-2.5 6-4.3 11-6.5 17.6-6.5 20v.6c.3.1.5.3.7.9l1-.3.1.1.3-.3.2.6.1-.1.1.1.3-.1.6.4h.2c.3-.4 2.2-5.5 5.5-15.3h.1c.6 3.3 1.3 5.3 2.1 6 .7.2 1.5.6 2.3 1.3h.1c.4-.6.8-.9 1-.9 1.1-2.1 2.2-3.9 3.4-5.3-2.3 5.4-3.4 9.1-3.4 11v1c0 .2.2.3.5.3.1.5.2.7.5.7l.2-.3c.5.2.8.4.8.6l.5-.3v.3h.8l.8-1.3c1.1-3.2 1.7-4.8 1.8-4.9l1.5-3.8-.1-.1c.2 0 .7-1.2 1.5-3.5 2.2-6.3 3.3-9.9 3.3-10.9v-.3c-.5-.8-.9-1.2-1-1.2-.1-.4-.5-.7-1.3-.9l-.8.1c-1.1 0-2.2.9-3.2 2.8-2.8 3.7-4.3 5.6-4.6 5.7-1.4 2-2.1 2.9-2.3 2.9-.4-1-.6-2.3-.6-4l.2-5.9c-.7-1.5-1.4-2.2-2.3-2.2h-.6z"/><path d="m73.4 8.2c-3.4.3-5.1 1-5.1 2.2.3 1.3.6 2 .9 2.1.5 1 1.4 1.5 2.9 1.5-4.7 8.9-7.4 14.4-8 16.4l.2 1.5c-.5 0-1.1.4-1.8 1.2v.1l.1.1.6-.1h.1v.1l-.3.5v.1h.1l.7-.1h.1l.1.1.7-.3h.1c0 .2-.3.3-.8.4v.3l1.5-.3h.1v.1l-1.2.6.1.6c0 .2.2.3.6.3v.4l-.1.1.1.1 2.4-.7c11.5-4.7 17.3-8.2 17.3-10.6v-.9c0-.9-.8-2.4-2.5-4.3v-.1c3.5-1.8 5.3-3.5 5.3-5.1v-.1c0-.7-.2-1.3-.6-1.9-1.2-3.1-4-4.7-8.2-4.7h-1.4zm5.1 4.7h1.6c1.8 0 2.6.1 2.6.4-1.6 1-3.5 2.1-5.8 3.1 0-.3.5-1.5 1.6-3.5zm-5.5 11.6c0-.7 1.4-1 4.2-1h2.2c-1.7 1.7-4.4 3.3-8.3 5v-.1z"/><path d="m94.8 7.9-4.2-.1c-1 .2-1.5.7-1.5 1.7-4.8 12.9-7.5 20.7-8.1 23.5l.1.1h.1l.1-.1h.2l-.1.4v.1l.1.1.3-.1c.7.2 1.1.5 1.1.7l.5-.1h.2l.6.7h.1c.5-.3.9-.8 1-1.3 0-.7 2.2-1.6 6.5-2.5 3.7-.9 5.9-1.6 6.5-2.1 0-.2-.2-.4-.5-.4l.1-.1c-.1-.5-.7-.7-1.7-.7l.1-.1v-.1l-.1-.1h.5v-.4h-.7v-.1h.2c.2-.3.4-.4.5-.4v-.5c-.3 0-.5-.2-.5-.7l-.5.1h-.1v-.3l-7.6 1.8c.9-2.8 1.6-4.2 2.2-4.2 4.6-1.2 6.9-1.9 6.9-2.2v-.1c0-.2-.2-.3-.5-.3v-.1l.1-.1v-.1c-.6-.3-.9-.7-.9-1.1l.1-.4h-.2v-.1l.5-.3c0-.2-.3-.3-.9-.3v-.1l.3-.1-.2-.4c-1.9.1-3 .2-3.4.4h-.1l1.2-3.1c2.6-1.3 4.3-2 5.2-2 2.7-.4 4-.8 4-1.1 0-.2-.2-.3-.5-.3v-.1l.1-.1-1-.7h-1.3v-.5h.3v-.2c-.4 0-.6-.1-.6-.4h.4v-.2c0-.2-.2-.3-.5-.3v-.1h.3v-.3c-.3 0-.4-.2-.4-.6z"/><path d="m103.1 7.6c-2.7 1.2-4 2.1-4.1 2.6v.7c0 .8.8 1.9 2.3 3.3-4 10.4-6.1 16.7-6.1 19v.4c.3.1.5.3.7.8l.3-.1c.2 0 .3.1.3.3l.2-.3c.7.3 1.1.7 1.1 1.1h.1c.6-1.9 1-2.8 1.1-2.8.3-1.2.6-1.8.7-1.9.8-2 1.4-3 1.7-3l-.2-.3.6-1.6h.1v.2l-.4 1.6h.3l.1-.7c.3-.2.6-.9 1.1-2.3l5-2.1c.9 4.6 1.9 8.7 3.1 12.2.3 0 .5.2.6.7l.2-.3.6.1c.1 0 .2-.2.3-.6h.1l.1.1h.2c.1 0 .2-.1.2-.4.2 0 .2.2.2.6h.2l.1-.1-.1-1.3.1-.4v-.1l-.1-.1c0-2.4-.6-6.6-1.7-12.6 4.4-2.9 6.6-5 6.6-6.2v-.4l-.1-.9c-.9-4.2-3.8-6.2-8.7-6.2h-1c-3.4-.1-5.4.2-5.8 1zm4 5.2c0-.8 1.4-1.3 4.2-1.3h.2l2.2.1v.1c-.9 1.4-3.6 3.4-8.1 5.8h-.2c.3-.2.8-1.8 1.7-4.7z"/><path d="m114.4 13.8c-.9 1.6-1.4 2.9-1.4 4.1 0 1.3.4 2.2 1.2 2.9 0 1.3 3.3 2.2 10 2.7-.7.6-3.1 1.9-7.3 3.8-6.4 2.3-9.5 3.7-9.5 4.3v.1c.2 0 .4.1.4.3h.2v.1l-.1.1v.1h.2l.1-.1c0 .3.2.5.5.5v.5l-.1.1.7.3v.1h-.3v.3h.4v.3c-.4.1-.6.2-.6.5v.2l1.3-.3v.3l-.8.4v.2l.1.1c5.6-1.8 10.1-3.4 13.3-4.9 2.2-1 4.1-2.4 5.9-4.1.4 0 .7-1.7.9-5 0-1-.3-1.7-.8-2.1-.6-1.4-3.7-2.4-9.4-3h-.1v-.3c4.6-2.7 8.5-4.1 11.6-4.1h.7c.7 0 1.2-.8 1.3-2.4l-.2-1.8.1-.6h-.1l-.1-.1c-.6-.7-1.1-1.1-1.4-1.1h-.2c-5.3 0-10.8 2.5-16.5 7.6zm-4.5 19.4v.1h-.2v-.1z"/></g></svg>