<?xml version="1.0" encoding="UTF-8"?>
<svg width="149px" height="54px" viewBox="0 0 149 54" version="1.1" xmlns="http://www.w3.org/2000/svg" xmlns:xlink="http://www.w3.org/1999/xlink">
    <!-- Generator: Sketch 61.2 (89653) - https://sketch.com -->
    <title>pick4</title>
    <desc>Created with Sketch.</desc>
    <g id="Homepage" stroke="none" stroke-width="1" fill="none" fill-rule="evenodd">
        <g id="Jackpot" transform="translate(-1041.000000, -1386.000000)">
            <g id="winning-numbers" transform="translate(120.000000, 686.000000)">
                <g id="pick4" transform="translate(814.000000, 621.000000)">
                    <g id="pattern">
                        <g id="pick4" transform="translate(107.000000, 78.000000)">
                            <g>
                                <path d="M129.164,53.858 C128.382432,53.8672707 127.639917,53.5170278 127.15,52.908 C126.661389,52.3143776 126.453532,51.5383757 126.58,50.78 L129.278,34.858 C129.370922,34.6394677 129.370922,34.3925323 129.278,34.174 C129.110383,33.9925284 128.878669,33.8834863 128.632,33.87 L118.258,33.87 C117.665785,33.7991519 117.119065,34.196767 117.004,34.782 L115.788,41.584 C115.55043,42.8224042 114.464978,43.7163061 113.204,43.712 L111.418,43.712 C110.719472,43.7289962 110.146021,44.2696783 110.088,44.966 L108.91,51.616 C108.705487,52.8636193 107.628269,53.7800588 106.364,53.782 L99.79,53.782 C99.0303157,53.7786158 98.3094437,53.4459056 97.814,52.87 C97.3110614,52.2838426 97.1013906,51.501072 97.244,50.742 L98.156,45.27 C98.156,44.13 97.814,43.75 96.788,43.75 L83.564,43.75 C81.094,43.75 80.524,44.966 80.372,45.688 L79.384,51.54 C79.1626243,52.7935148 78.0729122,53.7069498 76.8,53.706 L70.416,53.706 C69.6563157,53.7026158 68.9354437,53.3699056 68.44,52.794 C67.9370614,52.2078426 67.7273906,51.425072 67.87,50.666 L68.744,45.498 C68.7975847,45.2526114 68.7264692,44.9965958 68.554,44.814 C68.3985327,44.6166185 68.1591839,44.5039838 67.908,44.51 L67.908,44.51 C63.3845227,44.6080363 59.0525111,42.6857932 56.09,39.266 C55.5698688,38.6541223 55.1116313,37.9922237 54.722,37.29 C54.556504,37.0181512 54.261262,36.8522394 53.943,36.8522394 C53.624738,36.8522394 53.329496,37.0181512 53.164,37.29 C51.948,39 49.858,42.116 49.858,42.116 C49.5587362,42.4370797 49.5587362,42.9349203 49.858,43.256 L50.238,43.522 C50.7409386,44.1081574 50.9506094,44.890928 50.808,45.65 L49.82,51.502 C49.5986243,52.7555148 48.5089122,53.6689498 47.236,53.668 L41.08,53.668 C40.3008629,53.6662964 39.5628404,53.3181726 39.066,52.718 C38.520512,52.0787502 38.3091782,51.219326 38.496,50.4 L39.522,44.586 C39.6741893,43.5901029 40.4075265,42.7819355 41.384,42.534 C41.6196822,42.4915189 41.8189642,42.3349402 41.916,42.116 C42.0089221,41.8974677 42.0089221,41.6505323 41.916,41.432 L40.434,37.442 C40.2630497,37.1177059 39.9265934,36.9147255 39.56,36.9147255 C39.1934066,36.9147255 38.8569503,37.1177059 38.686,37.442 C34.969253,41.6791676 29.6523579,44.1723231 24.018,44.32 C23.4106306,44.3591612 22.8013694,44.3591612 22.194,44.32 C21.206,44.32 20.712,44.32 20.522,45.536 C20.332,46.752 19.382,51.844 19.382,51.844 C19.1774872,53.0916193 18.1002688,54.0080588 16.836,54.0100152 L3.422,54.0100152 C2.65014392,54.0126026 1.91521821,53.679806 1.408,53.098 C0.854477352,52.462672 0.629571084,51.6052169 0.8,50.78 L1.788,44.928 C2.01136683,43.6812238 3.10552868,42.7801493 4.372,42.8 L5.132,42.8 C5.54032766,42.8067964 5.89380488,42.5175878 5.968,42.116 L9.274,22.66 C9.35859799,22.4661616 9.35859799,22.2458384 9.274,22.052 C9.11025138,21.731528 8.75225886,21.5603142 8.4,21.634 C7.76718887,21.525457 7.19057786,21.2036276 6.766,20.722 C6.27653132,20.1293411 6.08101419,19.3472726 6.234,18.594 L7.45,12.4 C7.68530329,11.154589 8.76663455,10.248179 10.034,10.234 L19.8,10.234 C20.5463726,10.2482552 21.2512826,10.5799775 21.738,11.146 C21.906992,11.3206155 22.1410516,11.416993 22.384,11.412 C22.4953126,11.4470062 22.6146874,11.4470062 22.726,11.412 C25.012742,10.4085097 27.4869078,9.90331353 29.984,9.93 C34.0814259,10.0321711 37.9340177,11.9030341 40.548,15.06 C41.3396657,16.0284375 41.9919851,17.1028459 42.486,18.252 C42.6434769,18.5251547 42.9308743,18.6975932 43.246,18.708 L43.246,18.708 C43.6166915,18.6761882 43.9162119,18.392432 43.968,18.024 L46.666,3.166 C46.8705128,1.91838073 47.9477312,1.0019412 49.212,1 L55.406,1 C56.1778561,0.997397405 56.9127818,1.33019395 57.42,1.912 C57.9229386,2.49815736 58.1326094,3.280928 57.99,4.04 L55.862,16.2 C55.8089939,16.5794124 56.0092526,16.9491208 56.356,17.112 C56.4673126,17.1470062 56.5866874,17.1470062 56.698,17.112 C56.9491839,17.1180162 57.1885327,17.0053815 57.344,16.808 C60.8575632,11.7321318 66.7609543,8.85242888 72.924,9.208 C74.6857562,9.17904108 76.4377394,9.47533236 78.092,10.082 L85.35,10.082 C86.376,10.082 86.3,9.398 86.338,8.942 L87.478,2.824 C87.8343685,1.70644902 88.8896346,0.961555311 90.062,1 L99.866,1 C100.625684,1.00338422 101.346556,1.33609438 101.842,1.912 C102.344939,2.49815736 102.554609,3.280928 102.412,4.04 L101.5,9.474 C101.462401,9.73680401 101.54629,10.0024516 101.728,10.196 C101.893866,10.3472598 102.111574,10.4289001 102.336,10.424 L116.624,10.424 C117.401957,10.4309056 118.137896,10.7780468 118.638,11.374 C119.124955,11.9535481 119.333299,12.7174735 119.208,13.464 L118.6,16.542 C118.532368,16.9036152 118.72071,17.2646051 119.056,17.416 C119.167313,17.4510062 119.286687,17.4510062 119.398,17.416 C119.642768,17.4313102 119.880981,17.3332222 120.044,17.15 L134.142,1.95 C134.627819,1.41408081 135.318664,1.11010876 136.042,1.114 L144.06,1.114 C144.828264,1.11631371 145.554403,1.46541904 146.036,2.064 C146.542924,2.63290226 146.753907,3.40650742 146.606,4.154 L143.49,22.242 C143.458355,22.4863035 143.526887,22.7330183 143.68,22.926 C143.835467,23.1233815 144.074816,23.2360162 144.326,23.23 L145.922,23.23 C146.690706,23.2417822 147.420049,23.5720507 147.936,24.142 C148.424611,24.7356224 148.632468,25.5116243 148.506,26.27 L147.518,31.818 C147.313487,33.0656193 146.236269,33.9820588 144.972,33.984 L142.16,33.984 C141.739377,33.9800733 141.381342,34.2892855 141.324,34.706 L138.474,51.806 C138.252624,53.0595148 137.162912,53.9729498 135.89,53.972 L129.164,53.858 Z" id="Path" fill="#FFFFFF" fill-rule="nonzero"></path>
                                <polygon id="Path" fill="#00438C" fill-rule="nonzero" points="47.274 50.97 41.08 50.97 42.068 45.118 48.262 45.118"></polygon>
                                <polygon id="Path" fill="#68477D" fill-rule="nonzero" points="76.8 51.046 70.416 51.046 71.442 45.232 77.826 45.232"></polygon>
                                <polygon id="Path" fill="#B45672" fill-rule="nonzero" points="106.364 51.16 99.79 51.16 100.816 45.308 107.352 45.308"></polygon>
                                <polygon id="Path" fill="#F37163" fill-rule="nonzero" points="135.89 51.236 129.164 51.236 130.152 45.422 136.916 45.422"></polygon>
                                <polygon id="Path" fill="#00438C" fill-rule="nonzero" points="49.516 37.784 45.488 43.598 43.322 37.746 47.882 11.298 54.114 11.298"></polygon>
                                <polygon id="Path" fill="#00438C" fill-rule="nonzero" points="54.418 9.436 48.224 9.436 49.212 3.622 55.444 3.622"></polygon>
                                <path d="M145.922,25.7 L140.222,25.7 L144.022,3.622 L136.118,3.622 L115.902,25.7 L114.8,31.4 L132.47,31.4 L130.722,41.242 L137.6,41.242 L139.272,31.4 L144.972,31.4 L145.922,25.7 Z M123.73,25.7 L135.966,11.792 L133.534,25.7 L123.73,25.7 Z" id="Shape" fill="#F37163" fill-rule="nonzero"></path>
                                <polygon id="Path" fill="#00438C" fill-rule="nonzero" points="112.026 19.164 115.56 19.164 116.624 13.046 102.64 13.046 101.576 19.164 103.742 19.164 96.028 25.776 98.802 9.702 98.84 9.702 99.866 3.622 93.748 3.622 90.062 3.622 88.998 9.702 92.684 9.702 88.2 35.276 84.59 35.276 83.564 41.128 87.174 41.128 93.368 41.128 95.914 41.128 96.94 35.276 94.394 35.276 95.648 27.828 101.576 35.276 98.802 35.276 97.776 41.128 113.204 41.128 114.268 35.276 110.05 35.276 102.944 26.536"></polygon>
                                <path d="M30.022,12.59 C25.801274,12.4844076 21.7610919,14.3017905 19.04,17.53 L19.8,13.008 L10.034,13.008 L8.932,19.088 L12.542,19.088 L8.02,45.384 L4.22,45.384 L3.422,51.198 L16.874,51.198 L17.9,45.422 L14.1,45.422 L15.62,36.758 C17.2044266,39.9265987 20.5185696,41.8523845 24.056,41.66 C32.5043618,41.4308271 39.6076171,35.2513136 41.004,26.916 C41.78864,23.5130091 41.0126602,19.9374091 38.8880023,17.1657966 C36.7633445,14.3941841 33.5119992,12.7161454 30.022,12.59 Z M34.468,26.916 C33.4475169,31.6732047 29.3700032,35.1593233 24.512,35.428 C22.3794555,35.5081621 20.3316954,34.5884031 18.975064,32.9410649 C17.6184326,31.2937268 17.1084046,29.1076002 17.596,27.03 C18.4181502,22.2366396 22.5372417,18.7082704 27.4,18.632 C29.5336553,18.5118685 31.6008403,19.3958648 32.9879155,21.0215767 C34.3749908,22.6472885 34.922531,24.8278625 34.468,26.916 L34.468,26.916 Z" id="Shape" fill="#00438C" fill-rule="nonzero"></path>
                                <path d="M84.4,22.47 L86.034,13.046 L79.878,13.046 L79.46,15.516 C77.9083745,13.4993859 75.5423885,12.2746402 73,12.1719998 C64.3191045,12.1706028 56.9171397,18.4622728 55.52,27.03 C54.6476483,30.6721166 55.5133227,34.512876 57.8637567,37.4286043 C60.2141907,40.3443325 63.7837114,42.0054607 67.528,41.926 C74.3561821,41.7820316 80.5183413,37.7964823 83.45,31.628 L76.344,31.628 C74.5020824,33.9621604 71.7164789,35.3549621 68.744,35.428 C66.6273638,35.4909501 64.6033982,34.5590137 63.2751084,32.9098448 C61.9468186,31.260676 61.4675158,29.084622 61.98,27.03 C62.7422482,22.2183378 66.874447,18.6649684 71.746,18.632 C74.4275075,18.4526439 76.9341943,19.971848 78.016,22.432 L84.4,22.432 L84.4,22.47 Z" id="Path" fill="#00438C" fill-rule="nonzero"></path>
                            </g>
                        </g>
                    </g>
                </g>
            </g>
        </g>
    </g>
</svg>