<?xml version="1.0" encoding="UTF-8"?>
<svg width="159px" height="49px" viewBox="0 0 159 49" version="1.1" xmlns="http://www.w3.org/2000/svg" xmlns:xlink="http://www.w3.org/1999/xlink">
    <!-- Generator: Sketch 61.2 (89653) - https://sketch.com -->
    <title>megabucks-test4</title>
    <desc>Created with Sketch.</desc>
    <g id="Homepage" stroke="none" stroke-width="1" fill="none" fill-rule="evenodd">
        <g id="Jackpot" transform="translate(-1047.000000, -834.000000)">
            <g id="winning-numbers" transform="translate(120.000000, 686.000000)">
                <g id="MEGABUCKS-Copy" transform="translate(813.000000, 68.000000)">
                    <g id="pattern" transform="translate(1.000000, 0.000000)">
                        <g id="megabucks-test4" transform="translate(113.000000, 80.000000)">
                            <g>
                                <path d="M156.870445,23.2013741 C158.187838,21.1254611 158.671948,18.6260842 158.225286,16.2065612 C157.903487,14.355275 156.988705,12.6596287 155.619557,11.3765612 C159.084622,6.32069784 159.160854,6.06356115 157.66048,4.67015827 C155.823996,2.98139568 151.610476,0.865230216 148.498847,0.528172662 C147.727749,0.444736655 146.952824,0.401821864 146.177253,0.399604317 C143.79163,0.345236822 141.429001,0.877310792 139.295633,1.9493741 C138.176023,1.07217614 136.793959,0.599580416 135.373179,0.608093525 L124.503269,0.608093525 C123.163677,0.608093525 122.077723,1.6971045 122.077723,3.04046763 L122.077723,4.2775036 L119.925917,1.61926619 C119.466103,1.05724275 118.779714,0.730927219 118.054782,0.72971223 L110.753889,0.72971223 C109.427713,0.729576518 108.347288,1.79756455 108.328343,3.12733813 C105.544895,1.3073287 102.284877,0.357895343 98.9622707,0.399604317 C98.0014935,0.399515507 97.0421907,0.475035096 96.0931965,0.625467626 C93.2620346,1.10737397 90.5994963,2.30308991 88.3557052,4.10028777 C87.0353564,2.97164753 85.5378519,2.06991096 83.9238865,1.4316259 C81.8412354,0.698496173 79.6479313,0.331720474 77.4407489,0.347482014 C75.8232692,0.345654434 74.2108506,0.528684263 72.6347031,0.893028777 C71.2256436,1.20900376 69.8694994,1.72747462 68.6082969,2.4323741 C68.4904847,0.694964029 67.3816638,0.694964029 56.7577729,0.694964029 L47.2704236,0.694964029 C46.2971153,0.700314516 45.4212614,1.28859708 45.0458515,2.18913669 C44.3373167,1.78015335 43.5822803,1.45815536 42.797024,1.23008633 C41.2194102,0.821737631 39.5917051,0.641542475 37.9632576,0.694964029 L26.8473275,0.694964029 C25.5077355,0.694964029 24.4217817,1.78397501 24.4217817,3.12733813 C21.6449884,1.30048184 18.3868428,0.348119243 15.0661048,0.392654676 C12.8770362,0.384865235 10.7056217,0.785492559 8.66266376,1.57409353 C5.34498389,2.83611376 2.65538521,5.35605211 1.17465721,8.5897554 C-0.381157205,12.0819496 -0.391552402,16.905 1.15040175,20.3172734 C2.25144634,22.7396554 4.04468785,24.7798133 6.30295415,26.179295 C4.36251747,27.916705 3.26755677,30.4428993 3.26755677,33.5111655 C3.26755677,39.4774317 7.54691266,43.3310072 14.1721179,43.3310072 L24.3559454,43.3310072 C25.2897444,43.3277195 26.1387404,42.7871569 26.5389367,41.9410791 L26.8854432,41.2148417 L27.2319498,41.9306547 C27.633223,42.7789948 28.4855668,43.3199716 29.4218712,43.3205827 L59.0031354,43.3205827 C59.119478,43.6964276 59.3000348,44.0491519 59.5367555,44.3630288 C60.2408002,45.2643221 61.2914367,45.8258184 62.4300852,45.9093237 C62.9844956,45.9683957 64.6858428,46.0378921 66.2416572,46.0378921 C68.6464127,46.0378921 69.2909148,45.8919496 69.7067227,45.7564317 L69.7586987,45.7390576 C70.8849115,45.9179428 72.0249073,45.9946992 73.1648581,45.9683957 C73.9650636,45.9800011 74.7651072,45.9358807 75.5592183,45.8363525 C75.7290066,45.8050791 75.9057249,45.7703309 76.0616528,45.7286331 C76.392408,45.8300666 76.7325706,45.8975921 77.076917,45.9301727 C77.2674956,45.9510216 77.8496266,45.9718705 78.5703603,45.9718705 C79.7589292,45.9965261 80.9476017,45.9279792 82.1255175,45.7668561 C82.7857265,45.642152 83.4168349,45.394655 83.9862576,45.0371439 C85.6279817,45.8384668 87.4344204,46.2419535 89.2600873,46.2151079 C90.038715,46.2147358 90.8161157,46.1531587 91.5851463,46.0309424 C92.1326401,46.6825804 92.8429541,47.1766431 93.6433952,47.4625683 C95.0778922,47.9778475 96.5932286,48.2297413 98.1167948,48.2061799 C100.698269,48.2061799 103.848013,47.5390144 105.798845,45.7946547 C106.770049,45.9958665 107.75937,46.0960087 108.751081,46.0934892 C109.286501,46.1045629 109.821671,46.061489 110.348476,45.9649209 C110.407382,45.9649209 110.833585,45.9996691 111.128116,45.9996691 C111.928806,46.0019512 112.729101,45.9636795 113.525941,45.885 L113.674939,45.8606763 L113.834332,45.8988993 C114.527345,46.0656906 119.177463,46.0726403 120.102635,46.0726403 C120.996525,46.0850393 121.878494,45.8660209 122.663319,45.4367482 L122.788061,45.499295 C123.72043,45.9184308 124.73246,46.1294688 125.754157,46.1178129 C126.337616,46.1166485 126.918986,46.0478538 127.48669,45.9127986 C128.222683,46.1212662 128.984631,46.2230673 129.749378,46.2151079 C130.580588,46.2417862 131.4078,46.0889137 132.174924,45.7668561 C133.028153,46.0372897 133.920937,46.1606575 134.815303,46.1317122 C135.462562,46.1400873 136.109058,46.084218 136.745345,45.9649209 C137.251258,46.0506145 137.763874,46.0901575 138.276904,46.0830647 C138.994395,46.0841858 139.710713,46.0249057 140.418314,45.9058489 C140.961213,45.994632 141.510713,46.0364837 142.060755,46.0309424 C142.684795,46.0408559 143.308229,45.9873016 143.921496,45.8711007 C144.706559,46.0786926 145.514383,46.1872504 146.326251,46.194259 C147.821771,46.211794 149.284082,45.751786 150.501655,44.880777 C151.00734,45.2146516 151.594526,45.4033203 152.199537,45.4263237 L152.275769,45.4263237 C152.542692,45.4126856 152.806344,45.3612105 153.058873,45.2734317 C153.214895,45.3200209 153.375026,45.3514392 153.537052,45.3672518 L153.537052,45.3672518 C153.684724,45.3673149 153.832069,45.3533532 153.977116,45.325554 C154.13329,45.3583462 154.292279,45.3758028 154.45183,45.3776763 C154.45183,45.3776763 154.680524,45.3776763 154.777546,45.3776763 C154.874568,45.3776763 155.408188,45.4054748 155.411653,45.4054748 C156.751245,45.4054748 157.837199,44.3164638 157.837199,42.9731007 L157.837199,40.4851295 C157.837334,39.1552202 156.772344,38.0717541 155.446303,38.0527554 L154.919614,38.0527554 C154.739922,38.0527624 154.560843,38.0737527 154.385993,38.1153022 C154.205739,38.0698915 154.020878,38.0454071 153.835048,38.0423309 L153.814258,38.0423309 C153.8752,37.3316599 153.886778,36.6175988 153.848908,35.9053165 C153.912569,35.8237613 153.970461,35.7378392 154.022162,35.6481799 C154.586967,34.6891295 155.061681,30.3699281 155.061681,30.3247554 C155.267107,28.822875 154.753304,27.311904 153.675655,26.2487914 C154.958648,25.490935 156.051516,24.4484793 156.870445,23.2013741 Z" id="Path" fill="#FFFFFF" fill-rule="nonzero"></path>
                                <path d="M152.376255,11.9325324 C153.155895,10.7893165 156.118526,6.47706475 156.094419,6.45621583 C154.632013,5.10798561 150.896672,3.21768345 148.304803,2.93622302 C145.075362,2.58874101 141.416253,2.95707194 138.88329,5.2087554 C138.273439,3.65898561 136.759205,3.03004317 135.439015,3.03004317 L124.569105,3.03004317 L124.569105,11.0568777 L118.120618,3.15513669 L110.82319,3.15513669 L110.82319,9.43413669 C108.272902,4.16978417 102.021924,2.15786331 96.5332598,3.01961871 C93.9102052,3.42964748 90.5352314,4.95856835 88.3175895,7.58553237 C87.0770961,5.68480576 84.4679017,4.18715827 83.1615721,3.71110791 C80.0984541,2.58874101 76.4046943,2.5192446 73.2480197,3.25243165 C70.4413166,3.90569784 67.8494476,5.43461871 66.283238,7.90869065 L66.283238,3.12733813 C66.283238,3.12733813 47.3362598,3.12733813 47.3362598,3.12733813 L47.3362598,9.49320863 C46.972846,6.65234771 44.9395785,4.31031853 42.1837074,3.55821583 C40.4511747,3.04741727 38.61469,3.12038849 36.816321,3.12038849 L26.9166288,3.12038849 L26.9166288,9.43413669 C23.908952,3.20725899 15.6759563,1.43510072 9.61902183,3.82230216 C6.89702875,4.8626727 4.68850681,6.92901443 3.4650655,9.58007914 C2.25575764,12.2939137 2.13794541,16.4428489 3.43734498,19.3095755 C5.42282751,23.7608201 9.88583188,25.9603813 14.1028166,25.9534317 C8.95026419,25.984705 5.74854367,28.8201583 5.74854367,33.5111655 C5.74854367,38.2021727 9.08193668,40.9055827 14.2414192,40.9055827 L24.4252467,40.9055827 L25.6622751,38.2890432 L28.250679,38.2890432 L29.4738472,40.9055827 L61.5153079,40.9055827 C61.4633319,41.2322158 61.4009607,41.6005468 61.3316594,41.9932014 C61.1791965,42.8271583 61.7821179,43.4005036 62.7176856,43.4977986 C63.6532533,43.5950935 68.1994192,43.7167122 69.0171747,43.4491511 C69.2181485,43.3866043 69.3636812,43.1885396 69.5300044,43.0738705 C69.6844885,43.1638594 69.8468704,43.2394632 70.0151135,43.2997338 C70.8155437,43.5846691 74.2944694,43.605518 75.1815262,43.4491511 C75.5327307,43.3934774 75.8737267,43.2857378 76.1933253,43.1294676 C76.5481734,43.3461616 76.9474519,43.4792331 77.3610524,43.5186475 C77.8011157,43.5638201 80.7706769,43.5777194 81.7062445,43.3900791 C82.578285,43.2442293 83.3273076,42.6870218 83.7194476,41.8924317 C86.0341114,44.088518 90.1471441,44.1580144 93.0370087,43.198964 C93.1825415,44.2136115 93.5013275,44.7800072 94.5651026,45.1935108 C97.8499847,46.4618201 104.017801,45.6695612 105.095437,42.7611367 C105.412757,43.0003222 105.762882,43.192263 106.134956,43.3310072 C106.945782,43.6333165 109.378258,43.7653597 110.095526,43.5186475 C110.299965,43.4491511 110.442033,43.5186475 110.736563,43.5429712 C111.564404,43.5643902 112.392787,43.5377052 113.21755,43.4630504 C113.431907,43.4316345 113.642209,43.376872 113.844727,43.2997338 C114.03445,43.3951796 114.234405,43.468625 114.440718,43.5186475 C114.724854,43.5846691 119.378437,43.6263669 120.151146,43.6263669 C121.862889,43.6263669 122.341068,42.4588273 122.722225,42.4588273 C123.103382,42.4588273 123.415238,43.0808201 123.848371,43.2719353 C124.834842,43.682301 125.922257,43.7828671 126.96693,43.5603453 C127.410459,43.4769496 127.715384,43.3171079 128.113867,43.5290719 C128.512349,43.741036 130.643365,43.9495252 131.364098,43.4561007 C131.928904,43.0669209 132.330852,43.025223 132.777845,43.334482 C133.470858,43.8105324 136.159749,43.7653597 136.793856,43.4144029 C137.324011,43.7618849 139.780742,43.6506906 140.4495,43.3900791 C141.23607,43.6750144 143.266598,43.6194173 143.772498,43.3900791 C144.028913,43.2754101 144.001192,43.3518561 144.413535,43.4665252 C149.18493,44.7730576 150.959044,41.2356906 151.267434,39.394036 C151.496129,38.0353813 151.613941,36.1068561 151.309015,34.7655755 C151.250109,34.5119137 151.821845,34.6648058 151.984703,34.390295 C152.147561,34.1157842 152.677716,30.4880719 152.715832,30.0398201 C152.909876,28.2051151 151.499594,26.912482 147.892461,25.9395324 C151.613941,24.8970863 153.609819,23.802518 154.902288,21.8461942 C155.888608,20.2959765 156.25492,18.4294773 155.927948,16.6200647 C155.550255,14.5351727 154.195415,12.9367554 152.376255,11.9325324 Z" id="Path" fill="#222222" fill-rule="nonzero"></path>
                                <path d="M15.1977773,23.5558058 C9.18242358,23.5558058 4.48379476,19.9906403 4.48379476,14.4344029 C4.48379476,8.87816547 8.75968559,4.95856835 15.1977773,4.95856835 C21.4868712,4.95856835 26.0122467,8.87469065 26.0122467,14.4344029 C26.0122467,19.9941151 21.4834061,23.5558058 15.1977773,23.5558058 Z M15.1977773,8.96156115 C11.5663886,8.96156115 8.78394105,11.0464532 8.78394105,14.4483022 C8.78394105,17.8501511 11.6183646,19.6605324 15.1977773,19.6605324 C18.8776769,19.6605324 21.6116135,17.8640504 21.6116135,14.4483022 C21.6116135,11.032554 18.9261878,8.94766187 15.1977773,8.94766187 L15.1977773,8.96156115 Z" id="Shape" fill="#FFFFFF" fill-rule="nonzero"></path>
                                <path d="M42.318845,23.1318777 L38.2404629,17.1482374 L33.1468166,17.1482374 L33.1468166,23.1318777 L28.9194367,23.1318777 L28.9194367,5.25740288 L38.8399192,5.25740288 C43.8850546,5.25740288 45.4512642,7.87394245 45.4512642,11.1923957 C45.4512642,13.5587482 44.2315611,15.4038777 42.1213362,16.1266403 L47.4159563,23.1318777 L42.318845,23.1318777 Z M33.1468166,9.12140288 L33.1468166,13.6386691 L38.5176681,13.6386691 C39.8066725,13.6386691 41.2897205,13.2633885 41.2897205,11.320964 C41.2897205,9.52448201 39.8205328,9.1248777 38.5176681,9.1248777 L33.1468166,9.12140288 Z" id="Shape" fill="#FFFFFF" fill-rule="nonzero"></path>
                                <polygon id="Path" fill="#FFFFFF" fill-rule="nonzero" points="49.3390677 23.1318777 49.3390677 5.25740288 64.2804301 5.25740288 64.2804301 9.07970504 53.5664476 9.07970504 53.5664476 12.2452662 63.0122162 12.2452662 63.0122162 15.5602446 53.5664476 15.5602446 53.5664476 19.1427842 64.5541703 19.1427842 64.5541703 23.1318777"></polygon>
                                <path d="M81.5745721,16.6513381 L76.9902904,16.6513381 L76.9902904,13.0375252 L85.8262074,13.0375252 L85.8262074,20.1921799 C84.0624891,22.7843957 79.7346223,23.5558058 77.2986812,23.5558058 C71.359559,23.5558058 66.6124192,20.6647554 66.6124192,14.2571871 C66.6124192,8.52373381 70.3131092,4.95856835 77.2259148,4.95856835 C81.5260611,4.95856835 83.9620022,5.98016547 85.7257205,7.87394245 L83.0160393,11.0916259 C81.9487991,9.96925899 80.7568166,8.92333813 76.8759432,8.92333813 C73.1717882,8.92333813 70.9091004,10.7163453 70.9091004,14.2085396 C70.9091004,17.773705 73.4455284,19.5945108 77.4927249,19.5945108 C79.8524345,19.5945108 80.9231397,19.1427842 81.5918974,18.6215612 L81.5745721,16.6513381 Z" id="Path" fill="#FFFFFF" fill-rule="nonzero"></path>
                                <path d="M99.1008734,23.5558058 C93.0855197,23.5558058 88.3868908,19.9906403 88.3868908,14.4344029 C88.3868908,8.87816547 92.6627817,4.95856835 99.1008734,4.95856835 C105.389967,4.95856835 109.915343,8.87469065 109.915343,14.4344029 C109.915343,19.9941151 105.389967,23.5558058 99.1008734,23.5558058 Z M99.1008734,8.96156115 C95.4729498,8.96156115 92.6870371,11.0464532 92.6870371,14.4483022 C92.6870371,17.8501511 95.5214607,19.6605324 99.1008734,19.6605324 C102.780773,19.6605324 105.51471,17.8640504 105.51471,14.4483022 C105.51471,11.032554 102.829284,8.94766187 99.1008734,8.94766187 L99.1008734,8.96156115 Z" id="Shape" fill="#FFFFFF" fill-rule="nonzero"></path>
                                <polygon id="Path" fill="#FFFFFF" fill-rule="nonzero" points="126.596168 23.1318777 116.977146 12.2383165 116.977146 23.1318777 112.819068 23.1318777 112.819068 5.25740288 117.070703 5.25740288 126.540727 16.7764317 126.540727 5.25740288 130.66762 5.25740288 130.66762 23.1318777"></polygon>
                                <path d="M133.564415,9.92061151 C134.184662,9.47235971 134.603934,8.84689209 134.603934,8.27354676 C133.609461,8.27354676 133.113956,7.75232374 133.113956,6.65428058 C133.113956,5.63268345 133.782714,5.10798561 135.127159,5.10798561 C136.471605,5.10798561 137.164618,5.68133094 137.164618,6.95311511 C137.164618,8.22489928 136.270631,9.6947482 134.704421,10.6920216 L133.564415,9.92061151 Z" id="Path" fill="#FFFFFF" fill-rule="nonzero"></path>
                                <path d="M151.035275,10.4696331 C149.636168,9.29487739 147.863263,8.66238016 146.038651,8.68705036 C145.120408,8.68705036 142.920092,8.78782014 142.920092,10.1568993 C142.920092,13.2008417 154.032557,11.1993453 154.032557,18.0864388 C154.032557,22.4751367 149.708155,23.5453813 146.225764,23.5453813 C143.245808,23.5453813 139.787672,22.6975252 137.975443,20.1296331 L141.028166,17.2976547 C142.185498,19.1115108 144.347699,19.8064748 146.437133,19.8064748 C147.705347,19.8064748 149.843293,19.7335036 149.843293,18.1837338 C149.843293,15.2197122 138.630341,16.8146547 138.630341,10.5391295 C138.630341,6.32764748 142.788419,4.97941727 146.087162,4.97941727 C148.599334,4.97941727 151.357526,5.40334532 153.39845,7.02261151 L151.035275,10.4696331 Z" id="Path" fill="#FFFFFF" fill-rule="nonzero"></path>
                                <path d="M16.8298231,34.9184676 L14.0577707,34.9184676 L14.0577707,32.7223813 L19.4043668,32.7223813 L19.4043668,37.0693813 C18.3336616,38.64 15.7071419,39.1091007 14.227559,39.1091007 C10.6204258,39.1091007 7.74095633,37.3716906 7.74095633,33.4659928 C7.74095633,29.9911727 9.98978384,27.8228849 14.1825131,27.8228849 C16.7917074,27.8228849 18.2712904,28.4414029 19.3419956,29.5915683 L17.7064847,31.5444173 C17.0550524,30.8494532 16.3204585,30.2274604 13.9780742,30.2274604 C11.7327118,30.2274604 10.3570808,31.318554 10.3570808,33.4347194 C10.3570808,35.5508849 11.8955699,36.7045252 14.3419061,36.7045252 C15.7729782,36.7045252 16.4209454,36.4334892 16.8298231,36.1138058 L16.8298231,34.9184676 Z" id="Path" fill="#FFFFFF" fill-rule="nonzero"></path>
                                <path d="M30.7420611,38.851964 L29.518893,36.2354245 L24.3905961,36.2354245 L23.1501026,38.851964 L20.2567729,38.851964 L25.7489017,28.0035755 L28.2229585,28.0035755 L33.7878537,38.851964 L30.7420611,38.851964 Z M26.9859301,30.7869065 L25.3538843,34.2061295 L28.566,34.2061295 L26.9859301,30.7869065 Z" id="Shape" fill="#FFFFFF" fill-rule="nonzero"></path>
                                <polygon id="Path" fill="#FFFFFF" fill-rule="nonzero" points="45.7388646 38.851964 45.7388646 32.1803094 42.2391485 38.851964 41.0263755 38.851964 37.4781485 32.1803094 37.4781485 38.851964 35.0526026 38.851964 35.0526026 28.0035755 38.0568144 28.0035755 41.6639476 35.0539856 45.284941 28.0035755 48.1955961 28.0035755 48.1955961 38.851964"></polygon>
                                <polygon id="Path" fill="#FFFFFF" fill-rule="nonzero" points="50.5899563 38.851964 50.5899563 28.0035755 59.6580328 28.0035755 59.6580328 30.3351799 53.1506397 30.3351799 53.1506397 32.2567554 58.8853231 32.2567554 58.8853231 34.2686763 53.1506397 34.2686763 53.1506397 36.4300144 59.8208908 36.4300144 59.8208908 38.8623885"></polygon>
                                <path d="M84.162976,28.8688058 C84.1722129,27.8739804 83.5581916,26.9802397 82.627952,26.6344964 C82.174663,26.46494 81.6999871,26.3596793 81.2176703,26.3217626 C80.1819609,26.2769793 79.1494272,26.465781 78.1961332,26.874259 C77.8808122,27.0445252 77.818441,27.0653741 77.7214192,27.0584245 C77.6243974,27.0514748 77.5897467,27.0202014 77.4511441,26.8395108 C76.7482234,26.2630119 75.8911337,25.9076058 74.9874825,25.8179137 C73.8982638,25.7142118 72.8047128,25.9652181 71.8689236,26.5337266 C71.8000779,26.5845585 71.7149234,26.6080728 71.6298341,26.5997482 C71.5153769,26.5861075 71.4251373,26.4956139 71.4115349,26.3808345 C71.4115349,26.3217626 71.4600459,26.0090288 71.4565808,25.9499568 C71.4392555,25.6302734 70.9472162,25.5295036 70.5591288,25.4947554 C70.2784585,25.4739065 69.0414301,25.5156043 68.7919454,25.4947554 C68.3588122,25.4565324 67.9603297,25.3939856 67.5271965,25.3557626 C66.9069498,25.3036403 66.2901681,25.3557626 66.123845,26.2209928 C66.0684039,26.5441511 65.9020808,27.9584029 65.8466397,28.2502878 C65.7911987,28.5421727 65.4724127,29.9182014 65.4169716,30.2135612 C65.3095546,30.8598777 65.2021376,31.5061942 65.0704651,32.149036 C64.9491878,32.5903381 64.5507052,34.4424173 64.4606135,34.8211727 C64.325476,35.5578345 63.7918559,38.8311151 63.6463231,39.4809065 C63.5804869,39.6581223 63.3691179,40.3947842 63.3413974,40.572 C63.3082284,40.6978395 63.2919148,40.8275474 63.2928455,40.957705 C63.3344672,41.576223 63.9685742,41.576223 64.2284541,41.576223 C64.5749607,41.576223 66.1411703,41.5206259 66.4668865,41.5206259 C66.6851856,41.5206259 67.6969847,41.5796978 67.8771681,41.5796978 C68.875107,41.5796978 69.0241048,40.5372518 69.1488472,39.7171942 C69.1765677,39.5712518 69.3290306,38.5392302 69.3186354,38.3967626 L70.3824105,33.1324101 C70.410131,33.0455396 70.4032009,32.9586691 70.4378515,32.8752734 C70.6353603,32.1073381 70.6596157,31.3011799 70.8952402,30.5610432 C71.0407729,30.0537194 71.3907445,29.4977482 72.0144563,29.5185971 C72.3485488,29.5407989 72.6063347,29.8222553 72.6000524,30.157964 C72.5781708,30.4942016 72.5165224,30.8266404 72.4164039,31.1482878 C72.4164039,31.1482878 71.5639978,34.9705899 71.5154869,35.3180719 C71.466976,35.665554 71.203631,37.1076043 71.14819,37.402964 C71.044238,37.9971583 70.6284301,39.7866906 70.4551769,40.5303022 C70.4061174,40.6658609 70.3906582,40.8113483 70.410131,40.9542302 C70.4343865,41.3816331 70.6180349,41.5518993 71.2452118,41.5553741 C71.3803493,41.5553741 72.1357336,41.5275755 72.3055218,41.5275755 C72.6139127,41.5275755 73.9375677,41.5831727 74.2043777,41.5831727 C75.4691266,41.5831727 75.5904039,41.2356906 75.6804956,40.5893741 C75.7290066,40.2835899 75.9542358,38.9562086 76.0062118,38.678223 C76.1835891,37.4122301 76.4358284,36.1579259 76.7615961,34.9219424 C76.7823865,34.7273525 76.8378275,34.5362374 76.8586179,34.3138489 C76.9695,33.9003453 77.2674956,32.0795396 77.3125415,31.6903597 C77.444214,31.0579424 77.6798384,29.9529496 78.5530349,30.0154964 C78.6921539,30.0112135 78.8265736,30.0662168 78.9229908,30.1668789 C79.019408,30.2675411 79.0688018,30.4044439 79.0589345,30.5436691 C79.0762598,30.8911511 78.5807555,33.1428345 78.5079891,33.6084604 C78.3832467,34.3485971 78.28969,35.0609353 78.1025764,35.7697986 C78.0228799,36.1555036 77.9431834,36.5099353 77.8357664,36.8643669 C77.7872555,37.191 77.5343057,38.601777 77.4892598,38.8693381 C77.444214,39.2168201 77.0388013,40.7909137 77.0526616,41.0654245 C77.0781898,41.365066 77.3315107,41.5932403 77.6313275,41.5866475 L78.3659214,41.5345252 C78.7124279,41.5345252 79.1282358,41.5067266 79.2564432,41.5067266 C79.3846507,41.5067266 79.7969934,41.5345252 80.1712205,41.5345252 L80.9577904,41.5901324 C81.1596979,41.5909181 81.3590124,41.5445184 81.5399214,41.4546043 C81.7546216,41.3224206 81.9098734,41.1119293 81.9730546,40.8673597 C81.9557293,40.4920791 82.3576769,38.4871079 82.579441,37.364741 C82.7630895,36.7010504 83.4110568,32.8474748 83.5877751,32.0065683 C83.6640066,31.6590863 84.0451638,29.9911727 84.0971397,29.8591295 C84.1512438,29.5319652 84.1732943,29.2002769 84.162976,28.8688058 Z M95.3308821,30.467223 C95.3048353,29.2807749 94.8055921,28.1543156 93.9448559,27.3398849 C93.1226766,26.7077 92.1186788,26.3590902 91.0827118,26.3460863 C86.1865742,25.9777554 85.0777533,30.2309353 84.8040131,31.3255036 C84.7243166,31.5756906 84.2565328,33.636259 84.2357424,33.8065252 C84.214952,33.9767914 84.1456507,34.4493669 84.1040699,34.7586259 C83.9360255,35.6459841 83.8616936,36.54863 83.8823057,37.4516115 C83.9723974,39.0187554 84.6862009,40.8291367 86.9003777,41.4963022 C87.7118135,41.7027178 88.5481146,41.7939523 89.3848297,41.7673381 C91.1624083,41.7430144 93.0855197,41.3712086 93.4147009,40.7248921 C93.4943974,40.5928489 93.4874672,40.4886043 93.5498384,40.0646763 C93.633,39.4565827 93.8339738,38.4766835 93.8582293,38.3967626 C93.9021493,38.2789729 93.924454,38.1541858 93.9240655,38.0284317 C93.8602831,37.6860671 93.5536373,37.4439223 93.2067969,37.462036 C93.0357869,37.4681955 92.8670632,37.5034452 92.7078275,37.5662806 C91.6059367,38.0110576 91.4361485,38.059705 90.3238624,38.0527554 C89.8630087,38.0527554 88.9378362,38.0145324 88.4804476,37.2743957 C88.3751123,37.0895263 88.3145786,36.8824184 88.3037293,36.669777 C88.2517533,35.6794532 88.927441,35.6933525 89.1630655,35.7003022 C89.5095721,35.7003022 91.0134105,35.7941223 91.2975459,35.7975971 C91.5227751,35.7975971 92.5380393,35.7454748 92.7598035,35.7489496 C92.8741507,35.7489496 93.4043057,35.8149712 93.5151878,35.818446 C94.1527598,35.818446 94.585893,35.123482 94.637869,35.047036 C94.7106354,34.8628705 95.0813974,32.7571295 95.1714891,32.3887986 C95.2709669,31.752991 95.3242382,31.1107745 95.3308821,30.467223 L95.3308821,30.467223 Z M90.989155,32.4687194 C90.8262969,32.6528849 90.4520699,32.6389856 90.2961419,32.632036 L89.5130371,32.6042374 C89.135345,32.6042374 89.0106026,32.4721942 88.9932773,32.1177626 C89.0192645,31.5093986 89.1566915,30.9110273 89.39869,30.352554 C89.5733149,29.9393263 89.992076,29.6845627 90.4382096,29.7201367 C90.6876325,29.7137147 90.92822,29.8129281 91.1009827,29.993451 C91.2737455,30.173974 91.3627077,30.4191129 91.3460568,30.6687626 C91.359917,30.6930863 91.2871507,32.1281871 90.989155,32.4687194 L90.989155,32.4687194 Z M105.836961,29.7444604 C105.878541,29.5220719 106.086445,28.420554 106.079515,28.323259 C106.079515,28.1460432 106.037934,27.8228849 105.462734,27.7811871 C105.278093,27.7701952 105.092964,27.7701952 104.908323,27.7811871 C104.676164,27.7811871 104.450934,27.7811871 104.374703,27.7811871 C104.19452,27.7811871 103.68169,27.7082158 103.577738,27.7012662 C103.398546,27.6593489 103.216823,27.62917 103.033723,27.6109209 C102.913793,27.5827965 102.787634,27.6036082 102.683008,27.6687763 C102.578382,27.7339443 102.503862,27.8381286 102.475847,27.9584029 C102.410011,28.2085899 102.389221,28.3336835 102.257548,28.3058849 C102.125876,28.2780863 102.177852,28.2746115 102.011528,28.0383237 C101.688035,27.5909749 101.176273,27.3189774 100.625502,27.3016619 C99.662214,27.2321655 97.8361245,27.7777122 96.914417,29.9355755 C96.6701292,30.5028612 96.4742293,31.0898905 96.328821,31.6903597 C96.2560546,31.9474964 95.958059,33.3478489 95.9164782,33.6327842 C95.7657801,34.6326202 95.6812786,35.6413672 95.6635284,36.6524029 C95.7004788,37.5269357 96.0356261,38.3622562 96.6129563,39.0187554 C97.1290762,39.454425 97.7784228,39.6996885 98.4529061,39.7137194 C98.9653653,39.6950167 99.4662612,39.5557518 99.9151638,39.3071655 C100.021248,39.2830578 100.1192,39.2315478 100.199299,39.1577482 C100.303251,39.0813022 100.355227,39.0291799 100.431459,39.0291799 C100.50769,39.0291799 100.51462,39.0569784 100.518085,39.1577482 C100.508452,39.4518585 100.448683,39.7421445 100.341367,40.0160288 C100.074557,40.5442014 99.0904782,40.7561655 98.4182555,40.7596403 C98.083439,40.7638247 97.7500909,40.7145614 97.4307118,40.6136978 C97.0836901,40.4804814 96.7283372,40.3702092 96.3669367,40.2835899 C96.0121444,40.3106205 95.6957874,40.5177491 95.5283908,40.8326115 C95.423641,41.0690462 95.3682193,41.3244672 95.3655328,41.5831727 C95.3204869,41.7916619 95.3031616,42.0522734 95.2581157,42.2572878 C95.1472336,42.8827554 95.1264432,43.0113237 95.1264432,43.0391223 C95.1264432,43.296259 95.3412773,43.4456763 95.6288777,43.5429712 C96.469691,43.6672567 97.318916,43.7253478 98.1687707,43.7167122 C101.263074,43.6402662 103.057978,42.5352734 103.712876,41.2391655 C103.879199,40.9438058 104.021266,40.6727698 104.385098,38.3029424 C104.447469,37.9311367 104.638048,36.3778921 104.703884,36.0582086 C104.832092,35.4431655 104.960299,34.852446 105.088507,34.2652014 C105.25483,33.3304748 105.435013,32.2498058 105.577081,31.2872806 C105.633586,30.7683588 105.720362,30.2532027 105.836961,29.7444604 L105.836961,29.7444604 Z M101.464048,32.5243165 C101.353166,33.0768129 101.245749,33.6293094 101.134867,34.1818058 C101.0718,34.6872469 100.955653,35.1845906 100.78836,35.665554 C100.689549,35.942343 100.439327,36.136302 100.147323,36.1624532 C99.8008166,36.1624532 99.6760742,35.7454748 99.6587489,35.3597698 C99.715459,34.3074054 99.858003,33.2614646 100.084952,32.2324317 C100.2686,31.5374676 100.594317,31.0336187 100.992799,31.0509928 C101.256144,31.0509928 101.457118,31.3984748 101.474443,31.8884245 C101.485271,32.1026979 101.481798,32.3174575 101.464048,32.5312662 L101.464048,32.5243165 Z M115.040175,32.3505755 C115.225608,31.6113854 115.329033,30.8539122 115.348566,30.0919424 C115.320845,29.1467914 114.762969,28.6498921 114.02491,28.3302086 C113.370476,28.0292502 112.664918,27.8559019 111.945871,27.8194101 C111.796873,27.8194101 110.518264,27.7707626 110.393522,27.7603381 C109.672788,27.7603381 108.418434,27.9792518 108.123904,28.2885108 C107.975348,28.4810455 107.886214,28.7129618 107.867489,28.9556763 C107.846699,29.1050935 107.593749,30.6096906 107.593749,30.6096906 C107.667057,30.9024067 107.906643,31.1235557 108.2036,31.1726115 C108.356063,31.1726115 108.376854,31.1726115 108.726825,30.9953957 C109.274435,30.7678981 109.869289,30.6784188 110.459358,30.7347842 C111.031094,30.7660576 111.744897,30.9015755 111.765688,31.568741 C111.76948,31.811597 111.709745,32.0512098 111.592434,32.263705 C111.532148,32.3307999 111.442497,32.3633739 111.353345,32.3505755 C111.246762,32.3371715 111.144745,32.299105 111.055349,32.2393813 C110.722767,32.0107694 110.332167,31.8818099 109.929203,31.8675755 C108.829671,31.8298954 107.770049,32.2829341 107.035873,33.1046115 C105.691428,34.5814101 105.337991,37.6496763 105.379572,38.716446 C105.483524,41.3712086 106.817574,41.7569137 108.217461,41.7360647 C108.867015,41.7273781 109.490841,41.4801128 109.970784,41.0411007 C110.038658,40.9668571 110.146893,40.945713 110.237594,40.9889784 C110.237594,41.0133022 110.178688,41.3816331 110.178688,41.3816331 C110.178688,41.6283453 110.431638,41.6248705 110.525194,41.6248705 C110.713374,41.6172268 110.900872,41.5974957 111.086535,41.5657986 C111.239188,41.5444255 111.393281,41.5351307 111.547389,41.538 C111.744897,41.538 112.562653,41.5727482 112.728976,41.5692734 C113.23141,41.5692734 113.46357,41.3468849 113.539801,40.8152374 C113.587295,40.4502453 113.655552,40.0882737 113.74424,39.7310935 C113.848192,39.2758921 114.163513,37.229223 114.246675,36.8191942 C114.343697,36.148554 114.489229,35.4744388 114.610507,34.8037986 C114.7699,33.983741 114.863456,33.1636835 115.040175,32.3505755 Z M110.694983,36.9547122 C110.57024,37.7434964 110.532124,37.9971583 110.268779,38.2820935 C110.114961,38.4769906 109.882469,38.5929265 109.634672,38.5983022 C109.163424,38.5983022 109.049076,38.2230216 109.035216,37.8512158 C109.062201,37.100394 109.196394,36.3573303 109.433699,35.644705 C109.562874,35.2742763 109.893475,35.0117575 110.28264,34.9705899 C110.635338,35.0097269 110.901574,35.3097103 110.899434,35.665554 C110.882096,35.8740432 110.701913,36.7601223 110.684587,36.9547122 L110.694983,36.9547122 Z M124.049345,31.3394029 C124.021624,29.9494748 123.678583,28.5595468 122.084653,28.4483525 C121.592138,28.4064306 121.09818,28.5103329 120.663976,28.7471871 C120.532919,28.8586107 120.377339,28.9372151 120.210052,28.9765252 C120.189262,28.9765252 120.168472,28.9973741 120.144216,28.9973741 C120.078057,28.9918587 120.027797,28.9353472 120.029869,28.8688058 L120.151146,28.3302086 C120.189262,28.1182446 120.206587,27.9097554 120.244703,27.6943165 C120.309244,27.0364452 120.425101,26.3846582 120.59121,25.7449424 C120.59121,25.696295 120.650116,25.4391583 120.643186,25.2966906 C120.649474,25.0248642 120.442318,24.7957407 120.171937,24.7754676 C120.081845,24.7754676 119.82543,24.7754676 119.55169,24.7754676 C119.352112,24.7893841 119.151811,24.7893841 118.952234,24.7754676 C118.882932,24.7754676 118.661168,24.7233453 118.435939,24.6781727 C118.21071,24.633 118.002806,24.5878273 117.912714,24.5808777 C117.295932,24.5252806 117.261282,24.9283597 117.219701,25.2966906 C117.17812,25.6650216 117.025657,26.6205971 116.790033,27.9896763 C116.668755,28.6359928 116.173251,31.4193237 116.072764,31.9961439 C115.972277,32.572964 115.899511,33.2019065 115.799024,33.8030504 C115.681212,34.4771655 115.539144,35.1269568 115.452517,35.8010719 C115.390146,36.148554 115.161452,37.8025683 115.07829,38.1396259 C114.995129,38.4766835 114.953548,38.7199209 114.915432,39.0326547 C114.877317,39.3453885 114.79762,39.779741 114.717924,40.1689209 C114.64367,40.4952595 114.590429,40.8260505 114.558531,41.1592446 C114.575856,41.6665683 114.970873,41.6596187 115.227288,41.6561439 C115.410937,41.6561439 116.284133,41.5970719 116.464317,41.5935971 C116.717266,41.5935971 116.991007,41.5935971 117.237026,41.6318201 L117.486511,41.6318201 C117.597393,41.6318201 117.756786,41.6318201 117.833017,41.4858777 C117.909249,41.3399353 117.916179,41.2461151 117.982015,41.1383957 C118.001952,41.094751 118.045036,41.0663973 118.092897,41.0654245 C118.158734,41.0654245 118.480985,41.3920576 118.546821,41.440705 C118.895177,41.626407 119.285514,41.7185799 119.679897,41.7082662 C121.242642,41.6839424 122.275231,40.1306978 122.635598,39.3245396 C122.836507,38.8268389 122.995305,38.3130702 123.110312,37.7886691 C123.203869,37.3056691 123.276635,36.8261439 123.394448,36.3431439 C123.432563,36.1138058 123.661258,35.1339065 123.699373,34.9532158 C123.79293,34.4493669 123.990439,32.8683237 123.990439,32.8683237 C124.045682,32.3606903 124.065366,31.8497974 124.049345,31.3394029 L124.049345,31.3394029 Z M120.171937,36.1381295 C119.932847,37.1805755 119.79771,37.847741 119.225974,37.8408451 C119.045687,37.8370878 118.881421,37.7361249 118.796306,37.576705 C118.742615,37.4493062 118.716627,37.3118919 118.720074,37.1736259 C118.81675,36.0213447 118.976383,34.8752489 119.198253,33.7405036 C119.236369,33.5528633 119.371507,32.7536547 119.433878,32.5868633 C119.593271,32.0030935 119.984823,31.7146835 120.223913,31.7285827 C120.663976,31.7494317 120.677836,32.361 120.681301,32.572964 C120.719417,33.538964 120.445677,34.8454964 120.171937,36.1381295 Z M132.8021,29.7965827 C132.801371,29.6650429 132.746788,29.5395793 132.651134,29.4495686 C132.55548,29.359558 132.427153,29.3129047 132.296201,29.3205324 C132.199179,29.3205324 131.835347,29.3552806 131.759116,29.3518058 C131.62425,29.3639708 131.488568,29.3639708 131.353703,29.3518058 C131.294797,29.3518058 131.100753,29.3135827 130.924035,29.2788345 C130.747317,29.2440863 130.549808,29.2301871 130.470111,29.2232374 C130.016188,29.191964 129.822144,29.4282518 129.749378,29.8938777 C129.714727,30.0467698 129.6281,30.7591079 129.60731,30.8946259 L128.668277,36.6975755 C128.488094,37.8338417 128.377212,38.4349856 127.73271,38.4349856 C127.48669,38.4349856 127.21988,38.2959928 127.216415,38.0492806 C127.23467,37.8677292 127.265936,37.6877314 127.309972,37.5106835 C127.386203,37.1944748 127.711919,34.9740647 127.805476,34.504964 C127.840127,34.2130791 128.120797,32.9621439 128.151983,32.7119568 C128.207424,32.3644748 128.404932,30.8981007 128.439583,30.6062158 C128.477699,30.429 128.644022,29.6263165 128.644022,29.5116475 C128.644022,29.0807698 128.332166,29.0599209 128.252469,29.056446 C128.172773,29.0529712 127.947544,29.056446 127.722314,29.056446 C127.497085,29.056446 127.254531,29.056446 127.171369,29.056446 C127.088207,29.056446 126.883769,29.0112734 126.675865,28.9765252 C126.467961,28.941777 126.280847,28.9244029 126.221941,28.9209281 C125.657135,28.882705 125.504672,29.6158921 125.445766,29.8834532 C125.428441,30.0189712 125.407651,30.157964 125.39379,30.3178058 C125.262118,31.2073597 125.047284,32.7154317 124.735428,34.3138489 C124.641871,34.8420216 124.548314,35.356295 124.451293,35.8948921 C124.395852,36.2840719 124.156762,37.9346115 124.104786,38.2751439 C123.855301,39.4913309 123.834511,39.6268489 123.841441,39.9708561 C123.830348,40.489888 124.042412,40.9886291 124.423572,41.3399353 C124.830355,41.6521349 125.342488,41.792994 125.851179,41.7325899 C126.814467,41.7325899 127.077812,41.6040216 127.930218,40.9924532 L127.971799,41.0584748 C127.950058,41.1448549 127.93843,41.2334814 127.937148,41.3225612 C127.937148,41.614446 128.242074,41.6109712 128.321771,41.6109712 C128.501954,41.6109712 129.316245,41.5310504 129.496428,41.5275755 C129.61424,41.5275755 130.189441,41.5623237 130.338439,41.5623237 C130.806223,41.5623237 130.93443,41.0758489 130.969081,40.8326115 C131.003731,40.5893741 131.038382,40.2870647 131.073033,40.0229784 C131.125009,39.4982806 131.232426,38.9805324 131.322517,38.4732086 C131.322517,38.3203165 131.443795,37.6184029 131.46112,37.4655108 C131.495771,37.2048993 131.731395,36.0755827 131.766046,35.8288705 L132.417478,31.8189281 C132.455594,31.6000144 132.490245,31.4054245 132.52836,31.2073597 C132.665622,30.7520011 132.757321,30.2840661 132.8021,29.810482 L132.8021,29.7965827 Z M137.971978,31.8641007 C137.989303,31.6903597 138.08979,30.988446 138.124441,30.8390288 C138.159092,30.6896115 138.259579,30.0954173 138.259579,29.9668489 C138.259579,29.5324964 137.885352,29.5081727 137.739819,29.4977482 C136.533976,29.4108777 136.353793,29.3969784 135.882544,29.539446 C134.690561,29.8869281 134.177731,30.9675971 133.852015,31.7007842 C133.266419,33.0663885 133.051585,34.0080647 132.632312,36.7427482 C132.520706,37.3549056 132.465035,37.9759985 132.465977,38.5983022 C132.465977,39.567777 132.465977,39.8318633 132.77438,40.4503813 C133.058476,41.2527647 133.844073,41.7641993 134.690561,41.6978417 L134.985092,41.6978417 C135.078648,41.6978417 135.459806,41.6978417 135.532572,41.6978417 C136.384978,41.6978417 136.450814,41.1731439 136.551301,40.4642806 C136.599917,40.0247674 136.679818,39.589304 136.790391,39.161223 C136.835249,38.9777104 136.863088,38.790431 136.873552,38.601777 C136.873552,38.195223 136.582487,38.1917482 136.527046,38.1917482 C136.364188,38.1917482 136.218655,38.1917482 136.055797,38.1917482 C135.490991,38.1917482 135.466736,37.5350072 135.463271,37.2535468 C135.517432,36.5407872 135.613466,35.8318513 135.750871,35.1304317 C135.802847,34.7829496 136.059262,33.2331799 136.599812,32.8231511 C136.701,32.7528347 136.823792,32.7208189 136.946319,32.7328058 L137.324011,32.7501799 C137.819515,32.7953525 137.909607,32.2185324 137.971978,31.878 L137.971978,31.8641007 Z M143.561129,39.3071655 C143.526478,38.8554388 143.422526,38.3967626 143.35669,37.9415612 C143.322039,37.6323022 143.304714,37.3021942 143.252738,36.9894604 C143.200762,36.6767266 143.148786,36.4265396 143.114135,36.1346547 C143.114135,36.0929568 143.010183,35.3632446 143.010183,35.3423957 C143.010183,35.1756043 143.044834,35.1130576 143.35669,34.6474317 C143.942738,33.6512564 144.439052,32.6046671 144.839738,31.5200935 C144.974407,31.1651645 145.066305,30.7953709 145.113478,30.4185755 C145.113478,30.1093165 144.902109,30.0954173 144.604114,30.0710935 L144.209096,30.043295 C144.0811,30.053729 143.95247,30.053729 143.824474,30.043295 C143.597539,30.0264274 143.372566,29.9892141 143.152251,29.9321007 L142.999788,29.9321007 C142.794623,29.910427 142.603433,30.0392217 142.545865,30.2378849 C142.461144,30.4785743 142.410976,30.7301199 142.396867,30.9849712 C142.303285,31.4563819 142.156821,31.9156622 141.960269,32.3540504 C141.808671,32.7068987 141.58838,33.0258611 141.312301,33.2922518 L141.294976,33.2714029 L141.326162,32.9239209 L142.175103,28.0591727 C142.209753,27.8715324 142.327566,27.2043669 142.327566,27.0757986 C142.327566,26.9472302 142.306775,26.8638345 142.254799,26.8151871 C142.104568,26.708049 141.926213,26.6476243 141.741969,26.641446 C141.603367,26.641446 141.010841,26.641446 140.889563,26.641446 L140.768286,26.641446 C140.71631,26.641446 140.681659,26.6136475 140.629683,26.6101727 L140.366338,26.5858489 C139.888159,26.5406763 139.694116,26.6518705 139.610954,27.2286906 C139.576303,27.5032014 139.406515,28.7193885 139.37533,28.9661007 L138.682317,33.1358849 L138.682317,33.2019065 L137.909607,37.9728345 C137.857631,38.2508201 137.805655,38.5079568 137.771004,38.7859424 C137.705168,39.258518 137.653192,39.7310935 137.54924,40.1758705 C137.531915,40.3287626 137.375987,40.9055827 137.358662,41.0376259 C137.348324,41.1079003 137.348324,41.1793155 137.358662,41.2495899 C137.358662,41.4233309 137.379452,41.6561439 137.847236,41.6527075 C138.027419,41.6527075 138.831314,41.576223 138.987242,41.5727482 C139.211912,41.5612171 139.437168,41.572861 139.659465,41.6074964 L139.67679,41.6074964 C139.840981,41.5633564 139.975412,41.445238 140.040622,41.2878129 C140.117117,41.042561 140.156822,40.7872659 140.158434,40.5303022 C140.185924,40.0758571 140.253174,39.6247126 140.359408,39.1820719 C140.390594,39.0118058 140.425245,38.8345899 140.459895,38.6747482 C140.459895,38.5705036 140.657404,37.2848201 140.657404,37.2848201 C140.669554,37.2494566 140.69421,37.2197863 140.726705,37.2014245 C140.818462,37.5164565 140.866272,37.8427138 140.868773,38.1708993 C140.889563,38.5183813 140.927679,38.8241655 140.927679,39.161223 C140.927679,39.4982806 140.927679,39.8318633 140.951934,40.1689209 C140.951934,40.3565612 140.972725,40.5164029 140.972725,40.7109928 C140.972725,40.7735396 140.9554,41.0272014 140.9554,41.0897482 C140.9554,41.5275755 141.166769,41.6074964 141.371207,41.6074964 C141.575646,41.6074964 142.171638,41.5136763 142.306775,41.5102014 C142.441913,41.5067266 143.027509,41.5449496 143.145321,41.5414748 C143.512618,41.5414748 143.692801,41.266964 143.692801,40.8187122 C143.692801,40.5928489 143.640825,40.3669856 143.6235,40.1237482 C143.606175,39.8805108 143.595779,39.5886259 143.561129,39.3210647 L143.561129,39.3071655 Z M149.929919,30.2900072 C149.787852,30.2587338 149.167605,30.1371151 149.039397,30.1266906 L148.942376,30.1266906 C146.374762,29.946 145.647098,32.8752734 145.650563,34.1609568 C145.680216,34.7034234 145.770883,35.2407946 145.920838,35.7628489 C146.054084,36.1184983 146.233503,36.45498 146.454459,36.7635971 C146.687114,37.0065536 146.876927,37.2873748 147.015799,37.5940791 C147.039067,37.6947467 147.055277,37.7969246 147.06431,37.8998633 C147.077683,38.1400155 146.966276,38.3700284 146.769779,38.5079568 C146.597799,38.6326898 146.383005,38.6827827 146.173788,38.6469496 C145.979924,38.6529744 145.787107,38.6162006 145.608983,38.5392302 C145.518962,38.4759601 145.423934,38.4201771 145.324847,38.3724388 C145.293777,38.3563801 145.259315,38.3480383 145.22436,38.3481151 C145.158524,38.3481151 144.753111,38.428036 144.66995,39.0083309 C144.638764,39.3175899 144.604114,39.6268489 144.555603,39.915259 C144.538277,40.0403525 144.43779,40.5164029 144.420465,40.610223 C144.38852,40.738659 144.372231,40.8705071 144.371954,41.0028777 C144.341924,41.2051857 144.455574,41.4013868 144.645694,41.4754532 C145.035372,41.6242232 145.448445,41.7018924 145.865397,41.7047914 C147.0851,41.7047914 147.539024,41.5796978 148.121155,41.1105971 C148.62363,40.6861673 149.017993,40.1477516 149.271557,39.5399784 C149.54428,38.8112359 149.694171,38.0420607 149.715085,37.2639712 C149.71288,36.7240607 149.607,36.1896292 149.403229,35.6898777 C149.302284,35.4407871 149.179364,35.2012318 149.035932,34.9740647 C148.859214,34.6821799 148.668635,34.3937698 148.505777,34.1018849 C148.397416,33.9123845 148.332326,33.7011369 148.315199,33.4833669 C148.312795,33.3217516 148.380645,33.1670877 148.501075,33.0596629 C148.621506,32.9522382 148.782593,32.9026885 148.942376,32.9239209 C149.029722,32.9196792 149.116724,32.9376066 149.195325,32.9760432 C149.278487,33.0003669 149.562622,33.1984317 149.624993,33.2019065 L149.69083,33.2019065 C149.892519,33.188093 150.074841,33.0765767 150.179404,32.9030719 C150.221908,32.8363115 150.254585,32.7637512 150.276426,32.6876331 C150.322381,32.4359041 150.354768,32.1818736 150.373448,31.9266475 C150.401168,31.7494317 150.546701,30.9536978 150.546701,30.8112302 C150.529376,30.3838273 150.169009,30.3386547 149.929919,30.3039065 L149.929919,30.2900072 Z" id="Shape" fill="#FFDD00"></path>
                                <path d="M84.162976,28.8688058 C84.1722129,27.8739804 83.5581916,26.9802397 82.627952,26.6344964 C82.174663,26.46494 81.6999871,26.3596793 81.2176703,26.3217626 C80.1819609,26.2769793 79.1494272,26.465781 78.1961332,26.874259 C77.8808122,27.0445252 77.818441,27.0653741 77.7214192,27.0584245 C77.6243974,27.0514748 77.5897467,27.0202014 77.4511441,26.8395108 C76.7482234,26.2630119 75.8911337,25.9076058 74.9874825,25.8179137 C73.8982638,25.7142118 72.8047128,25.9652181 71.8689236,26.5337266 C71.8000779,26.5845585 71.7149234,26.6080728 71.6298341,26.5997482 C71.5153769,26.5861075 71.4251373,26.4956139 71.4115349,26.3808345 C71.4115349,26.3217626 71.4600459,26.0090288 71.4565808,25.9499568 C71.4392555,25.6302734 70.9472162,25.5295036 70.5591288,25.4947554 C70.2784585,25.4739065 69.0414301,25.5156043 68.7919454,25.4947554 C68.3588122,25.4565324 67.9603297,25.3939856 67.5271965,25.3557626 C66.9069498,25.3036403 66.2901681,25.3557626 66.123845,26.2209928 C66.0684039,26.5441511 65.9020808,27.9584029 65.8466397,28.2502878 C65.7911987,28.5421727 65.4724127,29.9182014 65.4169716,30.2135612 C65.3095546,30.8598777 65.2021376,31.5061942 65.0704651,32.149036 C64.9491878,32.5903381 64.5507052,34.4424173 64.4606135,34.8211727 C64.325476,35.5578345 63.7918559,38.8311151 63.6463231,39.4809065 C63.5804869,39.6581223 63.3691179,40.3947842 63.3413974,40.572 C63.3082284,40.6978395 63.2919148,40.8275474 63.2928455,40.957705 C63.3344672,41.576223 63.9685742,41.576223 64.2284541,41.576223 C64.5749607,41.576223 66.1411703,41.5206259 66.4668865,41.5206259 C66.6851856,41.5206259 67.6969847,41.5796978 67.8771681,41.5796978 C68.875107,41.5796978 69.0241048,40.5372518 69.1488472,39.7171942 C69.1765677,39.5712518 69.3290306,38.5392302 69.3186354,38.3967626 L70.3824105,33.1324101 C70.410131,33.0455396 70.4032009,32.9586691 70.4378515,32.8752734 C70.6353603,32.1073381 70.6596157,31.3011799 70.8952402,30.5610432 C71.0407729,30.0537194 71.3907445,29.4977482 72.0144563,29.5185971 C72.3485488,29.5407989 72.6063347,29.8222553 72.6000524,30.157964 C72.5781708,30.4942016 72.5165224,30.8266404 72.4164039,31.1482878 C72.4164039,31.1482878 71.5639978,34.9705899 71.5154869,35.3180719 C71.466976,35.665554 71.203631,37.1076043 71.14819,37.402964 C71.044238,37.9971583 70.6284301,39.7866906 70.4551769,40.5303022 C70.4061174,40.6658609 70.3906582,40.8113483 70.410131,40.9542302 C70.4343865,41.3816331 70.6180349,41.5518993 71.2452118,41.5553741 C71.3803493,41.5553741 72.1357336,41.5275755 72.3055218,41.5275755 C72.6139127,41.5275755 73.9375677,41.5831727 74.2043777,41.5831727 C75.4691266,41.5831727 75.5904039,41.2356906 75.6804956,40.5893741 C75.7290066,40.2835899 75.9542358,38.9562086 76.0062118,38.678223 C76.1835891,37.4122301 76.4358284,36.1579259 76.7615961,34.9219424 C76.7823865,34.7273525 76.8378275,34.5362374 76.8586179,34.3138489 C76.9695,33.9003453 77.2674956,32.0795396 77.3125415,31.6903597 C77.444214,31.0579424 77.6798384,29.9529496 78.5530349,30.0154964 C78.6921539,30.0112135 78.8265736,30.0662168 78.9229908,30.1668789 C79.019408,30.2675411 79.0688018,30.4044439 79.0589345,30.5436691 C79.0762598,30.8911511 78.5807555,33.1428345 78.5079891,33.6084604 C78.3832467,34.3485971 78.28969,35.0609353 78.1025764,35.7697986 C78.0228799,36.1555036 77.9431834,36.5099353 77.8357664,36.8643669 C77.7872555,37.191 77.5343057,38.601777 77.4892598,38.8693381 C77.444214,39.2168201 77.0388013,40.7909137 77.0526616,41.0654245 C77.0781898,41.365066 77.3315107,41.5932403 77.6313275,41.5866475 L78.3659214,41.5345252 C78.7124279,41.5345252 79.1282358,41.5067266 79.2564432,41.5067266 C79.3846507,41.5067266 79.7969934,41.5345252 80.1712205,41.5345252 L80.9577904,41.5901324 C81.1596979,41.5909181 81.3590124,41.5445184 81.5399214,41.4546043 C81.7546216,41.3224206 81.9098734,41.1119293 81.9730546,40.8673597 C81.9557293,40.4920791 82.3576769,38.4871079 82.579441,37.364741 C82.7630895,36.7010504 83.4110568,32.8474748 83.5877751,32.0065683 C83.6640066,31.6590863 84.0451638,29.9911727 84.0971397,29.8591295 C84.1512438,29.5319652 84.1732943,29.2002769 84.162976,28.8688058 Z M95.3308821,30.467223 C95.3048353,29.2807749 94.8055921,28.1543156 93.9448559,27.3398849 C93.1226766,26.7077 92.1186788,26.3590902 91.0827118,26.3460863 C86.1865742,25.9777554 85.0777533,30.2309353 84.8040131,31.3255036 C84.7243166,31.5756906 84.2565328,33.636259 84.2357424,33.8065252 C84.214952,33.9767914 84.1456507,34.4493669 84.1040699,34.7586259 C83.9360255,35.6459841 83.8616936,36.54863 83.8823057,37.4516115 C83.9723974,39.0187554 84.6862009,40.8291367 86.9003777,41.4963022 C87.7118135,41.7027178 88.5481146,41.7939523 89.3848297,41.7673381 C91.1624083,41.7430144 93.0855197,41.3712086 93.4147009,40.7248921 C93.4943974,40.5928489 93.4874672,40.4886043 93.5498384,40.0646763 C93.633,39.4565827 93.8339738,38.4766835 93.8582293,38.3967626 C93.9021493,38.2789729 93.924454,38.1541858 93.9240655,38.0284317 C93.8602831,37.6860671 93.5536373,37.4439223 93.2067969,37.462036 C93.0357869,37.4681955 92.8670632,37.5034452 92.7078275,37.5662806 C91.6059367,38.0110576 91.4361485,38.059705 90.3238624,38.0527554 C89.8630087,38.0527554 88.9378362,38.0145324 88.4804476,37.2743957 C88.3751123,37.0895263 88.3145786,36.8824184 88.3037293,36.669777 C88.2517533,35.6794532 88.927441,35.6933525 89.1630655,35.7003022 C89.5095721,35.7003022 91.0134105,35.7941223 91.2975459,35.7975971 C91.5227751,35.7975971 92.5380393,35.7454748 92.7598035,35.7489496 C92.8741507,35.7489496 93.4043057,35.8149712 93.5151878,35.818446 C94.1527598,35.818446 94.585893,35.123482 94.637869,35.047036 C94.7106354,34.8628705 95.0813974,32.7571295 95.1714891,32.3887986 C95.2709669,31.752991 95.3242382,31.1107745 95.3308821,30.467223 L95.3308821,30.467223 Z M90.989155,32.4687194 C90.8262969,32.6528849 90.4520699,32.6389856 90.2961419,32.632036 L89.5130371,32.6042374 C89.135345,32.6042374 89.0106026,32.4721942 88.9932773,32.1177626 C89.0192645,31.5093986 89.1566915,30.9110273 89.39869,30.352554 C89.5733149,29.9393263 89.992076,29.6845627 90.4382096,29.7201367 C90.6876325,29.7137147 90.92822,29.8129281 91.1009827,29.993451 C91.2737455,30.173974 91.3627077,30.4191129 91.3460568,30.6687626 C91.359917,30.6930863 91.2871507,32.1281871 90.989155,32.4687194 L90.989155,32.4687194 Z M105.836961,29.7444604 C105.878541,29.5220719 106.086445,28.420554 106.079515,28.323259 C106.079515,28.1460432 106.037934,27.8228849 105.462734,27.7811871 C105.278093,27.7701952 105.092964,27.7701952 104.908323,27.7811871 C104.676164,27.7811871 104.450934,27.7811871 104.374703,27.7811871 C104.19452,27.7811871 103.68169,27.7082158 103.577738,27.7012662 C103.398546,27.6593489 103.216823,27.62917 103.033723,27.6109209 C102.913793,27.5827965 102.787634,27.6036082 102.683008,27.6687763 C102.578382,27.7339443 102.503862,27.8381286 102.475847,27.9584029 C102.410011,28.2085899 102.389221,28.3336835 102.257548,28.3058849 C102.125876,28.2780863 102.177852,28.2746115 102.011528,28.0383237 C101.688035,27.5909749 101.176273,27.3189774 100.625502,27.3016619 C99.662214,27.2321655 97.8361245,27.7777122 96.914417,29.9355755 C96.6701292,30.5028612 96.4742293,31.0898905 96.328821,31.6903597 C96.2560546,31.9474964 95.958059,33.3478489 95.9164782,33.6327842 C95.7657801,34.6326202 95.6812786,35.6413672 95.6635284,36.6524029 C95.7004788,37.5269357 96.0356261,38.3622562 96.6129563,39.0187554 C97.1290762,39.454425 97.7784228,39.6996885 98.4529061,39.7137194 C98.9653653,39.6950167 99.4662612,39.5557518 99.9151638,39.3071655 C100.021248,39.2830578 100.1192,39.2315478 100.199299,39.1577482 C100.303251,39.0813022 100.355227,39.0291799 100.431459,39.0291799 C100.50769,39.0291799 100.51462,39.0569784 100.518085,39.1577482 C100.508452,39.4518585 100.448683,39.7421445 100.341367,40.0160288 C100.074557,40.5442014 99.0904782,40.7561655 98.4182555,40.7596403 C98.083439,40.7638247 97.7500909,40.7145614 97.4307118,40.6136978 C97.0836901,40.4804814 96.7283372,40.3702092 96.3669367,40.2835899 C96.0121444,40.3106205 95.6957874,40.5177491 95.5283908,40.8326115 C95.423641,41.0690462 95.3682193,41.3244672 95.3655328,41.5831727 C95.3204869,41.7916619 95.3031616,42.0522734 95.2581157,42.2572878 C95.1472336,42.8827554 95.1264432,43.0113237 95.1264432,43.0391223 C95.1264432,43.296259 95.3412773,43.4456763 95.6288777,43.5429712 C96.469691,43.6672567 97.318916,43.7253478 98.1687707,43.7167122 C101.263074,43.6402662 103.057978,42.5352734 103.712876,41.2391655 C103.879199,40.9438058 104.021266,40.6727698 104.385098,38.3029424 C104.447469,37.9311367 104.638048,36.3778921 104.703884,36.0582086 C104.832092,35.4431655 104.960299,34.852446 105.088507,34.2652014 C105.25483,33.3304748 105.435013,32.2498058 105.577081,31.2872806 C105.633586,30.7683588 105.720362,30.2532027 105.836961,29.7444604 L105.836961,29.7444604 Z M101.464048,32.5243165 C101.353166,33.0768129 101.245749,33.6293094 101.134867,34.1818058 C101.0718,34.6872469 100.955653,35.1845906 100.78836,35.665554 C100.689549,35.942343 100.439327,36.136302 100.147323,36.1624532 C99.8008166,36.1624532 99.6760742,35.7454748 99.6587489,35.3597698 C99.715459,34.3074054 99.858003,33.2614646 100.084952,32.2324317 C100.2686,31.5374676 100.594317,31.0336187 100.992799,31.0509928 C101.256144,31.0509928 101.457118,31.3984748 101.474443,31.8884245 C101.485271,32.1026979 101.481798,32.3174575 101.464048,32.5312662 L101.464048,32.5243165 Z M115.040175,32.3505755 C115.225608,31.6113854 115.329033,30.8539122 115.348566,30.0919424 C115.320845,29.1467914 114.762969,28.6498921 114.02491,28.3302086 C113.370476,28.0292502 112.664918,27.8559019 111.945871,27.8194101 C111.796873,27.8194101 110.518264,27.7707626 110.393522,27.7603381 C109.672788,27.7603381 108.418434,27.9792518 108.123904,28.2885108 C107.975348,28.4810455 107.886214,28.7129618 107.867489,28.9556763 C107.846699,29.1050935 107.593749,30.6096906 107.593749,30.6096906 C107.667057,30.9024067 107.906643,31.1235557 108.2036,31.1726115 C108.356063,31.1726115 108.376854,31.1726115 108.726825,30.9953957 C109.274435,30.7678981 109.869289,30.6784188 110.459358,30.7347842 C111.031094,30.7660576 111.744897,30.9015755 111.765688,31.568741 C111.76948,31.811597 111.709745,32.0512098 111.592434,32.263705 C111.532148,32.3307999 111.442497,32.3633739 111.353345,32.3505755 C111.246762,32.3371715 111.144745,32.299105 111.055349,32.2393813 C110.722767,32.0107694 110.332167,31.8818099 109.929203,31.8675755 C108.829671,31.8298954 107.770049,32.2829341 107.035873,33.1046115 C105.691428,34.5814101 105.337991,37.6496763 105.379572,38.716446 C105.483524,41.3712086 106.817574,41.7569137 108.217461,41.7360647 C108.867015,41.7273781 109.490841,41.4801128 109.970784,41.0411007 C110.038658,40.9668571 110.146893,40.945713 110.237594,40.9889784 C110.237594,41.0133022 110.178688,41.3816331 110.178688,41.3816331 C110.178688,41.6283453 110.431638,41.6248705 110.525194,41.6248705 C110.713374,41.6172268 110.900872,41.5974957 111.086535,41.5657986 C111.239188,41.5444255 111.393281,41.5351307 111.547389,41.538 C111.744897,41.538 112.562653,41.5727482 112.728976,41.5692734 C113.23141,41.5692734 113.46357,41.3468849 113.539801,40.8152374 C113.587295,40.4502453 113.655552,40.0882737 113.74424,39.7310935 C113.848192,39.2758921 114.163513,37.229223 114.246675,36.8191942 C114.343697,36.148554 114.489229,35.4744388 114.610507,34.8037986 C114.7699,33.983741 114.863456,33.1636835 115.040175,32.3505755 Z M110.694983,36.9547122 C110.57024,37.7434964 110.532124,37.9971583 110.268779,38.2820935 C110.114961,38.4769906 109.882469,38.5929265 109.634672,38.5983022 C109.163424,38.5983022 109.049076,38.2230216 109.035216,37.8512158 C109.062201,37.100394 109.196394,36.3573303 109.433699,35.644705 C109.562874,35.2742763 109.893475,35.0117575 110.28264,34.9705899 C110.635338,35.0097269 110.901574,35.3097103 110.899434,35.665554 C110.882096,35.8740432 110.701913,36.7601223 110.684587,36.9547122 L110.694983,36.9547122 Z M124.049345,31.3394029 C124.021624,29.9494748 123.678583,28.5595468 122.084653,28.4483525 C121.592138,28.4064306 121.09818,28.5103329 120.663976,28.7471871 C120.532919,28.8586107 120.377339,28.9372151 120.210052,28.9765252 C120.189262,28.9765252 120.168472,28.9973741 120.144216,28.9973741 C120.078057,28.9918587 120.027797,28.9353472 120.029869,28.8688058 L120.151146,28.3302086 C120.189262,28.1182446 120.206587,27.9097554 120.244703,27.6943165 C120.309244,27.0364452 120.425101,26.3846582 120.59121,25.7449424 C120.59121,25.696295 120.650116,25.4391583 120.643186,25.2966906 C120.649474,25.0248642 120.442318,24.7957407 120.171937,24.7754676 C120.081845,24.7754676 119.82543,24.7754676 119.55169,24.7754676 C119.352112,24.7893841 119.151811,24.7893841 118.952234,24.7754676 C118.882932,24.7754676 118.661168,24.7233453 118.435939,24.6781727 C118.21071,24.633 118.002806,24.5878273 117.912714,24.5808777 C117.295932,24.5252806 117.261282,24.9283597 117.219701,25.2966906 C117.17812,25.6650216 117.025657,26.6205971 116.790033,27.9896763 C116.668755,28.6359928 116.173251,31.4193237 116.072764,31.9961439 C115.972277,32.572964 115.899511,33.2019065 115.799024,33.8030504 C115.681212,34.4771655 115.539144,35.1269568 115.452517,35.8010719 C115.390146,36.148554 115.161452,37.8025683 115.07829,38.1396259 C114.995129,38.4766835 114.953548,38.7199209 114.915432,39.0326547 C114.877317,39.3453885 114.79762,39.779741 114.717924,40.1689209 C114.64367,40.4952595 114.590429,40.8260505 114.558531,41.1592446 C114.575856,41.6665683 114.970873,41.6596187 115.227288,41.6561439 C115.410937,41.6561439 116.284133,41.5970719 116.464317,41.5935971 C116.717266,41.5935971 116.991007,41.5935971 117.237026,41.6318201 L117.486511,41.6318201 C117.597393,41.6318201 117.756786,41.6318201 117.833017,41.4858777 C117.909249,41.3399353 117.916179,41.2461151 117.982015,41.1383957 C118.001952,41.094751 118.045036,41.0663973 118.092897,41.0654245 C118.158734,41.0654245 118.480985,41.3920576 118.546821,41.440705 C118.895177,41.626407 119.285514,41.7185799 119.679897,41.7082662 C121.242642,41.6839424 122.275231,40.1306978 122.635598,39.3245396 C122.836507,38.8268389 122.995305,38.3130702 123.110312,37.7886691 C123.203869,37.3056691 123.276635,36.8261439 123.394448,36.3431439 C123.432563,36.1138058 123.661258,35.1339065 123.699373,34.9532158 C123.79293,34.4493669 123.990439,32.8683237 123.990439,32.8683237 C124.045682,32.3606903 124.065366,31.8497974 124.049345,31.3394029 L124.049345,31.3394029 Z M120.171937,36.1381295 C119.932847,37.1805755 119.79771,37.847741 119.225974,37.8408451 C119.045687,37.8370878 118.881421,37.7361249 118.796306,37.576705 C118.742615,37.4493062 118.716627,37.3118919 118.720074,37.1736259 C118.81675,36.0213447 118.976383,34.8752489 119.198253,33.7405036 C119.236369,33.5528633 119.371507,32.7536547 119.433878,32.5868633 C119.593271,32.0030935 119.984823,31.7146835 120.223913,31.7285827 C120.663976,31.7494317 120.677836,32.361 120.681301,32.572964 C120.719417,33.538964 120.445677,34.8454964 120.171937,36.1381295 Z M132.8021,29.7965827 C132.801371,29.6650429 132.746788,29.5395793 132.651134,29.4495686 C132.55548,29.359558 132.427153,29.3129047 132.296201,29.3205324 C132.199179,29.3205324 131.835347,29.3552806 131.759116,29.3518058 C131.62425,29.3639708 131.488568,29.3639708 131.353703,29.3518058 C131.294797,29.3518058 131.100753,29.3135827 130.924035,29.2788345 C130.747317,29.2440863 130.549808,29.2301871 130.470111,29.2232374 C130.016188,29.191964 129.822144,29.4282518 129.749378,29.8938777 C129.714727,30.0467698 129.6281,30.7591079 129.60731,30.8946259 L128.668277,36.6975755 C128.488094,37.8338417 128.377212,38.4349856 127.73271,38.4349856 C127.48669,38.4349856 127.21988,38.2959928 127.216415,38.0492806 C127.23467,37.8677292 127.265936,37.6877314 127.309972,37.5106835 C127.386203,37.1944748 127.711919,34.9740647 127.805476,34.504964 C127.840127,34.2130791 128.120797,32.9621439 128.151983,32.7119568 C128.207424,32.3644748 128.404932,30.8981007 128.439583,30.6062158 C128.477699,30.429 128.644022,29.6263165 128.644022,29.5116475 C128.644022,29.0807698 128.332166,29.0599209 128.252469,29.056446 C128.172773,29.0529712 127.947544,29.056446 127.722314,29.056446 C127.497085,29.056446 127.254531,29.056446 127.171369,29.056446 C127.088207,29.056446 126.883769,29.0112734 126.675865,28.9765252 C126.467961,28.941777 126.280847,28.9244029 126.221941,28.9209281 C125.657135,28.882705 125.504672,29.6158921 125.445766,29.8834532 C125.428441,30.0189712 125.407651,30.157964 125.39379,30.3178058 C125.262118,31.2073597 125.047284,32.7154317 124.735428,34.3138489 C124.641871,34.8420216 124.548314,35.356295 124.451293,35.8948921 C124.395852,36.2840719 124.156762,37.9346115 124.104786,38.2751439 C123.855301,39.4913309 123.834511,39.6268489 123.841441,39.9708561 C123.830348,40.489888 124.042412,40.9886291 124.423572,41.3399353 C124.830355,41.6521349 125.342488,41.792994 125.851179,41.7325899 C126.814467,41.7325899 127.077812,41.6040216 127.930218,40.9924532 L127.971799,41.0584748 C127.950058,41.1448549 127.93843,41.2334814 127.937148,41.3225612 C127.937148,41.614446 128.242074,41.6109712 128.321771,41.6109712 C128.501954,41.6109712 129.316245,41.5310504 129.496428,41.5275755 C129.61424,41.5275755 130.189441,41.5623237 130.338439,41.5623237 C130.806223,41.5623237 130.93443,41.0758489 130.969081,40.8326115 C131.003731,40.5893741 131.038382,40.2870647 131.073033,40.0229784 C131.125009,39.4982806 131.232426,38.9805324 131.322517,38.4732086 C131.322517,38.3203165 131.443795,37.6184029 131.46112,37.4655108 C131.495771,37.2048993 131.731395,36.0755827 131.766046,35.8288705 L132.417478,31.8189281 C132.455594,31.6000144 132.490245,31.4054245 132.52836,31.2073597 C132.665622,30.7520011 132.757321,30.2840661 132.8021,29.810482 L132.8021,29.7965827 Z M137.971978,31.8641007 C137.989303,31.6903597 138.08979,30.988446 138.124441,30.8390288 C138.159092,30.6896115 138.259579,30.0954173 138.259579,29.9668489 C138.259579,29.5324964 137.885352,29.5081727 137.739819,29.4977482 C136.533976,29.4108777 136.353793,29.3969784 135.882544,29.539446 C134.690561,29.8869281 134.177731,30.9675971 133.852015,31.7007842 C133.266419,33.0663885 133.051585,34.0080647 132.632312,36.7427482 C132.520706,37.3549056 132.465035,37.9759985 132.465977,38.5983022 C132.465977,39.567777 132.465977,39.8318633 132.77438,40.4503813 C133.058476,41.2527647 133.844073,41.7641993 134.690561,41.6978417 L134.985092,41.6978417 C135.078648,41.6978417 135.459806,41.6978417 135.532572,41.6978417 C136.384978,41.6978417 136.450814,41.1731439 136.551301,40.4642806 C136.599917,40.0247674 136.679818,39.589304 136.790391,39.161223 C136.835249,38.9777104 136.863088,38.790431 136.873552,38.601777 C136.873552,38.195223 136.582487,38.1917482 136.527046,38.1917482 C136.364188,38.1917482 136.218655,38.1917482 136.055797,38.1917482 C135.490991,38.1917482 135.466736,37.5350072 135.463271,37.2535468 C135.517432,36.5407872 135.613466,35.8318513 135.750871,35.1304317 C135.802847,34.7829496 136.059262,33.2331799 136.599812,32.8231511 C136.701,32.7528347 136.823792,32.7208189 136.946319,32.7328058 L137.324011,32.7501799 C137.819515,32.7953525 137.909607,32.2185324 137.971978,31.878 L137.971978,31.8641007 Z M143.561129,39.3071655 C143.526478,38.8554388 143.422526,38.3967626 143.35669,37.9415612 C143.322039,37.6323022 143.304714,37.3021942 143.252738,36.9894604 C143.200762,36.6767266 143.148786,36.4265396 143.114135,36.1346547 C143.114135,36.0929568 143.010183,35.3632446 143.010183,35.3423957 C143.010183,35.1756043 143.044834,35.1130576 143.35669,34.6474317 C143.942738,33.6512564 144.439052,32.6046671 144.839738,31.5200935 C144.974407,31.1651645 145.066305,30.7953709 145.113478,30.4185755 C145.113478,30.1093165 144.902109,30.0954173 144.604114,30.0710935 L144.209096,30.043295 C144.0811,30.053729 143.95247,30.053729 143.824474,30.043295 C143.597539,30.0264274 143.372566,29.9892141 143.152251,29.9321007 L142.999788,29.9321007 C142.794623,29.910427 142.603433,30.0392217 142.545865,30.2378849 C142.461144,30.4785743 142.410976,30.7301199 142.396867,30.9849712 C142.303285,31.4563819 142.156821,31.9156622 141.960269,32.3540504 C141.808671,32.7068987 141.58838,33.0258611 141.312301,33.2922518 L141.294976,33.2714029 L141.326162,32.9239209 L142.175103,28.0591727 C142.209753,27.8715324 142.327566,27.2043669 142.327566,27.0757986 C142.327566,26.9472302 142.306775,26.8638345 142.254799,26.8151871 C142.104568,26.708049 141.926213,26.6476243 141.741969,26.641446 C141.603367,26.641446 141.010841,26.641446 140.889563,26.641446 L140.768286,26.641446 C140.71631,26.641446 140.681659,26.6136475 140.629683,26.6101727 L140.366338,26.5858489 C139.888159,26.5406763 139.694116,26.6518705 139.610954,27.2286906 C139.576303,27.5032014 139.406515,28.7193885 139.37533,28.9661007 L138.682317,33.1358849 L138.682317,33.2019065 L137.909607,37.9728345 C137.857631,38.2508201 137.805655,38.5079568 137.771004,38.7859424 C137.705168,39.258518 137.653192,39.7310935 137.54924,40.1758705 C137.531915,40.3287626 137.375987,40.9055827 137.358662,41.0376259 C137.348324,41.1079003 137.348324,41.1793155 137.358662,41.2495899 C137.358662,41.4233309 137.379452,41.6561439 137.847236,41.6527075 C138.027419,41.6527075 138.831314,41.576223 138.987242,41.5727482 C139.211912,41.5612171 139.437168,41.572861 139.659465,41.6074964 L139.67679,41.6074964 C139.840981,41.5633564 139.975412,41.445238 140.040622,41.2878129 C140.117117,41.042561 140.156822,40.7872659 140.158434,40.5303022 C140.185924,40.0758571 140.253174,39.6247126 140.359408,39.1820719 C140.390594,39.0118058 140.425245,38.8345899 140.459895,38.6747482 C140.459895,38.5705036 140.657404,37.2848201 140.657404,37.2848201 C140.669554,37.2494566 140.69421,37.2197863 140.726705,37.2014245 C140.818462,37.5164565 140.866272,37.8427138 140.868773,38.1708993 C140.889563,38.5183813 140.927679,38.8241655 140.927679,39.161223 C140.927679,39.4982806 140.927679,39.8318633 140.951934,40.1689209 C140.951934,40.3565612 140.972725,40.5164029 140.972725,40.7109928 C140.972725,40.7735396 140.9554,41.0272014 140.9554,41.0897482 C140.9554,41.5275755 141.166769,41.6074964 141.371207,41.6074964 C141.575646,41.6074964 142.171638,41.5136763 142.306775,41.5102014 C142.441913,41.5067266 143.027509,41.5449496 143.145321,41.5414748 C143.512618,41.5414748 143.692801,41.266964 143.692801,40.8187122 C143.692801,40.5928489 143.640825,40.3669856 143.6235,40.1237482 C143.606175,39.8805108 143.595779,39.5886259 143.561129,39.3210647 L143.561129,39.3071655 Z M149.929919,30.2900072 C149.787852,30.2587338 149.167605,30.1371151 149.039397,30.1266906 L148.942376,30.1266906 C146.374762,29.946 145.647098,32.8752734 145.650563,34.1609568 C145.680216,34.7034234 145.770883,35.2407946 145.920838,35.7628489 C146.054084,36.1184983 146.233503,36.45498 146.454459,36.7635971 C146.687114,37.0065536 146.876927,37.2873748 147.015799,37.5940791 C147.039067,37.6947467 147.055277,37.7969246 147.06431,37.8998633 C147.077683,38.1400155 146.966276,38.3700284 146.769779,38.5079568 C146.597799,38.6326898 146.383005,38.6827827 146.173788,38.6469496 C145.979924,38.6529744 145.787107,38.6162006 145.608983,38.5392302 C145.518962,38.4759601 145.423934,38.4201771 145.324847,38.3724388 C145.293777,38.3563801 145.259315,38.3480383 145.22436,38.3481151 C145.158524,38.3481151 144.753111,38.428036 144.66995,39.0083309 C144.638764,39.3175899 144.604114,39.6268489 144.555603,39.915259 C144.538277,40.0403525 144.43779,40.5164029 144.420465,40.610223 C144.38852,40.738659 144.372231,40.8705071 144.371954,41.0028777 C144.341924,41.2051857 144.455574,41.4013868 144.645694,41.4754532 C145.035372,41.6242232 145.448445,41.7018924 145.865397,41.7047914 C147.0851,41.7047914 147.539024,41.5796978 148.121155,41.1105971 C148.62363,40.6861673 149.017993,40.1477516 149.271557,39.5399784 C149.54428,38.8112359 149.694171,38.0420607 149.715085,37.2639712 C149.71288,36.7240607 149.607,36.1896292 149.403229,35.6898777 C149.302284,35.4407871 149.179364,35.2012318 149.035932,34.9740647 C148.859214,34.6821799 148.668635,34.3937698 148.505777,34.1018849 C148.397416,33.9123845 148.332326,33.7011369 148.315199,33.4833669 C148.312795,33.3217516 148.380645,33.1670877 148.501075,33.0596629 C148.621506,32.9522382 148.782593,32.9026885 148.942376,32.9239209 C149.029722,32.9196792 149.116724,32.9376066 149.195325,32.9760432 C149.278487,33.0003669 149.562622,33.1984317 149.624993,33.2019065 L149.69083,33.2019065 C149.892519,33.188093 150.074841,33.0765767 150.179404,32.9030719 C150.221908,32.8363115 150.254585,32.7637512 150.276426,32.6876331 C150.322381,32.4359041 150.354768,32.1818736 150.373448,31.9266475 C150.401168,31.7494317 150.546701,30.9536978 150.546701,30.8112302 C150.529376,30.3838273 150.169009,30.3386547 149.929919,30.3039065 L149.929919,30.2900072 Z" id="Shape" stroke="#00C1DE" stroke-width="0.8625"></path>
                                <path d="M153.058873,40.9229568 C152.932037,40.5941281 152.613407,40.3801843 152.261908,40.3878345 C152.082634,40.3725066 151.904914,40.4314251 151.770076,40.5508894 C151.635238,40.6703537 151.55503,40.8399538 151.548105,41.0202518 C151.539904,41.1405947 151.56509,41.2608648 151.620871,41.3677338 C151.719067,41.5209566 151.860064,41.6418059 152.026284,41.7152158 L152.462882,41.9202302 C152.719297,42.0418489 152.764343,42.1877914 152.760878,42.3024604 C152.759369,42.4144536 152.71146,42.5207676 152.628639,42.5959121 C152.545817,42.6710567 152.435552,42.7082556 152.324279,42.6985899 C152.056051,42.6906932 151.824896,42.5069442 151.756009,42.2468633 L151.458013,42.427554 C151.517909,42.5738492 151.611755,42.7036977 151.731753,42.8063094 C151.891969,42.9354433 152.091013,43.0064682 152.296559,43.0078489 C152.492114,43.0250841 152.686504,42.9638537 152.837109,42.8375827 C152.998005,42.6970742 153.088174,42.4920302 153.083129,42.2781367 C153.094294,42.1562881 153.065063,42.034149 152.999967,41.9306547 C152.915514,41.7801494 152.787414,41.6589599 152.63267,41.5831727 L152.144096,41.3573094 C151.994062,41.305141 151.889236,41.1686202 151.877286,41.0098273 C151.88248,40.9149903 151.926158,40.8264187 151.998162,40.7647148 C152.070166,40.7030109 152.164219,40.6735533 152.258443,40.6831942 C152.546044,40.6831942 152.653461,40.8569353 152.764343,41.0897482 L153.058873,40.9229568 Z" id="Path" fill="#222222"></path>
                                <path d="M154.541921,42.948777 L155.158703,40.7005683 C155.165327,40.6875455 155.178778,40.6794522 155.193354,40.6797194 C155.193354,40.6797194 155.193354,40.6797194 155.193354,40.7109928 L155.193354,42.9557266 L155.474024,42.9557266 L155.474024,40.4677554 L154.975055,40.4677554 L154.455295,42.3928058 C154.451878,42.4130877 154.434224,42.4278413 154.413714,42.427554 C154.413714,42.427554 154.392924,42.427554 154.385993,42.3962806 L153.880094,40.4608058 L153.336079,40.4608058 L153.336079,42.948777 L153.616749,42.948777 L153.616749,40.6901439 C153.616749,40.669295 153.65833,40.6588705 153.668725,40.6588705 C153.680877,40.6587456 153.691245,40.6676578 153.69298,40.6797194 L154.271646,42.9557266 L154.541921,42.948777 Z" id="Path" fill="#222222"></path>
                            </g>
                        </g>
                    </g>
                </g>
            </g>
        </g>
    </g>
</svg>