<?xml version="1.0" encoding="UTF-8"?>
<svg width="181px" height="55px" viewBox="0 0 181 55" version="1.1" xmlns="http://www.w3.org/2000/svg" xmlns:xlink="http://www.w3.org/1999/xlink">
    <!-- Generator: Sketch 61.2 (89653) - https://sketch.com -->
    <title>win4life</title>
    <desc>Created with Sketch.</desc>
    <g id="Homepage" stroke="none" stroke-width="1" fill="none" fill-rule="evenodd">
        <g id="Jackpot" transform="translate(-629.000000, -1390.000000)">
            <g id="winning-numbers" transform="translate(120.000000, 686.000000)">
                <g id="win4life" transform="translate(407.000000, 621.000000)">
                    <g id="pattern">
                        <g id="win4life" transform="translate(102.000000, 83.000000)">
                            <g>
                                <path d="M168.834,41.772 C171.17294,41.6138402 173.474237,41.1009796 175.659,40.251 C176.505448,39.8541125 177.103104,39.066955 177.258,38.145 L178.35,31.008 C178.369291,30.8134771 178.369291,30.6175229 178.35,30.423 C178.929089,29.9392448 179.338922,29.2835116 179.52,28.551 C180.030603,26.8824347 180.293407,25.1479305 180.3,23.403 C180.452105,20.0728861 179.176469,16.836016 176.793347,14.5050243 C174.410224,12.1740327 171.145936,10.970289 167.82,11.196 C164.34798,11.1923932 160.958451,12.2541734 158.109,14.238 C156.432,15.408 156.12,13.965 156.744,13.497 C157.41546,13.0368443 157.888904,12.3406027 158.07,11.547 L159.318,4.41 C159.557488,2.96258749 158.610188,1.58469782 157.173,1.29 C155.88663,1.05280399 154.58105,0.935301803 153.273,0.939 C146.409,0.939 140.871,4.059 139.272,9.675 C139.038,10.533 138.141,10.689 138.297,9.675 C138.339725,8.90859498 138.339725,8.14040502 138.297,7.374 C138.376297,5.62701488 137.714245,3.92776249 136.47396,2.69490456 C135.233675,1.46204663 133.530477,0.810212124 131.784,0.9 C129.741604,0.739265237 127.721932,1.41799433 126.191113,2.77954044 C124.660293,4.14108654 123.750606,6.06779776 123.672,8.115 C123.321,9.87 121.371,9.753 121.605,8.115 C121.839,6.477 122.151,4.839 122.151,4.839 C122.26139,4.04345302 122.035267,3.23788874 121.527,2.616 C121.001629,1.99830777 120.231899,1.6419515 119.421,1.641 L110.919,1.641 C109.55746,1.64373716 108.39994,2.63589716 108.189,3.981 L105.498,20.907 C103.528132,17.1412 99.7722509,14.6414807 95.537918,14.2780864 C91.303585,13.9146922 87.1767062,15.737906 84.594,19.113 C84.4345029,17.4660162 83.8125812,15.8976919 82.8,14.589 C80.8353057,12.3802706 77.9459714,11.2245369 75,11.469 C72.9093397,11.5001082 70.8590721,12.0495263 69.033,13.068 L69.033,13.068 C68.5166901,12.5199479 67.796952,12.2094726 67.044,12.21 L59.4,12.21 C58.919625,12.2243196 58.4504306,12.3583751 58.035,12.6 C57.723,12.6 57.528,12.6 57.762,12.21 C58.7436426,10.8044207 59.2617653,9.12733943 59.244,7.413 C59.3464627,5.59328657 58.6431855,3.82064107 57.3210546,2.56611911 C55.9989237,1.31159714 54.1918361,0.702248861 52.38,0.9 C50.2578008,0.815043359 48.1927262,1.59916657 46.6617495,3.0712595 C45.1307729,4.54335242 44.2663002,6.57610166 44.268,8.7 C44.2505375,9.96371198 44.5883665,11.2069228 45.243,12.288 C44.8248764,12.4424061 44.4595494,12.7130188 44.19,13.068 L44.19,13.068 C43.6800849,12.4520334 42.9226407,12.0947484 42.123,12.093 L33.738,12.093 C32.4013101,12.0892303 31.2527417,13.0409012 31.008,14.355 C30.9217943,13.8769476 30.7059435,13.4317552 30.384,13.068 C29.8406259,12.4340829 29.0337842,12.0882936 28.2,12.132 L19.971,12.132 C18.6219874,12.1315928 17.4690021,13.1033947 17.241,14.433 L17.241,14.433 C17.1157948,13.9445314 16.8595794,13.4995258 16.5,13.146 C15.959703,12.5482605 15.1993423,12.1962416 14.394,12.171 L6.204,12.171 C4.84246043,12.1737372 3.68494043,13.1658972 3.474,14.511 L1.134,28.746 C0.310366054,32.0926447 1.04121759,35.632259 3.123,38.379 C5.77666214,41.138207 9.52375003,42.5683932 13.341,42.279 C16.0360682,42.2862158 18.6666247,41.4547964 20.868,39.9 C22.6786577,41.3360511 24.9142003,42.1315202 27.225,42.162 C31.6872912,42.4899352 36.058879,40.7842993 39.12,37.521 C39.51,37.092 39.978,37.131 39.9,37.521 C39.9129663,37.7418098 39.9129663,37.9631902 39.9,38.184 C39.7849987,38.9863215 40.027301,39.7987471 40.563,40.407 C41.0729151,41.0229666 41.8303593,41.3802516 42.63,41.382 L51.21,41.382 C51.9959576,41.3687988 52.7368498,41.0126006 53.238,40.407 L53.472,40.407 C53.9819151,41.0229666 54.7393593,41.3802516 55.539,41.382 L64.119,41.382 C65.4805396,41.3792628 66.6380596,40.3871028 66.849,39.042 C66.849,39.042 66.849,38.808 66.849,38.184 C66.849,37.56 68.331,37.56 68.253,38.184 C68.1377038,38.9798732 68.364374,39.7873857 68.877,40.407 C69.3955855,41.0335604 70.1697291,41.3919602 70.983,41.382 L79.485,41.382 C80.8465396,41.3792628 82.0040596,40.3871028 82.215,39.042 L83.268,32.256 C85.1285192,35.9871175 88.7293425,38.5427203 92.8654405,39.0675661 C97.0015384,39.5924119 101.126541,38.0171695 103.86,34.869 C104.038232,36.3934967 104.662282,37.8315257 105.654,39.003 C107.667345,41.1337822 110.529666,42.2500876 113.454,42.045 C114.312,42.045 114.195,42.552 113.454,42.708 C109.554,43.488 105.654,44.229 101.754,45.204 C100.232516,45.5352147 99.2165874,46.9744462 99.414,48.519 C99.6497198,50.1153397 101.037775,51.2859883 102.651,51.249 L103.119,51.249 C112.029098,50.0883841 121.004633,49.5021736 129.99,49.494 C143.635684,49.3608607 157.241668,50.9862383 170.472,54.33 C171.223539,54.5267781 171.996197,54.6315452 172.773,54.642 C175.507042,54.8393108 177.968887,52.9929275 178.545,50.313 C178.896,48.012 177.609,45.048 172.929,43.566 C171.681,43.176 170.355,42.825 169.029,42.513 C167.703,42.201 167.82,41.889 168.834,41.772 Z M157.134,40.719 C154.404,40.446 151.791,40.29 148.866,40.134 C148.281,40.134 148.281,39.783 148.32,39.237 L150.309,26.679 C150.309,25.899 151.05,25.821 150.933,26.679 C150.894216,27.2763711 150.894216,27.8756289 150.933,28.473 C150.707936,33.292924 153.230718,37.8248685 157.446,40.173 C157.875,40.368 157.797,40.797 156.9,40.719 L157.134,40.719 Z" id="Shape" fill="#FFFFFF" fill-rule="nonzero"></path>
                                <path d="M102.69,48.675 C102.105,48.675 101.832,48.246 102.378,48.09 C132.252,40.602 158.538,42.123 172.032,46.374 C178.155,48.285 175.932,53.121 171.135,51.795 C148.729837,46.384853 125.494455,45.3256903 102.69,48.675 L102.69,48.675 Z" id="Path" fill="#510C76" fill-rule="nonzero"></path>
                                <path d="M33.738,14.901 L31.554,28.2 C30.852,32.49 25.431,32.451 26.133,28.2 L28.2,14.901 L19.971,14.901 L17.787,28.2 C17.124,32.451 11.664,32.49 12.366,28.2 L14.55,14.94 L6.204,14.94 L3.864,29.175 C3.162,33.66 3.864,39.315 13.341,39.315 C16.2630766,39.5057458 19.0967903,38.2705372 20.946,36 C22.3511163,38.1080441 24.6925131,39.4023566 27.225,39.471 C36.936,39.471 38.925,33.894 39.744,29.37 L42.084,15.057 L33.738,14.901 Z" id="Path" fill="#510C76" fill-rule="nonzero"></path>
                                <path d="M54.876,14.901 L50.976,38.808 L42.396,38.808 L46.296,14.901 L54.876,14.901 Z M52.38,3.669 C53.4072695,3.53888994 54.4389853,3.87421528 55.193462,4.58342337 C55.9479387,5.29263145 56.3463797,6.30165354 56.28,7.335 C56.3610814,8.76157696 55.8269629,10.154513 54.8128712,11.1611481 C53.7987796,12.1677831 52.4019397,12.6916073 50.976,12.6 C49.911312,12.7117227 48.8530801,12.3368833 48.0960984,11.5799016 C47.3391167,10.8229199 46.9642773,9.764688 47.076,8.7 C47.0505902,7.30974863 47.6107353,5.97284324 48.6195756,5.01592854 C49.6284159,4.05901383 50.9930289,3.57022961 52.38,3.669 Z" id="Shape" fill="#510C76" fill-rule="nonzero"></path>
                                <path d="M66.966,14.901 L66.966,17.358 C66.9715607,17.895615 66.822663,18.423525 66.537,18.879 L66.537,18.879 C68.4881794,16.1061259 71.6129585,14.3925373 75,14.238 C80.109,14.238 82.8,17.397 81.825,23.91 L79.485,38.808 L71.1,38.808 L73.245,25.197 C73.518,23.325 73.011,21.882 71.178,21.882 C68.4693353,21.9897792 66.263579,24.0952738 66.03,26.796 L64.119,38.808 L55.5,38.808 L59.4,14.901 L66.966,14.901 Z" id="Path" fill="#510C76" fill-rule="nonzero"></path>
                                <path d="M110.919,4.371 L119.421,4.371 L115.521,29.682 C115.17,31.71 116.145,32.295 117.354,32.295 C118.254534,32.2396891 119.138644,32.0285583 119.967,31.671 L118.836,38.691 C117.113878,39.2595958 115.3058,39.5235489 113.493,39.471 C111.41553,39.8074311 109.311724,39.0463214 107.93038,37.4585697 C106.549036,35.8708181 106.086348,33.6819346 106.707,31.671 L110.919,4.371 Z" id="Path" fill="#510C76" fill-rule="nonzero"></path>
                                <path d="M134.28,14.901 L130.38,38.808 L121.8,38.808 L125.7,14.901 L134.28,14.901 Z M131.784,3.669 C132.811269,3.53888994 133.842985,3.87421528 134.597462,4.58342337 C135.351939,5.29263145 135.75038,6.30165354 135.684,7.335 C135.765081,8.76157696 135.230963,10.154513 134.216871,11.1611481 C133.20278,12.1677831 131.80594,12.6916073 130.38,12.6 C129.315312,12.7117227 128.25708,12.3368833 127.500098,11.5799016 C126.743117,10.8229199 126.368277,9.764688 126.48,8.7 C126.45459,7.30974863 127.014735,5.97284324 128.023576,5.01592854 C129.032416,4.05901383 130.397029,3.57022961 131.784,3.669 Z" id="Shape" fill="#510C76" fill-rule="nonzero"></path>
                                <path d="M141.027,14.901 L141.3,13.029 C142.089757,7.18164306 147.410555,3.03939339 153.273,3.708 C154.383699,3.70591631 155.492606,3.79723807 156.588,3.981 L155.496,11.118 C154.690151,10.8593151 153.84594,10.740598 153,10.767 C151.067968,10.7421335 149.408991,12.1356746 149.1,14.043 L149.1,14.901 L154.326,14.901 L153,21.492 L148.164,21.492 L145.434,38.808 L137.088,38.808 L139.662,21.492 L136.737,21.492 L137.79,14.901 L141.027,14.901 Z" id="Path" fill="#510C76" fill-rule="nonzero"></path>
                                <path d="M177.687,23.403 C177.604944,25.038404 177.289763,26.6537096 176.751,28.2 L162.204,28.2 C162.204,30.735 164.037,32.1 167.313,32.1 C170.149406,32.0801973 172.96059,31.5654735 175.62,30.579 L174.528,37.716 C171.604834,38.7740063 168.509747,39.2766273 165.402,39.198 C157.602,39.198 153.429,34.713 153.429,28.434 C153.471915,20.4303914 159.972276,13.9648849 167.976,13.965 C170.570716,13.7192856 173.142594,14.6243197 175.011628,16.4408104 C176.880662,18.2573011 177.858646,20.802334 177.687,23.403 Z M166.884,20.4 C164.719019,20.4699009 162.945791,22.1427576 162.75,24.3 L169.614,24.3 C169.965,22.233 169.185,20.4 166.884,20.4 Z" id="Shape" fill="#510C76" fill-rule="nonzero"></path>
                                <path d="M102.69,48.675 C102.105,48.675 101.832,48.246 102.378,48.09 C132.252,40.602 158.538,42.123 172.032,46.374 C178.155,48.285 175.932,53.121 171.135,51.795 C148.729837,46.384853 125.494455,45.3256903 102.69,48.675 L102.69,48.675 Z" id="Path" fill="#510C76" fill-rule="nonzero"></path>
                                <path d="M33.738,14.901 L31.554,28.2 C30.852,32.49 25.431,32.451 26.133,28.2 L28.2,14.901 L19.971,14.901 L17.787,28.2 C17.124,32.451 11.664,32.49 12.366,28.2 L14.55,14.94 L6.204,14.94 L3.864,29.175 C3.162,33.66 3.864,39.315 13.341,39.315 C16.2630766,39.5057458 19.0967903,38.2705372 20.946,36 C22.3511163,38.1080441 24.6925131,39.4023566 27.225,39.471 C36.936,39.471 38.925,33.894 39.744,29.37 L42.084,15.057 L33.738,14.901 Z" id="Path" fill="#510C76" fill-rule="nonzero"></path>
                                <path d="M54.876,14.901 L50.976,38.808 L42.396,38.808 L46.296,14.901 L54.876,14.901 Z M52.38,3.669 C53.4072695,3.53888994 54.4389853,3.87421528 55.193462,4.58342337 C55.9479387,5.29263145 56.3463797,6.30165354 56.28,7.335 C56.3610814,8.76157696 55.8269629,10.154513 54.8128712,11.1611481 C53.7987796,12.1677831 52.4019397,12.6916073 50.976,12.6 C49.911312,12.7117227 48.8530801,12.3368833 48.0960984,11.5799016 C47.3391167,10.8229199 46.9642773,9.764688 47.076,8.7 C47.0505902,7.30974863 47.6107353,5.97284324 48.6195756,5.01592854 C49.6284159,4.05901383 50.9930289,3.57022961 52.38,3.669 Z" id="Shape" fill="#510C76" fill-rule="nonzero"></path>
                                <path d="M66.966,14.901 L66.966,17.358 C66.9715607,17.895615 66.822663,18.423525 66.537,18.879 L66.537,18.879 C68.4881794,16.1061259 71.6129585,14.3925373 75,14.238 C80.109,14.238 82.8,17.397 81.825,23.91 L79.485,38.808 L71.1,38.808 L73.245,25.197 C73.518,23.325 73.011,21.882 71.178,21.882 C68.4693353,21.9897792 66.263579,24.0952738 66.03,26.796 L64.119,38.808 L55.5,38.808 L59.4,14.901 L66.966,14.901 Z" id="Path" fill="#510C76" fill-rule="nonzero"></path>
                                <path d="M110.919,4.371 L119.421,4.371 L115.521,29.682 C115.17,31.71 116.145,32.295 117.354,32.295 C118.254534,32.2396891 119.138644,32.0285583 119.967,31.671 L118.836,38.691 C117.113878,39.2595958 115.3058,39.5235489 113.493,39.471 C111.41553,39.8074311 109.311724,39.0463214 107.93038,37.4585697 C106.549036,35.8708181 106.086348,33.6819346 106.707,31.671 L110.919,4.371 Z" id="Path" fill="#510C76" fill-rule="nonzero"></path>
                                <path d="M134.28,14.901 L130.38,38.808 L121.8,38.808 L125.7,14.901 L134.28,14.901 Z M131.784,3.669 C132.811269,3.53888994 133.842985,3.87421528 134.597462,4.58342337 C135.351939,5.29263145 135.75038,6.30165354 135.684,7.335 C135.765081,8.76157696 135.230963,10.154513 134.216871,11.1611481 C133.20278,12.1677831 131.80594,12.6916073 130.38,12.6 C129.315312,12.7117227 128.25708,12.3368833 127.500098,11.5799016 C126.743117,10.8229199 126.368277,9.764688 126.48,8.7 C126.45459,7.30974863 127.014735,5.97284324 128.023576,5.01592854 C129.032416,4.05901383 130.397029,3.57022961 131.784,3.669 Z" id="Shape" fill="#510C76" fill-rule="nonzero"></path>
                                <path d="M141.027,14.901 L141.3,13.029 C142.089757,7.18164306 147.410555,3.03939339 153.273,3.708 C154.383699,3.70591631 155.492606,3.79723807 156.588,3.981 L155.496,11.118 C154.690151,10.8593151 153.84594,10.740598 153,10.767 C151.067968,10.7421335 149.408991,12.1356746 149.1,14.043 L149.1,14.901 L154.326,14.901 L153,21.492 L148.164,21.492 L145.434,38.808 L137.088,38.808 L139.662,21.492 L136.737,21.492 L137.79,14.901 L141.027,14.901 Z" id="Path" fill="#510C76" fill-rule="nonzero"></path>
                                <path d="M177.687,23.403 C177.604944,25.038404 177.289763,26.6537096 176.751,28.2 L162.204,28.2 C162.204,30.735 164.037,32.1 167.313,32.1 C170.149406,32.0801973 172.96059,31.5654735 175.62,30.579 L174.528,37.716 C171.604834,38.7740063 168.509747,39.2766273 165.402,39.198 C157.602,39.198 153.429,34.713 153.429,28.434 C153.471915,20.4303914 159.972276,13.9648849 167.976,13.965 C170.570716,13.7192856 173.142594,14.6243197 175.011628,16.4408104 C176.880662,18.2573011 177.858646,20.802334 177.687,23.403 Z M166.884,20.4 C164.719019,20.4699009 162.945791,22.1427576 162.75,24.3 L169.614,24.3 C169.965,22.233 169.185,20.4 166.884,20.4 Z" id="Shape" fill="#510C76" fill-rule="nonzero"></path>
                                <path d="M94.5,17.0069218 C90.5372083,16.9912119 86.9558316,19.366189 85.4283846,23.0228095 C83.9009376,26.6794299 84.7287889,30.8962341 87.5253294,33.7039607 C90.3218699,36.5116874 94.5353357,37.3563656 98.1980246,35.843528 C101.860713,34.3306904 104.25,30.7588232 104.25,26.796 C104.25,21.4048785 99.8910787,17.0284786 94.5,17.0069218 Z M90.912,25.197 L88.884,25.197 L88.689,26.289 L90.405,26.289 L90.21,27.459 L88.494,27.459 L88.104,29.643 L86.7,29.643 L87.636,24.105 L91.107,24.105 L90.912,25.197 Z M97.113,26.952 C96.725727,28.587596 95.2442111,29.7272236 93.564,29.682 C92.8160575,29.6650932 92.1151391,29.3135814 91.6542619,28.7242631 C91.1933848,28.1349447 91.0211547,27.3699716 91.185,26.64 C91.5558686,25.0104229 93.024273,23.8683306 94.695,23.91 C95.4429425,23.9269068 96.1438609,24.2784186 96.6047381,24.8677369 C97.0656152,25.4570553 97.2378453,26.2220284 97.074,26.952 L97.113,26.952 Z M101.91,29.565 L100.467,29.565 L99.765,27.771 L99.141,27.771 L98.868,29.565 L97.425,29.565 L98.4,24.027 L100.623,24.027 C100.623,24.027 102.3,24.3 102.3,25.938 C102.196996,26.6366503 101.717084,27.2215432 101.052,27.459 L101.91,29.565 Z M100.896,26.094 C100.82918,26.3925179 100.576746,26.6133976 100.272,26.64 L99.336,26.64 L99.57,25.236 L100.467,25.236 C100.467,25.236 101.052,25.353 100.857,26.094 L100.896,26.094 Z M95.709,26.835 C95.5198485,27.7078095 94.7292069,28.3172624 93.837,28.278 C93.4340174,28.2900714 93.0486641,28.1126071 92.7958769,27.7985381 C92.5430897,27.4844692 92.4520827,27.0700919 92.55,26.679 C92.7418257,25.7693255 93.5721777,25.1382579 94.5,25.197 C94.8799325,25.2433593 95.2229464,25.4471035 95.4454155,25.7585603 C95.6678847,26.0700172 95.749368,26.4605689 95.67,26.835 L95.709,26.835 Z" id="Shape" fill="#510C76" fill-rule="nonzero"></path>
                            </g>
                        </g>
                    </g>
                </g>
            </g>
        </g>
    </g>
</svg>