<svg width="217" height="137" viewBox="0 0 217 137" fill="none" xmlns="http://www.w3.org/2000/svg">
<path d="M156.991 21.5232L157.662 34.7443L142.219 28.9516L139.803 105.244L178.011 115.008L205.494 47.5761L186.443 43.7376L192.177 32.8752L156.991 21.5232Z" fill="#008F68"/>
<path d="M140.919 104.403L177.361 113.715L203.987 48.3856L184.798 44.5193L190.607 33.5153L158.159 23.0466L158.835 36.3495L143.259 30.5074L140.919 104.403ZM178.661 116.3L138.686 106.084L141.178 27.3966L156.49 33.1397L155.823 20L193.748 32.2357L188.088 42.9563L207 46.7669L178.661 116.3V116.3Z" fill="#FBDA00"/>
<path d="M153.851 41.7957H184.516L173.783 62.1416L178.153 66.5177C186.663 75.0402 185.053 87.708 179.763 96.1542C174.32 104.983 155.844 107.286 155.767 104.906C155.691 102.219 155.767 93.0064 155.767 93.0064C155.767 93.0064 164.813 95.0021 169.184 90.1651C172.786 86.1724 173.707 81.0288 171.1 76.3451C168.11 71.0478 159.677 69.6656 155.997 71.969C152.855 74.0423 168.263 52.1607 165.35 52.1607H153.851V41.7957Z" fill="#273676"/>
<path d="M150.709 39.1086H181.373L170.64 59.4546L175.011 63.8307C183.52 72.3532 181.91 85.0209 176.62 93.4672C171.177 102.296 152.701 104.599 152.625 102.219C152.548 99.5319 152.625 90.3194 152.625 90.3194C152.625 90.3194 161.671 92.3151 166.041 87.4781C169.644 83.4854 170.564 78.3417 167.957 73.6581C164.967 68.3607 156.535 66.9786 152.855 69.282C149.712 71.3553 165.121 49.4737 162.208 49.4737H150.709V39.1086Z" fill="white"/>
<path d="M129.88 96.3594L143.974 97.2231L132.01 66.8332L145.989 40.0829L132.19 39.2377L122.14 63.259L121.228 64.1894L118.893 66.2581L119.352 61.1508L120.734 38.5361L107.44 37.7213L103.956 94.7717L117.249 95.5855L118.838 69.5678L118.382 68.0439L120.536 68.169L120.453 69.5958L121.767 69.2019L129.88 96.3594ZM148.359 100.412L127.673 99.1455L121.259 77.6749L119.977 98.6736L100.872 97.5039L104.712 34.6329L123.817 35.8038L122.68 54.4244L130.305 36.2009L150.651 37.4474L135.207 67.0039L148.359 100.412Z" fill="#FBDA00"/>
<path d="M146.328 40.1336L131.944 39.2882L121.595 62.2583L119.364 62.769L121.072 38.5863L107.194 37.772L103.71 94.8216L117.588 95.6359L119.115 70.6202L121.546 69.3362L129.634 96.4093L144.313 97.2729L132.35 66.8837L146.328 40.1336Z" fill="#3A3C95"/>
<path d="M44.5191 104.517L38.938 85.6489C52.5523 82.0256 60.3499 74.7266 55.9219 59.7541C51.4477 44.6288 39.6875 43.2981 26.1099 47.3261L11.9219 51.535L28.9581 109.133L44.5191 104.517L44.5191 104.517ZM40.1403 64.1863C41.4061 68.4645 39.436 71.6244 35.0966 72.6625L31.1655 59.3705L32.2872 58.9548C36.1012 57.8228 39.0557 60.5196 40.1403 64.1863" fill="white"/>
<path d="M32.9537 60.2843L36.0701 70.8208C37.0814 70.442 37.9395 69.7395 38.5114 68.8223C39.1617 67.6958 39.24 66.2756 38.7443 64.6005C38.1083 62.4497 36.5321 60.1515 34.0162 60.1515C33.658 60.1533 33.3014 60.1979 32.9537 60.2843H32.9537ZM34.0926 74.4011L29.3828 58.4767L31.8735 57.5572C32.5686 57.3474 33.2903 57.2392 34.0162 57.236C37.4099 57.236 40.3614 59.8016 41.536 63.7723C42.2572 66.21 42.0829 68.461 41.032 70.2815C39.9544 72.1486 38.0188 73.4621 35.4347 74.0804L34.0926 74.4011ZM13.7309 52.5186L29.9402 107.322L42.7098 103.533L37.1169 84.6246L38.564 84.2394C46.4919 82.1293 51.5319 78.9885 53.9714 74.6364C56.1008 70.8386 56.282 66.1058 54.5259 60.1681C51.8718 51.1952 46.4048 46.8331 37.813 46.8331C33.9794 46.9256 30.1782 47.5622 26.5231 48.724L13.7309 52.5186ZM27.9758 110.945L10.1125 50.5513L25.6963 45.9282C29.6178 44.6783 33.6986 44.001 37.813 43.9174C47.728 43.9174 54.2904 49.1062 57.3176 59.3402C59.2809 65.979 59.0094 71.6059 56.5101 76.0638C53.8251 80.8541 48.6636 84.3256 40.7534 86.6538L46.3281 105.501L27.9758 110.945V110.945Z" fill="white"/>
<path d="M97.2378 41.6522C94.4459 41.2277 91.5989 41.3363 88.8473 41.9723C81.143 43.6124 64.0323 51.8974 69.6239 78.2374C73.8912 98.3441 87.0407 105.889 100.037 103.122C103.344 102.428 106.459 101.014 109.161 98.9808L106.605 82.3386C104.534 85.2232 102.574 87.1064 98.9953 87.8686C91.0573 89.5583 87.1823 81.2604 85.7264 74.4024C84.3535 67.9342 84.4413 58.3862 92.6895 56.6301C95.958 55.9339 98.0908 56.7836 100.81 58.4858L97.2378 41.6522V41.6522Z" fill="white"/>
<path d="M94.0307 42.8489C92.3888 42.8594 90.7526 43.0436 89.1493 43.3983C83.7693 44.6057 78.9321 47.5442 75.3769 51.7646C70.1724 58.1458 68.7158 66.9506 71.0476 77.9343C74.2745 93.1389 83.189 102.216 94.8942 102.216C96.5212 102.212 98.1433 102.038 99.734 101.696C102.554 101.111 105.225 99.9575 107.585 98.3048L105.662 85.7908C103.962 87.6003 101.735 88.8264 99.2979 89.2945C98.5323 89.4601 97.7516 89.5452 96.9684 89.5484C94.1074 89.5484 87.1465 88.1026 84.3019 74.7057C82.5567 66.4817 83.7639 57.0401 92.3868 55.2042C94.5057 54.702 96.7292 54.886 98.737 55.7299L96.0259 42.9563C95.3632 42.8844 94.6972 42.8485 94.0307 42.8489V42.8489ZM94.8942 105.132C81.7131 105.132 71.7337 95.191 68.1998 78.5401C65.6757 66.6492 67.3317 57.0201 73.1224 49.9201C78.6998 43.0814 86.3369 41.0165 88.5445 40.5464C90.3466 40.149 92.1855 39.9435 94.0307 39.9335C95.1855 39.9318 96.3384 40.0258 97.4777 40.2146L98.4554 40.3784L102.947 61.5425L100.038 59.722C97.5937 58.1919 95.7542 57.4676 92.9921 58.0562C84.7831 59.8039 86.4452 70.7773 87.15 74.0993C87.9497 77.8674 90.5087 86.6327 96.9678 86.6321C97.5478 86.6294 98.1258 86.5657 98.6925 86.4422C101.825 85.7756 103.532 84.1204 105.423 81.4873L107.502 78.5922L110.736 99.6422L110.011 100.165C107.147 102.319 103.845 103.816 100.339 104.549C98.5495 104.933 96.7246 105.128 94.8942 105.132V105.132Z" fill="white"/>
<path d="M70.7029 101.223L67.0415 41.2634L50.8425 42.2555L54.5038 102.215L70.7029 101.223Z" fill="#3A3C95"/>
<path d="M52.3841 43.6219L55.8681 100.671L69.1613 99.8573L65.6771 42.8074L52.3841 43.6219ZM53.1399 103.76L49.3003 40.8896L68.4053 39.719L72.2448 102.589L53.1399 103.76H53.1399Z" fill="#FBDA00"/>
<path d="M44.4063 104.303L38.8252 85.4343C52.44 81.8116 60.2371 74.5124 55.8086 59.5399C51.3349 44.4146 39.5748 43.0837 25.9971 47.1114L11.8091 51.3209L28.8454 108.919L44.4063 104.303V104.303ZM40.0281 63.9716C41.2927 68.2503 39.3237 71.4103 34.9844 72.4477L31.0533 59.1557L32.175 58.7401C35.9884 57.6087 38.943 60.3049 40.0281 63.9716" fill="white"/>
<path d="M32.8417 60.0695L35.9581 70.6067C36.9689 70.2278 37.8266 69.5256 38.3985 68.609C39.0491 67.4825 39.1277 66.0613 38.6323 64.3852C37.996 62.2353 36.4195 59.9369 33.9037 59.9369C33.5457 59.9387 33.1892 59.9832 32.8417 60.0695H32.8417ZM33.9806 74.1863L29.2708 58.2619L31.7618 57.3421C32.4567 57.1327 33.1781 57.0246 33.9037 57.0212C37.2971 57.0212 40.2489 59.5869 41.4238 63.5572C42.145 65.9967 41.9701 68.248 40.9187 70.069C39.841 71.935 37.906 73.2479 35.3224 73.8657L33.9806 74.1863H33.9806ZM13.6184 52.3045L29.8277 107.107L42.5972 103.319L37.0044 84.4106L38.4514 84.0254C46.3797 81.9153 51.4193 78.7745 53.8588 74.4228C55.9879 70.6244 56.1691 65.8916 54.4128 59.9539C51.7589 50.9807 46.2919 46.6186 37.6998 46.6186C33.8664 46.7112 30.0654 47.3477 26.4105 48.5092L13.6184 52.3045ZM27.8632 110.73L10 50.3371L25.5838 45.7134C29.505 44.4636 33.5857 43.7864 37.6999 43.7029C47.6152 43.7029 54.1776 48.892 57.2045 59.1259C59.1681 65.7648 58.8965 71.3916 56.3975 75.8496C53.7128 80.6395 48.5511 84.1115 40.6408 86.4398L46.2156 105.286L27.8633 110.73H27.8632Z" fill="white"/>
<path d="M44.4709 104.303L38.8899 85.4343C52.5041 81.8116 60.3018 74.5124 55.8738 59.5399C51.3996 44.4146 39.6394 43.0837 26.0623 47.1114L11.8738 51.3209L28.91 108.919L44.4709 104.303L44.4709 104.303ZM40.0922 63.9716C41.358 68.2503 39.3878 71.4103 35.0491 72.4477L31.1174 59.1557L32.2391 58.7401C36.053 57.6087 39.0077 60.3049 40.0922 63.9716Z" fill="#3A3C95"/>
<path d="M32.906 60.0695L36.1279 70.9622C37.2716 70.87 38.5082 70.5431 39.1091 69.639C39.8108 68.5832 39.683 66.7702 38.7492 64.5341L38.6963 64.3855C38.0603 62.235 36.484 59.9369 33.9679 59.9369C33.6099 59.9387 33.2534 59.9832 32.906 60.0695L32.906 60.0695ZM35.3375 73.9086C35.232 73.9086 35.1259 73.9075 35.0176 73.9052L33.9551 73.8817L29.3348 58.2619L31.8257 57.3421C32.5206 57.1326 33.2421 57.0245 33.9679 57.0212C37.3399 57.0212 40.2756 59.5539 41.4651 63.4811C42.7766 66.6606 42.8003 69.3476 41.5326 71.2548C40.7279 72.4652 38.9998 73.9086 35.3375 73.9086L35.3375 73.9086ZM13.6829 52.3045L29.8921 107.107L42.6617 103.319L37.0689 84.4106L38.5159 84.0254C46.4439 81.9153 51.4839 78.7745 53.9234 74.4222C56.0527 70.6244 56.2339 65.8913 54.4779 59.9538C51.8237 50.9807 46.3567 46.6186 37.7647 46.6186C33.9313 46.7111 30.1305 47.3477 26.4756 48.5092L13.6829 52.3045ZM27.9277 110.73L10.0645 50.3371L25.6489 45.7134C29.57 44.4635 33.6506 43.7864 37.7647 43.7029C47.6799 43.7029 54.2421 48.892 57.2696 59.1259C59.2329 65.7648 58.9613 71.3916 56.4621 75.8496C53.777 80.6395 48.6155 84.1115 40.7053 86.4398L46.2801 105.286L27.9277 110.73Z" fill="#FBDA00"/>
<path d="M97.1247 41.4382C94.3328 41.0134 91.4858 41.122 88.7342 41.7582C81.0305 43.3981 63.9202 51.6833 69.5108 78.0234C73.7775 98.1302 86.9281 105.675 99.9237 102.909C103.231 102.214 106.346 100.8 109.048 98.7669L106.492 82.1247C104.42 85.0093 102.462 86.8925 98.8822 87.6547C90.9454 89.3433 87.0686 81.0465 85.6132 74.1884C84.2398 67.7202 84.3288 58.1715 92.577 56.4155C95.8461 55.7199 97.9777 56.5695 100.698 58.2712L97.1247 41.4382Z" fill="white"/>
<path d="M93.9171 42.6348C92.2756 42.6452 90.6398 42.8294 89.0369 43.1842C83.6569 44.3915 78.8196 47.33 75.2645 51.5504C70.06 57.9316 68.6034 66.7362 70.9346 77.7202C74.1616 92.9243 83.076 102.002 94.7812 102.002C96.408 101.998 98.0299 101.824 99.6204 101.482C102.44 100.897 105.112 99.7434 107.472 98.0908L105.55 85.5768C103.849 87.3864 101.622 88.6125 99.1849 89.0805C98.4195 89.2455 97.639 89.3302 96.856 89.3332C93.995 89.3332 87.0324 87.888 84.1895 74.491C83.6784 72.0828 82.9835 67.409 84.0777 63.17C85.2275 58.7152 88.0622 55.8864 92.2744 54.9896C94.3934 54.4881 96.6167 54.6723 98.6246 55.5157L95.9135 42.7419C95.2504 42.6701 94.584 42.6343 93.9171 42.6348V42.6348ZM94.7812 104.917C81.5995 104.917 71.6202 94.9764 68.0872 78.326C65.5631 66.435 67.2193 56.8057 73.01 49.7059C78.5875 42.867 86.2239 40.802 88.4316 40.3322C90.2334 39.9347 92.0721 39.7292 93.9171 39.719C95.0723 39.7174 96.2257 39.8115 97.3653 40.0004L98.3424 40.1642L102.834 61.3272L99.926 59.5076C97.4813 57.9774 95.6401 57.2537 92.8791 57.8414C89.733 58.5114 87.7759 60.493 86.8966 63.8997C85.9517 67.5604 86.5793 71.7272 87.0371 73.8846C89.4379 85.1968 94.7039 86.4181 96.856 86.4181C97.4357 86.415 98.0136 86.3514 98.5801 86.2281C101.712 85.5615 103.419 83.9064 105.311 81.2727L107.39 78.3781L110.623 99.4282L109.898 99.9506C107.034 102.105 103.732 103.602 100.226 104.334C98.4366 104.718 96.6116 104.914 94.7812 104.917Z" fill="white"/>
<path d="M97.1247 41.3563C94.3328 40.9316 91.4858 41.0402 88.7342 41.6764C81.0305 43.3161 63.9202 51.6014 69.5108 77.9415C73.7775 98.048 86.9281 105.593 99.9237 102.827C103.231 102.132 106.346 100.718 109.048 98.6848L106.492 82.0426C104.42 84.9272 102.462 86.8104 98.8822 87.5726C90.9454 89.2617 87.0686 80.9644 85.6132 74.1064C84.2398 67.6382 84.3288 58.0896 92.577 56.3341C95.8461 55.6379 97.9777 56.4876 100.698 58.1898L97.1247 41.3563Z" fill="#3A3C95"/>
<path d="M93.9165 42.5529C92.2752 42.5633 90.6396 42.7474 89.0369 43.1023C83.6569 44.3096 78.8196 47.2481 75.2645 51.4685C70.06 57.8497 68.6034 66.6543 70.9346 77.6383C74.1616 92.8428 83.076 101.92 94.7812 101.92C96.408 101.916 98.0298 101.742 99.6204 101.4C102.44 100.815 105.112 99.6614 107.472 98.0087L105.55 85.4952C103.849 87.3045 101.622 88.5304 99.1849 88.9984C98.4195 89.1636 97.639 89.2484 96.856 89.2517C93.995 89.2517 87.0324 87.8059 84.1895 74.409C83.6784 72.0009 82.9835 67.327 84.0777 63.0881C85.2275 58.6333 88.0622 55.8045 92.2744 54.9082C94.3934 54.4062 96.6167 54.5902 98.6246 55.4338L95.9135 42.6602C95.2503 42.5883 94.5836 42.5525 93.9165 42.5529V42.5529ZM94.7812 104.836C81.5995 104.836 71.6202 94.8948 68.0872 78.244C65.5631 66.3531 67.2193 56.7238 73.01 49.624C78.5875 42.785 86.2239 40.7201 88.4316 40.2503C90.2332 39.8528 92.0717 39.6472 93.9165 39.6371C95.0719 39.6355 96.2255 39.7296 97.3653 39.9185L98.3424 40.0823L102.834 61.2464L99.926 59.426C97.4813 57.8961 95.6424 57.1721 92.8797 57.7601C89.733 58.4297 87.7759 60.4113 86.8966 63.8178C85.9517 67.4785 86.5793 71.6453 87.0371 73.8027C89.438 85.1147 94.7039 86.336 96.856 86.336C97.4358 86.3332 98.0136 86.2695 98.5801 86.146C101.712 85.4794 103.419 83.8243 105.311 81.1912L107.39 78.2961L110.623 99.346L109.898 99.8684C107.034 102.023 103.732 103.52 100.226 104.253C98.4365 104.636 96.6116 104.832 94.7812 104.836V104.836Z" fill="#FBDA00"/>
</svg>
