<svg width="217" height="137" viewBox="0 0 217 137" fill="none" xmlns="http://www.w3.org/2000/svg">
<path d="M156.991 21.5232L157.662 34.7443L142.218 28.9516L139.803 105.244L178.011 115.007L205.494 47.5761L186.442 43.7376L192.177 32.8746L156.991 21.5232Z" fill="#00995B"/>
<path d="M140.92 104.403L177.361 113.715L203.987 48.3852L184.797 44.5191L190.607 33.5147L158.159 23.0465L158.835 36.3492L143.259 30.5071L140.92 104.403V104.403ZM178.662 116.3L138.686 106.084L141.177 27.3963L156.49 33.1394L155.823 20L193.746 32.235L188.087 42.956L207 46.7666L178.662 116.3V116.3Z" fill="#393B94"/>
<path d="M153.872 73.5043V41.4117H182.237V52.9282H164.221V62.5255C167.288 62.679 172.884 62.1414 179.63 67.8229C181.921 69.7813 183.804 72.1725 185.173 74.8599C186.541 77.5473 187.367 80.4783 187.603 83.4854C187.834 91.0094 184.767 96.4609 178.787 101.298C174.908 104.387 170.006 105.895 165.064 105.52C161.229 105.15 157.505 104.028 154.102 102.219V90.5492C154.102 90.5492 159.928 95.3862 164.988 95.1552C171.351 94.8485 176.487 89.1667 175.72 82.871C175.107 77.9572 171.274 74.1954 165.218 73.2742C161.385 72.6599 153.872 73.5043 153.872 73.5043H153.872Z" fill="#293577"/>
<path d="M150.729 70.8173V38.7247H179.093V50.2412H161.078V59.838C164.144 59.9919 169.741 59.4543 176.487 65.1358C178.778 67.0943 180.661 69.4855 182.029 72.1729C183.397 74.8603 184.223 77.7912 184.46 80.7984C184.69 88.3224 181.623 93.7739 175.643 98.6109C171.764 101.7 166.863 103.208 161.921 102.833C158.086 102.463 154.361 101.341 150.958 99.5319V87.8622C150.958 87.8622 156.785 92.6992 161.844 92.4682C168.207 92.1615 173.344 86.4797 172.577 80.1839C171.964 75.2701 168.131 71.5084 162.075 70.5872C158.241 69.9728 150.729 70.8173 150.729 70.8173Z" fill="white"/>
<path d="M146.071 98.8173L133.514 66.9184L148.224 38.7647L131.152 37.7187L120.7 62.7011L120.462 62.6864L120.452 62.8459L120.621 62.6958L120.541 62.6911L120.621 62.6958L122.179 37.17L105.98 36.1768L102.318 96.1373L118.517 97.1294L120.198 69.6148L120.357 69.6241L120.278 69.6195L128.682 97.752L146.071 98.8173Z" fill="white"/>
<path d="M129.785 96.3589L143.879 97.2219L131.915 66.8329L145.893 40.0826L132.096 39.2372L122.045 63.2587L121.986 64.2341L121.645 64.2143L121.643 64.2209L121.133 64.1891L118.784 66.2707L119.098 61.1405L119.257 61.1506L120.637 38.5358L107.344 37.7211L103.861 94.7712L117.153 95.585L118.742 69.5658L118.288 68.0439L120.441 68.1687L120.359 69.5955L121.672 69.2016L129.785 96.3589V96.3589ZM148.264 100.413L127.578 99.145L121.164 77.6732L119.882 98.6736L100.777 97.5033L104.616 34.6327L123.721 35.8035L122.585 54.4247L130.209 36.2004L150.556 37.4471L135.112 67.0036L148.264 100.413V100.413Z" fill="white"/>
<path d="M129.879 96.3589L143.974 97.2219L132.01 66.8329L145.988 40.0826L132.19 39.2372L122.14 63.2587L122.08 64.2341L121.74 64.2143L121.737 64.2209L121.228 64.1891L118.893 66.2669L119.352 61.1506L120.732 38.5358L107.439 37.7211L103.956 94.7712L117.249 95.585L118.837 69.5658L118.383 68.0439L120.536 68.1687L120.453 69.5955L121.767 69.2016L129.879 96.3589V96.3589ZM148.359 100.413L127.673 99.145L121.259 77.6732L119.977 98.6736L100.872 97.5033L104.711 34.6327L123.816 35.8035L122.679 54.4247L130.303 36.2004L150.651 37.4471L135.207 67.0035L148.359 100.413V100.413Z" fill="#393B94"/>
<path d="M146.373 40.1336L131.989 39.2882L121.641 62.2589L119.409 62.769L121.117 38.5869L107.239 37.772L103.755 94.8222L117.633 95.6359L119.161 70.6202L121.592 69.3362L129.679 96.4099L144.359 97.2729L132.395 66.8837L146.373 40.1336Z" fill="#F18121"/>
<path d="M97.1245 41.3556C94.3326 40.9311 91.4857 41.0397 88.7341 41.6756C81.0303 43.3155 63.9196 51.6004 69.5107 77.9411C73.778 98.0479 86.9274 105.592 99.9241 102.826C103.232 102.131 106.346 100.717 109.049 98.6846L106.491 82.0424C104.42 84.9271 102.461 86.8103 98.882 87.5724C90.9447 89.261 87.0697 80.9636 85.6131 74.1061C84.2408 67.6379 84.3287 58.0892 92.5769 56.3332C95.8453 55.6376 97.9775 56.4872 100.697 58.1889L97.1245 41.3556V41.3556Z" fill="#F18121"/>
<path d="M93.9175 42.5523C92.2758 42.5628 90.6398 42.7469 89.0367 43.1016C83.6566 44.3088 78.8193 47.2473 75.2643 51.4679C70.0598 57.8491 68.6033 66.6539 70.9345 77.6382C74.1614 92.8422 83.0758 101.919 94.7804 101.919C96.4077 101.916 98.0303 101.741 99.6214 101.399C102.441 100.815 105.112 99.6609 107.472 98.0087L105.549 85.4946C103.849 87.3044 101.621 88.5305 99.1846 88.9984C98.4192 89.1636 97.6387 89.2485 96.8558 89.2517H96.8546C93.9936 89.2522 87.0339 87.8052 84.1893 74.4095C82.4441 66.185 83.6513 56.7432 92.2741 54.9072C94.3932 54.406 96.6164 54.5902 98.6244 55.4334L95.9132 42.6596C95.2504 42.5877 94.5842 42.5518 93.9175 42.5523ZM94.7804 104.835C81.5999 104.835 71.6206 94.8948 68.087 78.244C65.5629 66.3527 67.2189 56.7231 73.0092 49.6233C78.5873 42.7844 86.2237 40.7195 88.4313 40.2497C90.2334 39.8523 92.0723 39.6468 93.9175 39.6367C95.0724 39.635 96.2256 39.7291 97.3651 39.9179L98.3422 40.0816L102.834 61.2449L99.9258 59.4253C97.481 57.8954 95.641 57.1729 92.8795 57.7592C84.6699 59.507 86.332 70.4812 87.0368 73.8032C87.8371 77.5712 90.3961 86.336 96.8546 86.336H96.8558C97.4355 86.333 98.0133 86.2693 98.5799 86.146C101.711 85.4794 103.419 83.8243 105.31 81.1912L107.389 78.2961L110.623 99.346L109.898 99.8684C107.035 102.023 103.732 103.52 100.226 104.252C98.4361 104.636 96.6109 104.831 94.7804 104.835V104.835Z" fill="#393B94"/>
<path d="M70.7026 101.223L67.0413 41.2622L50.8423 42.2554L54.5042 102.215L70.7026 101.223Z" fill="#F18121"/>
<path d="M52.3841 43.6213L55.8682 100.671L69.1612 99.8568L65.677 42.8066L52.3841 43.6213ZM53.1399 103.76L49.3003 40.889L68.4052 39.7181L72.2447 102.589L53.1399 103.76L53.1399 103.76Z" fill="#393B94"/>
<path d="M44.4062 104.303L38.8251 85.4342C52.4394 81.8103 60.237 74.5121 55.809 59.5396C51.3348 44.4142 39.5746 43.083 25.997 47.111L11.8091 51.3199L28.8453 108.919L44.4062 104.303V104.303ZM40.0274 63.9712C41.2932 68.2494 39.3231 71.41 34.9837 72.4474L31.0527 59.1554L32.1744 58.7397C35.9883 57.6083 38.9429 60.3046 40.0274 63.9712" fill="white"/>
<path d="M32.8411 60.0693L35.9575 70.6067C36.9686 70.2275 37.8266 69.5251 38.3987 68.6082C39.0491 67.4813 39.1274 66.0609 38.6317 64.3856C37.9957 62.2347 36.4195 59.9368 33.9033 59.9368C33.5453 59.9385 33.1887 59.983 32.8411 60.0693L32.8411 60.0693ZM33.98 74.1864L29.2702 58.2617L31.7611 57.3419C32.4561 57.1323 33.1776 57.0242 33.9034 57.021C37.2971 57.021 40.2488 59.5866 41.4234 63.5574C42.1446 65.9953 41.9702 68.2466 40.9192 70.0674C39.8415 71.9345 37.9059 73.248 35.3218 73.8657L33.98 74.1864V74.1864ZM13.6184 52.3036L29.8276 107.107L42.5971 103.319L37.0043 84.4107L38.4513 84.0255C46.3795 81.9154 51.4195 78.774 53.859 74.4217C55.988 70.6239 56.1693 65.8911 54.4133 59.9536C51.7591 50.9802 46.2918 46.6181 37.6998 46.6181C33.8664 46.7106 30.0654 47.3473 26.4105 48.509L13.6184 52.3036ZM27.8632 110.73L10 50.3363L25.5838 45.7132C29.505 44.4633 33.5857 43.7862 37.6998 43.7026C47.6151 43.7026 54.1775 48.8915 57.205 59.1257C59.1683 65.7645 58.8967 71.3911 56.3977 75.8491C53.7127 80.639 48.5509 84.1111 40.6407 86.4399L46.2155 105.286L27.8632 110.73L27.8632 110.73Z" fill="white"/>
<path d="M44.1115 103.087L39.2553 86.6696C39.2077 86.5103 39.192 86.3432 39.2091 86.1778C39.2262 86.0124 39.2757 85.852 39.3548 85.7059C39.4339 85.5597 39.541 85.4306 39.6699 85.3259C39.7989 85.2212 39.9473 85.1431 40.1065 85.096C52.9642 81.363 60.1681 74.0602 55.8733 59.5396C51.3996 44.4142 39.6395 43.083 26.0618 47.111L13.0872 50.96C12.9279 51.0072 12.7794 51.0855 12.6503 51.1902C12.5211 51.2949 12.4138 51.4241 12.3345 51.5704C12.2552 51.7166 12.2055 51.8771 12.1881 52.0426C12.1707 52.2081 12.1861 52.3755 12.2333 52.5351L28.5507 107.703C28.5978 107.863 28.676 108.012 28.7805 108.141C28.8851 108.27 29.0141 108.378 29.1601 108.457C29.3062 108.537 29.4664 108.586 29.6317 108.604C29.797 108.621 29.9641 108.606 30.1234 108.559L43.2576 104.662C43.4169 104.615 43.5654 104.537 43.6945 104.432C43.8237 104.327 43.931 104.198 44.0103 104.052C44.0896 103.906 44.1394 103.745 44.1567 103.58C44.1741 103.414 44.1587 103.247 44.1115 103.087H44.1115ZM40.0928 63.9712C41.2228 67.7936 39.7712 70.7239 36.3541 72.0448C36.1908 72.1071 36.0164 72.135 35.8419 72.1267C35.6673 72.1184 35.4963 72.074 35.3397 71.9964C35.1831 71.9189 35.0441 71.8097 34.9316 71.6758C34.819 71.5419 34.7353 71.3862 34.6857 71.2183L31.4543 60.2924C31.3631 59.9841 31.3924 59.6526 31.5361 59.3651C31.6799 59.0775 31.9274 58.8555 32.2285 58.7439L32.2397 58.7397C36.0531 57.6083 39.0077 60.3046 40.0928 63.9712" fill="#F18121"/>
<path d="M32.9064 60.0693L36.0228 70.6067C37.0334 70.2275 37.8911 69.5253 38.4632 68.6088C39.1138 67.4822 39.1924 66.0612 38.697 64.3853C38.0607 62.2347 36.4841 59.9368 33.9683 59.9368C33.6103 59.9385 33.2538 59.983 32.9064 60.0693V60.0693ZM34.0452 74.1864L29.3355 58.2617L31.8264 57.3419C32.5213 57.1323 33.2426 57.0243 33.9683 57.021C37.3617 57.021 40.3135 59.5866 41.4884 63.5571C42.2096 65.9962 42.0347 68.2478 40.9833 70.0685C39.9055 71.935 37.9706 73.248 35.387 73.8657L34.0452 74.1864V74.1864ZM13.683 52.3036L29.8923 107.107L42.6618 103.319L37.069 84.4107L38.516 84.0255C46.4446 81.9154 51.4842 78.774 53.9237 74.4222C56.0525 70.6239 56.2337 65.8914 54.4774 59.9536C51.8235 50.9802 46.3565 46.6181 37.7645 46.6181C33.931 46.7106 30.1301 47.3473 26.4752 48.509L13.683 52.3036ZM27.9279 110.73L10.0647 50.3363L25.6485 45.7132C29.5697 44.4633 33.6503 43.7862 37.7645 43.7026C47.6797 43.7026 54.2421 48.8915 57.2691 59.1257C59.2326 65.7645 58.9611 71.3911 56.4624 75.8497C53.7777 80.639 48.6159 84.1111 40.7054 86.4399L46.2802 105.286L27.9279 110.73L27.9279 110.73Z" fill="#393B94"/>
</svg>
