<svg width="217" height="137" viewBox="0 0 217 137" fill="none" xmlns="http://www.w3.org/2000/svg">
<path d="M156.991 21.5232L157.662 34.7442L142.218 28.9516L139.802 105.243L178.011 115.008L205.494 47.5759L186.442 43.738L192.177 32.8751L156.991 21.5232Z" fill="#00995B"/>
<path d="M178.661 116.3L138.686 106.083L141.177 27.3963L156.489 33.1393L155.823 20L193.746 32.2353L188.087 42.9563L207 46.7667L178.661 116.3ZM140.919 104.402L177.361 113.715L203.987 48.3853L184.797 44.5194L190.607 33.5149L158.159 23.0466L158.834 36.3491L143.258 30.507L140.919 104.402Z" fill="#393A96"/>
<path d="M169.28 89.3227H183.927V100.148H150.305L174.273 62.4761C176.936 58.2902 172.609 50.8567 168.281 49.9904C164.287 49.1247 160.425 50.7124 158.627 54.6814C157.679 56.7568 157.32 59.0538 157.59 61.3201C157.861 63.5864 158.749 65.7342 160.159 67.5278L154.3 73.8064C154.3 73.8064 151.171 70.7753 149.972 68.3935C146.777 62.1148 146.843 55.9084 150.305 49.8461C152.902 45.3716 154.699 42.7737 158.96 40.9695C162.023 39.6704 164.22 39.5982 167.482 39.8871C173.94 40.5366 178.401 43.0625 181.93 48.9083C184.326 52.8051 185.325 55.9084 185.059 60.5993C184.792 64.4246 183.062 67.5278 181.797 69.8369C176.67 79.7965 173.807 82.322 169.28 89.3227Z" fill="#283576"/>
<path d="M166.55 86.7971H181.197V97.6224H147.575L171.543 59.9505C174.206 55.7646 169.879 48.3311 165.552 47.4648C161.557 46.5991 157.695 48.1868 155.898 52.1557C154.949 54.2311 154.591 56.5282 154.861 58.7944C155.131 61.0607 156.019 63.2086 157.429 65.0021L151.57 71.2808C151.57 71.2808 148.441 68.2497 147.242 65.8679C144.047 59.5892 144.114 53.3827 147.575 47.3205C150.172 42.8463 151.97 40.248 156.231 38.4439C159.293 37.1448 161.49 37.0726 164.753 37.3615C171.211 38.011 175.671 40.5368 179.2 46.3826C181.597 50.2795 182.595 53.3827 182.329 58.0736C182.063 61.8989 180.332 65.0021 179.067 67.3113C173.94 77.2709 171.077 79.7964 166.55 86.7971Z" fill="white"/>
<path d="M148.382 100.636L127.696 99.3686L121.282 77.8977L120 98.8968L100.895 97.727L104.735 34.8569L123.839 36.0275L122.702 54.6482L130.327 36.4246L150.674 37.671L135.23 67.2273L148.382 100.636ZM129.903 96.5825L143.997 97.4459L132.033 67.0566L146.011 40.3066L132.213 39.4614L122.163 63.4822L122.103 64.4587L121.762 64.4389L121.761 64.4409L121.252 64.4108L118.901 66.4941L119.215 61.37L119.374 61.3794L120.756 38.7598L107.463 37.9453L103.979 94.9948L117.272 95.8084L118.86 69.7909L118.401 68.2518L120.569 68.3932L120.476 69.8189L121.79 69.425L129.903 96.5825Z" fill="white"/>
<path d="M148.477 100.636L127.791 99.3686L121.377 77.8977L120.095 98.8968L100.99 97.727L104.83 34.8569L123.934 36.0275L122.797 54.6493L130.422 36.4246L150.769 37.671L135.325 67.2273L148.477 100.636ZM129.998 96.5825L144.092 97.4459L132.128 67.0566L146.106 40.3066L132.308 39.4614L121.854 64.4466L119.292 64.2806L120.85 38.7598L107.558 37.9453L104.074 94.9948L117.366 95.8084L118.955 69.7909L118.496 68.2527L120.664 68.3932L120.572 69.8184L121.885 69.425L129.998 96.5825Z" fill="#393995"/>
<path d="M146.255 40.3579L131.872 39.5125L121.523 62.4825L119.291 62.9931L121 38.8107L107.121 37.9963L103.637 95.0454L117.516 95.8598L119.043 70.8442L121.474 69.5602L129.562 96.6331L144.241 97.4967L132.278 67.1077L146.255 40.3579Z" fill="#FCDA00"/>
<path d="M67.0408 41.263L50.8418 42.2552L54.5039 102.215L70.7028 101.223L67.0408 41.263Z" fill="#FCDA00"/>
<path d="M53.1397 103.759L49.2998 40.8895L68.4048 39.7189L72.2447 102.589L53.1397 103.759ZM52.3836 43.6217L55.868 100.671L69.1609 99.8564L65.6766 42.8072L52.3836 43.6217Z" fill="#393A96"/>
<path d="M40.0278 63.9715C41.2926 68.2497 39.3234 71.4096 34.9841 72.4476L31.053 59.1558L32.1741 58.7401C35.988 57.6081 38.9429 60.3049 40.0278 63.9715ZM44.4062 104.302L38.8251 85.4338C52.4393 81.8106 60.237 74.5117 55.8087 59.5393C51.3348 44.4142 39.5746 43.0836 25.997 47.1115L11.8091 51.3203L28.8453 108.918L44.4062 104.302Z" fill="white"/>
<path d="M27.8632 110.73L10 50.3369L25.5838 45.7138C29.5052 44.4639 33.586 43.7866 37.7004 43.703C47.6154 43.703 54.1775 48.8918 57.2047 59.1253C59.1683 65.7641 58.8967 71.3912 56.3975 75.8492C53.7124 80.6391 48.5506 84.1111 40.6407 86.4392L46.2155 105.286L27.8632 110.73ZM13.6184 52.3042L29.8276 107.107L42.5971 103.319L37.0044 84.41L38.4514 84.0247C46.3793 81.9148 51.4192 78.7737 53.8587 74.4218C55.9878 70.624 56.1693 65.891 54.413 59.9533C51.7588 50.9805 46.2921 46.6187 37.7004 46.6187C33.8667 46.7112 30.0656 47.3479 26.4105 48.5096L13.6184 52.3042ZM33.9803 74.1864L29.2705 58.2622L31.7606 57.3427C32.4557 57.1329 33.1774 57.0247 33.9034 57.0215C37.2971 57.0215 40.2488 59.5869 41.4237 63.5572C42.1446 65.996 41.9699 68.2473 40.9189 70.068C39.8412 71.934 37.9062 73.2475 35.3223 73.8658L33.9803 74.1864ZM32.8414 60.0695L35.9578 70.6063C36.9688 70.2275 37.8267 69.5252 38.3984 68.6083C39.0488 67.4818 39.1274 66.061 38.632 64.3854C37.9957 62.2352 36.4195 59.9369 33.9034 59.9369C33.5454 59.9388 33.1889 59.9833 32.8414 60.0695Z" fill="white"/>
<path d="M40.0924 63.9715C41.3574 68.2497 39.3881 71.4096 35.0488 72.4476L31.1177 59.1558L32.2388 58.7401C36.053 57.6081 39.0076 60.3049 40.0924 63.9715ZM44.4709 104.302L38.8898 85.4338C52.5041 81.8106 60.3016 74.5117 55.8735 59.5393C51.3995 44.4142 39.6394 43.0836 26.0617 47.1115L11.8738 51.3203L28.91 108.918L44.4709 104.302Z" fill="#FCDA00"/>
<path d="M27.9279 110.73L10.0647 50.3369L25.6484 45.7138C29.5699 44.4639 33.6507 43.7866 37.7651 43.703C47.68 43.703 54.2421 48.8918 57.2694 59.1253C59.2329 65.7641 58.9614 71.3912 56.4621 75.8492C53.7771 80.6391 48.6154 84.1111 40.7054 86.4392L46.2802 105.286L27.9279 110.73ZM13.683 52.3042L29.8923 107.107L42.6618 103.319L37.069 84.41L38.516 84.0247C46.444 81.9148 51.4839 78.7737 53.9234 74.4218C56.0525 70.624 56.234 65.891 54.4777 59.9533C51.8235 50.9805 46.3568 46.6187 37.7651 46.6187C33.9314 46.7112 30.1303 47.3479 26.4751 48.5096L13.683 52.3042ZM34.0449 74.1864L29.3352 58.2622L31.8253 57.3427C32.5204 57.1329 33.2422 57.0247 33.9683 57.0215C37.3617 57.0215 40.3135 59.5869 41.4884 63.5572C42.2093 65.996 42.0347 68.2473 40.9836 70.068C39.9058 71.934 37.9709 73.2475 35.387 73.8658L34.0449 74.1864ZM32.9061 60.0695L36.0225 70.6063C37.0335 70.2275 37.8914 69.5252 38.4631 68.6083C39.1134 67.4818 39.1921 66.061 38.6967 64.3854C38.0604 62.2352 36.4841 59.9369 33.9683 59.9369C33.6102 59.9388 33.2537 59.9833 32.9061 60.0695Z" fill="#393A96"/>
<path d="M97.1244 41.4139C94.3325 40.9894 91.4855 41.098 88.7339 41.734C81.0304 43.3741 63.9198 51.6586 69.5106 77.9991C73.7779 98.1055 86.9279 105.65 99.9235 102.884C103.231 102.189 106.346 100.775 109.048 98.7422L106.492 82.1003C104.42 84.9848 102.461 86.868 98.8818 87.6301C90.9447 89.3191 87.0691 81.0216 85.6129 74.1641C84.2403 67.696 84.3286 58.1474 92.5767 56.3914C95.8452 55.6958 97.9774 56.5448 100.697 58.247L97.1244 41.4139Z" fill="white"/>
<path d="M94.7803 104.893C81.5995 104.893 71.6205 94.9525 68.0868 78.302C61.4425 46.9988 85.6492 40.9006 88.4312 40.3083C90.2332 39.9109 92.0721 39.7054 93.9173 39.6953C95.0722 39.6936 96.2253 39.7876 97.3648 39.9765L98.3421 40.1402L102.834 61.3033L99.9258 59.4832C97.482 57.9539 95.6413 57.2298 92.8794 57.8176C84.6695 59.5653 86.3318 70.5392 87.0368 73.8612C87.8369 77.6292 90.3956 86.3939 96.8545 86.3939H96.8554C97.4351 86.3908 98.0129 86.3271 98.5794 86.2038C101.711 85.5373 103.419 83.882 105.31 81.2489L107.389 78.3546L110.622 99.404L109.898 99.9263C107.034 102.081 103.732 103.578 100.226 104.31C98.436 104.694 96.6108 104.889 94.7803 104.893ZM93.9173 42.6108C92.2755 42.6213 90.6395 42.8054 89.0363 43.1602C86.5459 43.6904 64.8786 49.1643 70.9344 77.6962C74.1612 92.8998 83.0756 101.977 94.7803 101.977C96.4075 101.974 98.0298 101.799 99.6207 101.457C102.44 100.873 105.112 99.7191 107.472 98.0666L105.549 85.5522C103.849 87.3621 101.622 88.5883 99.1845 89.0562C98.4192 89.2214 97.6388 89.3062 96.856 89.3093H96.8545C93.9931 89.3099 87.0336 87.8631 84.189 74.4675C82.4436 66.2431 83.6511 56.8013 92.274 54.9657C94.393 54.4643 96.6162 54.6483 98.6243 55.4913L95.9129 42.7182C95.2501 42.6463 94.584 42.6104 93.9173 42.6108Z" fill="white"/>
<path d="M97.1244 41.356C94.3325 40.9315 91.4855 41.0402 88.7339 41.6764C81.0304 43.3161 63.9198 51.6011 69.5106 77.9409C73.7779 98.0473 86.9279 105.592 99.9235 102.826C103.231 102.131 106.346 100.717 109.048 98.6841L106.492 82.0421C104.42 84.9267 102.461 86.8098 98.8818 87.5719C90.9447 89.2615 87.0691 80.964 85.6129 74.106C84.2403 67.6377 84.3286 58.0898 92.5767 56.3338C95.8452 55.6376 97.9774 56.4873 100.697 58.1895L97.1244 41.356Z" fill="#FCDA00"/>
<path d="M94.7812 104.835C81.5997 104.835 71.6205 94.894 68.0867 78.2435C65.5626 66.3527 67.2188 56.7235 73.0094 49.6237C78.5874 42.7848 86.2237 40.7202 88.4311 40.2504C90.2332 39.8528 92.0723 39.6472 93.9176 39.6372C95.0724 39.6355 96.2254 39.7295 97.3647 39.9184L98.3421 40.0821L102.834 61.2457L99.9257 59.4256C97.4808 57.8958 95.6422 57.172 92.8794 57.7597C84.6698 59.5075 86.3318 70.4808 87.0367 73.8028C87.8368 77.5708 90.3953 86.336 96.8551 86.3354C97.4348 86.3326 98.0126 86.2689 98.5791 86.1454C101.711 85.4789 103.419 83.8236 105.31 81.1905L107.389 78.2962L110.622 99.3456L109.898 99.8673C107.035 102.023 103.732 103.52 100.226 104.252C98.4364 104.636 96.6115 104.831 94.7812 104.835ZM93.9176 42.5527C92.2758 42.5631 90.6397 42.7473 89.0366 43.1023C83.6565 44.3094 78.8193 47.2478 75.2643 51.4682C70.06 57.8494 68.603 66.6542 70.9344 77.6377C74.1612 92.842 83.0759 101.919 94.7812 101.919C96.408 101.915 98.03 101.741 99.6207 101.399C102.44 100.815 105.112 99.6608 107.472 98.0082L105.549 85.4938C103.849 87.3036 101.622 88.5299 99.1845 88.9978C98.419 89.1634 97.6382 89.2484 96.8551 89.2515C93.9945 89.2515 87.0336 87.8058 84.189 74.4091C82.4439 66.1852 83.6513 56.7437 92.2739 54.9079C94.3929 54.4056 96.6163 54.5897 98.6242 55.4335L95.9129 42.66C95.2502 42.5881 94.5841 42.5523 93.9176 42.5527Z" fill="#393A96"/>
</svg>
