<svg width="217" height="137" viewBox="0 0 217 137" fill="none" xmlns="http://www.w3.org/2000/svg">
<path fill-rule="evenodd" clip-rule="evenodd" d="M96.5276 28.6352C96.9396 28.8574 97.346 29.0886 97.7466 29.3287C97.8292 29.2942 97.9121 29.2601 97.9951 29.2263C98.4178 29.054 98.8444 28.8894 99.2748 28.7325C99.985 28.4737 100.705 28.2361 101.435 28.0205C101.811 27.9094 102.19 27.8042 102.57 27.705C102.635 27.6882 102.699 27.6716 102.764 27.6551C103.067 27.5779 103.371 27.5045 103.677 27.4348C104.215 27.3123 104.757 27.2016 105.304 27.1029C105.988 26.9794 106.679 26.8747 107.376 26.7896C107.899 26.7256 108.426 26.6726 108.956 26.6309C108.977 26.6292 108.999 26.6275 109.021 26.6258C109.968 26.5528 110.926 26.5156 111.892 26.5156C112.07 26.5156 112.247 26.5168 112.424 26.5193C112.498 26.5204 112.573 26.5217 112.648 26.5232C113.819 26.5467 114.977 26.625 116.119 26.7555C116.731 26.8253 117.338 26.9102 117.94 27.0096C118.239 27.0589 118.536 27.1117 118.832 27.1681C119.181 27.2347 119.529 27.3064 119.876 27.3829C120.246 27.4646 120.614 27.552 120.98 27.6448C121.086 27.6718 121.193 27.6992 121.299 27.7271C121.62 27.8117 121.939 27.9004 122.257 27.9934C123.582 28.3811 124.876 28.8413 126.135 29.3694C126.447 29.5002 126.757 29.6352 127.064 29.7743C127.857 30.133 128.635 30.519 129.397 30.931C129.685 31.0869 129.971 31.2465 130.254 31.4098C131.691 32.2375 133.068 33.1594 134.374 34.1671C134.911 34.5813 135.437 35.01 135.95 35.4526C136.319 35.7711 136.681 36.0968 137.038 36.4294C137.851 37.1896 138.631 37.9862 139.373 38.8167C139.436 38.8872 139.499 38.9579 139.561 39.0288C141.359 41.071 142.933 43.3138 144.248 45.7192C144.331 45.8718 144.413 46.0251 144.495 46.1789C144.951 47.0431 145.374 47.9277 145.762 48.8308C145.8 48.9181 145.837 49.0055 145.874 49.0931C146.432 50.4211 146.915 51.7887 147.316 53.1904C147.469 53.7231 147.61 54.2606 147.739 54.8029C147.857 55.2975 147.964 55.796 148.062 56.2981C148.168 56.8425 148.261 57.3912 148.343 57.9439C148.472 58.8227 148.571 59.7117 148.637 60.6095C148.691 61.3393 148.723 62.0751 148.734 62.8161C148.737 62.9976 148.738 63.1795 148.738 63.3616C148.738 63.5935 148.736 63.8248 148.732 64.0556C148.718 64.7861 148.684 65.5114 148.628 66.2309C148.531 67.488 148.371 68.7273 148.152 69.9459C147.997 70.8039 147.812 71.6516 147.599 72.4878C145.848 79.359 142.166 85.4584 137.165 90.1741C136.159 91.1232 135.099 92.0163 133.99 92.8483C134.484 93.1873 134.96 93.5495 135.418 93.9331C136.013 94.432 136.577 94.9673 137.106 95.5355C137.593 96.0595 138.051 96.6116 138.477 97.189C138.9 95.7574 139.61 94.449 140.541 93.3305C141.854 91.7526 143.606 90.5527 145.609 89.918C146.645 89.5897 147.748 89.4126 148.893 89.4126C149.26 89.4126 149.622 89.4307 149.98 89.4662C149.524 88.8047 149.156 88.0778 148.893 87.3025C148.686 86.6922 148.544 86.0518 148.475 85.3897C148.443 85.0861 148.427 84.778 148.427 84.466C148.427 79.5929 152.378 75.6425 157.251 75.6425C162.124 75.6425 166.074 79.5929 166.074 84.466C166.074 87.827 164.195 90.7491 161.43 92.2389C160.186 92.9092 158.763 93.2896 157.251 93.2896C157.237 93.2896 157.224 93.2896 157.21 93.2895C157.224 93.3055 157.237 93.3216 157.251 93.3377C158.171 94.4459 158.876 95.7402 159.299 97.1559C159.594 98.143 159.753 99.1892 159.753 100.272C159.753 106.27 154.891 111.132 148.893 111.132C147.897 111.132 146.932 110.998 146.015 110.747C144.572 110.351 143.249 109.666 142.113 108.756C142.075 110.284 141.854 111.766 141.471 113.182C139.318 121.143 132.044 127 123.403 127C116.195 127 109.94 122.926 106.812 116.956C106.131 115.655 105.598 114.263 105.236 112.804C104.232 113.91 103.129 114.924 101.94 115.833C97.7946 119.003 92.6126 120.886 86.9908 120.886C73.3851 120.886 62.3555 109.856 62.3555 96.2505C62.3555 92.6476 63.1289 89.2253 64.5188 86.1407C65.0742 84.9082 65.728 83.7295 66.4702 82.6148C65.3029 81.9411 64.1838 81.1932 63.1194 80.3776C55.7513 74.7321 51 65.8424 51 55.8431C51 38.7832 64.8298 24.9535 81.8896 24.9535C83.4138 24.9535 84.9122 25.0639 86.3773 25.2771C88.2159 25.5447 90.0021 25.9743 91.7208 26.5509L86.4302 17.1702C87.1594 16.1069 95.5145 12.1875 97.2765 12.4914C97.3257 12.5897 97.3939 12.7106 97.4777 12.8498C98.4311 14.4327 101.409 18.3854 101.409 18.3854L101.53 11.5495C103.203 10.7905 105.973 10.4027 108.287 10.2048C110.512 10.0146 112.315 10 112.315 10L112.346 25.3429L107.303 25.677L105.844 15.9549L105.054 25.9202L101.165 26.7405L95.5448 18.5677L98.7348 27.5911L96.5276 28.6352ZM118.939 25.7075L119.729 23.1858L121.977 23.7632L121.886 26.1936L127.598 28.3811C127.598 28.3811 127.598 28.3794 127.598 28.3759C127.609 28.2942 127.746 27.2565 127.928 25.7527C127.952 25.5588 127.976 25.3572 128.001 25.1489C128.035 24.8647 128.07 24.568 128.105 24.2616C128.273 22.8122 128.455 21.1437 128.605 19.5383C128.733 18.1575 128.837 16.8232 128.888 15.7151C128.933 14.7115 128.934 13.8934 128.869 13.3941C128.842 13.1871 128.804 13.035 128.752 12.9471C128.307 12.6303 127.357 12.2748 126.176 11.933C124.706 11.5076 122.877 11.1034 121.219 10.8218C119.484 10.5272 117.935 10.3667 117.177 10.4559L112.741 25.2517L118.939 25.7075ZM123.013 14.4286L120.184 20.2996L122.688 20.9328L123.013 14.4286ZM152.085 22.9803C152.027 22.7393 151.947 22.5015 151.843 22.2701C151.406 21.2914 150.69 20.5069 150.217 20.0276C149.663 19.4647 149.006 18.8954 148.322 18.3493C146.948 17.2518 145.247 16.0738 143.516 14.988C141.783 13.9004 139.941 12.8564 138.27 12.0452C136.766 11.3147 134.893 10.5147 133.29 10.3399C132.815 10.288 132.345 10.3217 131.898 10.4308C131.666 10.1397 131.393 9.88154 131.088 9.66438C130.092 8.95653 128.702 8.48949 127.746 8.1971C126.603 7.84738 125.277 7.52005 123.976 7.24647C122.672 6.97227 121.328 6.73856 120.142 6.588C119.085 6.45385 117.762 6.33062 116.706 6.45498C116.104 6.52584 115.54 6.72908 115.045 7.03736C114.295 6.34554 113.307 5.96328 112.283 5.97157L112.315 10C112.283 5.97157 112.282 5.97157 112.282 5.97157L112.271 5.97167L112.249 5.97191C112.23 5.97212 112.204 5.97243 112.172 5.9729C112.107 5.97384 112.016 5.97539 111.9 5.97789C111.668 5.98289 111.34 5.99171 110.937 6.00714C110.135 6.0379 109.026 6.09546 107.8 6.20341C105.551 6.40137 102.209 6.81764 99.8655 7.88087C99.412 8.08666 99.0093 8.37019 98.6706 8.71164C98.4424 8.62748 98.2051 8.56348 97.9612 8.52141C96.967 8.34994 96.0277 8.51399 95.54 8.61211C94.9298 8.73485 94.2922 8.91811 93.6874 9.11615C92.4691 9.51505 91.0996 10.0682 89.8196 10.6413C88.5353 11.2164 87.2555 11.8501 86.2142 12.4341C85.6987 12.7233 85.1874 13.0304 84.7441 13.3365L84.7341 13.3435C84.4495 13.5399 83.6622 14.0834 83.1078 14.8919C82.2387 16.1593 82.1663 17.8107 82.9212 19.1493L83.9566 20.9851C83.2727 20.9451 82.5835 20.9249 81.8896 20.9249C62.6048 20.9249 46.9714 36.5583 46.9714 55.8431C46.9714 67.3447 52.5323 77.5476 61.1122 83.9096C59.3266 87.6472 58.3269 91.8321 58.3269 96.2505C58.3269 112.081 71.1602 124.914 86.9908 124.914C93.2056 124.914 98.9585 122.936 103.654 119.576C107.575 126.419 114.951 131.029 123.403 131.029C133.734 131.029 142.456 124.141 145.228 114.706C146.4 115.003 147.628 115.161 148.893 115.161C157.116 115.161 163.781 108.495 163.781 100.272C163.781 98.7502 163.553 97.2814 163.128 95.8984C167.27 93.7646 170.103 89.4461 170.103 84.466C170.103 80.1825 168.007 76.3884 164.785 74.053C165.443 74.0142 166.091 73.8641 166.701 73.6079C166.738 73.5923 166.776 73.576 166.812 73.5592C167.73 73.1408 168.506 72.4636 169.044 71.6106C169.054 71.5955 169.063 71.5804 169.073 71.5651C169.477 70.9056 169.751 70.1749 169.881 69.4126C169.978 68.8546 170.026 68.289 170.022 67.7227C170.026 67.1728 169.985 66.6235 169.899 66.0801C169.805 65.4688 169.619 64.8761 169.348 64.322C169.489 64.1038 169.582 63.9155 169.64 63.7901C169.788 63.4686 169.872 63.1838 169.919 62.9997C170.013 62.6326 170.055 62.2939 170.078 62.0682C170.124 61.5949 170.134 61.0748 170.13 60.6015C170.123 59.6261 170.055 58.4355 169.957 57.2923C169.858 56.1491 169.721 54.9583 169.558 53.9844C169.479 53.5102 169.38 52.9958 169.252 52.5332C169.19 52.31 169.094 51.9927 168.947 51.6584C168.945 51.6537 168.942 51.648 168.94 51.6416C168.887 51.5201 168.703 51.0966 168.326 50.6272C168.351 50.2961 168.342 49.9941 168.33 49.7789C168.304 49.3291 168.239 48.8415 168.164 48.3821C168.01 47.4438 167.757 46.3028 167.438 45.1754C167.125 44.0694 166.707 42.8258 166.185 41.7487C165.927 41.2156 165.582 40.5952 165.131 40.0239C164.771 39.5686 164.059 38.7774 162.935 38.3155C162.884 37.4908 162.746 36.6347 162.552 35.7509C161.445 30.7082 157.614 25.9872 152.655 23.2686C152.464 23.164 152.274 23.0681 152.085 22.9803ZM150.901 26.9029C150.84 26.8686 150.779 26.8347 150.718 26.8012C149.059 25.892 147.755 26.2288 146.955 26.6677C146.383 26.9818 146.07 27.3481 146.07 27.3481C146.07 27.3481 145.171 28.2868 144.098 29.4161C143.293 30.2643 142.389 31.22 141.695 31.9662C140.969 32.638 140.523 33.3069 140.268 33.9412C139.407 36.0815 140.724 37.829 140.837 37.9723C140.841 37.9786 140.844 37.9818 140.844 37.9818C141.502 39.1409 142.472 40.3668 143.488 41.5396L143.489 41.5398C144.098 42.2429 144.723 42.9268 145.308 43.5658L145.308 43.5662C145.39 43.6554 145.47 43.7437 145.55 43.8311C145.73 44.0275 145.904 44.2191 146.072 44.4051C146.133 44.4725 146.193 44.5391 146.252 44.605C146.968 45.4049 147.95 45.565 148.69 45.5465C148.702 45.5462 148.714 45.5458 148.725 45.5455C149.317 45.5261 149.746 45.395 149.746 45.395L152.48 43.967L148.956 38.1641L147.163 39.2881C147.1 39.331 147.039 39.3708 146.98 39.4078C146.837 39.4983 146.708 39.5714 146.593 39.6295C146.523 39.6647 146.457 39.6943 146.396 39.7189C146.331 39.745 146.271 39.7655 146.214 39.781C145.784 39.8998 145.593 39.7254 145.385 39.5349C145.351 39.5034 145.316 39.4713 145.28 39.4401C144.247 38.559 145.249 38.0121 145.249 38.0121C145.249 38.0121 145.366 37.9153 145.568 37.7481C145.667 37.6655 145.787 37.5658 145.925 37.452C145.944 37.4364 145.963 37.4206 145.982 37.4044C146.196 37.2271 146.448 37.0189 146.724 36.7908C146.964 36.5927 147.222 36.3796 147.49 36.1586C147.535 36.121 147.581 36.0832 147.627 36.0452C148.077 35.6748 148.549 35.2861 149.007 34.9114C149.293 34.6771 149.573 34.4484 149.837 34.2331C149.872 34.2047 149.907 34.1765 149.941 34.1486C150.679 33.5484 151.283 33.0646 151.538 32.8777C151.656 32.7913 151.763 32.7196 151.862 32.6622C151.906 32.6369 151.948 32.6143 151.989 32.5945C152.271 32.4578 152.489 32.4513 152.717 32.5622L152.718 32.5625C152.961 32.681 153.217 32.9331 153.574 33.303C154.424 34.184 153.635 34.5486 153.635 34.5486L150.748 36.9792L154.911 43.1467C154.911 43.1467 155.55 42.8928 156.249 42.5436C156.758 42.2888 157.299 41.9832 157.645 41.6883C157.677 41.6608 157.71 41.6333 157.743 41.6058C158.354 41.0909 159.005 40.5415 158.921 38.6946C158.895 38.1331 158.801 37.4516 158.617 36.6146C158.469 35.9373 158.249 35.257 157.965 34.5837C157.457 33.3809 156.743 32.2002 155.857 31.0985C155.12 30.1818 154.265 29.3197 153.31 28.5449C152.564 27.939 151.758 27.3864 150.901 26.9029ZM164.423 65.3839C164.413 65.3842 164.403 65.3846 164.393 65.3851C164.391 65.3852 164.389 65.3853 164.387 65.3854C164.379 65.3851 164.371 65.385 164.363 65.3848C164.361 65.3848 164.358 65.3848 164.356 65.3847C164.323 65.3843 164.29 65.3849 164.257 65.3865C164.24 65.3873 164.222 65.3884 164.205 65.3897C164.114 65.3968 164.023 65.4114 163.934 65.4333C163.861 65.4514 163.788 65.4745 163.718 65.5025C163.712 65.5047 163.707 65.507 163.701 65.5093C163.678 65.5185 163.656 65.5283 163.634 65.5385C163.588 65.561 163.544 65.5862 163.502 65.6139C163.487 65.6234 163.473 65.6333 163.459 65.6435C163.447 65.6524 163.434 65.6616 163.422 65.671C163.338 65.7366 163.262 65.8131 163.197 65.8985C163.176 65.9262 163.156 65.9548 163.137 65.9843C163.079 66.078 163.03 66.176 162.988 66.2773C162.978 66.3026 162.968 66.3282 162.959 66.3539C162.957 66.3596 162.955 66.3653 162.953 66.371C162.94 66.4057 162.929 66.4408 162.919 66.4761C162.914 66.4939 162.909 66.5117 162.904 66.5295C162.9 66.5461 162.895 66.5627 162.891 66.5794C162.881 66.6242 162.872 66.6693 162.864 66.7148C162.853 66.7796 162.842 66.8446 162.833 66.9097C162.832 66.9164 162.831 66.9231 162.83 66.9297C162.829 66.9386 162.828 66.9476 162.827 66.9565C162.823 66.9838 162.82 67.0112 162.817 67.0386C162.816 67.0443 162.815 67.0499 162.815 67.0555C162.811 67.092 162.807 67.1285 162.804 67.165C162.803 67.1757 162.802 67.1864 162.801 67.1971C162.795 67.2594 162.791 67.3217 162.788 67.3841C162.783 67.4668 162.781 67.5497 162.781 67.6326C162.781 67.6406 162.781 67.6487 162.781 67.6568C162.781 67.6671 162.781 67.6775 162.781 67.6878C162.781 67.6898 162.781 67.6917 162.781 67.6937C162.781 67.699 162.781 67.7043 162.781 67.7096C162.781 67.7134 162.781 67.7172 162.781 67.721L162.781 67.7215L162.781 67.7224C162.781 67.7339 162.781 67.7454 162.781 67.7568C162.78 67.8061 162.781 67.8554 162.782 67.9047C162.782 67.9199 162.782 67.9351 162.783 67.9504C162.784 67.9838 162.785 68.0172 162.786 68.0506C162.788 68.0814 162.789 68.1122 162.791 68.1429C162.792 68.1538 162.793 68.1647 162.793 68.1755C162.794 68.1878 162.795 68.2 162.796 68.2122C162.8 68.2707 162.805 68.3292 162.811 68.3875L162.811 68.3881C162.811 68.3933 162.812 68.3984 162.812 68.4036C162.815 68.4323 162.818 68.461 162.822 68.4897C162.823 68.4969 162.823 68.5041 162.824 68.5114C162.825 68.518 162.826 68.5246 162.827 68.5312C162.832 68.5706 162.837 68.61 162.843 68.6494C162.844 68.6601 162.846 68.6709 162.847 68.6816C162.85 68.7018 162.853 68.722 162.857 68.7421C162.859 68.7604 162.862 68.7787 162.865 68.7968C162.866 68.7974 162.866 68.798 162.866 68.7986C162.867 68.806 162.868 68.8134 162.87 68.8208C162.872 68.8334 162.875 68.8459 162.877 68.8584C162.887 68.906 162.899 68.9531 162.912 68.9998C162.915 69.0115 162.918 69.0231 162.922 69.0348C162.926 69.0481 162.93 69.0614 162.934 69.0747C162.936 69.0809 162.938 69.087 162.94 69.0932C162.947 69.1131 162.954 69.1329 162.961 69.1527C163.003 69.2648 163.054 69.3733 163.114 69.477C163.139 69.5181 163.167 69.5572 163.197 69.5943C163.257 69.6683 163.326 69.734 163.403 69.7896C163.416 69.7995 163.43 69.8091 163.444 69.8184C163.496 69.852 163.55 69.8814 163.607 69.906C163.63 69.9153 163.654 69.9241 163.678 69.9325C163.691 69.9371 163.705 69.9416 163.718 69.9459C163.79 69.9693 163.864 69.9883 163.939 70.0026C164.028 70.0198 164.119 70.0305 164.21 70.0345C164.26 70.0367 164.31 70.0369 164.36 70.035C164.369 70.0347 164.378 70.0343 164.387 70.0338C164.389 70.0339 164.39 70.0339 164.392 70.0339C164.402 70.0342 164.412 70.0344 164.422 70.0345C164.619 70.0365 164.814 70.0065 165.001 69.9459C165.048 69.9304 165.095 69.913 165.141 69.8936C165.171 69.8801 165.2 69.8654 165.228 69.8496C165.345 69.7838 165.45 69.6981 165.537 69.5966C165.574 69.5538 165.607 69.5083 165.638 69.4603C165.698 69.362 165.749 69.2591 165.792 69.1527C165.797 69.1413 165.801 69.1298 165.805 69.1184C165.807 69.1154 165.808 69.1125 165.809 69.1095C165.839 69.028 165.865 68.9445 165.884 68.8595C165.894 68.8164 165.903 68.773 165.91 68.7293C165.926 68.6407 165.94 68.5518 165.951 68.4626C165.967 68.5552 165.98 68.6485 165.99 68.7424L166.021 68.7476C166.112 68.6675 166.198 68.5814 166.279 68.4899L165.979 68.1872C165.983 68.129 165.987 68.0707 165.989 68.0124L166.379 68.3683C166.409 68.3302 166.438 68.2912 166.466 68.2514C166.468 68.2491 166.469 68.2468 166.471 68.2446C166.479 68.2327 166.487 68.2208 166.495 68.2088C166.496 68.2083 166.496 68.2078 166.496 68.2072C166.502 68.1987 166.508 68.1902 166.513 68.1816C166.519 68.173 166.525 68.1643 166.53 68.1556C166.532 68.153 166.534 68.1503 166.535 68.1477L165.994 67.8031C165.994 67.8012 165.994 67.7993 165.994 67.7973C165.994 67.7829 165.994 67.7685 165.994 67.7542C165.994 67.7477 165.994 67.7413 165.994 67.7349C165.994 67.7312 165.994 67.7275 165.994 67.7238L165.996 67.7225L166.555 67.382C166.552 67.3775 166.55 67.3731 166.547 67.3686C166.537 67.3532 166.528 67.3378 166.518 67.3226C166.502 67.2979 166.486 67.2735 166.469 67.2494C166.466 67.2442 166.462 67.2389 166.459 67.2337C166.449 67.2191 166.438 67.2047 166.428 67.1903L166.427 67.1895C166.404 67.1575 166.381 67.1261 166.356 67.0952L165.99 67.4296C165.988 67.3758 165.985 67.322 165.982 67.2682C165.981 67.2594 165.98 67.2505 165.98 67.2417L166.25 66.9672C166.168 66.8743 166.081 66.7867 165.988 66.7049C165.979 66.7895 165.968 66.8734 165.953 66.9563C165.943 66.8702 165.932 66.7842 165.918 66.6985C165.915 66.6777 165.911 66.657 165.908 66.6364C165.889 66.532 165.862 66.4293 165.827 66.3293C165.826 66.3263 165.825 66.3232 165.824 66.3202C165.821 66.3101 165.817 66.3001 165.814 66.2901C165.812 66.2858 165.81 66.2815 165.809 66.2773C165.768 66.169 165.719 66.0641 165.66 65.9636C165.626 65.907 165.588 65.8537 165.545 65.8043C165.461 65.7087 165.362 65.6276 165.252 65.5648C165.224 65.5494 165.196 65.535 165.168 65.5218C165.152 65.5151 165.136 65.5087 165.12 65.5025C164.898 65.4167 164.661 65.3763 164.423 65.3839ZM163.963 68.9818C163.965 68.9851 163.966 68.9885 163.968 68.9918C163.974 69.0043 163.98 69.0167 163.987 69.0288C164.011 69.0728 164.04 69.1144 164.073 69.1527C164.077 69.1573 164.082 69.1619 164.086 69.1665C164.125 69.2055 164.173 69.2358 164.224 69.2557C164.231 69.2583 164.238 69.2607 164.245 69.263C164.253 69.2654 164.26 69.2677 164.268 69.2696C164.295 69.2764 164.321 69.2805 164.349 69.2818C164.354 69.2821 164.36 69.2822 164.365 69.2823C164.373 69.2823 164.38 69.2822 164.387 69.2819C164.395 69.2818 164.402 69.2816 164.41 69.2812C164.472 69.2777 164.533 69.2612 164.588 69.2332C164.617 69.2182 164.645 69.1999 164.671 69.1785C164.681 69.1703 164.69 69.1616 164.7 69.1527C164.725 69.1276 164.747 69.0997 164.766 69.0696C164.772 69.0599 164.778 69.0499 164.783 69.0397C164.796 69.0133 164.808 68.9854 164.816 68.9566C164.816 68.955 164.817 68.9534 164.817 68.9518C164.818 68.9491 164.819 68.9464 164.819 68.9437C164.821 68.9354 164.823 68.9271 164.825 68.9187C164.841 68.8399 164.855 68.7609 164.868 68.6816C164.872 68.6606 164.875 68.6395 164.878 68.6184C164.879 68.6116 164.88 68.6048 164.881 68.598C164.883 68.5851 164.885 68.5723 164.887 68.5594C164.887 68.5555 164.888 68.5516 164.888 68.5477C164.893 68.5124 164.898 68.477 164.902 68.4415C164.902 68.4389 164.903 68.4362 164.903 68.4336C164.904 68.4288 164.904 68.4241 164.905 68.4193C164.905 68.4179 164.905 68.4165 164.905 68.415C164.907 68.4048 164.908 68.3946 164.909 68.3843C164.911 68.3641 164.913 68.3438 164.915 68.3235L164.915 68.3225C164.916 68.318 164.916 68.3136 164.917 68.3091C164.917 68.3035 164.918 68.2979 164.918 68.2922C164.923 68.2486 164.926 68.2049 164.929 68.1612C164.932 68.1203 164.935 68.0794 164.937 68.0385C164.942 67.9403 164.945 67.8421 164.946 67.7438C164.946 67.7404 164.946 67.737 164.946 67.7337C164.946 67.7294 164.946 67.7252 164.946 67.721V67.7205C164.946 67.7174 164.946 67.7142 164.946 67.7111C164.946 67.7072 164.946 67.7032 164.946 67.6993C164.945 67.5974 164.942 67.4956 164.937 67.3938C164.936 67.3778 164.935 67.3617 164.934 67.3457C164.93 67.2808 164.925 67.216 164.918 67.1512C164.918 67.1453 164.917 67.1394 164.917 67.1334C164.916 67.1277 164.916 67.122 164.915 67.1162C164.915 67.1152 164.915 67.1141 164.915 67.113C164.913 67.1014 164.912 67.0898 164.911 67.0782C164.911 67.0758 164.91 67.0733 164.91 67.0709C164.91 67.0656 164.909 67.0602 164.908 67.0549C164.907 67.0444 164.906 67.0339 164.905 67.0234C164.901 66.9942 164.898 66.965 164.894 66.9358C164.891 66.9118 164.887 66.8878 164.884 66.8639C164.884 66.8604 164.883 66.857 164.883 66.8536C164.882 66.8505 164.882 66.8474 164.881 66.8443C164.88 66.8378 164.879 66.8314 164.878 66.825C164.873 66.7921 164.868 66.7593 164.863 66.7265C164.851 66.6587 164.839 66.5911 164.825 66.5237C164.822 66.5066 164.817 66.4897 164.812 66.4733C164.81 66.4682 164.809 66.4632 164.807 66.4582C164.802 66.4447 164.797 66.4315 164.791 66.4185C164.785 66.4059 164.778 66.3936 164.771 66.3816L164.77 66.3803C164.748 66.3422 164.72 66.3074 164.687 66.2773C164.682 66.2727 164.676 66.2681 164.671 66.2637C164.621 66.2225 164.564 66.1927 164.502 66.1759C164.478 66.1693 164.453 66.1647 164.428 66.1622C164.414 66.1609 164.401 66.1602 164.387 66.1601C164.381 66.1598 164.374 66.1597 164.368 66.1597C164.366 66.1597 164.365 66.1597 164.364 66.1597C164.36 66.1598 164.357 66.1599 164.354 66.16C164.336 66.1606 164.319 66.1625 164.301 66.1654C164.287 66.1678 164.273 66.171 164.259 66.1749C164.254 66.1765 164.248 66.1783 164.242 66.1801C164.236 66.1821 164.23 66.1843 164.224 66.1866C164.213 66.1911 164.201 66.1962 164.19 66.2019C164.151 66.2209 164.116 66.246 164.086 66.2762L164.085 66.2773C164.066 66.2984 164.048 66.3205 164.031 66.3435C164.026 66.3513 164.02 66.3592 164.015 66.3672C164.002 66.3866 163.991 66.4067 163.98 66.4272C163.97 66.4458 163.961 66.4649 163.953 66.4843C163.951 66.4894 163.949 66.4946 163.947 66.4997C163.934 66.5316 163.924 66.5645 163.916 66.5981C163.907 66.6334 163.899 66.6689 163.891 66.7046C163.891 66.7078 163.89 66.7109 163.889 66.7141C163.88 66.7608 163.872 66.8078 163.865 66.855C163.864 66.8636 163.863 66.8722 163.862 66.8808C163.861 66.8844 163.861 66.8881 163.861 66.8917C163.857 66.9214 163.854 66.9511 163.851 66.9809C163.85 66.99 163.85 66.9992 163.849 67.0084C163.849 67.0101 163.849 67.0119 163.849 67.0136C163.848 67.019 163.848 67.0243 163.848 67.0297C163.847 67.0373 163.847 67.0449 163.846 67.0525L163.846 67.0535C163.845 67.0669 163.845 67.0803 163.844 67.0937C163.841 67.1504 163.839 67.2086 163.837 67.2682C163.834 67.3333 163.832 67.4 163.831 67.4685C163.831 67.4764 163.831 67.4843 163.831 67.4922C163.83 67.5595 163.829 67.6285 163.829 67.6991C163.829 67.7031 163.829 67.7072 163.829 67.7112C163.829 67.7145 163.829 67.7178 163.829 67.721C163.829 67.7249 163.829 67.7289 163.829 67.7328C163.829 67.7371 163.829 67.7413 163.829 67.7456C163.829 67.7937 163.829 67.8411 163.83 67.8877C163.831 67.9862 163.833 68.0813 163.837 68.1731C163.838 68.2257 163.841 68.2772 163.843 68.3275C163.844 68.3347 163.844 68.3419 163.844 68.349C163.844 68.3532 163.845 68.3574 163.845 68.3616L163.845 68.3624C163.845 68.3704 163.846 68.3785 163.846 68.3866L163.846 68.3873C163.85 68.4522 163.856 68.5169 163.864 68.5812C163.865 68.5854 163.866 68.5896 163.866 68.5938C163.867 68.5995 163.868 68.6052 163.869 68.6109C163.872 68.6345 163.876 68.6581 163.88 68.6816C163.883 68.6972 163.886 68.7127 163.889 68.7282C163.89 68.7314 163.891 68.7345 163.891 68.7377C163.897 68.7655 163.903 68.7932 163.91 68.8208C163.912 68.8287 163.914 68.8365 163.916 68.8443C163.916 68.8458 163.917 68.8473 163.917 68.8488C163.919 68.8572 163.921 68.8655 163.923 68.8738C163.924 68.8765 163.925 68.8792 163.926 68.8818C163.927 68.8871 163.929 68.8924 163.931 68.8977C163.938 68.9204 163.946 68.9428 163.956 68.9647C163.958 68.9704 163.961 68.9761 163.963 68.9818ZM166.724 67.7146C166.72 67.7032 166.715 67.6918 166.71 67.6804C166.677 67.6004 166.638 67.5226 166.594 67.4474L166.127 67.7199L166.125 67.721H166.126L166.724 67.7146ZM166.12 67.7238L166.046 67.7669L166.572 68.0891C166.636 67.9848 166.69 67.8751 166.733 67.7614C166.735 67.7576 166.736 67.7538 166.738 67.7499C166.735 67.7434 166.733 67.7369 166.73 67.7304L166.12 67.7238ZM165.992 68.7719C166.001 68.7642 166.01 68.7565 166.019 68.7487L165.99 68.7434C165.991 68.7529 165.992 68.7624 165.992 68.7719ZM161.982 69.3377V69.1527C161.949 69.1579 161.914 69.1617 161.877 69.1644C161.874 69.1647 161.871 69.1649 161.868 69.1651C161.841 69.167 161.813 69.1683 161.786 69.1689C161.773 69.1692 161.76 69.1694 161.747 69.1694C161.694 69.1771 161.64 69.1719 161.589 69.1542L161.588 69.1538C161.587 69.1534 161.586 69.153 161.585 69.1527C161.584 69.1524 161.583 69.1521 161.583 69.1519C161.537 69.1348 161.496 69.1079 161.461 69.0731C161.457 69.0681 161.452 69.0629 161.447 69.0576C161.44 69.0439 161.434 69.03 161.428 69.0159C161.422 69.0017 161.417 68.9873 161.412 68.9728C161.41 68.967 161.408 68.9612 161.406 68.9553C161.401 68.9384 161.396 68.9214 161.392 68.9042C161.39 68.8949 161.388 68.8855 161.386 68.876C161.385 68.8712 161.384 68.8663 161.383 68.8614C161.382 68.853 161.381 68.8447 161.38 68.8363C161.379 68.8312 161.378 68.826 161.378 68.8208C161.377 68.8156 161.377 68.8104 161.376 68.8051C161.376 68.8017 161.375 68.7984 161.375 68.795C161.372 68.7574 161.372 68.7195 161.375 68.6816V66.2773H161.982V65.5025H161.375V64.2379H160.327V65.5025H159.796V66.2773L159.841 66.2773M159.168 66.0747V65.5025H158.561V64.2379H157.513V65.5025H156.982V66.2773H157.513V68.8208C157.512 68.8535 157.512 68.8861 157.513 68.9187C157.513 68.9355 157.514 68.9523 157.514 68.969C157.514 68.9745 157.514 68.98 157.515 68.9854C157.516 69.0412 157.52 69.097 157.524 69.1527C157.531 69.2295 157.54 69.306 157.551 69.3823C157.552 69.3896 157.553 69.397 157.554 69.4043C157.555 69.4085 157.556 69.4127 157.557 69.4169C157.558 69.4256 157.56 69.4343 157.562 69.4429C157.568 69.4725 157.576 69.5018 157.585 69.5305C157.589 69.5424 157.594 69.5542 157.598 69.5659C157.615 69.6103 157.636 69.6532 157.661 69.6941C157.67 69.7104 157.681 69.7263 157.692 69.7419C157.693 69.743 157.693 69.7441 157.694 69.7452C157.704 69.7569 157.713 69.7681 157.724 69.7789C157.735 69.7908 157.747 69.8022 157.76 69.8128C157.816 69.8607 157.882 69.8958 157.953 69.9153C157.965 69.9184 157.976 69.9212 157.988 69.9235C158.031 69.9322 158.074 69.9397 158.117 69.9459C158.123 69.9467 158.128 69.9476 158.134 69.9484C158.243 69.9632 158.354 69.9702 158.464 69.969M158.485 69.9687C158.511 69.9686 158.536 69.9685 158.561 69.9681L158.485 69.9687ZM156.07 66.6367C156.051 66.5322 156.024 66.4295 155.99 66.3294C155.989 66.3263 155.988 66.3232 155.987 66.3202C155.982 66.3058 155.976 66.2915 155.971 66.2773C155.93 66.169 155.881 66.0641 155.822 65.9636C155.816 65.9523 155.809 65.941 155.801 65.93C155.79 65.913 155.779 65.8965 155.767 65.8802C155.748 65.8535 155.727 65.8278 155.706 65.803C155.623 65.7079 155.524 65.6273 155.414 65.5648C155.387 65.5494 155.359 65.535 155.33 65.5218C155.314 65.5151 155.298 65.5087 155.282 65.5025C155.113 65.4369 154.934 65.3979 154.753 65.3865C154.713 65.384 154.673 65.3828 154.632 65.383C154.616 65.3831 154.601 65.3834 154.585 65.3839C154.575 65.3842 154.565 65.3846 154.555 65.3851C154.553 65.3852 154.551 65.3853 154.55 65.3854C154.544 65.3852 154.538 65.3851 154.533 65.385C154.53 65.3849 154.528 65.3849 154.525 65.3848C154.473 65.384 154.42 65.3856 154.368 65.3897C154.277 65.3968 154.186 65.4114 154.097 65.4333C154.023 65.4514 153.951 65.4745 153.88 65.5025C153.851 65.5138 153.823 65.5258 153.796 65.5385C153.735 65.5687 153.676 65.6037 153.622 65.6431C153.609 65.6521 153.597 65.6615 153.584 65.671C153.472 65.7579 153.376 65.8637 153.299 65.9843C153.242 66.078 153.192 66.176 153.151 66.2773C153.14 66.3027 153.13 66.3283 153.121 66.3541C153.119 66.3598 153.117 66.3654 153.115 66.3711C153.091 66.4392 153.071 66.5087 153.054 66.5792C153.045 66.6153 153.038 66.6517 153.031 66.6883C153.029 66.6971 153.028 66.706 153.026 66.7148C153.016 66.7715 153.007 66.8283 152.999 66.8852C152.998 66.8933 152.997 66.9015 152.996 66.9096C152.995 66.9163 152.994 66.923 152.993 66.9297C152.992 66.9387 152.99 66.9476 152.989 66.9565C152.986 66.9845 152.982 67.0125 152.979 67.0406C152.978 67.0455 152.978 67.0505 152.977 67.0554C152.973 67.0917 152.969 67.128 152.966 67.1643C152.965 67.1753 152.964 67.1862 152.963 67.1972C152.95 67.3431 152.944 67.4896 152.943 67.6363C152.943 67.6437 152.943 67.6512 152.943 67.6587C152.943 67.6684 152.943 67.6781 152.943 67.6878C152.943 67.6885 152.943 67.6892 152.943 67.6899C152.943 67.6959 152.943 67.7019 152.943 67.7079C152.943 67.7122 152.943 67.7167 152.943 67.721L152.943 67.7224C152.943 67.7339 152.943 67.7454 152.943 67.7568C152.942 67.8966 152.946 68.0362 152.955 68.1755C152.956 68.1874 152.957 68.1993 152.958 68.2112C152.962 68.2701 152.967 68.3289 152.973 68.3877C152.973 68.3926 152.974 68.3974 152.974 68.4023C152.977 68.4316 152.98 68.4608 152.984 68.4899C152.985 68.4971 152.986 68.5042 152.986 68.5113C152.987 68.5179 152.988 68.5246 152.989 68.5312C152.998 68.6017 153.007 68.672 153.019 68.7421C153.021 68.7603 153.024 68.7784 153.027 68.7965C153.044 68.8909 153.067 68.9839 153.096 69.0747C153.098 69.0808 153.1 69.087 153.102 69.0931C153.147 69.2264 153.205 69.3551 153.276 69.477C153.345 69.5906 153.434 69.6898 153.538 69.7701C153.547 69.7767 153.556 69.7833 153.565 69.7896C153.578 69.7997 153.593 69.8094 153.607 69.8188C153.653 69.849 153.702 69.8757 153.752 69.8986C153.758 69.9011 153.763 69.9036 153.769 69.906C153.799 69.9179 153.829 69.929 153.86 69.9392C153.867 69.9415 153.873 69.9437 153.88 69.9459C153.953 69.9693 154.026 69.9883 154.101 70.0027C154.191 70.0199 154.281 70.0306 154.372 70.0345C154.422 70.0367 154.472 70.0369 154.522 70.035C154.531 70.0347 154.54 70.0343 154.55 70.0338C154.551 70.0339 154.553 70.0339 154.554 70.0339C154.564 70.0342 154.575 70.0344 154.585 70.0345C154.626 70.035 154.668 70.0339 154.71 70.0315C154.864 70.0224 155.016 69.9937 155.163 69.9459C155.192 69.9364 155.221 69.9262 155.249 69.9152C155.267 69.9083 155.285 69.9011 155.303 69.8936C155.333 69.8801 155.362 69.8653 155.39 69.8495C155.477 69.8008 155.556 69.7413 155.627 69.6725C155.639 69.6617 155.65 69.6506 155.66 69.6393C155.673 69.6257 155.686 69.6119 155.698 69.5978C155.735 69.5547 155.769 69.5087 155.8 69.4603C155.8 69.4593 155.801 69.4583 155.801 69.4573C155.861 69.36 155.912 69.2581 155.954 69.1527C155.959 69.1413 155.963 69.1298 155.968 69.1183C155.969 69.1154 155.97 69.1124 155.971 69.1095C156.002 69.0279 156.027 68.9443 156.047 68.8593C156.05 68.8465 156.053 68.8337 156.055 68.8208C156.057 68.8139 156.058 68.807 156.06 68.8001C156.064 68.7766 156.069 68.753 156.073 68.7293C156.076 68.7134 156.078 68.6975 156.081 68.6816C156.081 68.6804 156.081 68.6792 156.082 68.6779C156.092 68.6151 156.102 68.5521 156.11 68.4889C156.115 68.4473 156.12 68.4055 156.125 68.3638C156.126 68.3496 156.128 68.3354 156.129 68.3211C156.131 68.3091 156.132 68.2971 156.133 68.285C156.133 68.2799 156.134 68.2747 156.134 68.2696C156.135 68.2616 156.136 68.2537 156.136 68.2458C156.137 68.2435 156.137 68.2413 156.137 68.239C156.138 68.223 156.14 68.2069 156.141 68.1908C156.145 68.1315 156.149 68.0721 156.151 68.0127C156.152 68.0077 156.152 68.0027 156.152 67.9977C156.155 67.9322 156.156 67.8667 156.156 67.8012C156.156 67.7986 156.156 67.7959 156.156 67.7932C156.156 67.7805 156.156 67.7677 156.156 67.755C156.156 67.7483 156.156 67.7416 156.156 67.7349C156.156 67.7325 156.156 67.7302 156.156 67.7279C156.156 67.7261 156.156 67.7242 156.156 67.7224L156.156 67.7211C156.156 67.7102 156.156 67.6991 156.156 67.6881C156.157 67.6018 156.155 67.5155 156.152 67.4292C156.15 67.3755 156.147 67.3218 156.144 67.2682C156.143 67.2582 156.143 67.2481 156.142 67.2381C156.142 67.2364 156.142 67.2347 156.142 67.2331C156.141 67.2234 156.14 67.2136 156.139 67.2039C156.139 67.1936 156.138 67.1833 156.137 67.1729C156.136 67.156 156.134 67.139 156.133 67.122C156.132 67.1085 156.13 67.0951 156.129 67.0817C156.117 66.9535 156.101 66.8257 156.08 66.6985C156.078 66.6816 156.075 66.6648 156.072 66.648C156.071 66.6442 156.071 66.6405 156.07 66.6367ZM154.027 66.8563C154.026 66.8644 154.025 66.8726 154.024 66.8808C154.023 66.8844 154.023 66.888 154.023 66.8916C154.018 66.9303 154.014 66.9691 154.011 67.008C154.011 67.0107 154.011 67.0134 154.01 67.0162C154.01 67.0207 154.01 67.0252 154.01 67.0297C154.009 67.0362 154.009 67.0427 154.008 67.0492C154.008 67.0499 154.008 67.0505 154.008 67.0512C154.007 67.0654 154.007 67.0795 154.006 67.0937C154.003 67.1505 154.001 67.2086 153.999 67.2683C153.994 67.4044 153.992 67.548 153.991 67.6991C153.991 67.7031 153.991 67.7072 153.991 67.7112C153.991 67.7145 153.991 67.7178 153.991 67.721C153.991 67.725 153.991 67.729 153.991 67.7331C153.991 67.7372 153.991 67.7414 153.991 67.7456C153.992 67.8953 153.994 68.0377 153.999 68.1729C154.001 68.2259 154.003 68.2779 154.005 68.3287C154.006 68.3355 154.006 68.3423 154.006 68.349C154.006 68.3528 154.007 68.3566 154.007 68.3604C154.007 68.361 154.007 68.3617 154.007 68.3623C154.007 68.3702 154.008 68.378 154.008 68.3859C154.008 68.3872 154.008 68.3884 154.008 68.3897C154.012 68.454 154.018 68.518 154.027 68.5817C154.027 68.5858 154.028 68.5899 154.028 68.5939C154.029 68.6 154.03 68.6061 154.031 68.6122C154.037 68.651 154.044 68.6897 154.051 68.7282C154.052 68.7313 154.053 68.7345 154.053 68.7376C154.056 68.749 154.058 68.7603 154.061 68.7716C154.064 68.788 154.068 68.8045 154.072 68.8208C154.074 68.8287 154.076 68.8365 154.078 68.8443C154.088 68.8861 154.101 68.9267 154.118 68.9658C154.12 68.9709 154.122 68.976 154.125 68.981C154.126 68.9846 154.128 68.9881 154.13 68.9917C154.136 69.0041 154.142 69.0164 154.149 69.0285C154.176 69.078 154.209 69.1244 154.248 69.1665C154.287 69.2055 154.335 69.2359 154.387 69.2557C154.394 69.2584 154.401 69.2608 154.408 69.2631C154.416 69.2656 154.423 69.2678 154.431 69.2699C154.457 69.2765 154.484 69.2805 154.511 69.2818C154.516 69.2821 154.522 69.2822 154.528 69.2823C154.535 69.2823 154.542 69.2822 154.55 69.2819C154.554 69.2818 154.558 69.2818 154.561 69.2816C154.565 69.2815 154.569 69.2814 154.572 69.2812C154.634 69.2777 154.695 69.2613 154.75 69.2335C154.751 69.2328 154.752 69.2322 154.753 69.2315C154.782 69.2169 154.808 69.1991 154.833 69.1785C154.871 69.1473 154.903 69.1104 154.928 69.0695C154.934 69.06 154.94 69.0502 154.945 69.0403C154.959 69.0136 154.97 68.9855 154.978 68.9563C154.979 68.9523 154.98 68.9483 154.981 68.9443C154.984 68.9358 154.986 68.9273 154.987 68.9187C154.994 68.8861 155 68.8535 155.006 68.8208C155.008 68.8089 155.011 68.7971 155.013 68.7852C155.019 68.7507 155.025 68.7162 155.031 68.6816C155.034 68.6605 155.037 68.6394 155.04 68.6183C155.041 68.6116 155.042 68.6048 155.043 68.598C155.045 68.5851 155.047 68.5721 155.049 68.559C155.05 68.5553 155.05 68.5515 155.051 68.5477C155.056 68.5125 155.06 68.4772 155.064 68.4419C155.065 68.4382 155.065 68.4345 155.066 68.4308C155.066 68.4269 155.067 68.4229 155.067 68.419C155.067 68.4179 155.067 68.417 155.068 68.4159C155.068 68.413 155.068 68.41 155.069 68.407C155.069 68.4004 155.07 68.3937 155.071 68.3871C155.073 68.3665 155.075 68.3459 155.077 68.3253C155.078 68.324 155.078 68.3227 155.078 68.3214C155.078 68.3173 155.079 68.3131 155.079 68.309C155.08 68.3038 155.08 68.2987 155.081 68.2936C155.085 68.2492 155.089 68.2048 155.092 68.1603C155.095 68.1205 155.097 68.0807 155.099 68.0408C155.105 67.9421 155.107 67.8432 155.108 67.7444C155.108 67.7408 155.108 67.7372 155.108 67.7337C155.108 67.7295 155.108 67.7253 155.108 67.7211C155.108 67.7178 155.108 67.7144 155.108 67.7111C155.108 67.7072 155.108 67.7032 155.108 67.6993C155.108 67.6581 155.107 67.6168 155.106 67.5756C155.105 67.5142 155.102 67.4528 155.099 67.3915C155.094 67.3106 155.088 67.2299 155.081 67.1492C155.08 67.144 155.08 67.1388 155.079 67.1336C155.078 67.1274 155.078 67.1213 155.077 67.1152C155.076 67.1029 155.075 67.0904 155.073 67.0782C155.073 67.0757 155.073 67.0733 155.073 67.0709C155.072 67.0656 155.071 67.0602 155.071 67.0549C155.07 67.0445 155.068 67.0342 155.067 67.0238C155.064 66.9935 155.06 66.9632 155.056 66.9329C155.053 66.9099 155.05 66.8869 155.046 66.8639C155.046 66.8604 155.045 66.8569 155.045 66.8534C155.044 66.8503 155.044 66.8473 155.043 66.8443C155.043 66.8379 155.042 66.8315 155.041 66.825C155.036 66.7916 155.03 66.7583 155.025 66.7249C155.021 66.7045 155.018 66.6841 155.014 66.6637C155.006 66.6169 154.997 66.5703 154.987 66.5237C154.984 66.5062 154.979 66.489 154.974 66.4722C154.973 66.4678 154.971 66.4634 154.97 66.459C154.965 66.4453 154.959 66.4318 154.953 66.4187C154.947 66.4061 154.941 66.3938 154.934 66.3818C154.911 66.3431 154.882 66.3078 154.849 66.2773C154.844 66.2727 154.839 66.2682 154.833 66.2638C154.808 66.2431 154.782 66.2253 154.753 66.2106C154.725 66.1959 154.695 66.1843 154.665 66.176C154.64 66.1693 154.615 66.1647 154.59 66.1622C154.589 66.1621 154.587 66.162 154.586 66.1619C154.574 66.1608 154.562 66.1602 154.55 66.1601C154.544 66.1599 154.539 66.1598 154.534 66.1597C154.533 66.1597 154.532 66.1597 154.53 66.1597C154.529 66.1597 154.527 66.1597 154.526 66.1597C154.485 66.1603 154.444 66.1671 154.405 66.18C154.399 66.182 154.393 66.1842 154.387 66.1866C154.375 66.1911 154.363 66.1961 154.352 66.2017C154.314 66.2208 154.278 66.2459 154.248 66.2762L154.247 66.2773C154.228 66.2983 154.21 66.3203 154.193 66.3433C154.188 66.3513 154.182 66.3593 154.177 66.3675C154.153 66.4044 154.132 66.4434 154.115 66.4841C154.113 66.4891 154.111 66.4941 154.109 66.4991C154.096 66.5312 154.086 66.5643 154.078 66.5981C154.071 66.624 154.065 66.6501 154.059 66.6763C154.057 66.6857 154.055 66.6952 154.053 66.7047C154.053 66.7078 154.052 66.711 154.051 66.7142C154.042 66.7613 154.034 66.8087 154.027 66.8563ZM151.773 69.9459H150.725V64.0556H151.773V69.9459ZM161.86 69.9473C161.881 69.9468 161.902 69.9464 161.923 69.9462L161.924 69.9462C161.941 69.946 161.958 69.9459 161.975 69.9459C161.977 69.9459 161.98 69.9459 161.982 69.9459V69.3377M160.399 69.5305C160.386 69.4894 160.375 69.4472 160.368 69.4042C160.367 69.3969 160.366 69.3896 160.365 69.3823C160.353 69.306 160.344 69.2294 160.338 69.1527C160.338 69.1499 160.338 69.1471 160.338 69.1444C160.337 69.1338 160.336 69.1233 160.335 69.1127C160.333 69.0767 160.331 69.0407 160.329 69.0047C160.329 68.9909 160.328 68.9771 160.328 68.9633C160.328 68.9495 160.327 68.9358 160.327 68.9221C160.327 68.9017 160.327 68.8813 160.327 68.8609C160.327 68.8476 160.327 68.8342 160.327 68.8208V66.2773H159.878M158.854 66.2773L159.168 66.2773V66.0747M158.564 68.8208C158.563 68.8123 158.562 68.8037 158.561 68.7951L158.564 68.8208ZM158.614 69.0161C158.59 68.9582 158.574 68.8976 158.565 68.8358C158.565 68.8308 158.564 68.8258 158.564 68.8208M158.774 69.1538L158.775 69.1541C158.799 69.1624 158.823 69.1679 158.848 69.1707C158.876 69.1739 158.904 69.1735 158.933 69.1694C158.943 69.1694 158.954 69.1693 158.964 69.1691C158.987 69.1687 159.009 69.1678 159.032 69.1665C159.039 69.1661 159.047 69.1656 159.054 69.1651C159.095 69.1622 159.133 69.1583 159.168 69.1527V69.9459C159.148 69.9459 159.129 69.946 159.109 69.9462C159.088 69.9465 159.067 69.9468 159.046 69.9473C159.029 69.9477 159.012 69.9482 158.995 69.9488C158.974 69.9495 158.954 69.9503 158.933 69.9513C158.916 69.9521 158.898 69.953 158.881 69.954C158.864 69.955 158.847 69.9561 158.83 69.9573C158.745 69.9632 158.655 69.9668 158.561 69.9681M161.375 69.9681C161.469 69.9668 161.558 69.9632 161.644 69.9573C161.678 69.9549 161.712 69.9529 161.747 69.9513C161.784 69.9495 161.822 69.9482 161.86 69.9473M160.86 69.9345C160.84 69.9311 160.821 69.9274 160.802 69.9235C160.717 69.9066 160.638 69.8682 160.573 69.8125C160.548 69.7914 160.526 69.7678 160.505 69.7419C160.5 69.7342 160.495 69.7263 160.49 69.7184C160.477 69.6985 160.465 69.678 160.453 69.6571C160.438 69.6275 160.424 69.5971 160.412 69.5659C160.407 69.5542 160.403 69.5424 160.399 69.5305M158.633 69.0576C158.638 69.063 158.643 69.0682 158.648 69.0733C158.682 69.1079 158.723 69.1348 158.769 69.1518C158.769 69.1521 158.77 69.1524 158.771 69.1527C158.772 69.153 158.773 69.1534 158.774 69.1538M161.375 69.9681C161.35 69.9684 161.325 69.9686 161.299 69.9687L161.375 69.9681ZM160.931 69.9459C160.907 69.9425 160.883 69.9387 160.86 69.9345L160.931 69.9459ZM160.931 69.9459C161.046 69.9625 161.162 69.9702 161.278 69.969C161.285 69.9689 161.292 69.9688 161.299 69.9687M158.633 69.0576C158.626 69.0439 158.62 69.0301 158.614 69.0161L158.633 69.0576ZM158.561 68.7948C158.558 68.7573 158.558 68.7194 158.561 68.6816V68.7948ZM158.71 66.2773L158.713 66.2773L158.71 66.2773ZM158.852 66.2773L158.854 66.2773L158.852 66.2773Z" fill="white"/>
<path d="M157.251 93.2896C162.124 93.2896 166.074 89.3391 166.074 84.466C166.074 79.5929 162.124 75.6425 157.251 75.6425C152.377 75.6425 148.427 79.5929 148.427 84.466C148.427 89.3391 152.377 93.2896 157.251 93.2896Z" fill="url(#paint0_radial)"/>
<path d="M148.893 111.132C154.89 111.132 159.753 106.27 159.753 100.272C159.753 94.2746 154.89 89.4125 148.893 89.4125C142.895 89.4125 138.033 94.2746 138.033 100.272C138.033 106.27 142.895 111.132 148.893 111.132Z" fill="url(#paint1_radial)"/>
<path d="M123.402 127C133.739 127 142.119 118.62 142.119 108.284C142.119 97.9472 133.739 89.5678 123.402 89.5678C113.066 89.5678 104.686 97.9472 104.686 108.284C104.686 118.62 113.066 127 123.402 127Z" fill="url(#paint2_radial)"/>
<path d="M86.9907 120.886C100.596 120.886 111.626 109.856 111.626 96.2504C111.626 82.6448 100.596 71.6152 86.9907 71.6152C73.3851 71.6152 62.3555 82.6448 62.3555 96.2504C62.3555 109.856 73.3851 120.886 86.9907 120.886Z" fill="url(#paint3_radial)"/>
<path d="M81.8896 86.7326C98.9494 86.7326 112.779 72.9029 112.779 55.843C112.779 38.7832 98.9494 24.9534 81.8896 24.9534C64.8297 24.9534 51 38.7832 51 55.843C51 72.9029 64.8297 86.7326 81.8896 86.7326Z" fill="url(#paint4_radial)"/>
<path d="M111.892 100.208C132.242 100.208 148.738 83.7111 148.738 63.3616C148.738 43.0121 132.242 26.5156 111.892 26.5156C91.5427 26.5156 75.0461 43.0121 75.0461 63.3616C75.0461 83.7111 91.5427 100.208 111.892 100.208Z" fill="url(#paint5_radial)"/>
<path d="M93.6611 29.9913L98.7348 27.5911L95.5447 18.5677L101.165 26.7405L105.054 25.9202L105.844 15.9549L107.302 25.677L112.346 25.3429L112.315 10C112.315 10 104.811 10.0607 101.53 11.5495L101.408 18.3854C101.408 18.3854 97.8842 13.7067 97.2765 12.4914C95.5145 12.1875 87.1593 16.1069 86.4302 17.1702L93.6611 29.9913Z" fill="#020202"/>
<path d="M132.854 14.3447L131.699 16.9575L135.679 19.2059L130.149 29.7178L135.193 32.8472L142.545 23.1554L146.252 26.0113C146.252 26.0113 147.528 24.6442 148.166 23.915C147.133 21.6059 136.195 14.7093 132.854 14.3447Z" fill="#020202"/>
<path d="M148.956 38.1641L152.48 43.967L149.746 45.395C149.746 45.395 147.558 46.0633 146.252 44.605C144.572 42.7294 142.12 40.23 140.844 37.9818C140.844 37.9818 138.413 35.0043 141.694 31.9662C143.313 30.2264 146.069 27.3481 146.069 27.3481C146.069 27.3481 147.873 25.2416 150.718 26.8012C154.819 29.0496 157.797 32.8777 158.617 36.6146C159.438 40.3516 158.465 40.9894 157.645 41.6883C156.825 42.3872 154.911 43.1467 154.911 43.1467L150.748 36.9792L153.635 34.5486C153.635 34.5486 154.424 34.184 153.574 33.303C152.723 32.422 152.45 32.2094 151.538 32.8777C150.627 33.546 145.249 38.0121 145.249 38.0121C145.249 38.0121 144.247 38.559 145.279 39.4401C145.656 39.7611 145.857 40.1693 147.163 39.2881L148.956 38.1641Z" fill="#020202"/>
<path d="M161.352 42.0226L147.406 48.2205L149.594 54.1143L155.731 52.5044L156.156 54.783L150.05 56.1502L150.536 62.682C150.536 62.682 165.453 62.5912 165.939 62.1658C166.425 61.7403 165.726 53.5369 165.149 53.1118C164.572 52.6866 159.468 54.0841 159.468 54.0841L159.012 51.684C159.012 51.684 163.934 51.0158 164.268 50.4992C164.602 49.9825 163.023 42.5695 161.352 42.0226Z" fill="#020202"/>
<path d="M128.752 12.9471C127.172 11.8231 119.243 10.2127 117.177 10.4559L112.741 25.2517L118.939 25.7074L119.729 23.1858L121.977 23.7631L121.886 26.1936L127.598 28.3811C127.598 28.3811 129.481 14.1927 128.752 12.9471ZM122.688 20.9328L120.184 20.2996L123.013 14.4286L122.688 20.9328Z" fill="#020202"/>
<path d="M151.773 64.0556V69.9459H150.725V64.0556H151.773Z" fill="#020202"/>
<path d="M153.026 66.7148C153.07 66.456 153.162 66.208 153.299 65.9843C153.421 65.7931 153.592 65.6389 153.796 65.5385C154.032 65.4299 154.29 65.3775 154.55 65.3854C154.817 65.3715 155.084 65.4181 155.33 65.5218C155.535 65.6162 155.706 65.7702 155.822 65.9636C155.954 66.1901 156.041 66.4394 156.08 66.6985C156.134 67.037 156.16 67.3796 156.156 67.7224C156.16 68.0599 156.132 68.397 156.073 68.7293C156.03 68.9883 155.937 69.2365 155.8 69.4603C155.68 69.65 155.507 69.8006 155.303 69.8936C155.065 69.9937 154.808 70.0415 154.55 70.0338C154.283 70.0476 154.017 70.004 153.769 69.906C153.564 69.8175 153.392 69.6675 153.276 69.477C153.144 69.2508 153.057 69.0013 153.019 68.7421C152.965 68.4049 152.94 68.0638 152.943 67.7224C152.94 67.3847 152.967 67.0474 153.026 66.7148ZM154.006 68.349C154.013 68.5162 154.037 68.6822 154.078 68.8443C154.106 68.9644 154.165 69.0753 154.248 69.1665C154.287 69.2055 154.335 69.2358 154.387 69.2557C154.439 69.2755 154.494 69.2845 154.55 69.2819C154.653 69.2812 154.754 69.2447 154.833 69.1785C154.913 69.1123 154.967 69.0205 154.987 68.9187C155.148 68.1285 155.148 67.3139 154.987 66.5236C154.967 66.4218 154.913 66.33 154.833 66.2637C154.754 66.1975 154.653 66.1609 154.55 66.1601C154.494 66.1576 154.438 66.1666 154.387 66.1866C154.335 66.2065 154.287 66.2371 154.248 66.2762C154.165 66.3673 154.106 66.4781 154.078 66.5981C154.037 66.7603 154.013 66.9264 154.006 67.0937C153.996 67.2863 153.991 67.4954 153.991 67.721C153.991 67.9467 153.996 68.1561 154.006 68.349Z" fill="#020202"/>
<path d="M158.561 64.2379V65.5025H159.168V66.2773H158.561V68.6816C158.551 68.8111 158.576 68.941 158.633 69.0576C158.669 69.0998 158.716 69.1322 158.768 69.1518C158.821 69.1713 158.877 69.1774 158.933 69.1693C158.973 69.1693 159.013 69.1679 159.054 69.1651C159.095 69.1622 159.132 69.1583 159.168 69.1526V69.9459C159.052 69.9459 158.939 69.9497 158.83 69.9573C158.722 69.9647 158.607 69.9685 158.485 69.9686C158.318 69.972 158.151 69.9568 157.988 69.9234C157.87 69.9002 157.765 69.8358 157.692 69.7419C157.617 69.6349 157.568 69.5116 157.551 69.3823C157.523 69.1965 157.51 69.0087 157.513 68.8208V66.2773H156.982V65.5025H157.513V64.2379H158.561Z" fill="#020202"/>
<path d="M161.375 64.2379V65.5025H161.982V66.2773H161.375V68.6816C161.365 68.8111 161.39 68.941 161.447 69.0576C161.484 69.0999 161.53 69.1323 161.583 69.1518C161.635 69.1714 161.692 69.1774 161.747 69.1693C161.787 69.1693 161.828 69.1679 161.868 69.1651C161.909 69.1622 161.947 69.1583 161.982 69.1526V69.9459C161.866 69.9459 161.753 69.9497 161.644 69.9573C161.535 69.9648 161.42 69.9685 161.299 69.9687C161.132 69.972 160.965 69.9568 160.802 69.9234C160.684 69.9002 160.579 69.8358 160.505 69.7419C160.431 69.6349 160.382 69.5116 160.365 69.3823C160.337 69.1965 160.324 69.0087 160.327 68.8208V66.2773H159.796V65.5025H160.327V64.2379H161.375Z" fill="#020202"/>
<path d="M162.864 66.7148C162.907 66.456 163 66.208 163.137 65.9843C163.259 65.7931 163.43 65.6389 163.634 65.5385C163.87 65.4299 164.128 65.3774 164.387 65.3854C164.654 65.3715 164.921 65.4181 165.168 65.5218C165.373 65.6163 165.544 65.7702 165.66 65.9636C165.792 66.1902 165.879 66.4395 165.918 66.6985C165.972 67.037 165.997 67.3796 165.994 67.7224C165.997 68.0599 165.969 68.397 165.91 68.7293C165.867 68.9882 165.775 69.2364 165.638 69.4603C165.518 69.6499 165.345 69.8005 165.141 69.8936C164.903 69.9937 164.646 70.0415 164.387 70.0338C164.121 70.0476 163.855 70.004 163.607 69.906C163.402 69.8174 163.23 69.6675 163.114 69.477C162.982 69.2507 162.895 69.0013 162.857 68.7421C162.803 68.405 162.777 68.0639 162.781 67.7224C162.777 67.3847 162.805 67.0474 162.864 66.7148ZM163.844 68.349C163.851 68.5162 163.875 68.6822 163.916 68.8443C163.944 68.9644 164.003 69.0754 164.086 69.1665C164.125 69.2055 164.173 69.2359 164.224 69.2557C164.276 69.2756 164.332 69.2845 164.387 69.2819C164.491 69.2812 164.591 69.2447 164.671 69.1785C164.751 69.1123 164.805 69.0205 164.825 68.9187C164.986 68.1285 164.986 67.3139 164.825 66.5237C164.805 66.4219 164.751 66.33 164.671 66.2637C164.591 66.1975 164.491 66.1609 164.387 66.1601C164.332 66.1576 164.276 66.1666 164.224 66.1866C164.172 66.2065 164.125 66.2371 164.086 66.2762C164.003 66.3673 163.944 66.4781 163.916 66.5981C163.875 66.7603 163.851 66.9264 163.844 67.0937C163.834 67.2863 163.829 67.4954 163.829 67.721C163.829 67.9467 163.834 68.1561 163.844 68.349Z" fill="#020202"/>
<path d="M128.843 69.2256C128.845 71.3839 128.413 73.5206 127.574 75.5089C126.718 77.5445 125.471 79.392 123.903 80.9463C122.261 82.5769 120.304 83.8562 118.152 84.7061C115.793 85.6317 113.276 86.0916 110.742 86.0604C106.84 86.0604 103.479 85.1979 100.661 83.4728C97.9354 81.8489 95.7338 79.4768 94.3174 76.6383C92.9071 73.8061 92.1827 70.6819 92.2025 67.5181C92.2137 64.8091 92.659 62.1195 93.5213 59.5514C94.4586 56.7592 95.7488 54.0982 97.3608 51.6331C99.0616 49.0023 101.028 46.5532 103.23 44.3244C105.596 41.9446 108.166 39.7764 110.91 37.8445L122.464 41.667C120.617 43.2449 119.018 44.6823 117.668 45.9793C116.316 47.2752 115.033 48.6225 113.817 50.021C112.631 51.3791 111.536 52.814 110.54 54.3162C111.559 54.0722 112.605 53.9583 113.653 53.9773C116.305 53.9529 118.918 54.6047 121.248 55.8714C123.549 57.1234 125.462 58.983 126.779 61.2475C128.181 63.6691 128.895 66.4279 128.843 69.2256ZM116.629 69.0234C116.629 66.8686 116.029 65.2807 114.829 64.2596C113.657 63.2485 112.155 62.7031 110.607 62.7272C108.476 62.7272 106.912 63.4065 105.913 64.7652C104.963 65.9836 104.438 67.4788 104.416 69.0234C104.377 70.7166 104.998 72.3586 106.148 73.602C106.679 74.2056 107.334 74.6869 108.069 75.0124C108.804 75.3379 109.601 75.5001 110.405 75.4876C111.665 75.5409 112.908 75.1737 113.938 74.4437C114.826 73.7881 115.528 72.9118 115.973 71.9016C116.389 70.9981 116.613 70.018 116.629 69.0234Z" fill="white"/>
<defs>
<radialGradient id="paint0_radial" cx="0" cy="0" r="1" gradientUnits="userSpaceOnUse" gradientTransform="translate(155.292 81.3334) scale(13.2169)">
<stop offset="0.00562" stop-color="#DFEDC9"/>
<stop offset="0.05022" stop-color="#DBEAB6"/>
<stop offset="0.22586" stop-color="#CCE06E"/>
<stop offset="0.35218" stop-color="#C3D941"/>
<stop offset="0.41573" stop-color="#BFD730"/>
<stop offset="0.94944" stop-color="#50B848"/>
</radialGradient>
<radialGradient id="paint1_radial" cx="0" cy="0" r="1" gradientUnits="userSpaceOnUse" gradientTransform="translate(148.893 100.272) scale(10.8598)">
<stop offset="0.00562" stop-color="#FFF8A3"/>
<stop offset="0.14117" stop-color="#FFF794"/>
<stop offset="0.37079" stop-color="#FFF572"/>
<stop offset="0.62921" stop-color="#FFE75E"/>
<stop offset="1" stop-color="#F1CB00"/>
</radialGradient>
<radialGradient id="paint2_radial" cx="0" cy="0" r="1" gradientUnits="userSpaceOnUse" gradientTransform="translate(121.14 104.737) scale(31.7369)">
<stop offset="0.02247" stop-color="#FFF689"/>
<stop offset="0.1225" stop-color="#FFED73"/>
<stop offset="0.33032" stop-color="#FFD839"/>
<stop offset="0.48315" stop-color="#FFC60B"/>
<stop offset="1" stop-color="#DA974B"/>
</radialGradient>
<radialGradient id="paint3_radial" cx="0" cy="0" r="1" gradientUnits="userSpaceOnUse" gradientTransform="translate(85.9708 91.4008) scale(27.3434)">
<stop stop-color="#F69EAC"/>
<stop offset="0.15286" stop-color="#F48EA2"/>
<stop offset="0.2809" stop-color="#F3869D"/>
<stop offset="0.36061" stop-color="#F27697"/>
<stop offset="0.49153" stop-color="#F1618F"/>
<stop offset="0.57865" stop-color="#F05A8C"/>
<stop offset="0.76887" stop-color="#DA3476"/>
<stop offset="1" stop-color="#BC0058"/>
</radialGradient>
<radialGradient id="paint4_radial" cx="0" cy="0" r="1" gradientUnits="userSpaceOnUse" gradientTransform="translate(78.9301 46.8228) scale(47.5997)">
<stop offset="0.00562" stop-color="#D9C5E0"/>
<stop offset="0.10804" stop-color="#D5BFDD"/>
<stop offset="0.24457" stop-color="#CBAED3"/>
<stop offset="0.38764" stop-color="#BC95C4"/>
<stop offset="0.68539" stop-color="#A46BAD"/>
<stop offset="0.98876" stop-color="#903F98"/>
</radialGradient>
<radialGradient id="paint5_radial" cx="0" cy="0" r="1" gradientUnits="userSpaceOnUse" gradientTransform="translate(110.462 56.3928) scale(40.2692)">
<stop offset="0.02247" stop-color="#94D9F8"/>
<stop offset="0.32584" stop-color="#8ED8F8"/>
<stop offset="0.38036" stop-color="#8AD7F8"/>
<stop offset="0.43515" stop-color="#7ED4F7"/>
<stop offset="0.49009" stop-color="#6AD0F6"/>
<stop offset="0.54517" stop-color="#4DCAF5"/>
<stop offset="0.5998" stop-color="#2AC2F4"/>
<stop offset="0.65169" stop-color="#00B9F2"/>
<stop offset="1" stop-color="#009FDA"/>
</radialGradient>
</defs>
</svg>
