<svg width="217" height="137" viewBox="0 0 217 137" fill="none" xmlns="http://www.w3.org/2000/svg">
<path d="M156.989 21.5232L157.66 34.7442L142.215 28.9516L139.8 105.243L178.01 115.007L205.493 47.5764L186.441 43.7379L192.176 32.875L156.989 21.5232Z" fill="#00995B"/>
<path d="M140.917 104.402L177.36 113.715L203.987 48.3855L184.797 44.5193L190.606 33.5152L158.157 23.0466L158.832 36.349L143.256 30.5069L140.917 104.402ZM178.659 116.3L138.683 106.083L141.175 27.3962L156.487 33.1392L155.821 20L193.746 32.2355L188.086 42.9563L207 46.7669L178.659 116.3V116.3Z" fill="#3A3C95"/>
<path d="M170.709 59.5363V102.53H181.825V38.4232H169.804L145.439 86.5381L171.057 86.7908V75.7122L162.048 75.8998L170.709 59.5363Z" fill="#293577"/>
<path d="M167.782 56.9946V99.9883H178.898V35.881H166.876L142.512 83.9959L168.13 84.2492V73.1705L159.12 73.3582L167.782 56.9946Z" fill="white"/>
<path d="M129.788 96.287L143.883 97.1501L131.918 66.7614L145.897 40.0113L132.099 39.166L122.048 63.1872L121.989 64.1626L121.648 64.1428L121.646 64.1494L121.137 64.1176L118.787 66.2074L119.101 61.069L119.26 61.0788L120.641 38.4646L107.348 37.6499L103.863 94.6993L117.157 95.5131L118.746 69.4959L118.291 67.9723L120.444 68.0971L120.361 69.5239L121.675 69.1301L129.788 96.2871V96.287ZM148.268 100.341L127.581 99.0731L121.168 77.6027L119.885 98.6017L100.78 97.4315L104.62 34.5615L123.725 35.7324L122.588 54.3527L130.212 36.1292L150.56 37.3759L135.115 66.932L148.268 100.341V100.341Z" fill="white"/>
<path d="M129.883 96.287L143.978 97.1501L132.014 66.7614L145.993 40.0113L132.194 39.166L122.143 63.1872L122.084 64.1632L121.743 64.1434L121.741 64.1494L121.234 64.1176L118.896 66.2037L120.736 38.4646L107.443 37.6499L103.959 94.6994L117.252 95.5131L118.841 69.4959L118.386 67.9732L120.539 68.0972L120.457 69.524L121.771 69.1301L129.883 96.2871V96.287ZM148.363 100.341L127.676 99.0731L121.263 77.6027L119.98 98.6017L100.875 97.4315L104.715 34.5615L123.82 35.7324L122.683 54.353L130.308 36.1292L150.655 37.3759L135.212 66.932L148.363 100.341Z" fill="#3A3C95"/>
<path d="M146.129 40.0624L131.746 39.217L121.396 62.1874L119.165 62.6975L120.873 38.5158L106.994 37.7008L103.51 94.7503L117.389 95.564L118.916 70.5486L121.348 69.2646L129.435 96.3379L144.115 97.201L132.151 66.8121L146.129 40.0624Z" fill="#DE0B8C"/>
<path d="M70.7045 101.151L67.0425 41.191L50.843 42.1836L54.505 102.143L70.7045 101.151Z" fill="#DE0B8C"/>
<path d="M52.3851 43.55L55.8696 100.599L69.1631 99.7848L65.6785 42.7352L52.3851 43.55ZM53.1413 103.688L49.3013 40.8177L68.4068 39.6469L72.2467 102.518L53.1413 103.688H53.1413Z" fill="#3A3C95"/>
<path d="M44.4073 104.23L38.826 85.3625C52.4407 81.7386 60.2386 74.4404 55.8102 59.4681C51.3361 44.343 39.5755 43.0118 25.9975 47.0397L11.8091 51.2485L28.8459 108.847L44.4073 104.23V104.23ZM40.0287 63.8997C41.2936 68.1778 39.3243 71.3383 34.9848 72.3758L31.0536 59.0839L32.1747 58.6682C35.9888 57.5369 38.9438 60.2331 40.0287 63.8997" fill="white"/>
<path d="M32.8421 59.9976L35.9586 70.5351C36.9693 70.1559 37.827 69.4537 38.3991 68.5372C39.0497 67.4104 39.1283 65.9893 38.6329 64.3137C37.9969 62.1632 36.4203 59.8653 33.9038 59.8653C33.5459 59.8671 33.1895 59.9115 32.8421 59.9976L32.8421 59.9976ZM33.981 74.1147L29.2711 58.1903L31.7616 57.2704C32.4565 57.0609 33.1781 56.9528 33.9038 56.9496C37.2976 56.9496 40.2498 59.5151 41.4246 63.4855C42.1456 65.9243 41.9709 68.1759 40.9195 69.9969C39.8418 71.8629 37.9065 73.1763 35.3229 73.7941L33.981 74.1147L33.981 74.1147ZM13.6184 52.2323L29.8282 107.035L42.5981 103.247L37.0052 84.3389L38.4522 83.9537C46.3807 81.8437 51.4208 78.7017 53.8604 74.35C55.9893 70.5523 56.1705 65.8196 54.4144 59.8821C51.7602 50.9088 46.293 46.5468 37.7007 46.5468C33.8671 46.6393 30.066 47.276 26.411 48.4377L13.6184 52.2323ZM27.8638 110.658L10 50.265L25.5843 45.6419C29.5056 44.392 33.5864 43.7149 37.7007 43.6313C47.6162 43.6313 54.1789 48.8201 57.2062 59.0542C59.1695 65.693 58.8982 71.3195 56.3992 75.7774C53.7141 80.5673 48.5522 84.0394 40.6416 86.3681L46.2166 105.214L27.8638 110.658V110.658Z" fill="white"/>
<path d="M44.472 104.23L38.8907 85.3625C52.5054 81.7386 60.3032 74.4404 55.8749 59.4681C51.4008 44.343 39.6403 43.0118 26.0622 47.0397L11.8738 51.2485L28.9105 108.847L44.472 104.23V104.23ZM40.0934 63.8997C41.3584 68.1778 39.389 71.3383 35.0496 72.3758L31.1183 59.0839L32.2395 58.6682C36.0538 57.5369 39.0085 60.233 40.0934 63.8997" fill="#DE0B8C"/>
<path d="M32.9066 59.9976L36.0231 70.5351C37.0338 70.1559 37.8916 69.4538 38.4635 68.5372C39.1142 67.4104 39.1928 65.9893 38.6974 64.3137C38.0613 62.1632 36.4847 59.8653 33.9683 59.8653C33.6104 59.8671 33.254 59.9115 32.9066 59.9976L32.9066 59.9976ZM34.0455 74.1147L29.3355 58.1903L31.826 57.2704C32.521 57.0609 33.2425 56.9528 33.9683 56.9496C37.3621 56.9496 40.3143 59.5151 41.4892 63.4855C42.2101 65.9243 42.0355 68.1759 40.984 69.9969C39.9063 71.8629 37.971 73.1763 35.3873 73.7941L34.0455 74.1147L34.0455 74.1147ZM13.683 52.2323L29.8927 107.035L42.6627 103.247L37.0697 84.3389L38.5167 83.9537C46.4452 81.8437 51.4853 78.7017 53.9249 74.35C56.0537 70.5523 56.235 65.8196 54.4789 59.8821C51.8247 50.9088 46.3574 46.5468 37.7652 46.5468C33.9316 46.6393 30.1305 47.276 26.4755 48.4377L13.683 52.2323ZM27.9282 110.658L10.0645 50.265L25.6488 45.6419C29.5701 44.392 33.6509 43.7149 37.7652 43.6313C47.6808 43.6313 54.2433 48.8201 57.2707 59.0542C59.234 65.693 58.9627 71.3195 56.4637 75.7774C53.7785 80.5673 48.6166 84.0394 40.7062 86.3681L46.2812 105.214L27.9282 110.658L27.9282 110.658Z" fill="#3A3C95"/>
<path d="M97.1273 41.092C94.3354 40.6669 91.4882 40.7755 88.7366 41.412C81.0326 43.0518 63.9216 51.3366 69.5126 77.6764C73.78 97.7831 86.9305 105.328 99.9264 102.561C103.234 101.866 106.349 100.452 109.051 98.4193L106.495 81.7779C104.423 84.6619 102.464 86.5456 98.8849 87.3072C90.9473 88.9969 87.0716 80.6997 85.6156 73.8415C84.2427 67.3734 84.3311 57.8254 92.5795 56.0694C95.8481 55.3732 97.9803 56.2228 100.7 57.925L97.1273 41.092Z" fill="white"/>
<path d="M93.9189 42.2884C92.2775 42.2988 90.6418 42.4831 89.0391 42.838C83.6588 44.0451 78.8214 46.9835 75.2663 51.204C70.0616 57.5851 68.6044 66.3898 70.9363 77.3736C74.1633 92.5775 83.078 101.655 94.7836 101.655C96.4106 101.651 98.0327 101.477 99.6235 101.135C102.443 100.55 105.115 99.3964 107.474 97.744L105.552 85.2295C103.852 87.0393 101.624 88.2656 99.1874 88.7338C98.4218 88.8992 97.641 88.9841 96.8578 88.9871C93.9973 88.9871 87.0357 87.5418 84.1915 74.1451C82.4463 65.9209 83.6535 56.4794 92.2767 54.6436C94.3957 54.1417 96.6191 54.3257 98.6271 55.1691L95.9153 42.3958C95.2522 42.3238 94.5858 42.288 93.9189 42.2884ZM94.7836 104.571C81.6021 104.571 71.6224 94.6295 68.0885 77.9794C65.5643 66.0886 67.2206 56.4594 73.0111 49.3598C78.5893 42.5209 86.226 40.4559 88.4337 39.9862C90.2354 39.5884 92.074 39.3828 93.9188 39.3727C95.0743 39.371 96.2279 39.4652 97.3678 39.6543L98.3449 39.8184L102.837 60.9817L99.9285 59.1613C97.4837 57.6315 95.6442 56.9074 92.882 57.4954C84.6722 59.2432 86.3343 70.2168 87.0392 73.5387C87.8389 77.3066 90.3979 86.072 96.8578 86.0714C97.4376 86.0687 98.0155 86.005 98.582 85.8815C101.714 85.2148 103.421 83.5597 105.313 80.9267L107.392 78.0321L110.625 99.0813L109.901 99.6031C107.037 101.758 103.735 103.255 100.229 103.987C98.4391 104.371 96.614 104.567 94.7836 104.571V104.571Z" fill="white"/>
<path d="M97.1273 41.2844C94.3353 40.8599 91.4883 40.9685 88.7366 41.6044C81.0326 43.2443 63.9216 51.5291 69.5126 77.8695C73.78 97.9761 86.9305 105.521 99.9264 102.754C103.234 102.059 106.349 100.645 109.051 98.6122L106.495 81.9708C104.423 84.8554 102.464 86.7386 98.8849 87.5002C90.9473 89.1893 87.0716 80.8921 85.6156 74.0345C84.2427 67.5664 84.3311 58.0179 92.5795 56.2619C95.8481 55.5662 97.9803 56.4159 100.7 58.1175L97.1273 41.2844V41.2844Z" fill="#DE0B8C"/>
<path d="M93.92 42.481C92.2781 42.4915 90.6418 42.6756 89.0385 43.0303C83.6584 44.2376 78.8212 47.1761 75.2663 51.3965C70.0616 57.7777 68.6044 66.5823 70.9363 77.5665C74.1633 92.7703 83.078 101.847 94.783 101.847C96.4102 101.844 98.0326 101.669 99.6235 101.327C102.443 100.743 105.115 99.5891 107.474 97.9368L105.552 85.4223C103.852 87.2321 101.624 88.4584 99.1874 88.9266C98.4219 89.0918 97.6414 89.1767 96.8584 89.1799H96.8572C93.9955 89.1804 87.0357 87.7335 84.1915 74.3379C82.4457 66.1134 83.6535 56.6717 92.2767 54.8359C94.3958 54.3347 96.619 54.5189 98.6271 55.362L95.9152 42.5883C95.2526 42.5164 94.5865 42.4806 93.92 42.481V42.481ZM94.783 104.763C81.6015 104.763 71.6224 94.8229 68.0885 78.1723C65.5643 66.2812 67.2206 56.6517 73.0111 49.5521C78.5893 42.7132 86.226 40.6483 88.4337 40.1785C90.2358 39.7811 92.0748 39.5756 93.92 39.5656C95.0748 39.5639 96.2278 39.6579 97.3672 39.8467L98.3449 40.0105L102.837 61.1732L99.9285 59.3539C97.4831 57.8237 95.6424 57.1003 92.882 57.6877C84.6722 59.4355 86.3343 70.4096 87.0392 73.7316C87.8389 77.4995 90.3979 86.2642 96.8567 86.2642H96.8578C97.4376 86.2613 98.0154 86.1976 98.582 86.0743C101.714 85.4076 103.421 83.7525 105.313 81.1195L107.392 78.2249L110.625 99.2741L109.901 99.7965C107.037 101.951 103.735 103.448 100.229 104.18C98.4388 104.564 96.6136 104.759 94.783 104.763V104.763Z" fill="#3A3C95"/>
</svg>
