<svg xmlns="http://www.w3.org/2000/svg" xmlns:xlink="http://www.w3.org/1999/xlink" viewBox="0 0 136.77 104.5"><defs><style>.cls-1{fill:#fff;}.cls-2{fill:#231f20;}.cls-3{fill:url(#linear-gradient);}.cls-4{fill:#fe369e;}.cls-5{fill:#fefbfd;}.cls-6{fill:url(#linear-gradient-2);}.cls-7{fill:url(#linear-gradient-3);}.cls-8{fill:#a3a4a8;}</style><linearGradient id="linear-gradient" x1="49.64" y1="902.23" x2="49.64" y2="944.66" gradientTransform="matrix(1, 0, 0, -1, 0, 958.98)" gradientUnits="userSpaceOnUse"><stop offset="0" stop-color="#f20673"/><stop offset="1" stop-color="#f36385"/></linearGradient><linearGradient id="linear-gradient-2" x1="128.22" y1="49.78" x2="115.02" y2="36.58" gradientUnits="userSpaceOnUse"><stop offset="0" stop-color="#5da765"/><stop offset="0.4" stop-color="#63a965"/><stop offset="0.91" stop-color="#73b067"/><stop offset="1" stop-color="#76b267"/></linearGradient><linearGradient id="linear-gradient-3" x1="125.55" y1="48.55" x2="97.56" y2="20.57" gradientUnits="userSpaceOnUse"><stop offset="0" stop-color="#5da765"/><stop offset="0.16" stop-color="#63aa65"/><stop offset="0.37" stop-color="#73b167"/><stop offset="0.6" stop-color="#8dbd68"/><stop offset="0.84" stop-color="#b2cd6b"/><stop offset="1" stop-color="#cdda6d"/></linearGradient></defs><g id="Layer_2" data-name="Layer 2"><g id="Layer_1-2" data-name="Layer 1"><path class="cls-1" d="M134.68,78.57a4.7,4.7,0,0,0-.78-.94,3.39,3.39,0,0,1-.2-.53,3.29,3.29,0,0,0,.24-.77l2.55-14.43a3.18,3.18,0,0,0,.06-.62,3.08,3.08,0,0,0-3.08-3.08h-3.9a3.08,3.08,0,0,0-2.12.85,3,3,0,0,0-2.12-.85h-4.14a24.25,24.25,0,0,0-8.66-46.89,24.84,24.84,0,0,0-4.34.39c.26-.61.51-1.19.77-1.76a3.15,3.15,0,0,0-.08-3.12,3.2,3.2,0,0,0-2.83-1.33h-3.83c.06-.16.13-.32.2-.48L103,3.57A2.53,2.53,0,0,0,100.73.05L94.9.07l-5.69,0C86,.09,83.3.06,80.86,0h-.35a7,7,0,0,0-3.64.86,6,6,0,0,0-2.48,3.3,2,2,0,0,1-2.22,1.41H69c-.37,0-.68,0-1,0l-.47,0a3.83,3.83,0,0,0-3.75,2.69c-.33.86-.67,1.72-1,2.56H36.41c1-2,2-4.17,3.37-6.72A2.51,2.51,0,0,0,37.58.31H25.93c-3.23,0-7.49,0-11.85,0h0a3.4,3.4,0,0,0-3.35,2.45l-.05.12,0,.08C8.19,9.29,5.38,16.69,3,24.15s-3,13.35-2,19.08A27.5,27.5,0,0,0,8.05,57.62,8,8,0,0,0,9.28,58.7l-3.69.08a3.07,3.07,0,0,0-2.21,5.14A3,3,0,0,0,2.58,66a3.08,3.08,0,0,0,.87,2.11,3.07,3.07,0,0,0,.09,4.37A3,3,0,0,0,3.5,76c0,.09-.08.18-.12.27A2.2,2.2,0,0,0,3,77.91a6,6,0,0,0,0,1,3,3,0,0,0-2.13.9A3,3,0,0,0,0,81.92l.07,3.34L.33,98.53a3,3,0,0,0,3,2.94H9.9a3,3,0,0,0,2.24-1,3,3,0,0,0,2.07.83h3.08c.24,0,.46,0,.68,0s.65,0,1,0a7.1,7.1,0,0,0,1.92-.24l.39.08a7.92,7.92,0,0,0,1.24.21c.62.06,1.22.06,1.73.06H25l.91,0c.79,0,1.57.11,2.41.18l1.57.13.22,0a6.88,6.88,0,0,0,.88.06,4.73,4.73,0,0,0,1.89-.38h.24l2.57-.15,2.32-.14a2.55,2.55,0,0,0,.68-.12,8.9,8.9,0,0,0,3.29.61,10.69,10.69,0,0,0,2.64-.34,4.27,4.27,0,0,0,1.39.22,6.28,6.28,0,0,0,.82-.06,3,3,0,0,0,2.79,2.67l.55,0c.38,0,.73,0,1.08.08s.64.08,1,.12l.5.07a2.56,2.56,0,0,0,.39,0h3.25a3,3,0,0,0,3-2.74v-.1a8.91,8.91,0,0,0,2.51-.58,2.92,2.92,0,0,0,.79.16c2.34.16,4.44.24,6.42.24a64,64,0,0,0,6.63-.33,2.86,2.86,0,0,0,1-.28,10.17,10.17,0,0,0,3.72.73,10.65,10.65,0,0,0,5.12-1.38,7.87,7.87,0,0,0,3.83,1.24c2,.12,4,.21,6,.3l2.08.1h.19a4.25,4.25,0,0,0,.61-.05h.1a3,3,0,0,0,1.73-.76,8.57,8.57,0,0,0,3.24.62,10.8,10.8,0,0,0,1.94-.19,15.12,15.12,0,0,1,1.93-.18h.26c1-.05,2-.08,3.09-.11l1.52-.05a3.1,3.1,0,0,0,1.22-.31,10.56,10.56,0,0,0,4.09.85,11.16,11.16,0,0,0,4.31-.91,2.57,2.57,0,0,0,.4.07l6.51.68.32,0a3,3,0,0,0,3-2.66l.11-1c.08-.64.15-1.26.22-1.88,0-.29.06-.57.08-.86l0-.18.34,0a2,2,0,0,0,.34,0,3,3,0,0,0,3-2.66l.09-.76c.11-1.07.23-2.11.36-3.14a1.19,1.19,0,0,1,.08-.2,3.08,3.08,0,0,0,.2-1.08V85.39a3,3,0,0,0-.18-1A11.87,11.87,0,0,0,134.68,78.57Z"/><path class="cls-2" d="M37.58,2.82C35.77,6.28,34.13,9.57,32.66,13c-2.76,6.29-5.31,12.67-6.48,19.52-1.57,9.2,2.63,20.09,10.87,24.45.05,0,.08.13.21.37H35.94c-7.63,0-15.23,0-22.85,0a4,4,0,0,1-3.22-1.44,25.19,25.19,0,0,1-6.43-13.1c-1.12-6.13,0-12,1.91-17.85,2.32-7.12,5-14.11,7.63-21.1.21-.5.26-1,1.08-1C21.85,2.85,29.58,2.82,37.58,2.82Z"/><circle class="cls-3" cx="49.64" cy="35.53" r="21.21"/><path class="cls-4" d="M130.78,85.17c-1.48-.13-3-.28-4.44-.43l-2.57-.27c-.14.94-.26,1.87-.4,2.87a8,8,0,0,0-11.72-.15c-.1-2.11-.2-4.12-.3-6.24l-6.54.27v3.65a6.17,6.17,0,0,0-6.69,2.82c-.18-.21-.32-.35-.43-.5A5.72,5.72,0,0,0,94.13,85a13,13,0,0,0-7.76.74c.26,1.34.53,2.67.77,3.88l-2,2.42-1.86-.91,3.19-3.28c-2.29-3.79-7.64-4.58-11.54-.76q-.16-3-.32-5.92H63.33c-.07,1.7-.14,3.41-.22,5.26a5,5,0,0,1-.54-.34,6.83,6.83,0,0,0-5-1.29,61,61,0,0,1-6.28-.18c-.08-1.21-.15-2.33-.23-3.58l-6.76.34c0,1.23.11,2.38.17,3.7-.65-.46-.38-1-.41-1.36s0-.86,0-1.4l-6.57-.24-.13,1.71h-.13c-.09-.88-.16-1.76-.25-2.76l-6.47.37V85.3l-9.78-.75V81.67c-.64,0-1.14,0-1.64,0a27,27,0,0,1-3.24,0,2,2,0,0,0-2.27,1.34c-.44.93-1,1.78-1.63,2.75L9.68,82.43a1,1,0,0,0-.86-.58c-1.89,0-3.78,0-5.82,0,.11,5.66.22,11.13.32,16.61H9.9V94.36l.17,0c.22.28.44.55.64.84a1.47,1.47,0,0,0,2.64,0l.65-1,.21,0v4.1h3.06a10.24,10.24,0,0,0,2.83-.08c1-.31,1.78.13,2.66.2,1.11.1,2.23,0,3.34.08,1.35.07,2.69.21,4,.31A2.53,2.53,0,0,0,32,98.58c.24-.16.66-.07,1-.09l4.89-.29c0-.35.07-.64.11-1C40.15,99,42.54,99,45,98.1c.68.79,1.56.3,2.34.35a24.08,24.08,0,0,0,2.49-.12v2.84c.61,0,1.17.07,1.73.12s1,.14,1.55.21h3.25c.09-1,.18-2,.28-3.09a6.37,6.37,0,0,0,6.13-1.33c0,.47.06.79.09,1.17a72.1,72.1,0,0,0,12.55-.08c0-.45,0-.91.07-1.45C79,99.36,82.4,99.2,86,96.36a2.74,2.74,0,0,0,.29.56,4.8,4.8,0,0,0,3.32,1.54c2.66.17,5.32.28,8,.4a3.16,3.16,0,0,0,.47,0l.27-2.54.26-.13a5.36,5.36,0,0,0,6.09,2.38,18.9,18.9,0,0,1,2.61-.24c1.52-.07,3-.1,4.66-.16,0-.51,0-.95.08-1.52,3.32,2.6,6.7,2.71,10.24.45,0,.17.06.28.07.39s0,.2,0,.4l6.52.68c.11-1,.22-1.92.33-2.84.08-.74.12-1.47.23-2.2.21-1.39.74-1.77,2.15-1.6L133,92c.16-1.46.32-2.85.49-4.24a2.29,2.29,0,0,1,.22-.6V85.39C132.72,85.32,131.75,85.26,130.78,85.17Z"/><path class="cls-5" d="M12,88.51c1-1.65,1.89-3.13,2.76-4.64a1.15,1.15,0,0,1,1.19-.71c1.06,0,2.14,0,3.29,0,.1,4.57.19,9.08.28,13.65H15.59V89.51l-.29-.08C14.16,91,13.2,92.77,12,94.51l-3.45-5-.14.06V97H4.73c-.09-4.5-.18-9-.27-13.62,1.31,0,2.58-.06,3.84,0,.22,0,.48.33.63.57.81,1.19,1.59,2.41,2.38,3.62Z"/><path class="cls-5" d="M106.33,87.42V82.61l3.66-.19c.19,4.77.37,9.47.56,14.31h-3.72c0-.24-.1-.59-.18-1a1.88,1.88,0,0,0-.33.24,4.24,4.24,0,0,1-6.65-.67,6.26,6.26,0,0,1-.24-6.94,4.35,4.35,0,0,1,6.47-1.27Zm-1.89,6.65a2.24,2.24,0,0,0,2.21-2.39,2.36,2.36,0,0,0-2.19-2.44,2.27,2.27,0,0,0-2.2,2.31,2.3,2.3,0,0,0,2.18,2.52Z"/><path class="cls-5" d="M52,86.25h3.7c0,.43.08.75.12,1.14a2.86,2.86,0,0,0,.37-.21,4.32,4.32,0,0,1,6.48,1.15,6.71,6.71,0,0,1-.47,7.29,4.41,4.41,0,0,1-6.31.59l-.54-.48c0,.84-.11,1.52-.13,2.2s0,1.32,0,2H51.31C51.52,95.3,51.74,90.78,52,86.25Zm5.56,7.82a2.43,2.43,0,0,0,.13-4.83,2.33,2.33,0,0,0-2.26,2.38,2.24,2.24,0,0,0,2.13,2.45Z"/><path class="cls-5" d="M30.36,97.36l-3.66-.27c0-.43,0-.78-.05-1.24l-.62.43a3.83,3.83,0,0,1-4.2.36,3.24,3.24,0,0,1-1.76-3.35c.14-2.4.34-4.8.53-7.31l3.67.27c0,.56,0,1.08,0,1.6-.09,1.23-.22,2.46-.32,3.7a5.35,5.35,0,0,0,0,.8,1.44,1.44,0,0,0,1.43,1.51,1.46,1.46,0,0,0,1.59-1.35c.1-.63.15-1.26.2-1.9.09-1.13.16-2.27.24-3.4,0-.2.08-.39.12-.59.64,0,1.24,0,1.84,0s1.2.13,1.87.2C30.92,90.33,30.65,93.76,30.36,97.36Z"/><path class="cls-5" d="M117.43,86.15a5.62,5.62,0,0,1,5.92,5.25,5.74,5.74,0,0,1-6.68,5.79,5.45,5.45,0,0,1-4.86-3.71C110.49,89.81,113.31,86.16,117.43,86.15Zm-2.23,5.46a2.25,2.25,0,1,0,4.49.09,2.38,2.38,0,0,0-2.23-2.42,2.21,2.21,0,0,0-2.26,2.33Z"/><path class="cls-5" d="M96.75,97.35l-3.61-.27c0-.34,0-.6-.08-.91a3.35,3.35,0,0,0-.38.19,4.36,4.36,0,0,1-3.87.5,3,3,0,0,1-2.24-3.19,3,3,0,0,1,2.43-3,7.94,7.94,0,0,1,4.37.37c.23-.9,0-1.55-.91-1.73a12.5,12.5,0,0,0-2.6-.16,7,7,0,0,0-1.28.23c-.2-.89-.38-1.72-.58-2.62a10.2,10.2,0,0,1,7,.13A3.37,3.37,0,0,1,97.21,90a23.18,23.18,0,0,1,0,2.5C97,94.05,96.89,95.64,96.75,97.35Zm-3.41-4.57a2.85,2.85,0,0,0-2.1-.33,1.18,1.18,0,0,0-1,1.28,1.16,1.16,0,0,0,1.1,1.1,1.71,1.71,0,0,0,2-2Z"/><path class="cls-5" d="M38.49,89.29l-1.09-.11V86.3l1.26-.13c0-.81.09-1.63.13-2.47h3.7v2.67l2.45.13c0,1-.09,1.9-.13,2.91H42.37c-.06,1.27-.15,2.46-.17,3.66,0,.73.33,1,1.1,1a12,12,0,0,0,1.25-.14c0,.78,0,1.58,0,2.37a.92.92,0,0,1-.52.62,5.07,5.07,0,0,1-4-.1c-1.41-.67-1.6-2-1.58-3.33,0-1.11.1-2.22.14-3.32C38.53,89.9,38.5,89.63,38.49,89.29Z"/><path class="cls-5" d="M83,92.6l2.55,1.29c-.52,2-2.77,3.36-5.26,3.29a5.54,5.54,0,0,1-2.19-10.57c2.67-1.2,5.43-.41,6.46,1.21l-2.22,2c-1.58-.91-2.64-.86-3.4.22a2.69,2.69,0,0,0,.52,3.46C80.5,94.37,81.6,94.1,83,92.6Z"/><path class="cls-5" d="M64.69,82.69h3.75c-.13,4.82-.26,9.54-.38,14.25H64.27C64.41,92.13,64.55,87.43,64.69,82.69Z"/><path class="cls-5" d="M36.47,96.84l-3.76.25c-.29-4.79-.58-9.49-.87-14.29l3.76-.26C35.89,87.34,36.18,92,36.47,96.84Z"/><path class="cls-5" d="M131.74,90.36a3.83,3.83,0,0,1-.43.07c-2.09.06-3,.94-3.29,3-.14,1.12-.26,2.24-.39,3.46-.69,0-1.29-.08-1.88-.14s-1.13-.13-1.85-.21c.36-3.52.73-7,1.1-10.55l3.62.39v1.81c.93-1.17,1.91-1.9,3.49-1.57-.07.64-.13,1.26-.19,1.87S131.8,89.72,131.74,90.36Z"/><path class="cls-5" d="M50.36,96.83l-3.74.26c-.2-3.57-.4-7.06-.6-10.62l3.77-.2C50,89.79,50.17,93.27,50.36,96.83Z"/><path class="cls-5" d="M69.67,86.48l3.74-.22c.2,3.51.41,7,.62,10.58l-3.78.25C70.05,93.49,69.86,90,69.67,86.48Z"/><path class="cls-5" d="M69.33,82.79l4-.25c0,1,.1,1.82.15,2.76l-3.89.2C69.48,84.64,69.41,83.79,69.33,82.79Z"/><path class="cls-5" d="M49.57,82.53a2.28,2.28,0,0,1,.1.43c0,.73.08,1.46.13,2.35l-3.9.17c0-.91-.08-1.73-.13-2.68Z"/><path class="cls-4" d="M104.44,94.07a2.43,2.43,0,0,1,0-4.83,2.37,2.37,0,0,1,2.19,2.45A2.24,2.24,0,0,1,104.44,94.07Z"/><path class="cls-4" d="M57.51,94.07a2.25,2.25,0,0,1-2.13-2.45,2.33,2.33,0,0,1,2.25-2.38,2.3,2.3,0,0,1,2.14,2.38A2.27,2.27,0,0,1,57.51,94.07Z"/><path class="cls-4" d="M115.2,91.61a2.21,2.21,0,0,1,2.26-2.33,2.38,2.38,0,0,1,2.23,2.42,2.25,2.25,0,1,1-4.49-.09Z"/><path class="cls-4" d="M93.34,92.78a1.71,1.71,0,0,1-2,2,1.16,1.16,0,0,1-1.1-1.1,1.18,1.18,0,0,1,1-1.28A2.85,2.85,0,0,1,93.34,92.78Z"/><path d="M86.79,69.73h3.94a20.14,20.14,0,0,1-2.61,4.07,7.45,7.45,0,0,1-2.5,1.68,9.25,9.25,0,0,1-3.39.56,7.78,7.78,0,0,1-3.68-1,4.57,4.57,0,0,1-2.13-2.38,11.68,11.68,0,0,1-.31-4.15A8.68,8.68,0,0,1,79.21,63,9,9,0,0,1,85.13,61a6.26,6.26,0,0,1,4.08,1.33,8.55,8.55,0,0,1,2,4.51l-3.91,0c.07-.56-.41-2.36-2.86-2.37a3.08,3.08,0,0,0-2.57,1.06,6.08,6.08,0,0,0-1.58,2.81,4.28,4.28,0,0,0,.58,3,2.89,2.89,0,0,0,1.81,1A6.26,6.26,0,0,0,84.8,72,4.7,4.7,0,0,0,86.79,69.73Z"/><path d="M100.31,73.4H95.07l-1,2.39H89.65L98,61.28h3.68L105,75.79h-4.45Zm-.51-3.14L99,66l-2.2,4.28Z"/><path d="M121.45,61.28h3.88l-.89,5.08h4.24l.89-5.08h3.9l-2.56,14.51H127l1-5.87h-4.24l-1,5.87h-3.88Z"/><path d="M112.91,64.8c.55,0,1.36.52,1.34,1.18h3.59a3.84,3.84,0,0,0-.68-3,3.79,3.79,0,0,0-2.09-1.28l.23-1.29h-3L112,61.66a4.3,4.3,0,0,0-2.14.76,4.74,4.74,0,0,0-2,2.86,5.6,5.6,0,0,0,.17,3c.44.84,1.17,1.11,2.79,1.55,1,.27,2.61.52,2.61,1.62a1.67,1.67,0,0,1-1.69,1.35c-.74,0-1.44-.29-1.44-1.69h-3.93a5,5,0,0,0,.76,3.53,3.64,3.64,0,0,0,2.52,1.3l-.23,1.31h3.06l.22-1.29a6.51,6.51,0,0,0,1.75-.51,5.55,5.55,0,0,0,2.18-1.79,4.77,4.77,0,0,0,.83-2.8,3,3,0,0,0-1.22-2.72,11.8,11.8,0,0,0-3.33-1.25,2.66,2.66,0,0,1-1.24-.47,1.26,1.26,0,0,1-.26-.71C111.41,65.24,111.91,64.8,112.91,64.8Z"/><path class="cls-6" d="M127.32,32.45c-2.44-.08-8.07.23-11.26,3.08A18.85,18.85,0,0,1,118,56a21.23,21.23,0,0,0,12.1-8.6C131.93,35.58,127.32,32.45,127.32,32.45Z"/><path class="cls-7" d="M133.7,35.53A21.17,21.17,0,1,0,112.53,56.7a21.4,21.4,0,0,0,4.9-.57c2.37-16.15-6.1-20.6-6.1-20.6,5.73-6.89,17.5-6.06,17.5-6.06,4.12,4.54,4.11,11.28,4.1,11.7A20.93,20.93,0,0,0,133.7,35.53ZM102.28,52.3s-.73-4.89,4-11.11a4.27,4.27,0,0,1,2,1.26,15.4,15.4,0,0,0-3.21,7.69,14.32,14.32,0,0,1,9.29,5.31S108.5,52.14,102.28,52.3Zm16.61-23.79a7.49,7.49,0,0,0-3.07-2.91,21.48,21.48,0,0,0-13.15,9.93c16.22,4.95,13.55,19.92,13.55,19.92-1.42-12.92-9.41-16.7-17.6-18.23,4-13,17.2-15.16,17.2-15.16,3.77,1.81,6.22,6,6.22,6Z"/><path class="cls-8" d="M74.64,73.45a4.49,4.49,0,0,1-.27-.85L6,74.3H75.08A7.56,7.56,0,0,1,74.64,73.45Z"/><path class="cls-8" d="M74.13,68.57,5.66,70.26l68.45.15A15.65,15.65,0,0,1,74.13,68.57Z"/><path class="cls-8" d="M75.51,64.3,5.66,66l69,.3A11,11,0,0,1,75.51,64.3Z"/><path class="cls-8" d="M78,61.45a10,10,0,0,1,1.92-1.25L5.66,61.86l71.57.25A9.4,9.4,0,0,1,78,61.45Z"/><path class="cls-2" d="M106.05,8c-2.21,0-4.44,0-6.65,0-.85,0-1-.18-.64-.95.69-1.43,1.28-2.92,2-4.52-6.75,0-13.34.11-19.93,0-2.07,0-3.32.4-4,2.47-.79,2.26-2.63,3.22-5,3.09-1.27-.05-2.57.05-3.85,0a1.4,1.4,0,0,0-1.67,1c-.67,1.75-1.41,3.51-2.23,5.21-.51,1-.11,1,.74,1,2.53,0,5,0,7.76,0-1.08,2.75-2.1,5.41-3.13,8a23.15,23.15,0,0,1-.78,25.5,23,23,0,0,0,4.59,6.91,4.86,4.86,0,0,0,3.75,1.55c5.37-.11,10.71,0,16.08,0h7.68c-.59-.48-.93-.8-1.3-1.07a28.16,28.16,0,0,1-6.25-6.27A21.52,21.52,0,0,1,89,34.08,63.66,63.66,0,0,1,95,15.8,1.26,1.26,0,0,1,96.35,15c2.31,0,4.59,0,6.91,0a1,1,0,0,0,1.19-.74c.69-1.81,1.41-3.59,2.21-5.37C107,8.15,106.76,8,106.05,8Z"/></g></g></svg>