<?xml version="1.0" encoding="utf-8"?>
<!-- Generator: Adobe Illustrator 23.0.1, SVG Export Plug-In . SVG Version: 6.00 Build 0)  -->
<svg version="1.1" id="Layer_1" xmlns="http://www.w3.org/2000/svg" xmlns:xlink="http://www.w3.org/1999/xlink" x="0px" y="0px"
	 viewBox="0 0 466 184" style="enable-background:new 0 0 466 184;" xml:space="preserve">
<style type="text/css">
	.st0{fill:#FFC425;}
	.st1{fill:#AE59A2;}
	.st2{fill:#FFFFFF;}
	.st3{fill:#B3B3B3;}
</style>
<path class="st0" d="M114.86,88.61l-21.27-2.9c2.34-6.91,6.12-11.77,11.34-14.57c5.15-2.8,12.74-4.2,22.79-4.2
	c3.71,0,7.03,0.16,9.96,0.47c2.94,0.31,5.55,0.78,7.86,1.41c4.78,1.21,8.33,3.07,10.63,5.58c2.3,2.56,3.91,5.32,4.81,8.26
	c0.93,3.04,1.4,7.78,1.4,14.21v20.29h6.69v22.1h-33.85v-4.78c-4.68,4.06-10.94,6.09-18.79,6.09c-7.38,0-12.94-2.17-16.69-6.52
	c-3.78-4.35-5.67-9.5-5.67-15.44c0-6.57,2.32-11.96,6.97-16.16c4.61-4.2,10.62-6.31,18.03-6.31c6.77,0,12.15,1.19,16.15,3.55v-2.1
	c0-4.35-0.23-7.39-0.7-9.13c-0.5-1.83-1.62-3.41-3.35-4.71c-1.8-1.26-3.89-1.88-6.26-1.88C120.55,81.87,117.2,84.11,114.86,88.61
	L114.86,88.61z M135.22,121.29v-12.83c-2.41-1.74-4.97-2.61-7.67-2.61c-2.38,0-4.27,0.87-5.67,2.61c-1.41,1.79-2.11,4.06-2.11,6.81
	c0,2.85,0.72,5.17,2.16,6.96c1.47,1.84,3.17,2.75,5.07,2.75C130.4,124.99,133.13,123.76,135.22,121.29z"/>
<path d="M116.43,142c-7.78,0-13.76-2.36-17.77-7.02c-3.99-4.59-6.01-10.1-6.01-16.37c0-6.96,2.5-12.75,7.44-17.22
	c4.85-4.43,11.24-6.67,18.99-6.67c5.86,0,10.8,0.89,14.72,2.64c-0.01-4.08-0.23-6.94-0.65-8.52c-0.42-1.53-1.35-2.82-2.83-3.94
	c-1.53-1.06-3.31-1.6-5.4-1.6c-3.81,0-6.68,1.95-8.78,5.97l-0.46,0.89L91.7,86.89l0.56-1.64c2.45-7.23,6.49-12.4,12.02-15.37
	c5.33-2.9,13.23-4.37,23.46-4.37c3.75,0,7.16,0.16,10.11,0.48c2.99,0.32,5.71,0.81,8.08,1.45c5.02,1.27,8.83,3.29,11.31,6
	c2.44,2.72,4.16,5.68,5.12,8.81c0.99,3.21,1.46,8,1.46,14.62v18.86h6.69v24.96H133.8v-3.33C129.18,140.44,123.36,142,116.43,142
	L116.43,142z M119.07,97.57c-7.01,0-12.76,2-17.07,5.93c-4.38,3.96-6.5,8.9-6.5,15.11c0,5.56,1.79,10.44,5.32,14.5
	c3.45,4,8.7,6.03,15.61,6.03c7.46,0,13.46-1.93,17.85-5.74l2.36-2.05v6.49h31v-19.25h-6.69V96.87c0-6.25-0.45-10.89-1.34-13.79
	c-0.83-2.73-2.35-5.33-4.5-7.73c-2.09-2.28-5.43-4.02-9.92-5.15c-2.25-0.61-4.82-1.07-7.66-1.37c-2.86-0.31-6.15-0.46-9.81-0.46
	c-9.75,0-17.19,1.36-22.1,4.03c-4.45,2.39-7.83,6.47-10.07,12.14l18.55,2.53c2.57-4.4,6.21-6.62,10.82-6.62
	c2.66,0,5.04,0.72,7.08,2.14c2.02,1.52,3.32,3.36,3.91,5.5c0.51,1.88,0.75,4.99,0.75,9.51v4.6l-2.15-1.28
	C130.74,98.7,125.55,97.57,119.07,97.57L119.07,97.57z M127.01,126.41c-2.35,0-4.44-1.11-6.19-3.29c-1.64-2.04-2.48-4.68-2.48-7.85
	c0-3.07,0.81-5.66,2.41-7.7c1.69-2.1,3.97-3.16,6.79-3.16c2.99,0,5.85,0.97,8.5,2.88l0.59,0.43v14.08l-0.34,0.4
	C133.95,125,130.82,126.41,127.01,126.41L127.01,126.41z M127.55,107.28c-1.94,0-3.43,0.68-4.56,2.08c-1.19,1.51-1.79,3.5-1.79,5.92
	c0,2.54,0.6,4.52,1.84,6.06c1.2,1.5,2.5,2.22,3.96,2.22c2.79,0,5.01-0.92,6.78-2.81v-11.53
	C131.8,107.92,129.75,107.28,127.55,107.28L127.55,107.28z"/>
<path class="st0" d="M242.93,139.34H205.4v-22.1h5.56v-56.6h-5.56v-22.1h32.72v78.7h4.81V139.34z"/>
<path d="M244.36,140.77h-40.38v-24.96h5.56V62.07h-5.56V37.11h35.58v78.7h4.81v24.96H244.36z M206.83,137.92h34.67v-19.25h-4.81
	v-78.7h-29.86v19.25h5.56v59.46h-5.56L206.83,137.92L206.83,137.92z"/>
<path class="st0" d="M43.92,140.29H8.99v-24.14h5.88V63.61H8.99V39.48h35.96c8.21,0,14.9,0.68,20.08,2.03
	c5.22,1.35,10.13,4.13,14.74,8.33c4.57,4.25,8.17,10,10.8,17.25c1.3,3.48,2.29,7.2,2.97,11.16c0.68,3.96,1.03,8.12,1.03,12.47
	c0,8.74-1.39,16.72-4.16,23.91c-2.74,7.15-6.21,12.64-10.42,16.45c-4.1,3.82-8.6,6.3-13.5,7.46
	C61.63,139.71,54.11,140.29,43.92,140.29L43.92,140.29z M43.92,63.62v52.54h2.75c6.84,0,11.29-2.44,13.34-7.32
	c2.02-4.88,3.03-11.02,3.03-18.41c0-4.44-0.43-8.84-1.3-13.19c-0.9-4.35-2.48-7.71-4.75-10.07c-2.23-2.37-6.23-3.55-11.99-3.55
	H43.92L43.92,63.62z"/>
<path d="M43.92,141.72H7.56v-26.99h5.88V65.04H7.56V38.05h37.39c8.29,0,15.17,0.7,20.44,2.07c5.42,1.4,10.58,4.32,15.34,8.66
	c4.73,4.4,8.49,10.39,11.18,17.82c1.31,3.52,2.34,7.36,3.03,11.4c0.69,4.03,1.05,8.3,1.05,12.71c0,8.88-1.43,17.1-4.25,24.43
	c-2.8,7.33-6.43,13.05-10.8,17c-4.25,3.96-9.01,6.58-14.13,7.79C61.88,141.12,54.18,141.72,43.92,141.72L43.92,141.72z
	 M10.42,138.87h33.5c10.03,0,17.51-0.57,22.24-1.7c4.63-1.09,8.96-3.49,12.86-7.12c4.04-3.66,7.42-9.01,10.06-15.92
	c2.7-7,4.06-14.87,4.06-23.4c0-4.24-0.34-8.36-1-12.22c-0.67-3.87-1.64-7.54-2.9-10.9c-2.54-7.01-6.05-12.63-10.43-16.7
	c-4.41-4.02-9.16-6.71-14.13-8c-5.04-1.32-11.68-1.98-19.73-1.98H10.42v21.28h5.88v55.4h-5.88V138.87z M46.68,117.59H42.5v-55.4
	h2.51c6.23,0,10.49,1.31,13.02,4c2.44,2.54,4.16,6.17,5.11,10.77c0.88,4.43,1.33,8.96,1.33,13.48c0,7.55-1.05,13.92-3.13,18.95
	C59.05,114.83,54.12,117.59,46.68,117.59L46.68,117.59z M45.35,114.73h1.33c6.27,0,10.2-2.11,12.02-6.44
	c1.93-4.68,2.91-10.69,2.91-17.86c0-4.33-0.43-8.67-1.27-12.91c-0.84-4.05-2.31-7.21-4.38-9.37c-1.91-2.02-5.47-3.06-10.61-3.11
	V114.73z"/>
<g>
	<path class="st0" d="M274.3,169.82h-22.89v-21.38h8.8l2.65-7.17l-20.09-51.89h-4.05V67.27h35.69v22.11h-5.78l9.12,27.61l8.43-27.61
		h-5.08V67.27h27.05v22.11h-5.24L274.3,169.82z"/>
	<path d="M275.31,171.25h-25.33v-24.24h9.23l2.12-5.73L241.79,90.8h-4.5V65.84h38.55V90.8h-5.23l7.09,21.47l6.55-21.47h-4.58V65.84
		h29.91V90.8h-5.66L275.31,171.25z M252.84,168.39h20.46l28.62-80.45h4.82V68.69h-24.2v19.25h5.58l-10.3,33.75l-11.15-33.75h6.32
		V68.69h-32.84v19.25h3.6l20.63,53.31l-3.18,8.61h-8.37L252.84,168.39L252.84,168.39z"/>
</g>
<g>
	<path class="st0" d="M206.13,139.41h-37.09V117.2h5.4V90.98h-5.4V68.76h32.56v48.44h4.54v22.21H206.13z"/>
	<path d="M207.56,140.84h-39.95v-25.07h5.4V92.4h-5.4V67.33h35.41v48.44h4.54V140.84z M170.47,137.99h34.24v-19.36h-4.54V70.19
		h-29.7v19.36h5.4v29.07h-5.4L170.47,137.99L170.47,137.99z"/>
</g>
<g>
	<path class="st1" d="M424.37,172.04h-76.12v-30.88h17.59v-19.27h-61.35l-8.17-31.75l68.06-73.47h45.02v78.18h14.97v27.04H409.4
		v19.27h14.97V172.04z M326.48,94.84h39.37V53.23L326.48,94.84z"/>
	<path d="M425.8,173.47h-78.97v-33.73h17.59v-16.42h-61.03l-8.64-33.58l69.01-74.5h47.07v78.18h14.97v29.9h-14.97v16.42h14.97
		L425.8,173.47L425.8,173.47z M349.68,170.61h73.26v-28.02h-14.97v-22.13h14.97V96.27h-14.97V18.09H365l-67.11,72.44l7.7,29.92
		h61.68v22.13h-17.59L349.68,170.61L349.68,170.61z M367.27,96.27h-44.11l44.11-46.62V96.27z M329.79,93.42h34.62V56.83
		L329.79,93.42L329.79,93.42z"/>
</g>
<g>
	<path class="st2" d="M322.76,170.29c-15.46,5.26-32.25-3-37.51-18.46s3.01-32.25,18.46-37.51c15.46-5.26,32.25,3.01,37.51,18.46
		C346.48,148.24,338.22,165.03,322.76,170.29z"/>
	<path d="M313.24,173.3c-13.27,0-25.06-8.44-29.34-21.01c-5.5-16.18,3.18-33.82,19.35-39.32c3.24-1.1,6.6-1.66,9.99-1.66
		c13.27,0,25.06,8.45,29.33,21.01c2.67,7.84,2.12,16.24-1.53,23.67c-3.65,7.43-9.98,12.99-17.82,15.65
		C319.99,172.74,316.63,173.3,313.24,173.3L313.24,173.3z M313.24,114.16c-3.08,0-6.13,0.51-9.07,1.51
		c-14.68,5-22.57,21.01-17.57,35.7c3.88,11.41,14.59,19.08,26.63,19.08c3.08,0,6.13-0.51,9.07-1.51
		c7.11-2.42,12.86-7.47,16.18-14.21s3.81-14.37,1.39-21.49C335.99,121.83,325.29,114.16,313.24,114.16L313.24,114.16z"/>
	<path class="st2" d="M93.93,175.52c-14.9,5.07-31.09-2.9-36.17-17.8c-5.07-14.9,2.9-31.09,17.8-36.17
		c14.9-5.07,31.1,2.9,36.17,17.8C116.81,154.25,108.84,170.45,93.93,175.52L93.93,175.52z"/>
	<path d="M84.75,178.47c-12.82,0-24.2-8.16-28.33-20.3c-5.32-15.62,3.07-32.66,18.69-37.98c3.13-1.06,6.37-1.6,9.65-1.6
		c12.82,0,24.2,8.16,28.33,20.3c2.58,7.57,2.05,15.69-1.48,22.86s-9.64,12.54-17.21,15.12C91.27,177.93,88.02,178.47,84.75,178.47z
		 M84.75,121.45c-2.96,0-5.9,0.49-8.73,1.45c-14.13,4.81-21.72,20.22-16.91,34.35c3.74,10.98,14.04,18.36,25.63,18.36
		c2.96,0,5.89-0.49,8.72-1.45c6.85-2.33,12.38-7.19,15.57-13.67c3.19-6.49,3.67-13.83,1.34-20.68
		C106.65,128.83,96.35,121.45,84.75,121.45z"/>
	<g>
		<path class="st2" d="M193.73,67.35c-14.28,4.86-29.79-2.77-34.65-17.05c-4.86-14.27,2.77-29.79,17.05-34.65
			c14.28-4.86,29.79,2.78,34.65,17.05C215.64,46.98,208,62.49,193.73,67.35L193.73,67.35z"/>
		<path d="M184.93,70.24c-12.3,0-23.23-7.83-27.2-19.49c-5.1-15,2.95-31.36,17.94-36.46c3-1.02,6.12-1.54,9.26-1.54
			c12.3,0,23.23,7.83,27.2,19.48c2.47,7.27,1.97,15.06-1.42,21.95s-9.26,12.04-16.52,14.51C191.19,69.72,188.07,70.24,184.93,70.24
			L184.93,70.24z M184.93,15.61c-2.83,0-5.64,0.47-8.34,1.39c-13.51,4.6-20.76,19.33-16.16,32.84c3.57,10.5,13.41,17.55,24.5,17.55
			c2.83,0,5.64-0.47,8.34-1.39c6.54-2.23,11.83-6.87,14.88-13.07c3.05-6.2,3.51-13.22,1.28-19.77
			C205.86,22.66,196.01,15.61,184.93,15.61L184.93,15.61z"/>
	</g>
	<g>
		<path class="st2" d="M434.42,109.28c-14.28,4.86-29.79-2.77-34.65-17.05c-4.85-14.27,2.78-29.79,17.05-34.64
			c14.28-4.86,29.79,2.77,34.65,17.05C456.33,88.91,448.7,104.42,434.42,109.28L434.42,109.28z"/>
		<path d="M425.61,112.17c-12.3,0-23.23-7.83-27.2-19.48c-5.1-15,2.95-31.35,17.94-36.46c3-1.02,6.12-1.54,9.26-1.54
			c12.3,0,23.23,7.83,27.2,19.48c2.47,7.27,1.97,15.06-1.42,21.95c-3.39,6.89-9.26,12.04-16.52,14.51
			C431.88,111.65,428.76,112.17,425.61,112.17L425.61,112.17z M425.62,57.54c-2.83,0-5.64,0.47-8.34,1.39
			c-13.51,4.59-20.76,19.32-16.16,32.83c3.57,10.5,13.42,17.55,24.5,17.55c2.83,0,5.64-0.47,8.34-1.39
			c6.54-2.22,11.83-6.87,14.88-13.07s3.51-13.22,1.28-19.77C446.55,64.6,436.7,57.54,425.62,57.54L425.62,57.54z"/>
	</g>
</g>
<g>
	<path d="M92.93,109.39l-4.02,8.83l5.89,3.49L92.93,109.39z"/>
</g>
<g>
	<path class="st3" d="M92.75,136.71l-9.79,3.2l-0.53-1.62c-0.57-1.73-1.05-2.82-1.45-3.28s-0.97-0.57-1.71-0.32
		c-0.6,0.2-0.97,0.57-1.12,1.13s-0.07,1.3,0.23,2.22c0.5,1.53,1.16,2.51,1.97,2.92c0.8,0.42,2.95,1.04,6.45,1.86
		c2.98,0.69,5.05,1.28,6.22,1.79c1.16,0.5,2.3,1.38,3.4,2.64s2.01,2.98,2.72,5.16c1.14,3.49,1.2,6.5,0.17,9.04s-3.15,4.59-6.35,6.16
		l1.21,3.68l-4.51,1.47l-1.25-3.8c-2.7,0.6-5.31,0.34-7.84-0.77s-4.5-3.85-5.93-8.21l-0.63-1.91l9.79-3.2l0.79,2.4
		c0.86,2.63,1.5,4.23,1.91,4.81c0.41,0.57,1,0.73,1.78,0.48c0.66-0.22,1.08-0.6,1.26-1.15s0.12-1.26-0.16-2.13
		c-0.72-2.2-1.39-3.72-2-4.56c-0.62-0.84-2-1.53-4.16-2.06c-3.6-0.9-6.08-1.61-7.44-2.14c-1.36-0.53-2.7-1.46-4-2.81
		c-1.31-1.34-2.29-3.02-2.95-5.04c-0.96-2.92-0.88-5.49,0.23-7.69c1.11-2.21,3.26-4.04,6.44-5.51l-1.02-3.12l4.51-1.47l1.02,3.12
		c3.15-0.6,5.74-0.33,7.78,0.82s3.53,3.17,4.48,6.06C92.38,135.24,92.54,135.87,92.75,136.71L92.75,136.71z"/>
</g>
<g>
	<path class="st3" d="M328.07,141.14l-8.48-5.85l0.97-1.41c1.03-1.5,1.61-2.54,1.73-3.14c0.12-0.6-0.14-1.12-0.78-1.56
		c-0.52-0.36-1.04-0.42-1.58-0.21c-0.53,0.22-1.08,0.73-1.62,1.53c-0.92,1.33-1.29,2.44-1.13,3.34c0.15,0.89,0.96,2.97,2.43,6.26
		c1.26,2.79,2.04,4.8,2.34,6.03c0.31,1.23,0.29,2.67-0.04,4.3c-0.33,1.64-1.15,3.4-2.46,5.29c-2.08,3.02-4.45,4.89-7.09,5.61
		c-2.64,0.72-5.56,0.27-8.75-1.33l-2.2,3.19l-3.9-2.69l2.27-3.29c-2.11-1.79-3.49-4.02-4.14-6.71c-0.65-2.69,0.33-5.92,2.94-9.69
		l1.14-1.66l8.48,5.85l-1.43,2.08c-1.57,2.28-2.46,3.76-2.67,4.43c-0.21,0.67,0.03,1.24,0.7,1.7c0.57,0.4,1.13,0.5,1.68,0.31
		s1.08-0.67,1.6-1.42c1.31-1.9,2.12-3.35,2.42-4.36c0.3-1,0-2.52-0.88-4.56c-1.47-3.41-2.41-5.81-2.81-7.22
		c-0.4-1.4-0.47-3.03-0.19-4.88s1.02-3.65,2.22-5.4c1.75-2.53,3.83-4.02,6.26-4.48c2.43-0.45,5.19,0.14,8.29,1.78l1.87-2.71
		l3.9,2.69l-1.87,2.71c2.38,2.14,3.74,4.37,4.06,6.68c0.32,2.32-0.38,4.73-2.11,7.23C329.01,139.96,328.62,140.47,328.07,141.14
		L328.07,141.14z"/>
</g>
<g>
	<path class="st3" d="M197.92,38.18l-9-3.46l0.57-1.49c0.61-1.59,0.91-2.67,0.89-3.24s-0.37-0.99-1.05-1.25
		c-0.55-0.21-1.04-0.16-1.48,0.16s-0.82,0.9-1.14,1.75c-0.54,1.41-0.64,2.51-0.29,3.29c0.33,0.78,1.53,2.5,3.59,5.16
		c1.76,2.26,2.91,3.91,3.46,4.97c0.55,1.05,0.85,2.36,0.91,3.93c0.06,1.56-0.3,3.35-1.07,5.35c-1.23,3.21-2.97,5.43-5.21,6.66
		c-2.25,1.23-5,1.47-8.25,0.72l-1.3,3.38l-4.14-1.59l1.34-3.5c-2.31-1.16-4.06-2.89-5.24-5.19s-1-5.46,0.54-9.46l0.68-1.76l9,3.46
		l-0.85,2.2c-0.93,2.42-1.41,3.96-1.45,4.62s0.3,1.12,1.01,1.4c0.61,0.23,1.14,0.2,1.59-0.09c0.45-0.29,0.83-0.84,1.14-1.64
		c0.78-2.02,1.19-3.52,1.24-4.49c0.05-0.98-0.55-2.29-1.8-3.95c-2.08-2.78-3.47-4.76-4.14-5.95c-0.68-1.19-1.09-2.66-1.25-4.4
		c-0.16-1.75,0.12-3.55,0.84-5.4c1.03-2.69,2.6-4.5,4.71-5.45c2.11-0.94,4.75-1.01,7.93-0.2l1.1-2.87l4.14,1.59l-1.1,2.87
		c2.64,1.42,4.36,3.15,5.16,5.19c0.8,2.04,0.69,4.38-0.33,7.04C198.51,36.89,198.26,37.45,197.92,38.18L197.92,38.18z"/>
</g>
<g>
	<path class="st3" d="M433.48,72.75l-9.49,1.66l-0.28-1.57c-0.29-1.68-0.6-2.75-0.91-3.23s-0.83-0.65-1.55-0.53
		c-0.58,0.1-0.97,0.4-1.19,0.9c-0.21,0.5-0.24,1.19-0.08,2.08c0.26,1.49,0.74,2.48,1.44,2.97c0.68,0.49,2.59,1.35,5.73,2.58
		c2.67,1.03,4.51,1.86,5.52,2.48c1.01,0.62,1.95,1.59,2.8,2.9s1.46,3.03,1.83,5.14c0.59,3.38,0.24,6.18-1.05,8.39
		c-1.29,2.21-3.53,3.83-6.7,4.86l0.63,3.57l-4.37,0.77l-0.65-3.69c-2.58,0.19-4.97-0.39-7.16-1.76s-3.66-4.17-4.4-8.4l-0.33-1.86
		l9.49-1.66l0.41,2.33c0.45,2.55,0.82,4.12,1.13,4.71c0.3,0.58,0.83,0.81,1.58,0.68c0.64-0.11,1.08-0.41,1.32-0.9
		c0.24-0.48,0.28-1.15,0.13-2c-0.37-2.13-0.79-3.63-1.25-4.49s-1.65-1.68-3.58-2.46c-3.22-1.31-5.42-2.3-6.61-2.97
		s-2.3-1.71-3.33-3.13s-1.72-3.1-2.06-5.06c-0.5-2.83-0.08-5.2,1.24-7.09c1.32-1.89,3.56-3.31,6.7-4.25l-0.53-3.03l4.37-0.77
		l0.53,3.03c3-0.14,5.36,0.46,7.1,1.8c1.74,1.33,2.85,3.4,3.34,6.21C433.33,71.34,433.4,71.94,433.48,72.75L433.48,72.75z"/>
</g>
</svg>
