<?xml version="1.0" encoding="utf-8"?>
<!-- Generator: Adobe Illustrator 23.0.1, SVG Export Plug-In . SVG Version: 6.00 Build 0)  -->
<svg version="1.1" id="Layer_1" xmlns="http://www.w3.org/2000/svg" xmlns:xlink="http://www.w3.org/1999/xlink" x="0px" y="0px"
	 viewBox="0 0 493 153" style="enable-background:new 0 0 493 153;" xml:space="preserve">
<style type="text/css">
	.st0{fill:#AE59A2;}
	.st1{fill:#4BB965;}
	.st2{fill:#FFFFFF;}
	.st3{fill:#B3B3B3;}
</style>
<path class="st0" d="M322.33,103.88h30.47l-1.27,40.68H234.41c-0.14-2.62-0.21-3.96-0.21-4.02c0-12.09,2.96-22.94,8.89-32.54
	c3.03-4.92,7.23-9.82,12.59-14.68s11.88-9.76,19.57-14.68c12.98-8.48,21.34-14.59,25.08-18.33c3.74-3.87,5.61-7.76,5.61-11.69
	c0-3.8-1.27-6.92-3.81-9.35s-6.35-3.65-11.43-3.65c-10.86,0-16.29,6.08-16.29,18.24l-37.88-1.03c0.78-14.9,6.38-25.46,16.82-31.7
	c10.51-6.17,23.77-9.26,39.78-9.26c17.49,0,31.67,3.55,42.53,10.66c10.86,7.17,16.29,16.52,16.29,28.05
	c0,7.42-2.75,14.28-8.25,20.57c-5.64,6.3-16.4,13.03-32.27,20.2c-12.84,5.74-21.44,10.07-25.82,13c-4.44,3.05-7.83,6.52-10.16,10.38
	h46.34L322.33,103.88L322.33,103.88z"/>
<path d="M352.7,145.77H233.26l-0.06-1.14c-0.21-3.96-0.21-4.03-0.21-4.08c0-12.27,3.05-23.43,9.07-33.18
	c3.08-5,7.39-10.03,12.81-14.94c5.38-4.88,12.02-9.86,19.73-14.81c12.84-8.39,21.21-14.5,24.87-18.16c3.48-3.6,5.25-7.25,5.25-10.83
	c0-3.49-1.12-6.26-3.44-8.48c-2.3-2.2-5.86-3.31-10.59-3.31c-10.15,0-15.08,5.57-15.08,17.03v1.24l-40.36-1.1l0.06-1.24
	c0.79-15.26,6.65-26.25,17.41-32.67c10.65-6.26,24.24-9.43,40.4-9.43c17.64,0,32.18,3.65,43.19,10.86
	c11.17,7.38,16.84,17.15,16.84,29.06c0,7.69-2.88,14.88-8.55,21.37c-5.74,6.41-16.73,13.3-32.68,20.51
	c-12.73,5.69-21.35,10.03-25.64,12.9c-3.55,2.44-6.43,5.18-8.58,8.17h42.94l0.53-10.85h32.87L352.7,145.77L352.7,145.77z
	 M235.56,143.35h114.8l1.2-38.26h-28.07l-0.53,10.85h-49.63l1.1-1.83c2.41-4,5.94-7.61,10.51-10.75c4.48-3,12.98-7.28,26.01-13.11
	c15.63-7.06,26.36-13.76,31.86-19.9c5.27-6.03,7.94-12.68,7.94-19.77c0-11.05-5.3-20.15-15.75-27.04
	c-10.61-6.94-24.7-10.46-41.86-10.46c-15.72,0-28.9,3.06-39.17,9.09c-9.73,5.81-15.16,15.73-16.15,29.48l35.4,0.96
	c0.37-12.08,6.25-18.2,17.48-18.2c5.37,0,9.5,1.34,12.26,3.98c2.77,2.66,4.18,6.1,4.18,10.22c0,4.24-2,8.45-5.95,12.53
	c-3.85,3.85-12.12,9.9-25.28,18.5c-7.61,4.88-14.14,9.78-19.42,14.57c-5.25,4.76-9.41,9.61-12.38,14.42
	c-5.78,9.36-8.71,20.1-8.71,31.91C235.41,140.64,235.46,141.58,235.56,143.35L235.56,143.35z"/>
<path class="st0" d="M351.95,109.59l38.3-2.15c3.38,7.11,9.91,10.66,19.57,10.66c5.71,0,10.54-1.37,14.49-4.11
	c3.81-2.74,5.71-7.04,5.71-12.9c0-5.73-1.9-9.94-5.71-12.62c-3.88-2.62-8.39-3.93-13.54-3.93c-7.9,0-14.53,2.55-19.89,7.67
	L358.83,82.2l4.44-67.7h108.45v34.04h-24.87l-3.49-7.95h-52.58l-1.27,25.81c9.45-5.24,20.7-7.86,33.75-7.86
	c15.94,0,29.13,3.77,39.57,11.32c10.44,7.54,15.66,17.89,15.66,31.04c0,12.84-5.5,23.54-16.5,32.08
	c-11.07,8.54-26.49,12.81-46.24,12.81c-17.35,0-31.71-3.24-43.06-9.72C361.4,129.63,354.49,120.81,351.95,109.59L351.95,109.59z"/>
<path d="M415.75,146.98c-17.48,0-32.17-3.33-43.66-9.88c-11.54-6.56-18.71-15.73-21.31-27.25l-0.32-1.39l40.54-2.28l0.35,0.73
	c3.19,6.71,9.24,9.97,18.48,9.97c5.44,0,10.08-1.31,13.8-3.9c3.49-2.51,5.2-6.41,5.2-11.91c0-5.37-1.7-9.17-5.2-11.63
	c-3.64-2.46-7.97-3.71-12.85-3.71c-7.54,0-13.96,2.47-19.06,7.33l-0.51,0.49l-33.64-10.5l4.58-69.78h110.79v36.46h-26.86l-3.49-7.95
	h-50.64l-1.11,22.54c9.2-4.65,20.1-7,32.44-7c16.12,0,29.67,3.88,40.28,11.54c10.72,7.75,16.16,18.52,16.16,32.02
	c0,13.18-5.71,24.29-16.97,33.03C451.49,142.59,435.68,146.98,415.75,146.98L415.75,146.98z M353.47,110.71
	c2.7,10.18,9.36,18.34,19.81,24.29c11.12,6.35,25.41,9.56,42.46,9.56c19.39,0,34.69-4.22,45.5-12.56
	c10.64-8.26,16.03-18.73,16.03-31.12c0-12.68-5.1-22.8-15.16-30.06c-10.18-7.36-23.26-11.09-38.86-11.09
	c-12.78,0-23.94,2.59-33.16,7.7l-1.9,1.05l1.43-29.13h54.52l3.49,7.95h22.87V15.7H364.4l-4.31,65.62l30.48,9.51
	c5.48-4.99,12.27-7.51,20.2-7.51c5.37,0,10.15,1.39,14.22,4.13c4.15,2.92,6.25,7.5,6.25,13.62c0,6.24-2.09,10.92-6.22,13.88
	c-4.15,2.88-9.26,4.34-15.2,4.34c-9.79,0-16.62-3.57-20.3-10.62L353.47,110.71L353.47,110.71z"/>
<path class="st1" d="M62.64,95.57l18.2,8.07c-1.55,9.44-5.09,17.17-10.64,23.18c-5.61,6.05-13.34,9.08-23.19,9.08
	c-13.44,0-23.39-4.42-29.84-13.27c-6.49-8.8-9.73-19.56-9.73-32.26c0-12.79,3.18-23.64,9.53-32.58c6.35-8.93,14.6-13.4,24.75-13.4
	c8.23,0,14.94,2.56,20.12,7.68v-5.9h16.84v32.26H61.19c-0.91-4.02-2.44-7.2-4.59-9.53c-2.15-2.29-4.6-3.43-7.36-3.43
	c-7.6,0-11.39,8.23-11.39,24.7c0,16.51,3.93,24.76,11.8,24.76C56.52,114.94,60.86,108.48,62.64,95.57z"/>
<path d="M47.01,137.15c-13.81,0-24.19-4.64-30.86-13.79c-6.61-8.98-9.97-20.08-9.97-33c0-12.99,3.28-24.2,9.76-33.3
	c6.57-9.24,15.25-13.93,25.78-13.93c7.45,0,13.78,2.06,18.86,6.14v-4.36h19.35v34.77H60.17l-0.22-0.98
	c-0.85-3.78-2.3-6.79-4.29-8.95c-1.91-2.03-4.02-3.02-6.44-3.02c-6.73,0-10.14,7.89-10.14,23.45c0,15.6,3.55,23.51,10.54,23.51
	c6.13,0,10.09-6.15,11.76-18.28l0.23-1.65l20.61,9.14l-0.16,0.96c-1.58,9.64-5.26,17.66-10.95,23.83
	C65.29,133.96,57.18,137.15,47.01,137.15L47.01,137.15z M41.72,45.65c-9.81,0-17.57,4.21-23.73,12.87
	c-6.17,8.67-9.3,19.39-9.3,31.85c0,12.37,3.19,22.97,9.48,31.51c6.18,8.47,15.87,12.76,28.83,12.76c9.44,0,16.93-2.92,22.27-8.68
	c5.16-5.59,8.57-12.85,10.15-21.57l-15.8-7c-2.03,12.48-6.73,18.81-14,18.81c-8.66,0-13.05-8.75-13.05-26.02
	c0-17.23,4.26-25.96,12.65-25.96c3.1,0,5.89,1.29,8.28,3.82c2.12,2.3,3.68,5.36,4.66,9.13h15.25V47.43H63.09v7.66l-2.14-2.12
	C56.04,48.11,49.57,45.65,41.72,45.65L41.72,45.65z"/>
<path class="st1" d="M98.81,90.36l-19.86-2.54c2.18-6.05,5.71-10.31,10.59-12.76c4.81-2.46,11.9-3.68,21.27-3.68
	c3.46,0,6.56,0.14,9.3,0.41c2.74,0.28,5.18,0.69,7.34,1.24c4.47,1.06,7.78,2.69,9.93,4.89c2.15,2.24,3.65,4.66,4.49,7.24
	c0.87,2.67,1.31,6.82,1.31,12.45v17.78h6.25v19.37h-31.61v-4.19c-4.37,3.56-10.22,5.33-17.54,5.33c-6.89,0-12.08-1.91-15.58-5.71
	c-3.53-3.81-5.29-8.32-5.29-13.53c0-5.76,2.17-10.48,6.5-14.16c4.3-3.69,9.91-5.53,16.84-5.53c6.32,0,11.34,1.04,15.07,3.11v-1.84
	c0-3.81-0.22-6.48-0.66-8c-0.47-1.61-1.51-2.98-3.12-4.13c-1.68-1.1-3.63-1.65-5.85-1.65C104.12,84.46,100.99,86.43,98.81,90.36
	L98.81,90.36z M117.81,119v-11.24c-2.25-1.52-4.64-2.29-7.16-2.29c-2.22,0-3.98,0.76-5.29,2.29c-1.31,1.57-1.97,3.55-1.97,5.97
	c0,2.5,0.67,4.53,2.02,6.1c1.38,1.61,2.96,2.41,4.74,2.41C113.31,122.24,115.86,121.16,117.81,119L117.81,119z"/>
<path d="M100.27,137.15c-7.22,0-12.78-2.06-16.5-6.12c-3.73-4.03-5.62-8.87-5.62-14.38c0-6.12,2.34-11.2,6.95-15.12
	c4.51-3.86,10.45-5.83,17.65-5.83c5.52,0,10.15,0.79,13.82,2.36c-0.01-3.58-0.21-6.1-0.61-7.49c-0.39-1.34-1.25-2.46-2.64-3.45
	c-1.45-0.95-3.14-1.42-5.12-1.42c-3.61,0-6.31,1.72-8.28,5.26l-0.41,0.75l-22.26-2.85l0.53-1.47c2.29-6.34,6.06-10.87,11.2-13.46
	c4.96-2.53,12.31-3.82,21.84-3.82c3.49,0,6.66,0.14,9.43,0.42c2.8,0.28,5.34,0.71,7.52,1.27c4.66,1.1,8.2,2.86,10.52,5.23
	c2.28,2.38,3.89,4.98,4.78,7.73c0.92,2.82,1.37,7.02,1.37,12.84v16.52h6.25V136h-34.12v-2.99
	C112.24,135.76,106.78,137.15,100.27,137.15L100.27,137.15z M102.74,98.22c-6.58,0-11.97,1.76-16.02,5.22
	c-4.08,3.47-6.06,7.79-6.06,13.21c0,4.86,1.67,9.12,4.96,12.67c3.23,3.53,8.16,5.31,14.66,5.31c7,0,12.63-1.7,16.75-5.05l2.05-1.67
	v5.58h29.1v-16.85h-6.25V97.6c0-5.47-0.42-9.53-1.25-12.06c-0.78-2.39-2.19-4.66-4.2-6.76c-1.97-2.01-5.1-3.54-9.31-4.53
	c-2.09-0.54-4.49-0.94-7.17-1.21c-2.68-0.27-5.77-0.41-9.18-0.41c-9.13,0-16.1,1.19-20.7,3.54c-4.16,2.09-7.31,5.66-9.4,10.6
	L98.16,89c2.39-3.86,5.77-5.81,10.04-5.81c2.45,0,4.65,0.62,6.54,1.86c1.88,1.33,3.09,2.94,3.64,4.83c0.48,1.66,0.71,4.39,0.71,8.35
	v3.98l-1.87-1.04C113.67,99.22,108.81,98.22,102.74,98.22L102.74,98.22z M110.15,123.5c-2.16,0-4.07-0.96-5.69-2.85
	c-1.54-1.8-2.32-4.12-2.32-6.92c0-2.7,0.76-4.98,2.26-6.77c1.56-1.82,3.67-2.74,6.26-2.74c2.77,0,5.41,0.84,7.86,2.5l0.55,0.37
	v12.39l-0.32,0.36C116.56,122.27,113.67,123.5,110.15,123.5L110.15,123.5z M110.65,106.74c-1.85,0-3.27,0.6-4.34,1.85
	c-1.12,1.33-1.66,3.02-1.66,5.15c0,2.21,0.56,3.93,1.71,5.28c1.14,1.33,2.38,1.97,3.79,1.97c2.64,0,4.74-0.81,6.4-2.48v-10.05
	C114.67,107.3,112.74,106.74,110.65,106.74z"/>
<path class="st1" d="M164.52,134.84h-15.68v-19.56h14.67c3.76,5,7.88,7.49,12.35,7.49c4.5,0,6.76-1.16,6.76-3.49
	c0-1.18-0.49-2.1-1.46-2.73c-1.01-0.68-3.68-1.67-8.02-2.98c-3.5-1.18-7.36-2.56-11.59-4.13c-3.66-1.31-6.55-2.96-8.67-4.95
	c-2.18-1.99-3.65-3.94-4.39-5.84c-0.81-1.91-1.21-4.4-1.21-7.49c0-6.81,1.92-11.83,5.75-15.05c3.8-3.18,8.62-4.76,14.47-4.76
	c6.05,0,11.13,1.44,15.23,4.32V72.5h15.48v17.91h-14.32c-3.56-4.27-7.8-6.41-12.7-6.41c-3.86,0-5.8,1.29-5.8,3.87
	c0,1.23,0.57,2.03,1.71,2.41c0.97,0.38,4.2,1.29,9.68,2.73c6.22,1.65,11.07,3.3,14.57,4.95c3.46,1.65,6.07,3.83,7.81,6.54
	c1.71,2.71,2.57,6.03,2.57,9.97c0,7.11-2.1,12.36-6.3,15.75c-4.17,3.35-9.31,5.02-15.43,5.02c-6.08,0-11.24-1.4-15.48-4.19
	L164.52,134.84L164.52,134.84z"/>
<path d="M179.99,136.47c-5.41,0-10.18-1.09-14.22-3.24v2.86h-18.19v-22.07h16.55l0.38,0.5c3.5,4.64,7.31,6.99,11.35,6.99
	c3.65,0,5.5-0.75,5.5-2.24c0-0.76-0.27-1.28-0.89-1.68c-0.64-0.43-2.47-1.25-7.7-2.84c-3.49-1.18-7.4-2.57-11.67-4.15
	c-3.8-1.36-6.86-3.12-9.1-5.22c-2.3-2.1-3.89-4.22-4.7-6.3c-0.85-2.02-1.29-4.7-1.29-7.95c0-7.17,2.08-12.56,6.2-16.01
	c4.01-3.36,9.15-5.06,15.28-5.06c5.35,0,10.04,1.11,13.97,3.3V71.2h17.99v20.42h-16.16l-0.38-0.45c-3.34-4.01-7.18-5.96-11.74-5.96
	c-4.54,0-4.54,1.83-4.54,2.62c0,0.69,0.22,1.01,0.85,1.22c0.7,0.27,2.87,0.94,9.6,2.71c6.28,1.67,11.25,3.36,14.79,5.03
	c3.66,1.74,6.46,4.1,8.33,7c1.84,2.91,2.77,6.49,2.77,10.65c0,7.48-2.28,13.11-6.77,16.73
	C191.83,134.69,186.37,136.47,179.99,136.47L179.99,136.47z M163.26,128.69l1.95,1.29c4,2.64,8.98,3.98,14.78,3.98
	s10.72-1.6,14.64-4.74c3.87-3.12,5.83-8.09,5.83-14.77c0-3.68-0.8-6.8-2.38-9.3c-1.61-2.49-4.06-4.54-7.29-6.08
	c-3.4-1.61-8.23-3.25-14.35-4.87c-5.57-1.46-8.78-2.37-9.81-2.77c-1.6-0.53-2.51-1.81-2.51-3.58c0-1.92,0.92-5.13,7.05-5.13
	c5.1,0,9.56,2.16,13.28,6.41h12.48V73.74h-12.96v4.34l-1.98-1.39c-3.86-2.71-8.74-4.09-14.5-4.09c-5.52,0-10.12,1.5-13.66,4.47
	c-3.51,2.95-5.3,7.69-5.3,14.08c0,2.91,0.37,5.26,1.11,7c0.68,1.75,2.05,3.56,4.08,5.4c1.99,1.87,4.76,3.45,8.25,4.7
	c4.25,1.58,8.14,2.96,11.57,4.12c5.95,1.8,7.6,2.65,8.31,3.13c1.31,0.85,2.02,2.16,2.02,3.77c0,2.17-1.39,4.75-8.01,4.75
	c-4.71,0-9.07-2.52-12.97-7.49H150.1v17.04h13.17v-4.88L163.26,128.69z"/>
<path class="st1" d="M241.4,135.89h-38.62v-19.37h6.4v-49.6h-6.4V47.55h31.76v34.16c6.76-5.71,13.39-8.57,19.91-8.57
	c5.74,0,10.3,2.1,13.66,6.29c3.36,4.23,5.04,11.71,5.04,22.42v14.67h5.75v19.37h-31.11v-25.21c0-7.67-0.35-12.47-1.06-14.42
	c-0.74-1.95-2.29-2.92-4.64-2.92c-2.45,0-4.97,1.08-7.56,3.24v19.94h6.86L241.4,135.89L241.4,135.89z"/>
<path d="M280.17,137.15h-33.62v-26.46c0-9.32-0.53-12.75-0.98-13.99c-0.55-1.44-1.62-2.09-3.46-2.09c-2,0-4.12,0.87-6.3,2.58v18.08
	h6.86v21.88h-41.13v-21.88h6.4V68.19h-6.4V46.31h34.27v32.8c6.27-4.78,12.54-7.21,18.66-7.21s11.04,2.27,14.64,6.76
	c3.58,4.51,5.32,12.1,5.32,23.2v13.41h5.75v21.88L280.17,137.15z M249.06,134.64h28.59v-16.85h-5.75v-15.93
	c0-10.37-1.61-17.65-4.77-21.63c-3.14-3.91-7.29-5.81-12.68-5.81c-6.18,0-12.61,2.78-19.1,8.28l-2.07,1.75V48.83h-29.25v16.85h6.4
	v52.11h-6.4v16.85h36.1v-16.85h-6.86V96l0.45-0.38c2.81-2.34,5.62-3.53,8.37-3.53c3.63,0,5.17,2.03,5.82,3.73
	c0.77,2.13,1.14,6.98,1.14,14.86L249.06,134.64L249.06,134.64z"/>
<path class="st2" d="M294.12,65.27c-9.83,3.35-20.52-1.91-23.86-11.74c-3.35-9.83,1.91-20.52,11.74-23.86
	c9.83-3.35,20.52,1.91,23.86,11.74C309.21,51.24,303.95,61.93,294.12,65.27L294.12,65.27z"/>
<path d="M288.08,67.53c-8.36,0-16.17-5.26-19.01-13.6c-1.73-5.07-1.37-10.52,0.99-15.32c2.37-4.81,6.46-8.41,11.54-10.13
	c5.07-1.73,10.52-1.38,15.33,0.99s8.41,6.46,10.13,11.54c1.73,5.07,1.38,10.51-0.99,15.32s-6.46,8.41-11.54,10.13
	C292.39,67.19,290.21,67.53,288.08,67.53L288.08,67.53z M288.08,29.91c-1.9,0-3.82,0.31-5.67,0.95
	c-9.16,3.12-14.08,13.11-10.96,22.27s13.11,14.08,22.27,10.96c4.44-1.51,8.02-4.66,10.09-8.86c2.07-4.21,2.38-8.96,0.87-13.4
	s-4.66-8.02-8.86-10.09C293.36,30.52,290.73,29.91,288.08,29.91L288.08,29.91z"/>
<path class="st2" d="M350.88,107.9c-11.24,3.83-23.46-2.18-27.29-13.43c-3.82-11.24,2.19-23.46,13.43-27.28
	c11.24-3.83,23.46,2.18,27.29,13.42C368.13,91.86,362.12,104.07,350.88,107.9L350.88,107.9z"/>
<path d="M343.97,110.3c-9.48,0-18.35-5.97-21.57-15.43c-4.04-11.88,2.33-24.83,14.21-28.88c5.75-1.96,11.93-1.56,17.38,1.12
	c5.46,2.68,9.54,7.33,11.5,13.09c4.04,11.88-2.33,24.84-14.21,28.88C348.87,109.91,346.4,110.3,343.97,110.3z M343.97,67.29
	c-2.2,0-4.4,0.36-6.54,1.09c-10.57,3.6-16.24,15.12-12.64,25.69c3.6,10.57,15.12,16.24,25.69,12.64
	c10.57-3.59,16.24-15.12,12.64-25.69c-1.74-5.12-5.37-9.25-10.22-11.64C350.07,67.99,347.03,67.29,343.97,67.29z"/>
<path class="st2" d="M390.24,105.75c-2.79-14.98,7.12-29.39,22.13-32.19s29.44,7.08,32.23,22.05s-7.11,29.38-22.13,32.18
	C407.46,130.6,393.03,120.73,390.24,105.75L390.24,105.75z"/>
<path d="M417.34,129.54c-5.78,0-11.41-1.73-16.27-5.06c-6.37-4.35-10.65-10.92-12.06-18.5c-2.91-15.63,7.47-30.73,23.14-33.65
	c7.59-1.41,15.27,0.21,21.64,4.56c6.37,4.36,10.65,10.92,12.06,18.5c2.91,15.63-7.46,30.73-23.13,33.65
	C420.92,129.37,419.12,129.54,417.34,129.54z M391.47,105.52c1.29,6.91,5.2,12.91,11.01,16.88c5.81,3.98,12.83,5.45,19.76,4.16
	c14.31-2.67,23.78-16.45,21.12-30.72c-1.29-6.91-5.2-12.91-11.01-16.88c-5.81-3.98-12.83-5.45-19.76-4.16
	C398.29,77.47,388.81,91.25,391.47,105.52z"/>
<g>
	<path class="st2" d="M116.87,65c-8.06,2.74-16.82-1.57-19.56-9.63c-2.74-8.06,1.57-16.82,9.63-19.56s16.82,1.56,19.56,9.63
		C129.24,53.5,124.93,62.26,116.87,65z"/>
	<path d="M111.92,67.08c-6.94,0-13.44-4.37-15.8-11.3c-2.96-8.7,1.71-18.19,10.41-21.15c4.22-1.44,8.74-1.14,12.73,0.82
		c4,1.97,6.99,5.37,8.42,9.59c1.44,4.21,1.14,8.74-0.82,12.73c-1.97,4-5.37,6.99-9.59,8.42C115.5,66.79,113.7,67.08,111.92,67.08
		L111.92,67.08z M111.92,36.24c-1.54,0-3.08,0.25-4.57,0.76C99.96,39.51,96,47.57,98.51,54.96c2.51,7.39,10.57,11.36,17.96,8.84
		c3.58-1.22,6.47-3.76,8.14-7.15c1.67-3.39,1.92-7.23,0.7-10.81s-3.76-6.47-7.15-8.14C116.18,36.73,114.05,36.24,111.92,36.24
		L111.92,36.24z"/>
</g>
<g>
	<path class="st2" d="M194.81,46.99c-9.1,3.1-18.98-1.76-22.08-10.86c-3.1-9.1,1.77-18.98,10.86-22.08
		c9.1-3.1,18.98,1.77,22.08,10.87C208.77,34.01,203.91,43.89,194.81,46.99z"/>
	<path d="M189.19,49.18c-2.82,0-5.62-0.65-8.22-1.93c-4.47-2.2-7.82-6.01-9.42-10.73c-1.61-4.72-1.28-9.78,0.92-14.25
		s6.01-7.82,10.73-9.42c4.72-1.61,9.78-1.28,14.25,0.92s7.82,6.01,9.42,10.73c1.61,4.72,1.28,9.78-0.92,14.25s-6.01,7.82-10.73,9.42
		C193.25,48.85,191.21,49.18,189.19,49.18L189.19,49.18z M189.22,14.36c-1.75,0-3.51,0.29-5.22,0.87c-4.08,1.39-7.38,4.28-9.28,8.15
		s-2.19,8.25-0.8,12.33s4.28,7.38,8.15,9.28s8.25,2.19,12.33,0.8s7.38-4.28,9.28-8.15s2.19-8.25,0.8-12.33s-4.28-7.38-8.15-9.28
		C194.08,14.92,191.66,14.36,189.22,14.36L189.22,14.36z"/>
</g>
<g>
	<path class="st2" d="M53.22,114.44c-5.53,1.88-11.54-1.08-13.42-6.6c-1.88-5.53,1.08-11.54,6.6-13.42
		c5.53-1.88,11.54,1.08,13.42,6.6C61.7,106.55,58.75,112.56,53.22,114.44z"/>
	<path d="M49.82,116.26c-4.93,0-9.54-3.1-11.21-8.02c-1.02-2.99-0.81-6.2,0.59-9.04s3.81-4.96,6.8-5.97
		c2.99-1.02,6.2-0.81,9.04,0.58c2.84,1.4,4.96,3.81,5.98,6.8c1.02,2.99,0.81,6.2-0.58,9.04c-1.4,2.84-3.81,4.96-6.8,5.98
		C52.37,116.06,51.08,116.26,49.82,116.26L49.82,116.26z M49.82,95.11c-1.01,0-2.03,0.17-3.01,0.5c-2.36,0.8-4.26,2.47-5.36,4.71
		c-1.1,2.23-1.26,4.76-0.46,7.12c1.65,4.86,6.96,7.48,11.82,5.82c2.36-0.8,4.26-2.47,5.36-4.71c1.1-2.23,1.26-4.76,0.46-7.12
		c-0.8-2.36-2.47-4.26-4.71-5.36C52.63,95.43,51.23,95.11,49.82,95.11L49.82,95.11z"/>
</g>
<g>
	<path class="st3" d="M426.16,88.54l-9.86,2.96l-0.49-1.64c-0.52-1.74-0.98-2.85-1.37-3.31c-0.39-0.47-0.96-0.59-1.71-0.37
		c-0.6,0.18-0.98,0.55-1.14,1.1c-0.16,0.55-0.1,1.29,0.18,2.22c0.46,1.55,1.1,2.54,1.9,2.97c0.79,0.44,2.92,1.11,6.41,2.01
		c2.96,0.76,5.02,1.41,6.17,1.94c1.15,0.53,2.26,1.44,3.33,2.72c1.07,1.29,1.94,3.03,2.6,5.22c1.06,3.51,1.04,6.53-0.05,9.04
		c-1.09,2.51-3.26,4.51-6.5,6l1.12,3.71l-4.54,1.37l-1.15-3.83c-2.71,0.53-5.32,0.21-7.82-0.96s-4.41-3.96-5.73-8.35l-0.58-1.93
		l9.86-2.96l0.73,2.42c0.8,2.65,1.39,4.27,1.79,4.85c0.4,0.58,0.99,0.75,1.77,0.52c0.67-0.2,1.1-0.57,1.29-1.12
		c0.19-0.54,0.15-1.26-0.11-2.14c-0.67-2.21-1.3-3.75-1.89-4.61c-0.6-0.86-1.96-1.58-4.11-2.16c-3.58-0.98-6.04-1.75-7.39-2.32
		c-1.35-0.56-2.66-1.53-3.93-2.9s-2.22-3.08-2.83-5.11c-0.89-2.94-0.75-5.51,0.42-7.68c1.17-2.18,3.36-3.96,6.57-5.36l-0.95-3.15
		l4.54-1.37l0.95,3.15c3.16-0.52,5.75-0.19,7.75,1.01c2.01,1.2,3.45,3.25,4.33,6.16C425.83,87.06,425.98,87.69,426.16,88.54
		L426.16,88.54z"/>
</g>
<g>
	<path class="st3" d="M348.16,78.49l-6.14,4l-0.66-1.02c-0.71-1.08-1.24-1.75-1.6-1.99c-0.36-0.24-0.77-0.21-1.24,0.09
		c-0.38,0.24-0.56,0.57-0.56,0.98s0.19,0.9,0.57,1.48c0.63,0.96,1.26,1.51,1.89,1.64c0.62,0.14,2.22,0.17,4.78,0.09
		c2.17-0.07,3.7-0.04,4.6,0.09c0.89,0.13,1.83,0.53,2.82,1.19c0.99,0.66,1.93,1.68,2.82,3.04c1.42,2.19,2.01,4.25,1.77,6.18
		c-0.24,1.93-1.32,3.73-3.24,5.39l1.5,2.31l-2.83,1.84l-1.55-2.38c-1.75,0.91-3.59,1.21-5.53,0.91s-3.8-1.82-5.58-4.55l-0.78-1.2
		l6.14-4l0.98,1.5c1.07,1.65,1.81,2.63,2.19,2.95c0.39,0.32,0.82,0.32,1.31,0c0.42-0.27,0.63-0.61,0.65-1.02s-0.15-0.89-0.5-1.44
		c-0.9-1.38-1.63-2.3-2.21-2.77s-1.66-0.68-3.23-0.65c-2.64,0.05-4.47,0.01-5.51-0.1c-1.03-0.11-2.12-0.51-3.27-1.19
		c-1.14-0.68-2.13-1.66-2.95-2.92c-1.19-1.83-1.61-3.61-1.25-5.33s1.5-3.38,3.41-4.97l-1.28-1.96l2.83-1.84l1.28,1.96
		c2.05-0.99,3.88-1.28,5.49-0.86c1.61,0.41,3.01,1.53,4.19,3.34C347.63,77.55,347.86,77.94,348.16,78.49L348.16,78.49z"/>
</g>
<g>
	<path class="st3" d="M193.15,23.83l-5.16,2.13l-0.35-0.86c-0.38-0.91-0.68-1.48-0.92-1.71c-0.24-0.23-0.55-0.27-0.94-0.11
		c-0.32,0.13-0.5,0.35-0.56,0.66s0.01,0.7,0.22,1.19c0.33,0.81,0.73,1.31,1.19,1.5c0.45,0.19,1.64,0.44,3.56,0.74
		c1.64,0.25,2.78,0.49,3.43,0.71s1.3,0.65,1.95,1.29c0.65,0.64,1.21,1.53,1.68,2.68c0.76,1.84,0.91,3.46,0.46,4.88
		c-0.45,1.41-1.51,2.61-3.18,3.59l0.8,1.94l-2.37,0.98l-0.83-2c-1.43,0.44-2.86,0.4-4.27-0.09c-1.41-0.5-2.59-1.9-3.54-4.19
		l-0.42-1.01l5.16-2.13l0.52,1.26c0.57,1.39,0.98,2.23,1.23,2.52c0.25,0.29,0.57,0.35,0.98,0.18c0.35-0.14,0.56-0.37,0.63-0.67
		c0.07-0.3,0.02-0.69-0.17-1.15c-0.48-1.16-0.9-1.95-1.27-2.38s-1.15-0.74-2.33-0.94c-1.98-0.34-3.35-0.62-4.11-0.85
		c-0.76-0.23-1.52-0.68-2.28-1.35s-1.36-1.54-1.8-2.6c-0.64-1.54-0.7-2.93-0.19-4.17s1.59-2.32,3.25-3.24l-0.68-1.65l2.37-0.98
		l0.68,1.65c1.67-0.45,3.09-0.41,4.24,0.12c1.15,0.54,2.04,1.57,2.67,3.09C192.89,23.05,193.01,23.38,193.15,23.83L193.15,23.83z"/>
</g>
<g>
	<path class="st3" d="M295.59,46.29l-4.79-2.86l0.47-0.79c0.5-0.85,0.78-1.43,0.83-1.76c0.04-0.33-0.12-0.6-0.48-0.82
		c-0.29-0.17-0.58-0.19-0.86-0.06c-0.28,0.14-0.55,0.43-0.82,0.88c-0.45,0.75-0.61,1.37-0.49,1.85c0.11,0.48,0.63,1.57,1.54,3.3
		c0.78,1.46,1.27,2.52,1.48,3.18c0.21,0.66,0.25,1.43,0.13,2.33s-0.5,1.88-1.14,2.95c-1.02,1.71-2.23,2.8-3.63,3.29
		c-1.4,0.48-3,0.35-4.78-0.4l-1.08,1.8l-2.21-1.32l1.11-1.86c-1.21-0.89-2.03-2.05-2.48-3.48c-0.45-1.43-0.03-3.21,1.24-5.35
		l0.56-0.94l4.79,2.86l-0.7,1.17c-0.77,1.29-1.2,2.12-1.28,2.49c-0.09,0.37,0.06,0.67,0.44,0.9c0.32,0.19,0.63,0.23,0.92,0.11
		c0.29-0.12,0.56-0.4,0.81-0.83c0.64-1.08,1.02-1.89,1.15-2.44c0.12-0.55-0.09-1.36-0.64-2.43c-0.92-1.79-1.51-3.06-1.78-3.8
		c-0.27-0.75-0.36-1.62-0.28-2.63s0.42-2.01,1.01-3c0.85-1.43,1.93-2.31,3.23-2.64c1.3-0.33,2.81-0.11,4.55,0.67l0.91-1.53
		l2.21,1.32l-0.91,1.53c1.37,1.07,2.18,2.23,2.43,3.47c0.26,1.24-0.04,2.57-0.88,3.99C296.06,45.61,295.87,45.9,295.59,46.29
		L295.59,46.29z"/>
</g>
<g>
	<path class="st3" d="M112.44,43.47l-3.4,3.4l-0.56-0.57c-0.6-0.6-1.03-0.95-1.3-1.06c-0.26-0.11-0.52-0.03-0.78,0.23
		c-0.21,0.21-0.28,0.44-0.23,0.71c0.06,0.26,0.24,0.56,0.56,0.88c0.53,0.53,1.01,0.8,1.44,0.8c0.42,0.01,1.45-0.19,3.08-0.59
		c1.39-0.34,2.38-0.53,2.97-0.57s1.25,0.09,1.98,0.38c0.72,0.29,1.47,0.82,2.22,1.58c1.21,1.21,1.87,2.46,1.98,3.73
		c0.11,1.27-0.34,2.58-1.35,3.91l1.28,1.28l-1.57,1.57l-1.32-1.32c-1,0.82-2.14,1.27-3.43,1.33c-1.29,0.07-2.69-0.65-4.21-2.17
		l-0.67-0.67l3.4-3.4l0.83,0.83c0.92,0.92,1.52,1.45,1.81,1.6s0.57,0.09,0.84-0.18c0.23-0.23,0.32-0.48,0.28-0.75
		s-0.21-0.55-0.52-0.86c-0.76-0.76-1.36-1.26-1.8-1.48s-1.16-0.21-2.17,0.02c-1.69,0.39-2.88,0.62-3.56,0.68
		c-0.68,0.07-1.43-0.04-2.26-0.32c-0.83-0.28-1.59-0.78-2.3-1.48c-1.02-1.02-1.53-2.1-1.53-3.26c0-1.15,0.5-2.37,1.52-3.66
		l-1.09-1.09l1.57-1.57l1.09,1.09c1.19-0.91,2.32-1.35,3.42-1.3c1.09,0.05,2.14,0.57,3.15,1.58
		C111.97,42.93,112.18,43.16,112.44,43.47L112.44,43.47z"/>
</g>
<g>
	<path class="st3" d="M50.54,101.47l-1.86,1.86l-0.31-0.31c-0.33-0.33-0.56-0.52-0.71-0.58c-0.14-0.06-0.29-0.02-0.43,0.12
		c-0.11,0.11-0.15,0.24-0.12,0.39c0.03,0.14,0.13,0.3,0.31,0.48c0.29,0.29,0.55,0.44,0.79,0.44c0.23,0,0.79-0.1,1.69-0.32
		c0.76-0.19,1.3-0.29,1.62-0.31c0.32-0.02,0.68,0.05,1.08,0.21c0.4,0.16,0.8,0.45,1.22,0.86c0.66,0.66,1.02,1.34,1.08,2.04
		s-0.19,1.41-0.74,2.14l0.7,0.7L54,110.05l-0.72-0.72c-0.55,0.45-1.17,0.69-1.88,0.73s-1.47-0.36-2.3-1.19l-0.36-0.36l1.86-1.86
		l0.46,0.46c0.5,0.5,0.83,0.79,0.99,0.88c0.16,0.08,0.31,0.05,0.46-0.1c0.13-0.13,0.18-0.26,0.16-0.41
		c-0.02-0.15-0.12-0.3-0.28-0.47c-0.42-0.42-0.75-0.69-0.98-0.81c-0.24-0.12-0.63-0.12-1.19,0.01c-0.92,0.21-1.57,0.34-1.94,0.37
		c-0.37,0.04-0.78-0.02-1.24-0.18c-0.45-0.15-0.87-0.42-1.26-0.81c-0.56-0.56-0.84-1.15-0.84-1.78s0.28-1.3,0.83-2l-0.59-0.59
		l0.86-0.86l0.59,0.59c0.65-0.5,1.27-0.74,1.87-0.71c0.6,0.03,1.17,0.31,1.72,0.86C50.28,101.18,50.39,101.3,50.54,101.47
		L50.54,101.47z"/>
</g>
</svg>
