<svg xmlns="http://www.w3.org/2000/svg" viewBox="0 0 238.3 149.79"><defs><style>.cls-1{isolation:isolate;}.cls-2{fill:#fff;}.cls-3{fill:#231f20;}.cls-4{fill:#27aae1;}.cls-5{fill:#fcee1e;}.cls-6{fill:#ed2127;}.cls-7{fill:#ea2127;}.cls-10,.cls-8{mix-blend-mode:multiply;}.cls-10,.cls-9{fill:#a7a7aa;}</style></defs><g class="cls-1"><g id="Layer_1" data-name="Layer 1"><path d="M113.07,55.38a4.54,4.54,0,0,0-2.73-4.17,4.46,4.46,0,0,0-1.75-.39V19.27A4.55,4.55,0,0,0,104,14.71a4.65,4.65,0,0,0-.75.06L93.06,16.48A4.54,4.54,0,0,0,89.25,21V50.82a4.51,4.51,0,0,0-3.19,1.41l-.07-33a4.41,4.41,0,0,0-1.5-3.47,4.44,4.44,0,0,0-3.69-1L70.46,16.43a4.55,4.55,0,0,0-3.8,4.5l.06,29.76L60,21a4.53,4.53,0,0,0-4.44-3.55H39.33A4.55,4.55,0,0,0,34.9,21L25.25,61.3a4.56,4.56,0,0,0,4.43,5.62H40.75a4.58,4.58,0,0,0,4.48-3.7l.65-3.4H48l.62,3.36a4.56,4.56,0,0,0,4.48,3.74H64.71A4.51,4.51,0,0,0,68,65.5a4.58,4.58,0,0,0,3.3,1.43l10.23,0a4.6,4.6,0,0,0,3.73-2,4.54,4.54,0,0,0,1,1.37l9.31,8.38a4.53,4.53,0,0,0,3,1.17h.56a4.51,4.51,0,0,0,3-1.17l9.31-8.38a4.58,4.58,0,0,0,1.51-3.39Z"/><path d="M163,81.69a1.66,1.66,0,0,1-1.46-2.41l2-3.91H127.82V73.64a3.28,3.28,0,0,0-.3-1.36l-.43-.92h49a3.1,3.1,0,0,0,3.11-3.1V40.15A3.11,3.11,0,0,0,176.1,37H123.9a3.11,3.11,0,0,0-3.11,3.11V65.86l-3.35-3a2.51,2.51,0,0,0-.37-.27l-.28-.2V40.15a7.08,7.08,0,0,1,3.25-6l.33-.2a7.31,7.31,0,0,1,1.28-.58l13.07-5.84a1.64,1.64,0,0,1,.68-.15,1.67,1.67,0,0,1,1.4.8,1.6,1.6,0,0,1,0,1.6L135.19,33H176.1a7.13,7.13,0,0,1,7.12,7.12V68.26a7.19,7.19,0,0,1-5,6.8L163.7,81.54A1.64,1.64,0,0,1,163,81.69Z"/><path d="M176.1,33.68h-42l2.16-4.16A1,1,0,0,0,135,28.15L121.86,34a6.59,6.59,0,0,0-1.15.51l-.32.19a6.49,6.49,0,0,0-3,5.43V62a3.37,3.37,0,0,1,.44.33l2.26,2V40.15a3.76,3.76,0,0,1,3.76-3.76h52.2a3.76,3.76,0,0,1,3.76,3.76v28.1A3.76,3.76,0,0,1,176.1,72h-48a4,4,0,0,1,.36,1.64v1.07h36.18l-2.51,4.86a1,1,0,0,0,1.29,1.36L178,74.44a6.48,6.48,0,0,0,4.58-6.19V40.15A6.47,6.47,0,0,0,176.1,33.68Z"/><path class="cls-2" d="M176.1,35.6H123.9a4.55,4.55,0,0,0-4.55,4.55v24.6l7.3,6.58a3.11,3.11,0,0,1,.74,1l.21.46h48.5a4.55,4.55,0,0,0,4.55-4.54V40.15A4.55,4.55,0,0,0,176.1,35.6Z"/><path d="M50.92,75.77H40.13a.65.65,0,0,0-.65.65V95.21l-.1-.27a.36.36,0,0,0,0-.09l-10-18.73a.63.63,0,0,0-.57-.35H19a.66.66,0,0,0-.66.65v40.31a.66.66,0,0,0,.66.65H29.74a.65.65,0,0,0,.65-.65V99.29l.38,1.08.05.11,9.54,16.57a.64.64,0,0,0,.57.33h10a.65.65,0,0,0,.65-.65V76.42A.65.65,0,0,0,50.92,75.77Z"/><path d="M68.22,87.12a14.28,14.28,0,0,0-9,2.95,10.45,10.45,0,0,0-4,8c-.12,3.26-.12,6.32,0,9.36a10.48,10.48,0,0,0,4,8,14.34,14.34,0,0,0,9,2.89,14.35,14.35,0,0,0,9-2.88,10.31,10.31,0,0,0,3.9-7.91c.12-3.17.12-6.69,0-9.42C80.84,91.61,75.53,87.12,68.22,87.12Zm1.39,19.76c0,1.09-.6,1.82-1.39,1.82s-1.41-.75-1.45-1.82c-.11-2.57-.11-6,0-8.52a1.63,1.63,0,0,1,1.45-1.7,1.59,1.59,0,0,1,1.39,1.7C69.72,101.12,69.72,104.46,69.61,106.88Z"/><path d="M127,87.12a8.2,8.2,0,0,0-6.27,2.6V78.55l3.38,3.11a.64.64,0,0,0,.44.18.67.67,0,0,0,.66-.65V73.65a.64.64,0,0,0-.22-.49l-9.3-8.38a.66.66,0,0,0-.44-.17h-.56a.64.64,0,0,0-.44.17L105,73.16a.67.67,0,0,0-.21.49v7.54a.64.64,0,0,0,.39.59.58.58,0,0,0,.26.06.62.62,0,0,0,.44-.18l3.39-3.11v38.18a.65.65,0,0,0,.65.65h10.22a.65.65,0,0,0,.65-.65V98.56a1.89,1.89,0,0,1,1.9-1.9c.47,0,1.45,0,1.45,2.19v17.88a.65.65,0,0,0,.65.65H135a.65.65,0,0,0,.65-.65V97.37c0-3.44-.85-6.09-2.53-7.86A8.12,8.12,0,0,0,127,87.12Z"/><path d="M153.06,109c-2.1,0-2.64-.38-2.64-1.84V88.34a.68.68,0,0,0-.66-.65h-.11l-10.22,1.76a.66.66,0,0,0-.54.64V109c0,5.89,3.22,9,9.29,9h0a24.63,24.63,0,0,0,5-.58.66.66,0,0,0,.52-.64v-7.1A.65.65,0,0,0,153.06,109Z"/><path d="M174.43,87.12a9.16,9.16,0,0,0-7.67,3.57,8.92,8.92,0,0,0-7.32-3.28,11.66,11.66,0,0,0-4.41.91.65.65,0,0,0-.38.59v6.81a.66.66,0,0,0,.65.66c1.76,0,2.19.45,2.19,2.3v18a.65.65,0,0,0,.65.65h10.22a.65.65,0,0,0,.65-.65V98.48a2,2,0,0,1,1.9-1.82c1.1,0,1.34.85,1.34,1.56v18.51a.65.65,0,0,0,.65.65h10.22a.65.65,0,0,0,.65-.65V97.94c0-3.61-.92-6.38-2.72-8.26A8.9,8.9,0,0,0,174.43,87.12Z"/><path d="M206,110.92c-1.8-.36-3.72-.6-5.58-.83-1.37-.17-2.66-.34-3.75-.53-.46-.08-.48-.16-.48-.49a.72.72,0,0,1,.36-.46,16.37,16.37,0,0,0,3.19.26c7.15,0,11.95-3.6,11.95-8.94a5.67,5.67,0,0,0-1.46-4.09c1.3.1,2.8.2,3.84.25h0a.64.64,0,0,0,.64-.58,44.83,44.83,0,0,0,.06-7,.64.64,0,0,0-.65-.58h-9.42a15.43,15.43,0,0,0-5.17-.86,14.91,14.91,0,0,0-9,2.71,10.53,10.53,0,0,0-.13,16.35c-2.77,1.45-4.12,3.42-4.12,6,0,2.79,1.66,4.87,4.59,5.85-.59.11-1.69.34-2.7.62-2.32.68-3.76,1.67-3.76,4.48s1.68,5.35,4.87,7a24,24,0,0,0,10.83,2.26,17.7,17.7,0,0,0,10.6-3,10.39,10.39,0,0,0,4.3-8.65C215.05,115.7,211.73,112.12,206,110.92Zm-6.43-14.54c1.25,0,1.39.89,1.39,1.56,0,.41,0,1.67-1.39,1.67s-1.33-1.26-1.33-1.67C198.19,96.93,198.66,96.38,199.52,96.38Zm.34,26.79c-1.84,0-3.83-.64-3.83-1.67,0-.18,0-.37,1.11-.68l4.43-1.2c1,.26,2,.65,2,1.82S202.12,123.17,199.86,123.17Z"/><path d="M40.93,120.64a3.91,3.91,0,0,1-3.39-2l-3.89-6.76v4.81a3.92,3.92,0,0,1-3.91,3.91H19a3.92,3.92,0,0,1-3.91-3.91V76.42A3.92,3.92,0,0,1,19,72.51h9.82a3.93,3.93,0,0,1,3.45,2.07l4,7.5V76.42a3.92,3.92,0,0,1,3.91-3.91H50.92a3.92,3.92,0,0,1,3.91,3.91v40.31a3.92,3.92,0,0,1-3.91,3.91Z"/><path d="M68.22,121.49a17.6,17.6,0,0,1-11.06-3.61A13.67,13.67,0,0,1,52,107.54v0c-.11-3.11-.11-6.25,0-9.6a13.65,13.65,0,0,1,5.16-10.37,17.54,17.54,0,0,1,11.07-3.67,17.28,17.28,0,0,1,11.19,3.81,14,14,0,0,1,5,10.19v0c.11,2.8.11,6.42,0,9.67a13.51,13.51,0,0,1-5.12,10.33A17.61,17.61,0,0,1,68.22,121.49Z"/><path d="M124.74,120.64a3.94,3.94,0,0,1-2.33-.77,3.89,3.89,0,0,1-2.32.77H109.87a3.92,3.92,0,0,1-3.91-3.91V85.05a3.64,3.64,0,0,1-.57,0,3.91,3.91,0,0,1-3.91-3.9V73.65a3.92,3.92,0,0,1,1.29-2.91l9.31-8.38a3.9,3.9,0,0,1,2.62-1h.56a3.9,3.9,0,0,1,2.62,1l9.3,8.38a3.92,3.92,0,0,1,1.29,2.91v7.54a3.86,3.86,0,0,1-1.07,2.68,11.2,11.2,0,0,1,8,3.4c2.28,2.39,3.43,5.79,3.43,10.1v19.36a3.92,3.92,0,0,1-3.91,3.91Z"/><path d="M148.18,121.21c-7.85,0-12.54-4.59-12.54-12.26V90.1a3.91,3.91,0,0,1,3.24-3.85l10.22-1.76a4.89,4.89,0,0,1,.66,0,3.91,3.91,0,0,1,3.91,3.9v17.43a3.91,3.91,0,0,1,3.29,3.86v7.1a3.93,3.93,0,0,1-3.09,3.82,27,27,0,0,1-5.68.66Z"/><path d="M172.9,120.64a3.87,3.87,0,0,1-2.27-.73,3.89,3.89,0,0,1-2.27.73H158.14a3.92,3.92,0,0,1-3.91-3.91V99.48a3.9,3.9,0,0,1-2.84-3.76V88.91a3.93,3.93,0,0,1,2.29-3.56,14.92,14.92,0,0,1,5.76-1.2,12.78,12.78,0,0,1,7.26,2.06,13,13,0,0,1,7.73-2.34,12.1,12.1,0,0,1,9,3.55c2.41,2.51,3.62,6,3.62,10.52v18.79a3.91,3.91,0,0,1-3.9,3.91ZM154.21,98.23"/><path d="M200.15,135.68a27.18,27.18,0,0,1-12.34-2.63c-4.27-2.24-6.62-5.75-6.62-9.91a7.05,7.05,0,0,1,3.12-6.29,9,9,0,0,1-1.24-4.66,9.14,9.14,0,0,1,2.53-6.43A13.6,13.6,0,0,1,183.35,98a13.17,13.17,0,0,1,5.25-10.76,18.09,18.09,0,0,1,10.92-3.37,19.38,19.38,0,0,1,5.71.85h8.88A3.91,3.91,0,0,1,218,88.23a48.18,48.18,0,0,1-.06,7.6,3.88,3.88,0,0,1-3.06,3.43c0,.22,0,.44,0,.67a11.14,11.14,0,0,1-4.49,9,13.8,13.8,0,0,1,4.65,3.25,12.42,12.42,0,0,1,3.24,8.58A13.67,13.67,0,0,1,212.69,132,20.82,20.82,0,0,1,200.15,135.68Z"/><path d="M99.14,121.49a16.57,16.57,0,0,1-10.09-3c-2.33-1.76-5.12-5.16-5.12-11.36V99.63h0A3.91,3.91,0,0,1,80,95.72V88.63a3.91,3.91,0,0,1,3.9-3.91h0V79.84A3.92,3.92,0,0,1,85.18,77a3.88,3.88,0,0,1,2.67-1.06h.25l10.22.65a3.91,3.91,0,0,1,3.66,3.9v4.23h2.84a3.91,3.91,0,0,1,3.9,3.91v7.09a3.91,3.91,0,0,1-3.9,3.91H102v5.86a3.22,3.22,0,0,0,0,.33l.39,0a18.67,18.67,0,0,0,2-.06,3.45,3.45,0,0,1,.64,0,3.9,3.9,0,0,1,3.91,3.75l.28,7.09a3.87,3.87,0,0,1-2.63,3.85A25.46,25.46,0,0,1,99.14,121.49Z"/><path d="M105.45,109.13A.61.61,0,0,0,105,109h-.1a20.48,20.48,0,0,1-2.57.11c-2.6,0-3.66-1-3.66-3.61V96.94a.28.28,0,0,0,0-.09v-.47h6.1a.66.66,0,0,0,.65-.66V88.63a.65.65,0,0,0-.65-.65h-6.1V80.49a.65.65,0,0,0-.61-.65l-10.22-.65h0a.66.66,0,0,0-.45.18.63.63,0,0,0-.2.47v6a.31.31,0,0,0,0,.1v2H83.92a.65.65,0,0,0-.65.65v7.09a.66.66,0,0,0,.65.66h3.27v10.76c0,3.9,1.29,6.85,3.82,8.76a13.39,13.39,0,0,0,8.13,2.33,22.52,22.52,0,0,0,6.4-.88.67.67,0,0,0,.44-.65l-.29-7.09A.61.61,0,0,0,105.45,109.13Z"/><path class="cls-2" d="M68.22,118.88a15,15,0,0,1-9.42-3,11.12,11.12,0,0,1-4.19-8.42c-.12-3.06-.12-6.14,0-9.41a11.07,11.07,0,0,1,4.19-8.44,14.93,14.93,0,0,1,9.42-3.09c7.67,0,13.25,4.74,13.56,11.51.11,2.75.11,6.29,0,9.48a11,11,0,0,1-4.15,8.38A15,15,0,0,1,68.22,118.88Zm0-21.58c-.42,0-.78.49-.81,1.09-.11,2.5-.11,5.9,0,8.46,0,.71.36,1.2.81,1.2s.73-.6.75-1.19c.11-2.41.11-5.73,0-8.47C68.94,97.78,68.61,97.3,68.22,97.3Z"/><path class="cls-3" d="M68.21,98.35a1.08,1.08,0,0,0-.93,1.13c-.08,1.87-.08,4.4,0,6.31,0,.71.41,1.21.93,1.21s.86-.48.89-1.2c.09-1.79.09-4.27,0-6.32C69.07,98.84,68.69,98.35,68.21,98.35Z"/><path class="cls-2" d="M82.23,98c-.32-7-6.08-11.94-14-11.94a15.39,15.39,0,0,0-9.71,3.19A11.49,11.49,0,0,0,54.16,98c-.12,3.29-.12,6.38,0,9.45a11.54,11.54,0,0,0,4.36,8.75,15.43,15.43,0,0,0,9.7,3.14,15.39,15.39,0,0,0,9.69-3.13,11.39,11.39,0,0,0,4.32-8.72C82.34,104.28,82.34,100.73,82.23,98Zm-.9,9.48a10.54,10.54,0,0,1-4,8,14.53,14.53,0,0,1-9.13,2.93,14.56,14.56,0,0,1-9.14-2.94,10.69,10.69,0,0,1-4-8.09c-.12-3.05-.12-6.12,0-9.38a10.65,10.65,0,0,1,4-8.1,14.48,14.48,0,0,1,9.14-3C75.64,86.93,81,91.49,81.33,98,81.44,100.74,81.44,104.27,81.33,107.45Z"/><path class="cls-2" d="M206.17,109.85c-.68-.14-1.38-.25-2.08-.36,5.35-1.23,8.65-4.77,8.65-9.56a7.82,7.82,0,0,0-.5-2.85c.66,0,1.28.08,1.82.11a1.74,1.74,0,0,0,1.73-1.58,47.54,47.54,0,0,0,.06-7.16,1.75,1.75,0,0,0-1.74-1.57h-9.23a17.1,17.1,0,0,0-5.36-.85A16,16,0,0,0,189.91,89a10.91,10.91,0,0,0-4.4,9,11.14,11.14,0,0,0,3.09,8,7.26,7.26,0,0,0-3.37,6.18,6.75,6.75,0,0,0,2.6,5.44c-2.23.66-4.47,1.85-4.47,5.51,0,3.36,1.88,6.12,5.45,8a25,25,0,0,0,11.34,2.39,18.76,18.76,0,0,0,11.25-3.23,11.45,11.45,0,0,0,4.74-9.53C216.14,115.14,212.51,111.16,206.17,109.85Zm-7.27-12c0-1.13.2-1.13.58-1.13a2.23,2.23,0,0,1,.58,0,2.33,2.33,0,0,1,.14,1.08c0,1.4-.17,1.4-.72,1.4a1.17,1.17,0,0,1-.38,0h0S198.9,99,198.9,97.86Zm4,23.57c-.06.2-.94.77-3.11.77a7.38,7.38,0,0,1-2.41-.37l4.44-1.2C202.92,121,202.92,121.2,202.92,121.43Z"/><path class="cls-2" d="M50.92,74.68H40.13a1.74,1.74,0,0,0-1.74,1.74V90.73L30.32,75.6a1.75,1.75,0,0,0-1.54-.92H19a1.74,1.74,0,0,0-1.75,1.74v40.31A1.75,1.75,0,0,0,19,118.48H29.74a1.75,1.75,0,0,0,1.75-1.75v-12.9l7.92,13.77a1.76,1.76,0,0,0,1.52.88h10a1.75,1.75,0,0,0,1.74-1.75V76.42A1.74,1.74,0,0,0,50.92,74.68Z"/><path class="cls-2" d="M127,86a9.86,9.86,0,0,0-5.18,1.38V81.05l1.55,1.42a1.77,1.77,0,0,0,1.89.31,1.74,1.74,0,0,0,1-1.59V73.65a1.74,1.74,0,0,0-.58-1.3L116.43,64a1.75,1.75,0,0,0-1.17-.45h-.56a1.73,1.73,0,0,0-1.17.45l-9.31,8.39a1.74,1.74,0,0,0-.58,1.3v7.54a1.73,1.73,0,0,0,1,1.59,1.75,1.75,0,0,0,1.88-.31l1.55-1.42v35.68a1.76,1.76,0,0,0,1.75,1.75h10.22a1.75,1.75,0,0,0,1.74-1.75V98.6a.77.77,0,0,1,.81-.85c.17,0,.36,0,.36,1.1v17.88a1.75,1.75,0,0,0,1.74,1.75H135a1.76,1.76,0,0,0,1.75-1.75V97.37c0-3.73-1-6.63-2.84-8.62A9.17,9.17,0,0,0,127,86Z"/><path class="cls-2" d="M153.06,107.89c-1.55,0-1.55,0-1.55-.75V88.34a1.75,1.75,0,0,0-.62-1.33,1.73,1.73,0,0,0-1.42-.39l-10.22,1.76a1.75,1.75,0,0,0-1.45,1.72V109c0,6.51,3.69,10.09,10.39,10.09a25.52,25.52,0,0,0,5.23-.6,1.75,1.75,0,0,0,1.38-1.71v-7.1A1.74,1.74,0,0,0,153.06,107.89Z"/><path class="cls-2" d="M181.84,88.92A10,10,0,0,0,174.43,86a10.46,10.46,0,0,0-7.68,3,10.35,10.35,0,0,0-7.31-2.72,12.76,12.76,0,0,0-4.86,1,1.75,1.75,0,0,0-1,1.59v6.81a1.75,1.75,0,0,0,1.75,1.75c1.09,0,1.09,0,1.09,1.21v18a1.75,1.75,0,0,0,1.75,1.75h10.22a1.75,1.75,0,0,0,1.74-1.75V98.6c.05-.31.22-.85.81-.85a.37.37,0,0,1,.16,0s.08.08.08.45v18.51a1.76,1.76,0,0,0,1.75,1.75h10.22a1.75,1.75,0,0,0,1.74-1.75V97.94C184.86,94,183.85,91,181.84,88.92Z"/><path class="cls-2" d="M106.14,108.28a1.78,1.78,0,0,0-1.38-.37,21.94,21.94,0,0,1-2.39.09c-2,0-2.56-.54-2.56-2.51v-8h5a1.74,1.74,0,0,0,1.74-1.75V88.63a1.75,1.75,0,0,0-1.74-1.75h-5V80.49a1.75,1.75,0,0,0-1.64-1.74L88,78.1h-.1a1.7,1.7,0,0,0-1.19.48,1.76,1.76,0,0,0-.56,1.27v6a1.15,1.15,0,0,0,0,.19v.89H83.92a1.75,1.75,0,0,0-1.74,1.75v7.09a1.74,1.74,0,0,0,1.74,1.75H86.1v9.67c0,4.26,1.43,7.51,4.25,9.64a14.49,14.49,0,0,0,8.79,2.55,23.52,23.52,0,0,0,6.76-1,1.73,1.73,0,0,0,1.17-1.72l-.28-7.1A1.73,1.73,0,0,0,106.14,108.28Z"/><polygon class="cls-4" points="40.13 98.11 38.77 95.16 28.78 76.42 18.96 76.42 18.96 116.73 29.74 116.73 29.74 96.81 31.39 100.15 40.93 116.73 50.92 116.73 50.92 76.42 40.13 76.42 40.13 98.11"/><path class="cls-4" d="M68.22,87.78c-6.76,0-12.09,4-12.32,10.27-.11,3.24-.11,6.3,0,9.31.28,6.3,5.51,10.22,12.32,10.22s12-3.92,12.26-10.16c.12-3.18.12-6.64,0-9.37C80.2,91.81,75,87.78,68.22,87.78Zm2,19.13c-.05,1.47-.91,2.44-2,2.44a2.26,2.26,0,0,1-2.1-2.44c-.11-2.61-.11-6,0-8.57A2.26,2.26,0,0,1,68.22,96a2.22,2.22,0,0,1,2,2.33C70.38,101.12,70.38,104.47,70.26,106.91Z"/><path class="cls-4" d="M127,87.78a7.54,7.54,0,0,0-6.81,3.74h-.11V77.07l4.47,4.12V73.64l-9.31-8.38h-.56l-9.31,8.38v7.55l4.48-4.12v39.66h10.22V98.56A2.53,2.53,0,0,1,122.64,96c1.59,0,2.1,1.19,2.1,2.84v17.88H135V97.37C135,90.39,131.33,87.78,127,87.78Z"/><path class="cls-4" d="M149.76,107.14V88.34L139.55,90.1V109c0,9.37,8.45,8.86,13.51,7.78v-7.1C151.13,109.63,149.76,109.35,149.76,107.14Z"/><path class="cls-4" d="M174.43,87.78a8.49,8.49,0,0,0-7.61,4h-.11a8.17,8.17,0,0,0-7.27-3.69,11.13,11.13,0,0,0-4.14.85v6.81c2.16,0,2.84.8,2.84,3v18h10.22V98.45A2.6,2.6,0,0,1,170.91,96a2,2,0,0,1,2,2.21v18.51h10.22V97.94C183.12,90.67,179.26,87.78,174.43,87.78Z"/><path class="cls-4" d="M205.82,111.56c-3.12-.62-6.75-.9-9.31-1.36-.68-.11-1-.4-1-1.13a1.4,1.4,0,0,1,.91-1.14,15.9,15.9,0,0,0,3.29.28c6.93,0,11.3-3.4,11.3-8.28a4.72,4.72,0,0,0-3.12-4.83v-.17c.85.17,4,.4,6.19.51a45.59,45.59,0,0,0,.05-6.81h-9.53a14.84,14.84,0,0,0-5.06-.85c-6.47,0-12.26,3.46-12.26,10.22a9.1,9.1,0,0,0,4.48,8.28c-2.66,1.14-4.76,2.84-4.76,5.91,0,3.35,2.55,5,5.39,5.56l1.87.29v.28l-2.78.28s-1.65.29-3.06.68c-2.33.69-3.3,1.59-3.3,3.86,0,5.68,7,8.63,15.05,8.63,8.23,0,14.25-4,14.25-11C214.4,115.82,211.05,112.64,205.82,111.56Zm-6.3-15.84a1.94,1.94,0,0,1,2,2.22c0,1.47-.74,2.33-2,2.33s-2-1-2-2.33A2,2,0,0,1,199.52,95.72Zm.34,28.11c-2.55,0-4.48-1-4.48-2.33,0-.74.57-1,1.59-1.31l4.6-1.25c1.87.46,2.66,1.2,2.66,2.5S202.76,123.83,199.86,123.83Z"/><path class="cls-4" d="M102.37,109.75c-2.78,0-4.31-1.14-4.31-4.26V96.85h0V95.72h6.75V88.63H98.07V80.49l-10.22-.65V86h0v2.65H83.92v7.09h3.92v11.42c0,8.06,5.74,10.44,11.3,10.44a22.09,22.09,0,0,0,6.19-.85l-.29-7.1A20.26,20.26,0,0,1,102.37,109.75Z"/><path d="M71.3,63l10.22,0a.65.65,0,0,0,.65-.65l0-43.15a.69.69,0,0,0-.23-.5.66.66,0,0,0-.43-.15h-.1L71.11,20.28a.66.66,0,0,0-.54.65l.08,41.44A.65.65,0,0,0,71.3,63Z"/><path d="M41.39,62.48l1.26-6.57h8.57l1.21,6.57a.64.64,0,0,0,.64.53H64.71a.65.65,0,0,0,.51-.25.63.63,0,0,0,.12-.55l-9.19-40.3a.66.66,0,0,0-.64-.51H39.33a.65.65,0,0,0-.63.5L29.05,62.21a.61.61,0,0,0,.12.55.63.63,0,0,0,.51.25H40.75A.65.65,0,0,0,41.39,62.48Zm5.51-28.1.21-1.3.21,1.29,2,11.16H44.72Z"/><path d="M98.2,71.79a.66.66,0,0,0,.44.17h.56a.66.66,0,0,0,.44-.17L109,63.4a.65.65,0,0,0,.21-.48V55.38a.66.66,0,0,0-.39-.6.75.75,0,0,0-.26-.05.66.66,0,0,0-.44.17L104.68,58V19.27a.64.64,0,0,0-.23-.5.66.66,0,0,0-.42-.15h-.11L93.7,20.33a.65.65,0,0,0-.54.64V58L89.78,54.9a.67.67,0,0,0-.44-.17.86.86,0,0,0-.27.05.67.67,0,0,0-.39.6v7.54a.62.62,0,0,0,.22.48Z"/><path class="cls-2" d="M81.55,16.81a2.29,2.29,0,0,0-.39,0L70.82,18.56a2.4,2.4,0,0,0-2,2.37l.08,41.44a2.4,2.4,0,0,0,2.4,2.39h0l10.22,0a2.38,2.38,0,0,0,1.69-.7,2.33,2.33,0,0,0,.7-1.69L84,19.2a2.38,2.38,0,0,0-.85-1.83A2.42,2.42,0,0,0,81.55,16.81Z"/><path class="cls-2" d="M57.85,21.52a2.38,2.38,0,0,0-2.34-1.86H39.33A2.39,2.39,0,0,0,37,21.49L27.35,61.8a2.39,2.39,0,0,0,2.33,3H40.75a2.38,2.38,0,0,0,2.35-1.94l1-5.15h5.68l.94,5.13a2.39,2.39,0,0,0,2.36,2H64.71a2.36,2.36,0,0,0,1.87-.9,2.34,2.34,0,0,0,.46-2Zm-9.7,22.71H45.94l1.11-5.6Z"/><path class="cls-2" d="M110.9,55.38a2.39,2.39,0,0,0-4-1.76l-.46.42V19.27a2.39,2.39,0,0,0-.85-1.83,2.42,2.42,0,0,0-1.94-.53l-10.22,1.7a2.39,2.39,0,0,0-2,2.36V54L91,53.62a2.42,2.42,0,0,0-2.59-.43,2.39,2.39,0,0,0-1.43,2.19v7.54a2.4,2.4,0,0,0,.79,1.78L97,73.09a2.42,2.42,0,0,0,1.6.61h.56a2.42,2.42,0,0,0,1.61-.61l9.3-8.39a2.37,2.37,0,0,0,.8-1.78Z"/><path class="cls-5" d="M71.3,63a.65.65,0,0,1-.65-.65l-.08-41.44a.66.66,0,0,1,.54-.65l10.34-1.72h.1a.66.66,0,0,1,.43.15.69.69,0,0,1,.23.5l0,43.15a.65.65,0,0,1-.65.65Z"/><path class="cls-5" d="M53.07,63a.64.64,0,0,1-.64-.53l-1.21-6.57H42.65l-1.26,6.57a.65.65,0,0,1-.64.53H29.68a.63.63,0,0,1-.51-.25.61.61,0,0,1-.12-.55L38.7,21.9a.65.65,0,0,1,.63-.5H55.51a.66.66,0,0,1,.64.51l9.19,40.3a.63.63,0,0,1-.12.55.65.65,0,0,1-.51.25ZM49.34,45.53l-2-11.16-.21-1.29-.21,1.3L44.72,45.53Z"/><path class="cls-5" d="M109.16,55.38a.66.66,0,0,0-.39-.6.75.75,0,0,0-.26-.05.66.66,0,0,0-.44.17L104.68,58V19.27a.64.64,0,0,0-.23-.5.66.66,0,0,0-.42-.15h-.11L93.7,20.33a.65.65,0,0,0-.54.64V58L89.78,54.9a.67.67,0,0,0-.44-.17.86.86,0,0,0-.27.05.67.67,0,0,0-.39.6v7.54a.62.62,0,0,0,.22.48l9.3,8.39a.66.66,0,0,0,.44.17h.56a.66.66,0,0,0,.44-.17L109,63.4a.65.65,0,0,0,.21-.48Z"/><path class="cls-6" d="M131.93,54.33a15.38,15.38,0,0,1,1.17-6.16A9.25,9.25,0,0,1,136.47,44a9.06,9.06,0,0,1,5.14-1.45,8.68,8.68,0,0,1,7.12,3.21q2.6,3.21,2.6,8.75v.25q0,5.4-2.61,8.57a9.49,9.49,0,0,1-14,.22,12.52,12.52,0,0,1-2.81-8Zm6.26.45a9.56,9.56,0,0,0,.88,4.7A2.8,2.8,0,0,0,141.65,61q3.34,0,3.42-5.91v-.73q0-6.21-3.46-6.21-3.13,0-3.4,5.36Z"/><path class="cls-7" d="M167.94,49.51l-2.37-.17q-3.39,0-4.35,2.13V66.1H154V43h6.75l.23,3q1.81-3.39,5.06-3.39a7.08,7.08,0,0,1,2,.25Z"/></g><g id="Trademark"><path class="cls-3" d="M218.88,86.51H222v.58h-1.23v3.28h-.67V87.09h-1.23Z"/><path class="cls-3" d="M222.59,86.51h1l1.06,3h0l1-3h.94v3.86H226v-3h0l-1.07,3h-.56l-1.07-3h0v3h-.65Z"/></g><g id="HIghlights"><g class="cls-8"><polygon class="cls-9" points="102.82 19.47 102.82 50.99 102.82 50.99 102.82 51.05 102.82 58.29 104.03 57.18 104.03 52.26 104.03 52.2 104.03 52.2 104.03 19.27 102.82 19.47"/><polygon class="cls-9" points="108.51 55.38 107.3 56.49 107.3 61.71 98 70.1 97.71 70.1 97.3 70.1 98.64 71.31 98.92 71.31 99.2 71.31 108.51 62.92 108.51 55.38"/></g><polygon class="cls-10" points="81.56 19.2 80.34 19.4 80.29 50.92 80.29 50.92 80.29 50.98 80.31 61.08 80.31 61.14 71.3 61.16 71.3 62.37 81.52 62.35 81.52 62.28 81.5 52.19 81.5 52.13 81.5 52.13 81.56 19.2"/><g class="cls-8"><polygon class="cls-9" points="45.05 33.05 42.72 44.97 44.16 44.97 46.26 34.26 46.6 32.13 45.9 27.83 45.05 33.05"/><polygon class="cls-9" points="55.51 22.05 54.58 22.05 63.5 61.15 52.85 61.15 53.07 62.36 64.71 62.36 55.51 22.05"/><polygon class="cls-9" points="50.56 54.05 40.91 54.05 39.54 61.15 29.97 61.15 29.68 62.36 40.75 62.36 42.11 55.26 50.78 55.26 50.56 54.05"/></g><g class="cls-8"><polygon class="cls-10" points="28.54 94.29 28.54 115.52 18.96 115.52 18.96 116.73 29.74 116.73 29.74 97.7 28.54 94.29"/><polygon class="cls-10" points="49.71 76.42 49.71 115.52 40.23 115.52 40.93 116.73 50.92 116.73 50.92 76.42 49.71 76.42"/><path class="cls-10" d="M66.36,108a3,3,0,0,1-.24-1.12c-.11-2.61-.11-6,0-8.57A2.26,2.26,0,0,1,68.22,96a1.77,1.77,0,0,1,.61.1A2,2,0,0,0,67,94.8a2.27,2.27,0,0,0-2.1,2.33c-.11,2.55-.11,6,0,8.57A2.45,2.45,0,0,0,66.36,108Z"/><path class="cls-10" d="M80.48,98.05a10.06,10.06,0,0,0-3.56-7.36,10.12,10.12,0,0,1,2.35,6.15c.12,2.73.12,6.19,0,9.37-.22,6.25-5.45,10.16-12.26,10.16a13.46,13.46,0,0,1-8.79-2.9c2.2,2.62,5.8,4.11,10,4.11,6.81,0,12-3.92,12.26-10.16C80.6,104.24,80.6,100.78,80.48,98.05Z"/><polygon class="cls-10" points="96.86 87.42 98.07 87.42 98.07 80.49 96.86 80.41 96.86 87.42"/><path class="cls-10" d="M104.82,88.63h-1.21v5.89H96.86v1.12h0v8.64c0,2,.6,3.13,1.73,3.74a5.35,5.35,0,0,1-.52-2.53V96.85h0V95.72h6.75Z"/><path class="cls-10" d="M105,109.63a10.5,10.5,0,0,1-1.15.1l.23,5.79a22.09,22.09,0,0,1-6.19.85,12.59,12.59,0,0,1-8-2.4c2.17,2.68,5.72,3.61,9.2,3.61a22.09,22.09,0,0,0,6.19-.85Z"/><path class="cls-10" d="M123.36,80l-4.48-4.12V90.32H119a7.83,7.83,0,0,1,1.1-1.44V77.07l4.47,4.12V73.64l-1.21-1.08Z"/><path class="cls-10" d="M131.84,89.27a11,11,0,0,1,1.91,6.89v19.36h-9v1.21H135V97.37C135,93.3,133.73,90.72,131.84,89.27Z"/><polygon class="cls-10" points="108.66 75.86 105.39 78.87 105.39 81.19 108.66 78.18 108.66 75.86"/><path class="cls-10" d="M121.43,94.8a2.54,2.54,0,0,0-2.55,2.56v18.16h-9v1.21h10.22V98.56A2.53,2.53,0,0,1,122.64,96a2.82,2.82,0,0,1,.68.08A1.82,1.82,0,0,0,121.43,94.8Z"/><path class="cls-10" d="M148.56,88.55v17.38c0,1.35.51,2,1.35,2.27a3.26,3.26,0,0,1-.15-1.06V88.34Z"/><path class="cls-10" d="M151.85,109.57v6c-3.23.69-7.85,1.15-10.76-1,2.67,3.54,8.24,3,12,2.26v-7.1A9.15,9.15,0,0,1,151.85,109.57Z"/><path class="cls-10" d="M179.84,89.47a11.44,11.44,0,0,1,2.07,7.26v18.79h-9v1.21h10.22V97.94C183.12,93.77,181.84,91,179.84,89.47Z"/><path class="cls-10" d="M169.7,94.8a2.61,2.61,0,0,0-2.55,2.44v18.28h-9v1.21h10.22V98.45A2.6,2.6,0,0,1,170.91,96a2.27,2.27,0,0,1,.65.09A1.82,1.82,0,0,0,169.7,94.8Z"/><path class="cls-10" d="M212.85,94.23c-2.22-.11-5.34-.34-6.19-.51v.17A4.72,4.72,0,0,1,208.43,95c1.26.16,3.76.33,5.63.43a45.59,45.59,0,0,0,.05-6.81H213A49.7,49.7,0,0,1,212.85,94.23Z"/><path class="cls-10" d="M198.32,94.52a2,2,0,0,0-2,2.21A2.07,2.07,0,0,0,197.69,99a3.39,3.39,0,0,1-.15-1,2,2,0,0,1,2-2.22,2.59,2.59,0,0,1,.71.1A1.81,1.81,0,0,0,198.32,94.52Z"/><path class="cls-10" d="M211.32,114a8.53,8.53,0,0,1,1.87,5.53c0,7-6,11-14.25,11-5,0-9.65-1.16-12.41-3.42,2.45,3,7.78,4.62,13.62,4.62,8.23,0,14.25-4,14.25-11A8.42,8.42,0,0,0,211.32,114Z"/><path class="cls-10" d="M209,95.65a5.37,5.37,0,0,1,.83,3.07c0,4.88-4.37,8.29-11.29,8.29a16,16,0,0,1-3.3-.29,1.4,1.4,0,0,0-.91,1.14c0,.74.35,1,1,1.13l.18,0a1.43,1.43,0,0,1,.91-1.1,15.9,15.9,0,0,0,3.29.28c6.93,0,11.3-3.4,11.3-8.28A4.84,4.84,0,0,0,209,95.65Z"/><path class="cls-10" d="M195.46,122a1.5,1.5,0,0,1-.08-.47c0-.74.57-1,1.59-1.31l4.6-1.25a6.51,6.51,0,0,1,1.32.46c-.3-.8-1.1-1.32-2.53-1.66l-4.6,1.25c-1,.28-1.59.56-1.59,1.3A2,2,0,0,0,195.46,122Z"/></g><g class="cls-8"><path class="cls-9" d="M160.1,45.06a9.1,9.1,0,0,1,.74-1.15l-.07-.91h-.83Z"/><path class="cls-9" d="M167.15,42.64l-.11,6-2.37-.17c-2.26,0-3.72.72-4.36,2.14V65.2H154v.9h7.2V51.47q1-2.13,4.35-2.13l2.37.17.13-6.69A6,6,0,0,0,167.15,42.64Z"/><path class="cls-9" d="M139.21,59.67a2.31,2.31,0,0,1-.14-.19,9.56,9.56,0,0,1-.88-4.7l0-1.3q.27-5.35,3.4-5.36a2.93,2.93,0,0,1,1.5.38,2.74,2.74,0,0,0-2.4-1.28c-2.09,0-3.23,1.78-3.4,5.36l0,1.3a9.72,9.72,0,0,0,.87,4.7A3.15,3.15,0,0,0,139.21,59.67Z"/><path class="cls-9" d="M148.73,45.78a9.9,9.9,0,0,0-1.11-1.13c.06.08.14.15.2.23,1.74,2.14,2.6,5.06,2.6,8.74v.26q0,5.4-2.61,8.57a8.64,8.64,0,0,1-7.06,3.17,8.88,8.88,0,0,1-6.05-2.12l.06.07a9.49,9.49,0,0,0,14-.22q2.61-3.16,2.61-8.57v-.25Q151.33,49,148.73,45.78Z"/></g></g></g></svg>