<?xml version="1.0" encoding="utf-8"?>
<!-- Generator: Adobe Illustrator 18.0.0, SVG Export Plug-In . SVG Version: 6.00 Build 0)  -->
<!DOCTYPE svg PUBLIC "-//W3C//DTD SVG 1.1//EN" "http://www.w3.org/Graphics/SVG/1.1/DTD/svg11.dtd">
<svg version="1.1" id="Layer_1" xmlns="http://www.w3.org/2000/svg" xmlns:xlink="http://www.w3.org/1999/xlink" x="0px" y="0px"
	 viewBox="0 0 460 241" enable-background="new 0 0 460 241" xml:space="preserve">
<g>
	<circle fill="#FFF200" cx="349.1" cy="129.6" r="101.7"/>
</g>
<path fill="#00AB67" d="M12.6,98.2h41.6c28.6,0,42.3,10.2,42.3,35.4c0,23.5-12.3,33-38.1,33h-11v28.6H12.6V98.2z M47.6,141.3H53
	c6.8,0,10.3-3,10.3-8c0-5-3.5-8.1-10.3-8.1h-5.4V141.3z M101.4,98.2h35.4v97h-35.4V98.2z M196.3,127.6c-11.3,0-19,7.5-19,19.3
	c0,11.1,6.9,18.7,18.3,18.7c7.2,0,13.8-3.3,21.6-9l-1.1,36.5c-7.7,3.1-15.2,4.6-22.8,4.6c-11.8,0-22.7-3.5-31.5-10
	c-13-9.6-20.1-23.9-20.1-40.8c0-29.4,21.8-51,52-51c7.9,0,15.3,1.6,22.8,4.9v35.9C210.1,130.6,203.6,127.6,196.3,127.6z M223.9,98.2
	h34.2v41.4l22.1-41.4h39.5l-29.3,47.7l33.4,49.2h-42.2l-23.5-40.6v40.6h-34.2V98.2z"/>
<path d="M18.2,59.4h4.7c2.8,0,4.9,0.3,6.4,1c2.8,1.4,4.3,4,4.3,7.1c0,2.7-1.2,5-3.3,6.5c-2.1,1.4-4.6,1.6-7.8,1.6h-4.3V59.4z
	 M27.7,67.5c0-2.1-1.2-3.1-3.5-3.1c-0.1,0-0.2,0-0.2,0v6.3C26.5,70.6,27.7,69.7,27.7,67.5z M75.4,59.4h6.5l5.7,16.2h-6.2l-0.5-2
	h-4.4l-0.5,2h-6.2L75.4,59.4z M79.8,69.7l-0.5-1.8c-0.2-0.9-0.6-2-0.7-3.5h-0.1c-0.1,1.6-0.4,2.7-0.7,3.5l-0.5,1.8H79.8z
	 M129.8,59.4h5.9v16.2h-5.9V59.4z M180.5,59.4h5.8v10.9h5.7v5.2h-11.5V59.4z M233,68.4l-5.4-9h6.6l1.4,3.1c0.2,0.4,0.3,0.8,0.5,1.3
	c0.2-0.5,0.3-0.9,0.5-1.3l1.3-3.1h6.6l-5.6,9v7.1H233V68.4z"/>
<path fill="#00AB67" d="M370.4,125.1v32.1c0,6.3,1.4,9,5.7,9c3.6,0,5.7-2,5.7-5.9c0-0.2,0-1.4,0-3.2v-32.3c0-6.8-3.6-10.9-8.8-10.9
	h-13.6V81h13.6c8.8,0,8.8-4.1,8.8-13.3v-17c0-6.1-0.9-9.3-5.7-9.3c-5.2,0-5.7,3.4-5.7,9.3v17.9h-38.9V49.4
	c0-33.2,4.5-38.4,44.3-38.4c38.4,0,44.8,4.5,44.8,38.4v14c0,18.1-2.5,28.7-18.1,34.6c16.5,5.9,18.1,14.7,18.1,34.1v26
	c0,33.7-5.4,38.4-44.5,38.4c-38.2,0-44.5-4.1-44.5-38.4v-33H370.4z"/>
<g>
	<path d="M431.8,219.6H430v-7.5h-1.8v-1.5h5.4v1.5h-1.8V219.6z"/>
	<path d="M441,214L441,214l-2.1,5.7h-0.6l-2-5.7h0l-0.8,5.6h-1.8l1.5-9.3h1.2l2.2,6l2.1-6h1.3l1.4,9.3h-1.8L441,214z"/>
</g>
</svg>
